%TF.GenerationSoftware,KiCad,Pcbnew,9.0.4*%
%TF.CreationDate,2026-01-28T15:28:05+01:00*%
%TF.ProjectId,ShiroFPV_Flight_Controller,53686972-6f46-4505-965f-466c69676874,2026-01-27*%
%TF.SameCoordinates,PX7bfa480PYb532b80*%
%TF.FileFunction,Paste,Bot*%
%TF.FilePolarity,Positive*%
%FSLAX46Y46*%
G04 Gerber Fmt 4.6, Leading zero omitted, Abs format (unit mm)*
G04 Created by KiCad (PCBNEW 9.0.4) date 2026-01-28 15:28:05*
%MOMM*%
%LPD*%
G01*
G04 APERTURE LIST*
G04 Aperture macros list*
%AMRoundRect*
0 Rectangle with rounded corners*
0 $1 Rounding radius*
0 $2 $3 $4 $5 $6 $7 $8 $9 X,Y pos of 4 corners*
0 Add a 4 corners polygon primitive as box body*
4,1,4,$2,$3,$4,$5,$6,$7,$8,$9,$2,$3,0*
0 Add four circle primitives for the rounded corners*
1,1,$1+$1,$2,$3*
1,1,$1+$1,$4,$5*
1,1,$1+$1,$6,$7*
1,1,$1+$1,$8,$9*
0 Add four rect primitives between the rounded corners*
20,1,$1+$1,$2,$3,$4,$5,0*
20,1,$1+$1,$4,$5,$6,$7,0*
20,1,$1+$1,$6,$7,$8,$9,0*
20,1,$1+$1,$8,$9,$2,$3,0*%
G04 Aperture macros list end*
%ADD10RoundRect,0.225000X-0.225000X-0.250000X0.225000X-0.250000X0.225000X0.250000X-0.225000X0.250000X0*%
%ADD11RoundRect,0.225000X0.250000X-0.225000X0.250000X0.225000X-0.250000X0.225000X-0.250000X-0.225000X0*%
%ADD12RoundRect,0.200000X0.275000X-0.200000X0.275000X0.200000X-0.275000X0.200000X-0.275000X-0.200000X0*%
%ADD13RoundRect,0.250000X-0.375000X-0.625000X0.375000X-0.625000X0.375000X0.625000X-0.375000X0.625000X0*%
%ADD14RoundRect,0.200000X-0.275000X0.200000X-0.275000X-0.200000X0.275000X-0.200000X0.275000X0.200000X0*%
%ADD15RoundRect,0.225000X0.225000X0.250000X-0.225000X0.250000X-0.225000X-0.250000X0.225000X-0.250000X0*%
%ADD16RoundRect,0.150000X0.587500X0.150000X-0.587500X0.150000X-0.587500X-0.150000X0.587500X-0.150000X0*%
%ADD17RoundRect,0.225000X-0.250000X0.225000X-0.250000X-0.225000X0.250000X-0.225000X0.250000X0.225000X0*%
%ADD18RoundRect,0.250000X0.650000X-0.325000X0.650000X0.325000X-0.650000X0.325000X-0.650000X-0.325000X0*%
%ADD19RoundRect,0.200000X0.200000X0.275000X-0.200000X0.275000X-0.200000X-0.275000X0.200000X-0.275000X0*%
%ADD20RoundRect,0.250000X0.250000X0.250000X-0.250000X0.250000X-0.250000X-0.250000X0.250000X-0.250000X0*%
%ADD21RoundRect,0.150000X0.150000X-0.512500X0.150000X0.512500X-0.150000X0.512500X-0.150000X-0.512500X0*%
%ADD22RoundRect,0.112500X-0.112500X-0.237500X0.112500X-0.237500X0.112500X0.237500X-0.112500X0.237500X0*%
%ADD23RoundRect,0.250000X-0.650000X0.325000X-0.650000X-0.325000X0.650000X-0.325000X0.650000X0.325000X0*%
%ADD24RoundRect,0.250001X-0.999999X0.499999X-0.999999X-0.499999X0.999999X-0.499999X0.999999X0.499999X0*%
%ADD25RoundRect,0.150000X0.512500X0.150000X-0.512500X0.150000X-0.512500X-0.150000X0.512500X-0.150000X0*%
%ADD26RoundRect,0.250000X0.325000X0.650000X-0.325000X0.650000X-0.325000X-0.650000X0.325000X-0.650000X0*%
%ADD27RoundRect,0.150000X-0.150000X0.587500X-0.150000X-0.587500X0.150000X-0.587500X0.150000X0.587500X0*%
%ADD28RoundRect,0.250001X-0.499999X-0.999999X0.499999X-0.999999X0.499999X0.999999X-0.499999X0.999999X0*%
%ADD29RoundRect,0.200000X-0.200000X-0.275000X0.200000X-0.275000X0.200000X0.275000X-0.200000X0.275000X0*%
%ADD30RoundRect,0.150000X-0.587500X-0.150000X0.587500X-0.150000X0.587500X0.150000X-0.587500X0.150000X0*%
G04 APERTURE END LIST*
D10*
%TO.C,C5*%
X-75413148Y145247500D03*
X-73863148Y145247500D03*
%TD*%
D11*
%TO.C,C17*%
X-61593148Y147207500D03*
X-61593148Y148757500D03*
%TD*%
D12*
%TO.C,R21*%
X-58250648Y126002500D03*
X-58250648Y127652500D03*
%TD*%
D13*
%TO.C,F1*%
X-85225648Y138242500D03*
X-82425648Y138242500D03*
%TD*%
D14*
%TO.C,R22*%
X-71415648Y138277500D03*
X-71415648Y136627500D03*
%TD*%
D15*
%TO.C,C2*%
X-67408148Y146582500D03*
X-68958148Y146582500D03*
%TD*%
D16*
%TO.C,Q2*%
X-60003148Y140977500D03*
X-60003148Y139077500D03*
X-61878148Y140027500D03*
%TD*%
D17*
%TO.C,C15*%
X-65968148Y148757500D03*
X-65968148Y147207500D03*
%TD*%
D12*
%TO.C,R2*%
X-64508148Y147157500D03*
X-64508148Y148807500D03*
%TD*%
D15*
%TO.C,C20*%
X-57530648Y121017500D03*
X-59080648Y121017500D03*
%TD*%
D18*
%TO.C,C14*%
X-64985648Y122582500D03*
X-64985648Y125532500D03*
%TD*%
D19*
%TO.C,R11*%
X-82193148Y140282500D03*
X-83843148Y140282500D03*
%TD*%
D20*
%TO.C,D1*%
X-77263148Y141982500D03*
X-79763148Y141982500D03*
%TD*%
D14*
%TO.C,R5*%
X-72753148Y131737500D03*
X-72753148Y130087500D03*
%TD*%
D12*
%TO.C,R1*%
X-63048148Y147157500D03*
X-63048148Y148807500D03*
%TD*%
D21*
%TO.C,U6*%
X-61185648Y123160000D03*
X-62135648Y123160000D03*
X-63085648Y123160000D03*
X-63085648Y125435000D03*
X-62135648Y125435000D03*
X-61185648Y125435000D03*
%TD*%
D15*
%TO.C,C4*%
X-67838148Y126247500D03*
X-69388148Y126247500D03*
%TD*%
D14*
%TO.C,R10*%
X-72880648Y138287500D03*
X-72880648Y136637500D03*
%TD*%
D11*
%TO.C,C16*%
X-59705648Y123097500D03*
X-59705648Y124647500D03*
%TD*%
D22*
%TO.C,Q3*%
X-72833148Y135272500D03*
X-71533148Y135272500D03*
X-72183148Y133272500D03*
%TD*%
D19*
%TO.C,R8*%
X-57480648Y119562500D03*
X-59130648Y119562500D03*
%TD*%
D23*
%TO.C,C19*%
X-66158148Y120272500D03*
X-66158148Y117322500D03*
%TD*%
D24*
%TO.C,L2*%
X-62135648Y121247500D03*
X-62135648Y117547500D03*
%TD*%
D25*
%TO.C,U5*%
X-66615648Y145102500D03*
X-66615648Y144152500D03*
X-66615648Y143202500D03*
X-68890648Y143202500D03*
X-68890648Y144152500D03*
X-68890648Y145102500D03*
%TD*%
D18*
%TO.C,C18*%
X-59713148Y147332500D03*
X-59713148Y150282500D03*
%TD*%
D12*
%TO.C,R27*%
X-58250648Y123047500D03*
X-58250648Y124697500D03*
%TD*%
D26*
%TO.C,C38*%
X-67528148Y148457500D03*
X-70478148Y148457500D03*
%TD*%
D10*
%TO.C,C22*%
X-59080648Y116647500D03*
X-57530648Y116647500D03*
%TD*%
D21*
%TO.C,U7*%
X-72910648Y146890000D03*
X-73860648Y146890000D03*
X-74810648Y146890000D03*
X-74810648Y149165000D03*
X-72910648Y149165000D03*
%TD*%
D27*
%TO.C,D4*%
X-59558148Y145322500D03*
X-57658148Y145322500D03*
X-58608148Y143447500D03*
%TD*%
D14*
%TO.C,R9*%
X-62135648Y128652500D03*
X-62135648Y127002500D03*
%TD*%
D28*
%TO.C,L1*%
X-64703148Y144152500D03*
X-61003148Y144152500D03*
%TD*%
D29*
%TO.C,R7*%
X-59130648Y118107500D03*
X-57480648Y118107500D03*
%TD*%
D30*
%TO.C,Q1*%
X-80548148Y138382500D03*
X-80548148Y140282500D03*
X-78673148Y139332500D03*
%TD*%
M02*
