%TF.GenerationSoftware,KiCad,Pcbnew,9.0.4*%
%TF.CreationDate,2026-01-28T15:28:03+01:00*%
%TF.ProjectId,ShiroFPV_Flight_Controller,53686972-6f46-4505-965f-466c69676874,2026-01-27*%
%TF.SameCoordinates,PX7bfa480PYb532b80*%
%TF.FileFunction,Copper,L3,Inr*%
%TF.FilePolarity,Positive*%
%FSLAX46Y46*%
G04 Gerber Fmt 4.6, Leading zero omitted, Abs format (unit mm)*
G04 Created by KiCad (PCBNEW 9.0.4) date 2026-01-28 15:28:03*
%MOMM*%
%LPD*%
G01*
G04 APERTURE LIST*
%TA.AperFunction,HeatsinkPad*%
%ADD10O,2.100000X1.000000*%
%TD*%
%TA.AperFunction,HeatsinkPad*%
%ADD11O,1.800000X1.000000*%
%TD*%
%TA.AperFunction,ViaPad*%
%ADD12C,0.600000*%
%TD*%
%TA.AperFunction,Conductor*%
%ADD13C,0.300000*%
%TD*%
%TA.AperFunction,Conductor*%
%ADD14C,0.500000*%
%TD*%
G04 APERTURE END LIST*
D10*
%TO.N,GND*%
%TO.C,P1*%
X-55068148Y135027500D03*
D11*
X-50868148Y135027500D03*
D10*
X-55068148Y143667500D03*
D11*
X-50868148Y143667500D03*
%TD*%
D12*
%TO.N,BOOT0*%
X-72752148Y131567500D03*
%TO.N,BEEPER*%
X-59998148Y139047500D03*
X-61382768Y136502880D03*
X-68503149Y130521738D03*
%TO.N,+5V*%
X-72910648Y146890000D03*
X-74113146Y114362500D03*
X-62158148Y116012500D03*
X-81267745Y139182500D03*
X-86108146Y132412500D03*
X-64128148Y150372500D03*
X-61103148Y152362500D03*
X-58608148Y143447500D03*
X-58060017Y141251448D03*
X-70113148Y150777500D03*
%TO.N,GYRO_INIT*%
X-68453441Y141038579D03*
X-63433148Y143192500D03*
%TO.N,GND*%
X-75913148Y127512500D03*
X-60615648Y115397500D03*
X-63774648Y124321500D03*
X-65968148Y147207500D03*
X-67838148Y126247500D03*
X-74108148Y115857500D03*
X-63158148Y116102500D03*
X-61878148Y140027500D03*
X-73863148Y145247500D03*
X-83845648Y139197500D03*
X-83845648Y137685599D03*
X-59123148Y114367500D03*
X-61183148Y123122500D03*
X-72753148Y130087500D03*
X-67113148Y152367500D03*
X-75913148Y126052500D03*
X-62613148Y124322500D03*
X-72178148Y133277500D03*
X-74128148Y117617500D03*
X-59130648Y120967500D03*
X-58250648Y127652500D03*
X-70478148Y148457500D03*
%TO.N,+3.3V*%
X-80378150Y128532907D03*
X-55373148Y127747500D03*
X-70658148Y142407500D03*
X-74398148Y129787500D03*
X-67838148Y124407500D03*
X-60618148Y130512500D03*
X-74363148Y127512500D03*
X-62143148Y128662500D03*
X-74363148Y126052500D03*
X-62383148Y138552500D03*
X-73603148Y139422500D03*
X-82913148Y129677500D03*
X-72925648Y149187500D03*
X-70773148Y130267500D03*
X-82913148Y130862500D03*
%TO.N,GYRO_SCK*%
X-65373148Y141120735D03*
X-66525807Y142274785D03*
%TO.N,VIN*%
X-67528148Y148457500D03*
X-75223148Y144022500D03*
%TO.N,USBD-*%
X-59098148Y140257500D03*
X-70008148Y137852500D03*
%TO.N,ADC_RSSI*%
X-69901403Y125327501D03*
X-67939148Y118190870D03*
%TO.N,ADC_VBAT*%
X-67602500Y129472500D03*
%TO.N,FLASH_MISO*%
X-61188148Y132587500D03*
X-59348528Y132587880D03*
%TO.N,USBD+*%
X-58777791Y138802429D03*
X-70121518Y136064130D03*
%TO.N,V_OUT*%
X-81753148Y143917500D03*
X-75108148Y152367500D03*
%TO.N,VBUS*%
X-55668148Y136947500D03*
X-55668148Y141747500D03*
%TO.N,Net-(U6-FB)*%
X-61112148Y119176500D03*
X-57478148Y119177500D03*
%TO.N,9V_Enable*%
X-62135648Y127002500D03*
%TO.N,SBUS*%
X-67108148Y118447500D03*
%TO.N,ADC_CURRENT*%
X-77108148Y117187500D03*
%TO.N,UART2RX*%
X-77118148Y115907500D03*
X-68013148Y123172500D03*
X-63278148Y129202500D03*
%TO.N,UART3TX*%
X-62798386Y141601501D03*
X-65099407Y137185922D03*
%TO.N,UART3RX*%
X-64299462Y137195538D03*
X-62006548Y141487500D03*
%TO.N,UART6TX*%
X-72113148Y150367500D03*
X-66163148Y134942500D03*
%TO.N,UART6RX*%
X-74113148Y150367500D03*
X-66859899Y134389251D03*
%TO.N,UART1TX*%
X-73113148Y150368500D03*
X-69763148Y141415380D03*
%TO.N,UART1RX*%
X-70688148Y141087500D03*
X-71522020Y146150000D03*
%TO.N,UART5TX*%
X-72833148Y135272500D03*
X-68589148Y118840869D03*
%TO.N,UART5RX*%
X-68589148Y119640872D03*
X-72813148Y134267500D03*
%TO.N,M1*%
X-76948148Y134997500D03*
%TO.N,M2*%
X-77623148Y134347500D03*
%TO.N,M3*%
X-78288148Y132937500D03*
%TO.N,M4*%
X-78923394Y132087500D03*
%TO.N,BEEPER_B-*%
X-66118148Y150777500D03*
X-58288148Y146852500D03*
X-60003148Y140977500D03*
%TO.N,+10V*%
X-62135648Y117547500D03*
X-69113148Y152367500D03*
%TO.N,Net-(U1-NRST)*%
X-69623148Y126247500D03*
%TD*%
D13*
%TO.N,GYRO_INIT*%
X-68453441Y141352207D02*
X-66613148Y143192500D01*
X-66613148Y143192500D02*
X-63433148Y143192500D01*
X-68453441Y141038579D02*
X-68453441Y141352207D01*
D14*
%TO.N,GND*%
X-67838148Y126247500D02*
X-65700648Y126247500D01*
X-65700648Y126247500D02*
X-63774648Y124321500D01*
D13*
%TO.N,USBD-*%
X-60203802Y140257500D02*
X-59098148Y140257500D01*
X-60783802Y140837500D02*
X-60203802Y140257500D01*
X-65103494Y140370027D02*
X-64636021Y140837500D01*
X-70008148Y137852500D02*
X-67490621Y140370027D01*
X-67490621Y140370027D02*
X-65103494Y140370027D01*
X-64636021Y140837500D02*
X-60783802Y140837500D01*
%TO.N,USBD+*%
X-60267802Y139698500D02*
X-59673862Y139698500D01*
X-61999840Y139317154D02*
X-60649148Y139317154D01*
X-70121518Y136064130D02*
X-67038148Y139147500D01*
X-60649148Y139317154D02*
X-60267802Y139698500D01*
X-62708802Y139147500D02*
X-62652802Y139203500D01*
X-62652802Y139203500D02*
X-62113494Y139203500D01*
X-59673862Y139698500D02*
X-58777791Y138802429D01*
X-62113494Y139203500D02*
X-61999840Y139317154D01*
X-67038148Y139147500D02*
X-62708802Y139147500D01*
%TD*%
%TA.AperFunction,Conductor*%
%TO.N,+3.3V*%
G36*
X-75886243Y152847315D02*
G01*
X-75840488Y152794511D01*
X-75830544Y152725353D01*
X-75838721Y152695547D01*
X-75877885Y152600998D01*
X-75877887Y152600990D01*
X-75908648Y152446347D01*
X-75908648Y152288654D01*
X-75877887Y152134011D01*
X-75877884Y152133999D01*
X-75817546Y151988328D01*
X-75817539Y151988315D01*
X-75729938Y151857212D01*
X-75729935Y151857208D01*
X-75618441Y151745714D01*
X-75618437Y151745711D01*
X-75487334Y151658110D01*
X-75487321Y151658103D01*
X-75341650Y151597765D01*
X-75341645Y151597763D01*
X-75242290Y151578000D01*
X-75186995Y151567001D01*
X-75186992Y151567000D01*
X-75186990Y151567000D01*
X-75029304Y151567000D01*
X-75029303Y151567001D01*
X-74874651Y151597763D01*
X-74741040Y151653106D01*
X-74728976Y151658103D01*
X-74728976Y151658104D01*
X-74728969Y151658106D01*
X-74597859Y151745711D01*
X-74486359Y151857211D01*
X-74398754Y151988321D01*
X-74338411Y152134003D01*
X-74307648Y152288658D01*
X-74307648Y152446342D01*
X-74307648Y152446345D01*
X-74307649Y152446347D01*
X-74338411Y152600997D01*
X-74377576Y152695549D01*
X-74385044Y152765017D01*
X-74353769Y152827496D01*
X-74293680Y152863148D01*
X-74263014Y152867000D01*
X-69958282Y152867000D01*
X-69891243Y152847315D01*
X-69845488Y152794511D01*
X-69835544Y152725353D01*
X-69843721Y152695547D01*
X-69882885Y152600998D01*
X-69882887Y152600990D01*
X-69913648Y152446347D01*
X-69913648Y152288654D01*
X-69882887Y152134011D01*
X-69882884Y152133999D01*
X-69822546Y151988328D01*
X-69822539Y151988315D01*
X-69734938Y151857212D01*
X-69734935Y151857208D01*
X-69623441Y151745714D01*
X-69623437Y151745711D01*
X-69492334Y151658110D01*
X-69492321Y151658103D01*
X-69346650Y151597765D01*
X-69346645Y151597763D01*
X-69247290Y151578000D01*
X-69191995Y151567001D01*
X-69191992Y151567000D01*
X-69191990Y151567000D01*
X-69034304Y151567000D01*
X-69034303Y151567001D01*
X-68879651Y151597763D01*
X-68746040Y151653106D01*
X-68733976Y151658103D01*
X-68733976Y151658104D01*
X-68733969Y151658106D01*
X-68602859Y151745711D01*
X-68491359Y151857211D01*
X-68403754Y151988321D01*
X-68343411Y152134003D01*
X-68312648Y152288658D01*
X-68312648Y152446342D01*
X-68312648Y152446345D01*
X-68312649Y152446347D01*
X-68343411Y152600997D01*
X-68382576Y152695549D01*
X-68390044Y152765017D01*
X-68358769Y152827496D01*
X-68298680Y152863148D01*
X-68268014Y152867000D01*
X-67958282Y152867000D01*
X-67891243Y152847315D01*
X-67845488Y152794511D01*
X-67835544Y152725353D01*
X-67843721Y152695547D01*
X-67882885Y152600998D01*
X-67882887Y152600990D01*
X-67913648Y152446347D01*
X-67913648Y152288654D01*
X-67882887Y152134011D01*
X-67882884Y152133999D01*
X-67822546Y151988328D01*
X-67822539Y151988315D01*
X-67734938Y151857212D01*
X-67734935Y151857208D01*
X-67623441Y151745714D01*
X-67623437Y151745711D01*
X-67492334Y151658110D01*
X-67492321Y151658103D01*
X-67346650Y151597765D01*
X-67346645Y151597763D01*
X-67247290Y151578000D01*
X-67191995Y151567001D01*
X-67191992Y151567000D01*
X-67191990Y151567000D01*
X-67034304Y151567000D01*
X-67034303Y151567001D01*
X-66879651Y151597763D01*
X-66746040Y151653106D01*
X-66733976Y151658103D01*
X-66733976Y151658104D01*
X-66733969Y151658106D01*
X-66602859Y151745711D01*
X-66491359Y151857211D01*
X-66403754Y151988321D01*
X-66343411Y152134003D01*
X-66312648Y152288658D01*
X-66312648Y152446342D01*
X-66312648Y152446345D01*
X-66312649Y152446347D01*
X-66343411Y152600997D01*
X-66382576Y152695549D01*
X-66390044Y152765017D01*
X-66358769Y152827496D01*
X-66298680Y152863148D01*
X-66268014Y152867000D01*
X-61946211Y152867000D01*
X-61879172Y152847315D01*
X-61833417Y152794511D01*
X-61823473Y152725353D01*
X-61831650Y152695547D01*
X-61872885Y152595998D01*
X-61872887Y152595990D01*
X-61903648Y152441347D01*
X-61903648Y152283654D01*
X-61872887Y152129011D01*
X-61872884Y152128999D01*
X-61812546Y151983328D01*
X-61812539Y151983315D01*
X-61724938Y151852212D01*
X-61724935Y151852208D01*
X-61613441Y151740714D01*
X-61613437Y151740711D01*
X-61482334Y151653110D01*
X-61482321Y151653103D01*
X-61348721Y151597765D01*
X-61336645Y151592763D01*
X-61181995Y151562001D01*
X-61181992Y151562000D01*
X-61181990Y151562000D01*
X-61024304Y151562000D01*
X-61024303Y151562001D01*
X-60869651Y151592763D01*
X-60723969Y151653106D01*
X-60592859Y151740711D01*
X-60481359Y151852211D01*
X-60393754Y151983321D01*
X-60333411Y152129003D01*
X-60302648Y152283658D01*
X-60302648Y152441342D01*
X-60302648Y152441345D01*
X-60302649Y152441347D01*
X-60329776Y152577723D01*
X-60333411Y152595997D01*
X-60374647Y152695549D01*
X-60382115Y152765017D01*
X-60350840Y152827496D01*
X-60290751Y152863148D01*
X-60260085Y152867000D01*
X-52929039Y152867000D01*
X-52929035Y152866999D01*
X-52866012Y152867000D01*
X-52860288Y152866868D01*
X-52832544Y152865586D01*
X-52476762Y152849141D01*
X-52465374Y152848085D01*
X-52087979Y152795444D01*
X-52076719Y152793340D01*
X-51705770Y152706098D01*
X-51694766Y152702966D01*
X-51512188Y152641774D01*
X-51333474Y152581876D01*
X-51322794Y152577739D01*
X-50974210Y152423827D01*
X-50963957Y152418722D01*
X-50881538Y152372816D01*
X-50631041Y152233292D01*
X-50621329Y152227278D01*
X-50309678Y152013795D01*
X-50306955Y152011930D01*
X-50297815Y152005028D01*
X-50004663Y151761601D01*
X-49996198Y151753885D01*
X-49726744Y151484434D01*
X-49719028Y151475969D01*
X-49655352Y151399287D01*
X-49475597Y151182819D01*
X-49468707Y151173696D01*
X-49253344Y150859307D01*
X-49247323Y150849582D01*
X-49061897Y150516681D01*
X-49056794Y150506433D01*
X-48902877Y150157847D01*
X-48898744Y150147177D01*
X-48888612Y150116948D01*
X-48777645Y149785871D01*
X-48774511Y149774855D01*
X-48687271Y149403935D01*
X-48685166Y149392676D01*
X-48632521Y149015276D01*
X-48631464Y149003872D01*
X-48613780Y148621395D01*
X-48613648Y148615668D01*
X-48613648Y118120372D01*
X-48613780Y118114645D01*
X-48631512Y117731132D01*
X-48632569Y117719728D01*
X-48685213Y117342335D01*
X-48687318Y117331076D01*
X-48774557Y116960159D01*
X-48777691Y116949143D01*
X-48898788Y116587842D01*
X-48902926Y116577164D01*
X-48921596Y116534877D01*
X-49056835Y116228593D01*
X-49061940Y116218341D01*
X-49247364Y115885445D01*
X-49253393Y115875707D01*
X-49257985Y115869003D01*
X-49447595Y115592208D01*
X-49468733Y115561351D01*
X-49475634Y115552213D01*
X-49606109Y115395089D01*
X-49719064Y115259064D01*
X-49726780Y115250600D01*
X-49996226Y114981157D01*
X-50004690Y114973441D01*
X-50297849Y114730007D01*
X-50306989Y114723105D01*
X-50358086Y114688103D01*
X-50621348Y114507767D01*
X-50631079Y114501741D01*
X-50963978Y114316322D01*
X-50974231Y114311217D01*
X-51322811Y114157307D01*
X-51333491Y114153170D01*
X-51694773Y114032083D01*
X-51705789Y114028948D01*
X-52076727Y113941708D01*
X-52087986Y113939604D01*
X-52465369Y113886965D01*
X-52476773Y113885908D01*
X-52861316Y113868133D01*
X-52867040Y113868001D01*
X-52898887Y113868001D01*
X-52929035Y113868001D01*
X-52929039Y113868001D01*
X-52936643Y113868000D01*
X-52936644Y113868001D01*
X-52936645Y113868000D01*
X-58278014Y113868000D01*
X-58345053Y113887685D01*
X-58390808Y113940489D01*
X-58400752Y114009647D01*
X-58392575Y114039453D01*
X-58353411Y114134003D01*
X-58322648Y114288658D01*
X-58322648Y114446342D01*
X-58322648Y114446345D01*
X-58322649Y114446347D01*
X-58352415Y114595990D01*
X-58353411Y114600997D01*
X-58364498Y114627763D01*
X-58413751Y114746673D01*
X-58413758Y114746686D01*
X-58501359Y114877789D01*
X-58501362Y114877793D01*
X-58612856Y114989287D01*
X-58612860Y114989290D01*
X-58743963Y115076891D01*
X-58743976Y115076898D01*
X-58889647Y115137236D01*
X-58889659Y115137239D01*
X-59044303Y115168000D01*
X-59044306Y115168000D01*
X-59201990Y115168000D01*
X-59201993Y115168000D01*
X-59356638Y115137239D01*
X-59356650Y115137236D01*
X-59502321Y115076898D01*
X-59502334Y115076891D01*
X-59633437Y114989290D01*
X-59633442Y114989286D01*
X-59678892Y114943836D01*
X-59740215Y114910352D01*
X-59809907Y114915337D01*
X-59865840Y114957209D01*
X-59890256Y115022673D01*
X-59881134Y115078968D01*
X-59845911Y115164003D01*
X-59815148Y115318658D01*
X-59815148Y115476342D01*
X-59815148Y115476345D01*
X-59815149Y115476347D01*
X-59832054Y115561334D01*
X-59845911Y115630997D01*
X-59863723Y115673999D01*
X-59906251Y115776673D01*
X-59906258Y115776686D01*
X-59993859Y115907789D01*
X-59993862Y115907793D01*
X-60105356Y116019287D01*
X-60105360Y116019290D01*
X-60236463Y116106891D01*
X-60236476Y116106898D01*
X-60382147Y116167236D01*
X-60382159Y116167239D01*
X-60536803Y116198000D01*
X-60536806Y116198000D01*
X-60694490Y116198000D01*
X-60694493Y116198000D01*
X-60849138Y116167239D01*
X-60849150Y116167236D01*
X-60994821Y116106898D01*
X-60994834Y116106891D01*
X-61125937Y116019290D01*
X-61125941Y116019287D01*
X-61145967Y115999260D01*
X-61207290Y115965775D01*
X-61276982Y115970759D01*
X-61332915Y116012631D01*
X-61357332Y116078095D01*
X-61357648Y116086941D01*
X-61357648Y116091345D01*
X-61357649Y116091347D01*
X-61367526Y116141002D01*
X-61388411Y116245997D01*
X-61425692Y116336002D01*
X-61448751Y116391673D01*
X-61448758Y116391686D01*
X-61536359Y116522789D01*
X-61536362Y116522793D01*
X-61647857Y116634288D01*
X-61683345Y116658000D01*
X-61700378Y116669382D01*
X-61745183Y116722992D01*
X-61753890Y116792317D01*
X-61723736Y116855345D01*
X-61700377Y116875585D01*
X-61635159Y116919163D01*
X-61625359Y116925711D01*
X-61513859Y117037211D01*
X-61426254Y117168321D01*
X-61365911Y117314003D01*
X-61335148Y117468658D01*
X-61335148Y117626342D01*
X-61335148Y117626345D01*
X-61335149Y117626347D01*
X-61357379Y117738103D01*
X-61365911Y117780997D01*
X-61394903Y117850990D01*
X-61426251Y117926673D01*
X-61426258Y117926686D01*
X-61513859Y118057789D01*
X-61513862Y118057793D01*
X-61625356Y118169287D01*
X-61625360Y118169290D01*
X-61753884Y118255168D01*
X-54963648Y118255168D01*
X-54963648Y117979833D01*
X-54963647Y117979816D01*
X-54927710Y117706845D01*
X-54927709Y117706840D01*
X-54927708Y117706834D01*
X-54906406Y117627335D01*
X-54856444Y117440870D01*
X-54751073Y117186483D01*
X-54751068Y117186472D01*
X-54705306Y117107211D01*
X-54613397Y116948021D01*
X-54613395Y116948018D01*
X-54613394Y116948017D01*
X-54445778Y116729574D01*
X-54445772Y116729567D01*
X-54251082Y116534877D01*
X-54251075Y116534871D01*
X-54178636Y116479287D01*
X-54032627Y116367251D01*
X-53893072Y116286679D01*
X-53794177Y116229581D01*
X-53794172Y116229579D01*
X-53794169Y116229577D01*
X-53539780Y116124205D01*
X-53273814Y116052940D01*
X-53000822Y116017000D01*
X-53000815Y116017000D01*
X-52725481Y116017000D01*
X-52725474Y116017000D01*
X-52452482Y116052940D01*
X-52186516Y116124205D01*
X-51932127Y116229577D01*
X-51693669Y116367251D01*
X-51475220Y116534872D01*
X-51280520Y116729572D01*
X-51112899Y116948021D01*
X-50975225Y117186479D01*
X-50869853Y117440868D01*
X-50798588Y117706834D01*
X-50762648Y117979826D01*
X-50762648Y118255174D01*
X-50798588Y118528166D01*
X-50869853Y118794132D01*
X-50975225Y119048521D01*
X-50975227Y119048524D01*
X-50975229Y119048529D01*
X-51037797Y119156898D01*
X-51112899Y119286979D01*
X-51207297Y119410002D01*
X-51280519Y119505427D01*
X-51280525Y119505434D01*
X-51475215Y119700124D01*
X-51475222Y119700130D01*
X-51693665Y119867746D01*
X-51693666Y119867747D01*
X-51693669Y119867749D01*
X-51829612Y119946236D01*
X-51932120Y120005420D01*
X-51932131Y120005425D01*
X-52186518Y120110796D01*
X-52337180Y120151165D01*
X-52452482Y120182060D01*
X-52452488Y120182061D01*
X-52452493Y120182062D01*
X-52725464Y120217999D01*
X-52725469Y120218000D01*
X-52725474Y120218000D01*
X-53000822Y120218000D01*
X-53000828Y120218000D01*
X-53000833Y120217999D01*
X-53273804Y120182062D01*
X-53273811Y120182061D01*
X-53273814Y120182060D01*
X-53330015Y120167001D01*
X-53539779Y120110796D01*
X-53794166Y120005425D01*
X-53794177Y120005420D01*
X-54032632Y119867746D01*
X-54251075Y119700130D01*
X-54251082Y119700124D01*
X-54445772Y119505434D01*
X-54445778Y119505427D01*
X-54613394Y119286984D01*
X-54751068Y119048529D01*
X-54751073Y119048518D01*
X-54856444Y118794131D01*
X-54886759Y118680990D01*
X-54920594Y118554714D01*
X-54927707Y118528169D01*
X-54927710Y118528156D01*
X-54963647Y118255185D01*
X-54963648Y118255168D01*
X-61753884Y118255168D01*
X-61756463Y118256891D01*
X-61756476Y118256898D01*
X-61902147Y118317236D01*
X-61902159Y118317239D01*
X-62056803Y118348000D01*
X-62056806Y118348000D01*
X-62214490Y118348000D01*
X-62214493Y118348000D01*
X-62369138Y118317239D01*
X-62369150Y118317236D01*
X-62514821Y118256898D01*
X-62514834Y118256891D01*
X-62645937Y118169290D01*
X-62645941Y118169287D01*
X-62757435Y118057793D01*
X-62757438Y118057789D01*
X-62845039Y117926686D01*
X-62845046Y117926673D01*
X-62905384Y117781002D01*
X-62905387Y117780990D01*
X-62936148Y117626347D01*
X-62936148Y117468654D01*
X-62905387Y117314011D01*
X-62905384Y117313999D01*
X-62845046Y117168328D01*
X-62845039Y117168315D01*
X-62768134Y117053220D01*
X-62747256Y116986543D01*
X-62765740Y116919163D01*
X-62817719Y116872472D01*
X-62886689Y116861296D01*
X-62918683Y116869765D01*
X-62918792Y116869811D01*
X-62924651Y116872237D01*
X-62924655Y116872238D01*
X-62924659Y116872239D01*
X-63079303Y116903000D01*
X-63079306Y116903000D01*
X-63236990Y116903000D01*
X-63236993Y116903000D01*
X-63391638Y116872239D01*
X-63391650Y116872236D01*
X-63537321Y116811898D01*
X-63537334Y116811891D01*
X-63668437Y116724290D01*
X-63668441Y116724287D01*
X-63779935Y116612793D01*
X-63779938Y116612789D01*
X-63867539Y116481686D01*
X-63867546Y116481673D01*
X-63927884Y116336002D01*
X-63927887Y116335990D01*
X-63958648Y116181347D01*
X-63958648Y116023654D01*
X-63927887Y115869011D01*
X-63927884Y115868999D01*
X-63867546Y115723328D01*
X-63867539Y115723315D01*
X-63779938Y115592212D01*
X-63779935Y115592208D01*
X-63668441Y115480714D01*
X-63668437Y115480711D01*
X-63537334Y115393110D01*
X-63537321Y115393103D01*
X-63426526Y115347211D01*
X-63391645Y115332763D01*
X-63242570Y115303110D01*
X-63236995Y115302001D01*
X-63236992Y115302000D01*
X-63236990Y115302000D01*
X-63079304Y115302000D01*
X-63079303Y115302001D01*
X-62924651Y115332763D01*
X-62778969Y115393106D01*
X-62778967Y115393108D01*
X-62774183Y115395089D01*
X-62704713Y115402558D01*
X-62657841Y115383631D01*
X-62537327Y115303106D01*
X-62537325Y115303105D01*
X-62537321Y115303103D01*
X-62410493Y115250570D01*
X-62391645Y115242763D01*
X-62236995Y115212001D01*
X-62236992Y115212000D01*
X-62236990Y115212000D01*
X-62079304Y115212000D01*
X-62079303Y115212001D01*
X-61924651Y115242763D01*
X-61778969Y115303106D01*
X-61647859Y115390711D01*
X-61641201Y115397369D01*
X-61627829Y115410740D01*
X-61566506Y115444225D01*
X-61496814Y115439241D01*
X-61440881Y115397369D01*
X-61416464Y115331905D01*
X-61416148Y115323059D01*
X-61416148Y115318654D01*
X-61385387Y115164011D01*
X-61385384Y115163999D01*
X-61325046Y115018328D01*
X-61325039Y115018315D01*
X-61237438Y114887212D01*
X-61237435Y114887208D01*
X-61125941Y114775714D01*
X-61125937Y114775711D01*
X-60994834Y114688110D01*
X-60994821Y114688103D01*
X-60849150Y114627765D01*
X-60849145Y114627763D01*
X-60714609Y114601002D01*
X-60694495Y114597001D01*
X-60694492Y114597000D01*
X-60694490Y114597000D01*
X-60536804Y114597000D01*
X-60536803Y114597001D01*
X-60382151Y114627763D01*
X-60269482Y114674433D01*
X-60236476Y114688103D01*
X-60236476Y114688104D01*
X-60236469Y114688106D01*
X-60105359Y114775711D01*
X-60059907Y114821163D01*
X-59998584Y114854649D01*
X-59928893Y114849665D01*
X-59872959Y114807794D01*
X-59848541Y114742330D01*
X-59857663Y114686032D01*
X-59892885Y114600997D01*
X-59892886Y114600994D01*
X-59892886Y114600993D01*
X-59892887Y114600990D01*
X-59923648Y114446347D01*
X-59923648Y114288654D01*
X-59892887Y114134011D01*
X-59892885Y114134003D01*
X-59881908Y114107501D01*
X-59853721Y114039453D01*
X-59846252Y113969983D01*
X-59877527Y113907504D01*
X-59937616Y113871852D01*
X-59968282Y113868000D01*
X-73265941Y113868000D01*
X-73332980Y113887685D01*
X-73378735Y113940489D01*
X-73388679Y114009647D01*
X-73380502Y114039453D01*
X-73343409Y114129003D01*
X-73312646Y114283658D01*
X-73312646Y114441342D01*
X-73312646Y114441345D01*
X-73312647Y114441347D01*
X-73324660Y114501741D01*
X-73343409Y114595997D01*
X-73356567Y114627763D01*
X-73403749Y114741673D01*
X-73403756Y114741686D01*
X-73491357Y114872789D01*
X-73491360Y114872793D01*
X-73602854Y114984287D01*
X-73602858Y114984290D01*
X-73634195Y115005229D01*
X-73679000Y115058842D01*
X-73687707Y115128167D01*
X-73657552Y115191194D01*
X-73634202Y115211428D01*
X-73597859Y115235711D01*
X-73486359Y115347211D01*
X-73398754Y115478321D01*
X-73388858Y115502211D01*
X-73378046Y115528315D01*
X-73338411Y115624003D01*
X-73307648Y115778658D01*
X-73307648Y115936342D01*
X-73307648Y115936345D01*
X-73307649Y115936347D01*
X-73323692Y116017000D01*
X-73338411Y116090997D01*
X-73352166Y116124205D01*
X-73398751Y116236673D01*
X-73398758Y116236686D01*
X-73486359Y116367789D01*
X-73486362Y116367793D01*
X-73597856Y116479287D01*
X-73597860Y116479290D01*
X-73728963Y116566891D01*
X-73728973Y116566896D01*
X-73874275Y116627082D01*
X-73928678Y116670923D01*
X-73950743Y116737217D01*
X-73933464Y116804917D01*
X-73882326Y116852527D01*
X-73874313Y116856188D01*
X-73748969Y116908106D01*
X-73617859Y116995711D01*
X-73506359Y117107211D01*
X-73418754Y117238321D01*
X-73358411Y117384003D01*
X-73327648Y117538658D01*
X-73327648Y117696342D01*
X-73327648Y117696345D01*
X-73327649Y117696347D01*
X-73335955Y117738103D01*
X-73358411Y117850997D01*
X-73377422Y117896894D01*
X-73418751Y117996673D01*
X-73418758Y117996686D01*
X-73506359Y118127789D01*
X-73506362Y118127793D01*
X-73617856Y118239287D01*
X-73617860Y118239290D01*
X-73748963Y118326891D01*
X-73748976Y118326898D01*
X-73894647Y118387236D01*
X-73894659Y118387239D01*
X-74049303Y118418000D01*
X-74049306Y118418000D01*
X-74206990Y118418000D01*
X-74206993Y118418000D01*
X-74361638Y118387239D01*
X-74361650Y118387236D01*
X-74507321Y118326898D01*
X-74507334Y118326891D01*
X-74638437Y118239290D01*
X-74638441Y118239287D01*
X-74749935Y118127793D01*
X-74749938Y118127789D01*
X-74837539Y117996686D01*
X-74837546Y117996673D01*
X-74897884Y117851002D01*
X-74897887Y117850990D01*
X-74928648Y117696347D01*
X-74928648Y117538654D01*
X-74897887Y117384011D01*
X-74897884Y117383999D01*
X-74837546Y117238328D01*
X-74837539Y117238315D01*
X-74749938Y117107212D01*
X-74749935Y117107208D01*
X-74638441Y116995714D01*
X-74638437Y116995711D01*
X-74507334Y116908110D01*
X-74507321Y116908103D01*
X-74362023Y116847919D01*
X-74307619Y116804078D01*
X-74285554Y116737784D01*
X-74302833Y116670085D01*
X-74353970Y116622474D01*
X-74362022Y116618797D01*
X-74487325Y116566896D01*
X-74487334Y116566891D01*
X-74618437Y116479290D01*
X-74618441Y116479287D01*
X-74729935Y116367793D01*
X-74729938Y116367789D01*
X-74817539Y116236686D01*
X-74817546Y116236673D01*
X-74877884Y116091002D01*
X-74877887Y116090990D01*
X-74908648Y115936347D01*
X-74908648Y115778654D01*
X-74877887Y115624011D01*
X-74877884Y115623999D01*
X-74817546Y115478328D01*
X-74817539Y115478315D01*
X-74729938Y115347212D01*
X-74729935Y115347208D01*
X-74618438Y115235711D01*
X-74587100Y115214772D01*
X-74542295Y115161160D01*
X-74533588Y115091835D01*
X-74563742Y115028808D01*
X-74587100Y115008568D01*
X-74623435Y114984290D01*
X-74623439Y114984287D01*
X-74734933Y114872793D01*
X-74734936Y114872789D01*
X-74822537Y114741686D01*
X-74822544Y114741673D01*
X-74882882Y114596002D01*
X-74882885Y114595990D01*
X-74913646Y114441347D01*
X-74913646Y114283654D01*
X-74882885Y114129011D01*
X-74882883Y114129003D01*
X-74845790Y114039453D01*
X-74838321Y113969983D01*
X-74869596Y113907504D01*
X-74929685Y113871852D01*
X-74960351Y113868000D01*
X-83360276Y113868000D01*
X-83366003Y113868132D01*
X-83749518Y113885863D01*
X-83760923Y113886920D01*
X-84138320Y113939565D01*
X-84149578Y113941670D01*
X-84520496Y114028908D01*
X-84531512Y114032042D01*
X-84892815Y114153139D01*
X-84903475Y114157269D01*
X-85252089Y114311196D01*
X-85262315Y114316289D01*
X-85372065Y114377420D01*
X-85595210Y114501711D01*
X-85604948Y114507740D01*
X-85919321Y114723089D01*
X-85928461Y114729992D01*
X-86221609Y114973419D01*
X-86230073Y114981135D01*
X-86499509Y115250570D01*
X-86507226Y115259034D01*
X-86543826Y115303110D01*
X-86750664Y115552197D01*
X-86757564Y115561334D01*
X-86757576Y115561351D01*
X-86940684Y115828656D01*
X-86972910Y115875700D01*
X-86978939Y115885438D01*
X-87035145Y115986347D01*
X-77918648Y115986347D01*
X-77918648Y115828654D01*
X-77887887Y115674011D01*
X-77887884Y115673999D01*
X-77827546Y115528328D01*
X-77827539Y115528315D01*
X-77739938Y115397212D01*
X-77739935Y115397208D01*
X-77628441Y115285714D01*
X-77628437Y115285711D01*
X-77497334Y115198110D01*
X-77497321Y115198103D01*
X-77351650Y115137765D01*
X-77351645Y115137763D01*
X-77217280Y115111036D01*
X-77196995Y115107001D01*
X-77196992Y115107000D01*
X-77196990Y115107000D01*
X-77039304Y115107000D01*
X-77039303Y115107001D01*
X-76884651Y115137763D01*
X-76738969Y115198106D01*
X-76607859Y115285711D01*
X-76496359Y115397211D01*
X-76408754Y115528321D01*
X-76348411Y115674003D01*
X-76317648Y115828658D01*
X-76317648Y115986342D01*
X-76317648Y115986345D01*
X-76317649Y115986347D01*
X-76338464Y116090990D01*
X-76348411Y116140997D01*
X-76375864Y116207275D01*
X-76408751Y116286673D01*
X-76408758Y116286686D01*
X-76496359Y116417789D01*
X-76496362Y116417793D01*
X-76533389Y116454820D01*
X-76566874Y116516143D01*
X-76561890Y116585835D01*
X-76533392Y116630179D01*
X-76486359Y116677211D01*
X-76398754Y116808321D01*
X-76338411Y116954003D01*
X-76307648Y117108658D01*
X-76307648Y117266342D01*
X-76307648Y117266345D01*
X-76307649Y117266347D01*
X-76317128Y117313999D01*
X-76338411Y117420997D01*
X-76346642Y117440868D01*
X-76398751Y117566673D01*
X-76398758Y117566686D01*
X-76486359Y117697789D01*
X-76486362Y117697793D01*
X-76597856Y117809287D01*
X-76597860Y117809290D01*
X-76728963Y117896891D01*
X-76728976Y117896898D01*
X-76874647Y117957236D01*
X-76874659Y117957239D01*
X-77029303Y117988000D01*
X-77029306Y117988000D01*
X-77186990Y117988000D01*
X-77186993Y117988000D01*
X-77341638Y117957239D01*
X-77341650Y117957236D01*
X-77487321Y117896898D01*
X-77487334Y117896891D01*
X-77618437Y117809290D01*
X-77618441Y117809287D01*
X-77729935Y117697793D01*
X-77729938Y117697789D01*
X-77817539Y117566686D01*
X-77817546Y117566673D01*
X-77877884Y117421002D01*
X-77877887Y117420990D01*
X-77908648Y117266347D01*
X-77908648Y117108654D01*
X-77877887Y116954011D01*
X-77877884Y116953999D01*
X-77817546Y116808328D01*
X-77817539Y116808315D01*
X-77729938Y116677212D01*
X-77729935Y116677208D01*
X-77692908Y116640181D01*
X-77659423Y116578858D01*
X-77664407Y116509166D01*
X-77692908Y116464819D01*
X-77739935Y116417793D01*
X-77739938Y116417789D01*
X-77827539Y116286686D01*
X-77827546Y116286673D01*
X-77887884Y116141002D01*
X-77887887Y116140990D01*
X-77918648Y115986347D01*
X-87035145Y115986347D01*
X-87072237Y116052940D01*
X-87164366Y116218342D01*
X-87169450Y116228551D01*
X-87323386Y116577185D01*
X-87327506Y116587821D01*
X-87448612Y116949149D01*
X-87451739Y116960139D01*
X-87538983Y117331079D01*
X-87541086Y117342330D01*
X-87541087Y117342335D01*
X-87593731Y117719732D01*
X-87594787Y117731129D01*
X-87595110Y117738106D01*
X-87612516Y118114601D01*
X-87612648Y118120328D01*
X-87612648Y118255168D01*
X-85463648Y118255168D01*
X-85463648Y117979833D01*
X-85463647Y117979816D01*
X-85427710Y117706845D01*
X-85427709Y117706840D01*
X-85427708Y117706834D01*
X-85406406Y117627335D01*
X-85356444Y117440870D01*
X-85251073Y117186483D01*
X-85251068Y117186472D01*
X-85205306Y117107211D01*
X-85113397Y116948021D01*
X-85113395Y116948018D01*
X-85113394Y116948017D01*
X-84945778Y116729574D01*
X-84945772Y116729567D01*
X-84751082Y116534877D01*
X-84751075Y116534871D01*
X-84678636Y116479287D01*
X-84532627Y116367251D01*
X-84393072Y116286679D01*
X-84294177Y116229581D01*
X-84294172Y116229579D01*
X-84294169Y116229577D01*
X-84039780Y116124205D01*
X-83773814Y116052940D01*
X-83500822Y116017000D01*
X-83500815Y116017000D01*
X-83225481Y116017000D01*
X-83225474Y116017000D01*
X-82952482Y116052940D01*
X-82686516Y116124205D01*
X-82432127Y116229577D01*
X-82193669Y116367251D01*
X-81975220Y116534872D01*
X-81780520Y116729572D01*
X-81612899Y116948021D01*
X-81475225Y117186479D01*
X-81369853Y117440868D01*
X-81298588Y117706834D01*
X-81262648Y117979826D01*
X-81262648Y118255174D01*
X-81298588Y118528166D01*
X-81369853Y118794132D01*
X-81475225Y119048521D01*
X-81475227Y119048524D01*
X-81475229Y119048529D01*
X-81537797Y119156898D01*
X-81612899Y119286979D01*
X-81707297Y119410002D01*
X-81780519Y119505427D01*
X-81780525Y119505434D01*
X-81975215Y119700124D01*
X-81975222Y119700130D01*
X-82000751Y119719719D01*
X-69389648Y119719719D01*
X-69389648Y119562026D01*
X-69358887Y119407383D01*
X-69358884Y119407371D01*
X-69309573Y119288323D01*
X-69302104Y119218854D01*
X-69309573Y119193419D01*
X-69358884Y119074371D01*
X-69358887Y119074359D01*
X-69389648Y118919716D01*
X-69389648Y118762023D01*
X-69358887Y118607380D01*
X-69358884Y118607368D01*
X-69298546Y118461697D01*
X-69298539Y118461684D01*
X-69210938Y118330581D01*
X-69210935Y118330577D01*
X-69099441Y118219083D01*
X-69099437Y118219080D01*
X-68968334Y118131479D01*
X-68968321Y118131472D01*
X-68859066Y118086218D01*
X-68822645Y118071132D01*
X-68809022Y118068423D01*
X-68747112Y118036038D01*
X-68712537Y117975323D01*
X-68711596Y117971000D01*
X-68708886Y117957375D01*
X-68708884Y117957369D01*
X-68648546Y117811698D01*
X-68648539Y117811685D01*
X-68560938Y117680582D01*
X-68560935Y117680578D01*
X-68449441Y117569084D01*
X-68449437Y117569081D01*
X-68318334Y117481480D01*
X-68318321Y117481473D01*
X-68220295Y117440870D01*
X-68172645Y117421133D01*
X-68017995Y117390371D01*
X-68017992Y117390370D01*
X-68017990Y117390370D01*
X-67860304Y117390370D01*
X-67860303Y117390371D01*
X-67705651Y117421133D01*
X-67559969Y117481476D01*
X-67428859Y117569081D01*
X-67370604Y117627337D01*
X-67309284Y117660820D01*
X-67258733Y117661271D01*
X-67256465Y117660820D01*
X-67186991Y117647000D01*
X-67186990Y117647000D01*
X-67029304Y117647000D01*
X-67029303Y117647001D01*
X-66874651Y117677763D01*
X-66728969Y117738106D01*
X-66597859Y117825711D01*
X-66486359Y117937211D01*
X-66398754Y118068321D01*
X-66338411Y118214003D01*
X-66307648Y118368658D01*
X-66307648Y118526342D01*
X-66307648Y118526345D01*
X-66307649Y118526347D01*
X-66313490Y118555711D01*
X-66338411Y118680997D01*
X-66338413Y118681002D01*
X-66398751Y118826673D01*
X-66398758Y118826686D01*
X-66486359Y118957789D01*
X-66486362Y118957793D01*
X-66597856Y119069287D01*
X-66597860Y119069290D01*
X-66728963Y119156891D01*
X-66728976Y119156898D01*
X-66874647Y119217236D01*
X-66874659Y119217239D01*
X-67029303Y119248000D01*
X-67029306Y119248000D01*
X-67186990Y119248000D01*
X-67186993Y119248000D01*
X-67341638Y119217239D01*
X-67341650Y119217236D01*
X-67487321Y119156898D01*
X-67487334Y119156891D01*
X-67618434Y119069292D01*
X-67618437Y119069290D01*
X-67627843Y119059884D01*
X-67656641Y119044163D01*
X-67684852Y119027424D01*
X-67687151Y119027507D01*
X-67689169Y119026404D01*
X-67721905Y119028748D01*
X-67754677Y119029918D01*
X-67756565Y119031229D01*
X-67758860Y119031393D01*
X-67785130Y119051062D01*
X-67812070Y119069766D01*
X-67813635Y119072404D01*
X-67814791Y119073269D01*
X-67830079Y119100120D01*
X-67868724Y119193418D01*
X-67875382Y119255347D01*
X-61912648Y119255347D01*
X-61912648Y119097654D01*
X-61881887Y118943011D01*
X-61881884Y118942999D01*
X-61821546Y118797328D01*
X-61821539Y118797315D01*
X-61733938Y118666212D01*
X-61733935Y118666208D01*
X-61622441Y118554714D01*
X-61622437Y118554711D01*
X-61491334Y118467110D01*
X-61491321Y118467103D01*
X-61372774Y118418000D01*
X-61345645Y118406763D01*
X-61215377Y118380851D01*
X-61190995Y118376001D01*
X-61190992Y118376000D01*
X-61190990Y118376000D01*
X-61033304Y118376000D01*
X-61033303Y118376001D01*
X-60878651Y118406763D01*
X-60746044Y118461690D01*
X-60732976Y118467103D01*
X-60732976Y118467104D01*
X-60732969Y118467106D01*
X-60601859Y118554711D01*
X-60490359Y118666211D01*
X-60402754Y118797321D01*
X-60342411Y118943003D01*
X-60311648Y119097658D01*
X-60311648Y119255342D01*
X-60311848Y119256345D01*
X-60311848Y119256347D01*
X-58278648Y119256347D01*
X-58278648Y119098654D01*
X-58247887Y118944011D01*
X-58247884Y118943999D01*
X-58187546Y118798328D01*
X-58187539Y118798315D01*
X-58099938Y118667212D01*
X-58099935Y118667208D01*
X-57988441Y118555714D01*
X-57988437Y118555711D01*
X-57857334Y118468110D01*
X-57857321Y118468103D01*
X-57711650Y118407765D01*
X-57711645Y118407763D01*
X-57608449Y118387236D01*
X-57556995Y118377001D01*
X-57556992Y118377000D01*
X-57556990Y118377000D01*
X-57399304Y118377000D01*
X-57379949Y118380850D01*
X-57379949Y118380851D01*
X-57244651Y118407763D01*
X-57101383Y118467106D01*
X-57098976Y118468103D01*
X-57098976Y118468104D01*
X-57098969Y118468106D01*
X-56967859Y118555711D01*
X-56856359Y118667211D01*
X-56769422Y118797321D01*
X-56768758Y118798315D01*
X-56768758Y118798316D01*
X-56768754Y118798321D01*
X-56708411Y118944003D01*
X-56677648Y119098658D01*
X-56677648Y119256342D01*
X-56677648Y119256345D01*
X-56677649Y119256347D01*
X-56683743Y119286984D01*
X-56708411Y119410997D01*
X-56747525Y119505428D01*
X-56768751Y119556673D01*
X-56768758Y119556686D01*
X-56856359Y119687789D01*
X-56856362Y119687793D01*
X-56967856Y119799287D01*
X-56967860Y119799290D01*
X-57098963Y119886891D01*
X-57098976Y119886898D01*
X-57244647Y119947236D01*
X-57244659Y119947239D01*
X-57399303Y119978000D01*
X-57399306Y119978000D01*
X-57556990Y119978000D01*
X-57556993Y119978000D01*
X-57711638Y119947239D01*
X-57711650Y119947236D01*
X-57857321Y119886898D01*
X-57857334Y119886891D01*
X-57988437Y119799290D01*
X-57988441Y119799287D01*
X-58099935Y119687793D01*
X-58099938Y119687789D01*
X-58187539Y119556686D01*
X-58187546Y119556673D01*
X-58247884Y119411002D01*
X-58247887Y119410990D01*
X-58278648Y119256347D01*
X-60311848Y119256347D01*
X-60341889Y119407371D01*
X-60342411Y119409997D01*
X-60381939Y119505427D01*
X-60402751Y119555673D01*
X-60402758Y119555686D01*
X-60490359Y119686789D01*
X-60490362Y119686793D01*
X-60601856Y119798287D01*
X-60601860Y119798290D01*
X-60732963Y119885891D01*
X-60732976Y119885898D01*
X-60878647Y119946236D01*
X-60878659Y119946239D01*
X-61033303Y119977000D01*
X-61033306Y119977000D01*
X-61190990Y119977000D01*
X-61190993Y119977000D01*
X-61345638Y119946239D01*
X-61345650Y119946236D01*
X-61491321Y119885898D01*
X-61491334Y119885891D01*
X-61622437Y119798290D01*
X-61622441Y119798287D01*
X-61733935Y119686793D01*
X-61733938Y119686789D01*
X-61821539Y119555686D01*
X-61821546Y119555673D01*
X-61881884Y119410002D01*
X-61881887Y119409990D01*
X-61912648Y119255347D01*
X-67875382Y119255347D01*
X-67876193Y119262887D01*
X-67868724Y119288323D01*
X-67819411Y119407375D01*
X-67788648Y119562030D01*
X-67788648Y119719714D01*
X-67788648Y119719717D01*
X-67788649Y119719719D01*
X-67818094Y119867746D01*
X-67819411Y119874369D01*
X-67819413Y119874374D01*
X-67879751Y120020045D01*
X-67879758Y120020058D01*
X-67967359Y120151161D01*
X-67967362Y120151165D01*
X-68078856Y120262659D01*
X-68078860Y120262662D01*
X-68209963Y120350263D01*
X-68209976Y120350270D01*
X-68355647Y120410608D01*
X-68355659Y120410611D01*
X-68510303Y120441372D01*
X-68510306Y120441372D01*
X-68667990Y120441372D01*
X-68667993Y120441372D01*
X-68822638Y120410611D01*
X-68822650Y120410608D01*
X-68968321Y120350270D01*
X-68968334Y120350263D01*
X-69099437Y120262662D01*
X-69099441Y120262659D01*
X-69210935Y120151165D01*
X-69210938Y120151161D01*
X-69298539Y120020058D01*
X-69298546Y120020045D01*
X-69358884Y119874374D01*
X-69358887Y119874362D01*
X-69389648Y119719719D01*
X-82000751Y119719719D01*
X-82193665Y119867746D01*
X-82193666Y119867747D01*
X-82193669Y119867749D01*
X-82329612Y119946236D01*
X-82432120Y120005420D01*
X-82432131Y120005425D01*
X-82686518Y120110796D01*
X-82837180Y120151165D01*
X-82952482Y120182060D01*
X-82952488Y120182061D01*
X-82952493Y120182062D01*
X-83225464Y120217999D01*
X-83225469Y120218000D01*
X-83225474Y120218000D01*
X-83500822Y120218000D01*
X-83500828Y120218000D01*
X-83500833Y120217999D01*
X-83773804Y120182062D01*
X-83773811Y120182061D01*
X-83773814Y120182060D01*
X-83830015Y120167001D01*
X-84039779Y120110796D01*
X-84294166Y120005425D01*
X-84294177Y120005420D01*
X-84532632Y119867746D01*
X-84751075Y119700130D01*
X-84751082Y119700124D01*
X-84945772Y119505434D01*
X-84945778Y119505427D01*
X-85113394Y119286984D01*
X-85251068Y119048529D01*
X-85251073Y119048518D01*
X-85356444Y118794131D01*
X-85386759Y118680990D01*
X-85420594Y118554714D01*
X-85427707Y118528169D01*
X-85427710Y118528156D01*
X-85463647Y118255185D01*
X-85463648Y118255168D01*
X-87612648Y118255168D01*
X-87612648Y121046347D01*
X-59931148Y121046347D01*
X-59931148Y120888654D01*
X-59900387Y120734011D01*
X-59900384Y120733999D01*
X-59840046Y120588328D01*
X-59840039Y120588315D01*
X-59752438Y120457212D01*
X-59752435Y120457208D01*
X-59640941Y120345714D01*
X-59640937Y120345711D01*
X-59509834Y120258110D01*
X-59509821Y120258103D01*
X-59364150Y120197765D01*
X-59364145Y120197763D01*
X-59209495Y120167001D01*
X-59209492Y120167000D01*
X-59209490Y120167000D01*
X-59051804Y120167000D01*
X-59051803Y120167001D01*
X-58897151Y120197763D01*
X-58751469Y120258106D01*
X-58620359Y120345711D01*
X-58508859Y120457211D01*
X-58421254Y120588321D01*
X-58360911Y120734003D01*
X-58330148Y120888658D01*
X-58330148Y121046342D01*
X-58330148Y121046345D01*
X-58330149Y121046347D01*
X-58360910Y121200990D01*
X-58360911Y121200997D01*
X-58360913Y121201002D01*
X-58421251Y121346673D01*
X-58421258Y121346686D01*
X-58508859Y121477789D01*
X-58508862Y121477793D01*
X-58620356Y121589287D01*
X-58620360Y121589290D01*
X-58751463Y121676891D01*
X-58751476Y121676898D01*
X-58897147Y121737236D01*
X-58897159Y121737239D01*
X-59051803Y121768000D01*
X-59051806Y121768000D01*
X-59209490Y121768000D01*
X-59209493Y121768000D01*
X-59364138Y121737239D01*
X-59364150Y121737236D01*
X-59509821Y121676898D01*
X-59509834Y121676891D01*
X-59640937Y121589290D01*
X-59640941Y121589287D01*
X-59752435Y121477793D01*
X-59752438Y121477789D01*
X-59840039Y121346686D01*
X-59840046Y121346673D01*
X-59900384Y121201002D01*
X-59900387Y121200990D01*
X-59931148Y121046347D01*
X-87612648Y121046347D01*
X-87612648Y123251347D01*
X-68813648Y123251347D01*
X-68813648Y123093654D01*
X-68782887Y122939011D01*
X-68782884Y122938999D01*
X-68722546Y122793328D01*
X-68722539Y122793315D01*
X-68634938Y122662212D01*
X-68634935Y122662208D01*
X-68523441Y122550714D01*
X-68523437Y122550711D01*
X-68392334Y122463110D01*
X-68392321Y122463103D01*
X-68246650Y122402765D01*
X-68246645Y122402763D01*
X-68091995Y122372001D01*
X-68091992Y122372000D01*
X-68091990Y122372000D01*
X-67934304Y122372000D01*
X-67934303Y122372001D01*
X-67779651Y122402763D01*
X-67633969Y122463106D01*
X-67502859Y122550711D01*
X-67391359Y122662211D01*
X-67303754Y122793321D01*
X-67243411Y122939003D01*
X-67212648Y123093658D01*
X-67212648Y123201347D01*
X-61983648Y123201347D01*
X-61983648Y123043654D01*
X-61952887Y122889011D01*
X-61952884Y122888999D01*
X-61892546Y122743328D01*
X-61892539Y122743315D01*
X-61804938Y122612212D01*
X-61804935Y122612208D01*
X-61693441Y122500714D01*
X-61693437Y122500711D01*
X-61562334Y122413110D01*
X-61562321Y122413103D01*
X-61463088Y122372000D01*
X-61416645Y122352763D01*
X-61261995Y122322001D01*
X-61261992Y122322000D01*
X-61261990Y122322000D01*
X-61104304Y122322000D01*
X-61104303Y122322001D01*
X-60949651Y122352763D01*
X-60803969Y122413106D01*
X-60672859Y122500711D01*
X-60561359Y122612211D01*
X-60473754Y122743321D01*
X-60413411Y122889003D01*
X-60382648Y123043658D01*
X-60382648Y123201342D01*
X-60382648Y123201345D01*
X-60382649Y123201347D01*
X-60413410Y123355990D01*
X-60413411Y123355997D01*
X-60413413Y123356002D01*
X-60473751Y123501673D01*
X-60473758Y123501686D01*
X-60561359Y123632789D01*
X-60561362Y123632793D01*
X-60672856Y123744287D01*
X-60672860Y123744290D01*
X-60803963Y123831891D01*
X-60803976Y123831898D01*
X-60949647Y123892236D01*
X-60949659Y123892239D01*
X-61104303Y123923000D01*
X-61104306Y123923000D01*
X-61261990Y123923000D01*
X-61261993Y123923000D01*
X-61416638Y123892239D01*
X-61416650Y123892236D01*
X-61562321Y123831898D01*
X-61562334Y123831891D01*
X-61693437Y123744290D01*
X-61693441Y123744287D01*
X-61804935Y123632793D01*
X-61804938Y123632789D01*
X-61892539Y123501686D01*
X-61892546Y123501673D01*
X-61952884Y123356002D01*
X-61952887Y123355990D01*
X-61983648Y123201347D01*
X-67212648Y123201347D01*
X-67212648Y123251342D01*
X-67212648Y123251345D01*
X-67212649Y123251347D01*
X-67233464Y123355990D01*
X-67243411Y123405997D01*
X-67291046Y123521000D01*
X-67303751Y123551673D01*
X-67303758Y123551686D01*
X-67391359Y123682789D01*
X-67391362Y123682793D01*
X-67502856Y123794287D01*
X-67502860Y123794290D01*
X-67633963Y123881891D01*
X-67633976Y123881898D01*
X-67779647Y123942236D01*
X-67779659Y123942239D01*
X-67934303Y123973000D01*
X-67934306Y123973000D01*
X-68091990Y123973000D01*
X-68091993Y123973000D01*
X-68246638Y123942239D01*
X-68246650Y123942236D01*
X-68392321Y123881898D01*
X-68392334Y123881891D01*
X-68523437Y123794290D01*
X-68523441Y123794287D01*
X-68634935Y123682793D01*
X-68634938Y123682789D01*
X-68722539Y123551686D01*
X-68722546Y123551673D01*
X-68782884Y123406002D01*
X-68782887Y123405990D01*
X-68813648Y123251347D01*
X-87612648Y123251347D01*
X-87612648Y127591347D01*
X-76713648Y127591347D01*
X-76713648Y127433654D01*
X-76682887Y127279011D01*
X-76682884Y127278999D01*
X-76622546Y127133328D01*
X-76622539Y127133315D01*
X-76534938Y127002212D01*
X-76534935Y127002208D01*
X-76423439Y126890712D01*
X-76415790Y126885601D01*
X-76370986Y126831987D01*
X-76362280Y126762662D01*
X-76392436Y126699635D01*
X-76415790Y126679399D01*
X-76423439Y126674289D01*
X-76534935Y126562793D01*
X-76534938Y126562789D01*
X-76622539Y126431686D01*
X-76622546Y126431673D01*
X-76682884Y126286002D01*
X-76682887Y126285990D01*
X-76713648Y126131347D01*
X-76713648Y125973654D01*
X-76682887Y125819011D01*
X-76682884Y125818999D01*
X-76622546Y125673328D01*
X-76622539Y125673315D01*
X-76534938Y125542212D01*
X-76534935Y125542208D01*
X-76423441Y125430714D01*
X-76423437Y125430711D01*
X-76292334Y125343110D01*
X-76292321Y125343103D01*
X-76146650Y125282765D01*
X-76146645Y125282763D01*
X-75991995Y125252001D01*
X-75991992Y125252000D01*
X-75991990Y125252000D01*
X-75834304Y125252000D01*
X-75834303Y125252001D01*
X-75679651Y125282763D01*
X-75533969Y125343106D01*
X-75439321Y125406348D01*
X-70701903Y125406348D01*
X-70701903Y125248655D01*
X-70671142Y125094012D01*
X-70671139Y125094000D01*
X-70610801Y124948329D01*
X-70610794Y124948316D01*
X-70523193Y124817213D01*
X-70523190Y124817209D01*
X-70411696Y124705715D01*
X-70411692Y124705712D01*
X-70280589Y124618111D01*
X-70280576Y124618104D01*
X-70134905Y124557766D01*
X-70134900Y124557764D01*
X-69980250Y124527002D01*
X-69980247Y124527001D01*
X-69980245Y124527001D01*
X-69822559Y124527001D01*
X-69822558Y124527002D01*
X-69667906Y124557764D01*
X-69522224Y124618107D01*
X-69391114Y124705712D01*
X-69279614Y124817212D01*
X-69192009Y124948322D01*
X-69131666Y125094004D01*
X-69100903Y125248659D01*
X-69100903Y125406343D01*
X-69100903Y125406346D01*
X-69126352Y125534282D01*
X-69120125Y125603874D01*
X-69092417Y125646154D01*
X-69001359Y125737211D01*
X-68913754Y125868321D01*
X-68853411Y126014003D01*
X-68852265Y126019762D01*
X-68819881Y126081673D01*
X-68759165Y126116247D01*
X-68689395Y126112508D01*
X-68632723Y126071642D01*
X-68609031Y126019762D01*
X-68607887Y126014011D01*
X-68607884Y126013999D01*
X-68547546Y125868328D01*
X-68547539Y125868315D01*
X-68459938Y125737212D01*
X-68459935Y125737208D01*
X-68348441Y125625714D01*
X-68348437Y125625711D01*
X-68217334Y125538110D01*
X-68217321Y125538103D01*
X-68118088Y125497000D01*
X-68071645Y125477763D01*
X-67916995Y125447001D01*
X-67916992Y125447000D01*
X-67916990Y125447000D01*
X-67759304Y125447000D01*
X-67759303Y125447001D01*
X-67682996Y125462180D01*
X-67604660Y125477761D01*
X-67604659Y125477762D01*
X-67604651Y125477763D01*
X-67580993Y125487563D01*
X-67533544Y125497000D01*
X-66062878Y125497000D01*
X-65995839Y125477315D01*
X-65975197Y125460681D01*
X-64520722Y124006207D01*
X-64493843Y123965981D01*
X-64484454Y123943315D01*
X-64484042Y123942322D01*
X-64484039Y123942315D01*
X-64396438Y123811212D01*
X-64396435Y123811208D01*
X-64284941Y123699714D01*
X-64284937Y123699711D01*
X-64153834Y123612110D01*
X-64153821Y123612103D01*
X-64010564Y123552765D01*
X-64008145Y123551763D01*
X-63858522Y123522001D01*
X-63853495Y123521001D01*
X-63853492Y123521000D01*
X-63853490Y123521000D01*
X-63695804Y123521000D01*
X-63695803Y123521001D01*
X-63541151Y123551763D01*
X-63395469Y123612106D01*
X-63264359Y123699711D01*
X-63264359Y123699712D01*
X-63262041Y123701260D01*
X-63195364Y123722138D01*
X-63127984Y123703654D01*
X-63124259Y123701260D01*
X-62992334Y123613110D01*
X-62992321Y123613103D01*
X-62846650Y123552765D01*
X-62846645Y123552763D01*
X-62691995Y123522001D01*
X-62691992Y123522000D01*
X-62691990Y123522000D01*
X-62534304Y123522000D01*
X-62534303Y123522001D01*
X-62379651Y123552763D01*
X-62236383Y123612106D01*
X-62233976Y123613103D01*
X-62233976Y123613104D01*
X-62233969Y123613106D01*
X-62102859Y123700711D01*
X-61991359Y123812211D01*
X-61903754Y123943321D01*
X-61843411Y124089003D01*
X-61812648Y124243658D01*
X-61812648Y124401342D01*
X-61812648Y124401345D01*
X-61812649Y124401347D01*
X-61843411Y124555997D01*
X-61869136Y124618104D01*
X-61903751Y124701673D01*
X-61903758Y124701686D01*
X-61991359Y124832789D01*
X-61991362Y124832793D01*
X-62102856Y124944287D01*
X-62102860Y124944290D01*
X-62233963Y125031891D01*
X-62233976Y125031898D01*
X-62379647Y125092236D01*
X-62379659Y125092239D01*
X-62534303Y125123000D01*
X-62534306Y125123000D01*
X-62691990Y125123000D01*
X-62691993Y125123000D01*
X-62846638Y125092239D01*
X-62846650Y125092236D01*
X-62992321Y125031898D01*
X-62992339Y125031888D01*
X-63125757Y124942741D01*
X-63142784Y124937410D01*
X-63157622Y124927500D01*
X-63175434Y124927187D01*
X-63192434Y124921863D01*
X-63209641Y124926584D01*
X-63227481Y124926269D01*
X-63256024Y124939309D01*
X-63259814Y124940348D01*
X-63259839Y124940363D01*
X-63264013Y124942943D01*
X-63264359Y124943289D01*
X-63395469Y125030894D01*
X-63428362Y125044519D01*
X-63436866Y125049775D01*
X-63443087Y125056704D01*
X-63459355Y125067574D01*
X-65222227Y126830448D01*
X-65222228Y126830449D01*
X-65224530Y126831987D01*
X-65312418Y126890711D01*
X-65345153Y126912584D01*
X-65345155Y126912585D01*
X-65345158Y126912587D01*
X-65481731Y126969157D01*
X-65481741Y126969160D01*
X-65626728Y126998000D01*
X-65626730Y126998000D01*
X-67533544Y126998000D01*
X-67580993Y127007438D01*
X-67604651Y127017237D01*
X-67604655Y127017238D01*
X-67604660Y127017240D01*
X-67759303Y127048000D01*
X-67759306Y127048000D01*
X-67916990Y127048000D01*
X-67916993Y127048000D01*
X-68071638Y127017239D01*
X-68071650Y127017236D01*
X-68217321Y126956898D01*
X-68217334Y126956891D01*
X-68348437Y126869290D01*
X-68348441Y126869287D01*
X-68459935Y126757793D01*
X-68459938Y126757789D01*
X-68547539Y126626686D01*
X-68547546Y126626673D01*
X-68607884Y126481002D01*
X-68607887Y126480993D01*
X-68609031Y126475237D01*
X-68641417Y126413327D01*
X-68702133Y126378753D01*
X-68771902Y126382494D01*
X-68828574Y126423361D01*
X-68852265Y126475237D01*
X-68853410Y126480993D01*
X-68853413Y126481002D01*
X-68913751Y126626673D01*
X-68913758Y126626686D01*
X-69001359Y126757789D01*
X-69001362Y126757793D01*
X-69112856Y126869287D01*
X-69112860Y126869290D01*
X-69243963Y126956891D01*
X-69243976Y126956898D01*
X-69389647Y127017236D01*
X-69389659Y127017239D01*
X-69544303Y127048000D01*
X-69544306Y127048000D01*
X-69701990Y127048000D01*
X-69701993Y127048000D01*
X-69856638Y127017239D01*
X-69856650Y127017236D01*
X-70002321Y126956898D01*
X-70002334Y126956891D01*
X-70133437Y126869290D01*
X-70133441Y126869287D01*
X-70244935Y126757793D01*
X-70244938Y126757789D01*
X-70332539Y126626686D01*
X-70332546Y126626673D01*
X-70392884Y126481002D01*
X-70392887Y126480990D01*
X-70423648Y126326347D01*
X-70423648Y126168654D01*
X-70398200Y126040719D01*
X-70404427Y125971128D01*
X-70432136Y125928847D01*
X-70523190Y125837794D01*
X-70523193Y125837790D01*
X-70610794Y125706687D01*
X-70610801Y125706674D01*
X-70671139Y125561003D01*
X-70671142Y125560991D01*
X-70701903Y125406348D01*
X-75439321Y125406348D01*
X-75402859Y125430711D01*
X-75372889Y125460681D01*
X-75333453Y125500116D01*
X-75291362Y125542208D01*
X-75291359Y125542211D01*
X-75203754Y125673321D01*
X-75143411Y125819003D01*
X-75112648Y125973658D01*
X-75112648Y126131342D01*
X-75112648Y126131345D01*
X-75112649Y126131347D01*
X-75132822Y126232763D01*
X-75143411Y126285997D01*
X-75160124Y126326347D01*
X-75203751Y126431673D01*
X-75203758Y126431686D01*
X-75291359Y126562789D01*
X-75291362Y126562793D01*
X-75402856Y126674287D01*
X-75402861Y126674291D01*
X-75410503Y126679397D01*
X-75455309Y126733009D01*
X-75464018Y126802334D01*
X-75433864Y126865361D01*
X-75410503Y126885603D01*
X-75406186Y126888489D01*
X-75402859Y126890711D01*
X-75291359Y127002211D01*
X-75238482Y127081347D01*
X-62936148Y127081347D01*
X-62936148Y126923654D01*
X-62905387Y126769011D01*
X-62905384Y126768999D01*
X-62845046Y126623328D01*
X-62845039Y126623315D01*
X-62757438Y126492212D01*
X-62757435Y126492208D01*
X-62645941Y126380714D01*
X-62645937Y126380711D01*
X-62514834Y126293110D01*
X-62514821Y126293103D01*
X-62369150Y126232765D01*
X-62369145Y126232763D01*
X-62214495Y126202001D01*
X-62214492Y126202000D01*
X-62214490Y126202000D01*
X-62056804Y126202000D01*
X-62056803Y126202001D01*
X-61902151Y126232763D01*
X-61756469Y126293106D01*
X-61625359Y126380711D01*
X-61513859Y126492211D01*
X-61426254Y126623321D01*
X-61424865Y126626673D01*
X-61370556Y126757789D01*
X-61365911Y126769003D01*
X-61335148Y126923658D01*
X-61335148Y127081342D01*
X-61335148Y127081345D01*
X-61335149Y127081347D01*
X-61365910Y127235990D01*
X-61365911Y127235997D01*
X-61365913Y127236002D01*
X-61426251Y127381673D01*
X-61426258Y127381686D01*
X-61513859Y127512789D01*
X-61513862Y127512793D01*
X-61625359Y127624290D01*
X-61640389Y127634332D01*
X-61756463Y127711891D01*
X-61756476Y127711898D01*
X-61803431Y127731347D01*
X-59051148Y127731347D01*
X-59051148Y127573654D01*
X-59020387Y127419011D01*
X-59020384Y127418999D01*
X-58960046Y127273328D01*
X-58960039Y127273315D01*
X-58872438Y127142212D01*
X-58872435Y127142208D01*
X-58760941Y127030714D01*
X-58760937Y127030711D01*
X-58629834Y126943110D01*
X-58629821Y126943103D01*
X-58490997Y126885601D01*
X-58484145Y126882763D01*
X-58329495Y126852001D01*
X-58329492Y126852000D01*
X-58329490Y126852000D01*
X-58171804Y126852000D01*
X-58171803Y126852001D01*
X-58017151Y126882763D01*
X-57871469Y126943106D01*
X-57740359Y127030711D01*
X-57628859Y127142211D01*
X-57541254Y127273321D01*
X-57480911Y127419003D01*
X-57450148Y127573658D01*
X-57450148Y127731342D01*
X-57450148Y127731345D01*
X-57450149Y127731347D01*
X-57480910Y127885990D01*
X-57480911Y127885997D01*
X-57483262Y127891673D01*
X-57541251Y128031673D01*
X-57541258Y128031686D01*
X-57628859Y128162789D01*
X-57628862Y128162793D01*
X-57740356Y128274287D01*
X-57740360Y128274290D01*
X-57871463Y128361891D01*
X-57871476Y128361898D01*
X-58017147Y128422236D01*
X-58017159Y128422239D01*
X-58171803Y128453000D01*
X-58171806Y128453000D01*
X-58329490Y128453000D01*
X-58329493Y128453000D01*
X-58484138Y128422239D01*
X-58484150Y128422236D01*
X-58629821Y128361898D01*
X-58629834Y128361891D01*
X-58760937Y128274290D01*
X-58760941Y128274287D01*
X-58872435Y128162793D01*
X-58872438Y128162789D01*
X-58960039Y128031686D01*
X-58960046Y128031673D01*
X-59020384Y127886002D01*
X-59020387Y127885990D01*
X-59051148Y127731347D01*
X-61803431Y127731347D01*
X-61902147Y127772236D01*
X-61902159Y127772239D01*
X-62056803Y127803000D01*
X-62056806Y127803000D01*
X-62214490Y127803000D01*
X-62214493Y127803000D01*
X-62369138Y127772239D01*
X-62369150Y127772236D01*
X-62514821Y127711898D01*
X-62514834Y127711891D01*
X-62645937Y127624290D01*
X-62645941Y127624287D01*
X-62757435Y127512793D01*
X-62757438Y127512789D01*
X-62845039Y127381686D01*
X-62845046Y127381673D01*
X-62905384Y127236002D01*
X-62905387Y127235990D01*
X-62936148Y127081347D01*
X-75238482Y127081347D01*
X-75203754Y127133321D01*
X-75143411Y127279003D01*
X-75112648Y127433658D01*
X-75112648Y127591342D01*
X-75112648Y127591345D01*
X-75112649Y127591347D01*
X-75136627Y127711891D01*
X-75143411Y127745997D01*
X-75167022Y127803000D01*
X-75203751Y127891673D01*
X-75203758Y127891686D01*
X-75291359Y128022789D01*
X-75291362Y128022793D01*
X-75402856Y128134287D01*
X-75402860Y128134290D01*
X-75533963Y128221891D01*
X-75533976Y128221898D01*
X-75679647Y128282236D01*
X-75679659Y128282239D01*
X-75834303Y128313000D01*
X-75834306Y128313000D01*
X-75991990Y128313000D01*
X-75991993Y128313000D01*
X-76146638Y128282239D01*
X-76146650Y128282236D01*
X-76292321Y128221898D01*
X-76292334Y128221891D01*
X-76423437Y128134290D01*
X-76423441Y128134287D01*
X-76534935Y128022793D01*
X-76534938Y128022789D01*
X-76622539Y127891686D01*
X-76622546Y127891673D01*
X-76682884Y127746002D01*
X-76682887Y127745990D01*
X-76713648Y127591347D01*
X-87612648Y127591347D01*
X-87612648Y132491347D01*
X-86908646Y132491347D01*
X-86908646Y132333654D01*
X-86877885Y132179011D01*
X-86877882Y132178999D01*
X-86817544Y132033328D01*
X-86817537Y132033315D01*
X-86729936Y131902212D01*
X-86729933Y131902208D01*
X-86618439Y131790714D01*
X-86618435Y131790711D01*
X-86487332Y131703110D01*
X-86487319Y131703103D01*
X-86350296Y131646347D01*
X-86341643Y131642763D01*
X-86186993Y131612001D01*
X-86186990Y131612000D01*
X-86186988Y131612000D01*
X-86029302Y131612000D01*
X-86029301Y131612001D01*
X-85874649Y131642763D01*
X-85728967Y131703106D01*
X-85597857Y131790711D01*
X-85486357Y131902211D01*
X-85398752Y132033321D01*
X-85343651Y132166347D01*
X-79723894Y132166347D01*
X-79723894Y132008654D01*
X-79693133Y131854011D01*
X-79693130Y131853999D01*
X-79632792Y131708328D01*
X-79632785Y131708315D01*
X-79545184Y131577212D01*
X-79545181Y131577208D01*
X-79433687Y131465714D01*
X-79433683Y131465711D01*
X-79302580Y131378110D01*
X-79302567Y131378103D01*
X-79167695Y131322238D01*
X-79156891Y131317763D01*
X-79024743Y131291477D01*
X-79002241Y131287001D01*
X-79002238Y131287000D01*
X-79002236Y131287000D01*
X-78844550Y131287000D01*
X-78844549Y131287001D01*
X-78689897Y131317763D01*
X-78544215Y131378106D01*
X-78413105Y131465711D01*
X-78301605Y131577211D01*
X-78214000Y131708321D01*
X-78153657Y131854003D01*
X-78122894Y132008658D01*
X-78122894Y132056643D01*
X-78103209Y132123682D01*
X-78050405Y132169437D01*
X-78046419Y132171173D01*
X-77908969Y132228106D01*
X-77777859Y132315711D01*
X-77666359Y132427211D01*
X-77578754Y132558321D01*
X-77518411Y132704003D01*
X-77487648Y132858658D01*
X-77487648Y133016342D01*
X-77487648Y133016345D01*
X-77487649Y133016347D01*
X-77503925Y133098169D01*
X-77518411Y133170997D01*
X-77523067Y133182237D01*
X-77578751Y133316673D01*
X-77578758Y133316686D01*
X-77607451Y133359628D01*
X-77628329Y133426306D01*
X-77609844Y133493686D01*
X-77557866Y133540376D01*
X-77528540Y133550136D01*
X-77488453Y133558110D01*
X-77389651Y133577763D01*
X-77243969Y133638106D01*
X-77112859Y133725711D01*
X-77001359Y133837211D01*
X-76913754Y133968321D01*
X-76853411Y134114003D01*
X-76851732Y134122448D01*
X-76819350Y134184357D01*
X-76758636Y134218934D01*
X-76754359Y134219865D01*
X-76714651Y134227763D01*
X-76568969Y134288106D01*
X-76437859Y134375711D01*
X-76326359Y134487211D01*
X-76238754Y134618321D01*
X-76178411Y134764003D01*
X-76147648Y134918658D01*
X-76147648Y135076342D01*
X-76147648Y135076345D01*
X-76147649Y135076347D01*
X-76157534Y135126041D01*
X-76178411Y135230997D01*
X-76214999Y135319330D01*
X-76228260Y135351345D01*
X-73633648Y135351345D01*
X-73633648Y135193654D01*
X-73602887Y135039011D01*
X-73602884Y135038999D01*
X-73542546Y134893328D01*
X-73542536Y134893310D01*
X-73496174Y134823924D01*
X-73475296Y134757247D01*
X-73493781Y134689867D01*
X-73496173Y134686145D01*
X-73522537Y134646688D01*
X-73522546Y134646672D01*
X-73582884Y134501002D01*
X-73582887Y134500990D01*
X-73613648Y134346347D01*
X-73613648Y134188654D01*
X-73582887Y134034011D01*
X-73582884Y134033999D01*
X-73522546Y133888328D01*
X-73522539Y133888315D01*
X-73434938Y133757212D01*
X-73434935Y133757208D01*
X-73323441Y133645714D01*
X-73323437Y133645711D01*
X-73192334Y133558110D01*
X-73192322Y133558103D01*
X-73092482Y133516749D01*
X-73051854Y133499921D01*
X-72997450Y133456081D01*
X-72975385Y133389787D01*
X-72977687Y133361176D01*
X-72978648Y133356344D01*
X-72978648Y133198654D01*
X-72947887Y133044011D01*
X-72947884Y133043999D01*
X-72887546Y132898328D01*
X-72887539Y132898315D01*
X-72799938Y132767212D01*
X-72799935Y132767208D01*
X-72688441Y132655714D01*
X-72688437Y132655711D01*
X-72597628Y132595034D01*
X-72552823Y132541422D01*
X-72544116Y132472097D01*
X-72574270Y132409069D01*
X-72633713Y132372350D01*
X-72667214Y132369492D01*
X-72667214Y132368000D01*
X-72830993Y132368000D01*
X-72985638Y132337239D01*
X-72985650Y132337236D01*
X-73131321Y132276898D01*
X-73131334Y132276891D01*
X-73262437Y132189290D01*
X-73262441Y132189287D01*
X-73373935Y132077793D01*
X-73373938Y132077789D01*
X-73461539Y131946686D01*
X-73461546Y131946673D01*
X-73521884Y131801002D01*
X-73521887Y131800990D01*
X-73552648Y131646347D01*
X-73552648Y131488654D01*
X-73521887Y131334011D01*
X-73521884Y131333999D01*
X-73461546Y131188328D01*
X-73461539Y131188315D01*
X-73373938Y131057212D01*
X-73373935Y131057208D01*
X-73262440Y130945713D01*
X-73262437Y130945711D01*
X-73240327Y130930937D01*
X-73195522Y130877326D01*
X-73186813Y130808001D01*
X-73216967Y130744974D01*
X-73240323Y130724735D01*
X-73263436Y130709291D01*
X-73263441Y130709287D01*
X-73374935Y130597793D01*
X-73374938Y130597789D01*
X-73462539Y130466686D01*
X-73462546Y130466673D01*
X-73522884Y130321002D01*
X-73522887Y130320990D01*
X-73553648Y130166347D01*
X-73553648Y130008654D01*
X-73522887Y129854011D01*
X-73522884Y129853999D01*
X-73462546Y129708328D01*
X-73462539Y129708315D01*
X-73374938Y129577212D01*
X-73374935Y129577208D01*
X-73263441Y129465714D01*
X-73263437Y129465711D01*
X-73132334Y129378110D01*
X-73132321Y129378103D01*
X-72986650Y129317765D01*
X-72986645Y129317763D01*
X-72831995Y129287001D01*
X-72831992Y129287000D01*
X-72831990Y129287000D01*
X-72674304Y129287000D01*
X-72674303Y129287001D01*
X-72519651Y129317763D01*
X-72373969Y129378106D01*
X-72242859Y129465711D01*
X-72131359Y129577211D01*
X-72043754Y129708321D01*
X-71983411Y129854003D01*
X-71952648Y130008658D01*
X-71952648Y130166342D01*
X-71952648Y130166345D01*
X-71952649Y130166347D01*
X-71955742Y130181898D01*
X-71983411Y130320997D01*
X-71993556Y130345489D01*
X-72043751Y130466673D01*
X-72043758Y130466686D01*
X-72091262Y130537781D01*
X-72131359Y130597789D01*
X-72131362Y130597793D01*
X-72134154Y130600585D01*
X-69303649Y130600585D01*
X-69303649Y130442892D01*
X-69272888Y130288249D01*
X-69272885Y130288237D01*
X-69212547Y130142566D01*
X-69212540Y130142553D01*
X-69124939Y130011450D01*
X-69124936Y130011446D01*
X-69013442Y129899952D01*
X-69013438Y129899949D01*
X-68882335Y129812348D01*
X-68882322Y129812341D01*
X-68736651Y129752003D01*
X-68736646Y129752001D01*
X-68581996Y129721239D01*
X-68581993Y129721238D01*
X-68520300Y129721238D01*
X-68453261Y129701553D01*
X-68407506Y129648749D01*
X-68397562Y129579591D01*
X-68398683Y129573046D01*
X-68403000Y129551345D01*
X-68403000Y129393654D01*
X-68372239Y129239011D01*
X-68372236Y129238999D01*
X-68311898Y129093328D01*
X-68311891Y129093315D01*
X-68224290Y128962212D01*
X-68224287Y128962208D01*
X-68112793Y128850714D01*
X-68112789Y128850711D01*
X-67981686Y128763110D01*
X-67981673Y128763103D01*
X-67836002Y128702765D01*
X-67835997Y128702763D01*
X-67681347Y128672001D01*
X-67681344Y128672000D01*
X-67681342Y128672000D01*
X-67523656Y128672000D01*
X-67523655Y128672001D01*
X-67369003Y128702763D01*
X-67223321Y128763106D01*
X-67092211Y128850711D01*
X-66980711Y128962211D01*
X-66893106Y129093321D01*
X-66832763Y129239003D01*
X-66824340Y129281347D01*
X-64078648Y129281347D01*
X-64078648Y129123654D01*
X-64047887Y128969011D01*
X-64047884Y128968999D01*
X-63987546Y128823328D01*
X-63987539Y128823315D01*
X-63899938Y128692212D01*
X-63899935Y128692208D01*
X-63788441Y128580714D01*
X-63788437Y128580711D01*
X-63657334Y128493110D01*
X-63657321Y128493103D01*
X-63560502Y128453000D01*
X-63511645Y128432763D01*
X-63356995Y128402001D01*
X-63356992Y128402000D01*
X-63356990Y128402000D01*
X-63199304Y128402000D01*
X-63199303Y128402001D01*
X-63044651Y128432763D01*
X-62898969Y128493106D01*
X-62767859Y128580711D01*
X-62656359Y128692211D01*
X-62568754Y128823321D01*
X-62508411Y128969003D01*
X-62477648Y129123658D01*
X-62477648Y129281342D01*
X-62477648Y129281345D01*
X-62477649Y129281347D01*
X-62483672Y129311626D01*
X-62508411Y129435997D01*
X-62566903Y129577211D01*
X-62568751Y129581673D01*
X-62568758Y129581686D01*
X-62656359Y129712789D01*
X-62656362Y129712793D01*
X-62767856Y129824287D01*
X-62767860Y129824290D01*
X-62898963Y129911891D01*
X-62898976Y129911898D01*
X-63044647Y129972236D01*
X-63044659Y129972239D01*
X-63199303Y130003000D01*
X-63199306Y130003000D01*
X-63356990Y130003000D01*
X-63356993Y130003000D01*
X-63511638Y129972239D01*
X-63511650Y129972236D01*
X-63657321Y129911898D01*
X-63657334Y129911891D01*
X-63788437Y129824290D01*
X-63788441Y129824287D01*
X-63899935Y129712793D01*
X-63899938Y129712789D01*
X-63987539Y129581686D01*
X-63987546Y129581673D01*
X-64047884Y129436002D01*
X-64047887Y129435990D01*
X-64078648Y129281347D01*
X-66824340Y129281347D01*
X-66823216Y129287000D01*
X-66818317Y129311625D01*
X-66818317Y129311626D01*
X-66802000Y129393656D01*
X-66802000Y129551345D01*
X-66802001Y129551347D01*
X-66808033Y129581673D01*
X-66832763Y129705997D01*
X-66833726Y129708321D01*
X-66893103Y129851673D01*
X-66893110Y129851686D01*
X-66980711Y129982789D01*
X-66980714Y129982793D01*
X-67092208Y130094287D01*
X-67092212Y130094290D01*
X-67223315Y130181891D01*
X-67223328Y130181898D01*
X-67368999Y130242236D01*
X-67369011Y130242239D01*
X-67523655Y130273000D01*
X-67523658Y130273000D01*
X-67585349Y130273000D01*
X-67652388Y130292685D01*
X-67698143Y130345489D01*
X-67708087Y130414647D01*
X-67706966Y130421192D01*
X-67702649Y130442894D01*
X-67702649Y130600583D01*
X-67702650Y130600585D01*
X-67733412Y130755235D01*
X-67742707Y130777676D01*
X-67793752Y130900911D01*
X-67793759Y130900924D01*
X-67881360Y131032027D01*
X-67881363Y131032031D01*
X-67992857Y131143525D01*
X-67992861Y131143528D01*
X-68123964Y131231129D01*
X-68123977Y131231136D01*
X-68269648Y131291474D01*
X-68269660Y131291477D01*
X-68424304Y131322238D01*
X-68424307Y131322238D01*
X-68581991Y131322238D01*
X-68581994Y131322238D01*
X-68736639Y131291477D01*
X-68736651Y131291474D01*
X-68882322Y131231136D01*
X-68882335Y131231129D01*
X-69013438Y131143528D01*
X-69013442Y131143525D01*
X-69124936Y131032031D01*
X-69124939Y131032027D01*
X-69212540Y130900924D01*
X-69212547Y130900911D01*
X-69272885Y130755240D01*
X-69272888Y130755228D01*
X-69303649Y130600585D01*
X-72134154Y130600585D01*
X-72242856Y130709287D01*
X-72242864Y130709293D01*
X-72264970Y130724064D01*
X-72309776Y130777676D01*
X-72318483Y130847001D01*
X-72288329Y130910028D01*
X-72264970Y130930269D01*
X-72241859Y130945711D01*
X-72130359Y131057211D01*
X-72042754Y131188321D01*
X-71982411Y131334003D01*
X-71951648Y131488658D01*
X-71951648Y131646342D01*
X-71951648Y131646345D01*
X-71951649Y131646347D01*
X-71963975Y131708315D01*
X-71982411Y131800997D01*
X-72004365Y131853999D01*
X-72042751Y131946673D01*
X-72042758Y131946686D01*
X-72130359Y132077789D01*
X-72130362Y132077793D01*
X-72241856Y132189287D01*
X-72241860Y132189290D01*
X-72332669Y132249967D01*
X-72377474Y132303579D01*
X-72386181Y132372904D01*
X-72356026Y132435932D01*
X-72296583Y132472651D01*
X-72263082Y132475488D01*
X-72263082Y132477000D01*
X-72099304Y132477000D01*
X-72099303Y132477001D01*
X-71944651Y132507763D01*
X-71798969Y132568106D01*
X-71667859Y132655711D01*
X-71657223Y132666347D01*
X-61988648Y132666347D01*
X-61988648Y132508654D01*
X-61957887Y132354011D01*
X-61957884Y132353999D01*
X-61897546Y132208328D01*
X-61897539Y132208315D01*
X-61809938Y132077212D01*
X-61809935Y132077208D01*
X-61698441Y131965714D01*
X-61698437Y131965711D01*
X-61567334Y131878110D01*
X-61567321Y131878103D01*
X-61422560Y131818142D01*
X-61421645Y131817763D01*
X-61285661Y131790714D01*
X-61266995Y131787001D01*
X-61266992Y131787000D01*
X-61266990Y131787000D01*
X-61109304Y131787000D01*
X-61109303Y131787001D01*
X-60954651Y131817763D01*
X-60808969Y131878106D01*
X-60677859Y131965711D01*
X-60566359Y132077211D01*
X-60478754Y132208321D01*
X-60418411Y132354003D01*
X-60387648Y132508658D01*
X-60387648Y132666342D01*
X-60387724Y132666722D01*
X-60149028Y132666722D01*
X-60149028Y132509038D01*
X-60144306Y132485295D01*
X-60144305Y132485289D01*
X-60118267Y132354389D01*
X-60118264Y132354379D01*
X-60057926Y132208708D01*
X-60057919Y132208695D01*
X-59970318Y132077592D01*
X-59970315Y132077588D01*
X-59858821Y131966094D01*
X-59858817Y131966091D01*
X-59727714Y131878490D01*
X-59727701Y131878483D01*
X-59582030Y131818145D01*
X-59582025Y131818143D01*
X-59444131Y131790714D01*
X-59427375Y131787381D01*
X-59427372Y131787380D01*
X-59427370Y131787380D01*
X-59269684Y131787380D01*
X-59269683Y131787381D01*
X-59115031Y131818143D01*
X-59002362Y131864813D01*
X-58969356Y131878483D01*
X-58969356Y131878484D01*
X-58969349Y131878486D01*
X-58838239Y131966091D01*
X-58726739Y132077591D01*
X-58639134Y132208701D01*
X-58578791Y132354383D01*
X-58548028Y132509038D01*
X-58548028Y132666722D01*
X-58548028Y132666725D01*
X-58548029Y132666727D01*
X-58568017Y132767212D01*
X-58578791Y132821377D01*
X-58592952Y132855565D01*
X-58639131Y132967053D01*
X-58639138Y132967066D01*
X-58726739Y133098169D01*
X-58726742Y133098173D01*
X-58838236Y133209667D01*
X-58838240Y133209670D01*
X-58969343Y133297271D01*
X-58969356Y133297278D01*
X-59115027Y133357616D01*
X-59115039Y133357619D01*
X-59269683Y133388380D01*
X-59269686Y133388380D01*
X-59427370Y133388380D01*
X-59427373Y133388380D01*
X-59582018Y133357619D01*
X-59582030Y133357616D01*
X-59727701Y133297278D01*
X-59727714Y133297271D01*
X-59858817Y133209670D01*
X-59858821Y133209667D01*
X-59970315Y133098173D01*
X-59970318Y133098169D01*
X-60057919Y132967066D01*
X-60057926Y132967053D01*
X-60118264Y132821382D01*
X-60118267Y132821372D01*
X-60144372Y132690133D01*
X-60144372Y132690130D01*
X-60149028Y132666722D01*
X-60387724Y132666722D01*
X-60418411Y132820997D01*
X-60418413Y132821002D01*
X-60478751Y132966673D01*
X-60478758Y132966686D01*
X-60566359Y133097789D01*
X-60566362Y133097793D01*
X-60677856Y133209287D01*
X-60677860Y133209290D01*
X-60808963Y133296891D01*
X-60808976Y133296898D01*
X-60954647Y133357236D01*
X-60954659Y133357239D01*
X-61109303Y133388000D01*
X-61109306Y133388000D01*
X-61266990Y133388000D01*
X-61266993Y133388000D01*
X-61421638Y133357239D01*
X-61421650Y133357236D01*
X-61567321Y133296898D01*
X-61567334Y133296891D01*
X-61698437Y133209290D01*
X-61698441Y133209287D01*
X-61809935Y133097793D01*
X-61809938Y133097789D01*
X-61897539Y132966686D01*
X-61897546Y132966673D01*
X-61957884Y132821002D01*
X-61957887Y132820990D01*
X-61988648Y132666347D01*
X-71657223Y132666347D01*
X-71619559Y132704011D01*
X-71563454Y132760115D01*
X-71556362Y132767208D01*
X-71556359Y132767211D01*
X-71468754Y132898321D01*
X-71408411Y133044003D01*
X-71377648Y133198658D01*
X-71377648Y133356342D01*
X-71377648Y133356344D01*
X-71377648Y133356345D01*
X-71377649Y133356347D01*
X-71395839Y133447793D01*
X-71408411Y133510997D01*
X-71427924Y133558106D01*
X-71468751Y133656673D01*
X-71468758Y133656686D01*
X-71556359Y133787789D01*
X-71556362Y133787793D01*
X-71667856Y133899287D01*
X-71667860Y133899290D01*
X-71798963Y133986891D01*
X-71798976Y133986898D01*
X-71939443Y134045080D01*
X-71993847Y134088920D01*
X-72015912Y134155215D01*
X-72013608Y134183835D01*
X-72012648Y134188658D01*
X-72012648Y134346342D01*
X-72012648Y134346345D01*
X-72012649Y134346347D01*
X-72033265Y134449994D01*
X-72036866Y134468098D01*
X-67660399Y134468098D01*
X-67660399Y134310405D01*
X-67629638Y134155762D01*
X-67629635Y134155750D01*
X-67569297Y134010079D01*
X-67569290Y134010066D01*
X-67481689Y133878963D01*
X-67481686Y133878959D01*
X-67370192Y133767465D01*
X-67370188Y133767462D01*
X-67239085Y133679861D01*
X-67239072Y133679854D01*
X-67093401Y133619516D01*
X-67093396Y133619514D01*
X-66938746Y133588752D01*
X-66938743Y133588751D01*
X-66938741Y133588751D01*
X-66781055Y133588751D01*
X-66781054Y133588752D01*
X-66626402Y133619514D01*
X-66480720Y133679857D01*
X-66349610Y133767462D01*
X-66238110Y133878962D01*
X-66150505Y134010072D01*
X-66122260Y134078264D01*
X-66078422Y134132664D01*
X-66031891Y134152426D01*
X-66015181Y134155750D01*
X-65929651Y134172763D01*
X-65783969Y134233106D01*
X-65652859Y134320711D01*
X-65541359Y134432211D01*
X-65453754Y134563321D01*
X-65393411Y134709003D01*
X-65362648Y134863658D01*
X-65362648Y134928957D01*
X-56618649Y134928957D01*
X-56580201Y134735671D01*
X-56580198Y134735661D01*
X-56504784Y134553593D01*
X-56504777Y134553580D01*
X-56395288Y134389719D01*
X-56395285Y134389715D01*
X-56255934Y134250364D01*
X-56255930Y134250361D01*
X-56092069Y134140872D01*
X-56092056Y134140865D01*
X-55909988Y134065451D01*
X-55909983Y134065449D01*
X-55909979Y134065449D01*
X-55909978Y134065448D01*
X-55716692Y134027000D01*
X-55716689Y134027000D01*
X-54419605Y134027000D01*
X-54289566Y134052868D01*
X-54226313Y134065449D01*
X-54044234Y134140868D01*
X-53880366Y134250361D01*
X-53741009Y134389718D01*
X-53631516Y134553586D01*
X-53556097Y134735665D01*
X-53538541Y134823924D01*
X-53517648Y134928957D01*
X-52268649Y134928957D01*
X-52230201Y134735671D01*
X-52230198Y134735661D01*
X-52154784Y134553593D01*
X-52154777Y134553580D01*
X-52045288Y134389719D01*
X-52045285Y134389715D01*
X-51905934Y134250364D01*
X-51905930Y134250361D01*
X-51742069Y134140872D01*
X-51742056Y134140865D01*
X-51559988Y134065451D01*
X-51559983Y134065449D01*
X-51559979Y134065449D01*
X-51559978Y134065448D01*
X-51366692Y134027000D01*
X-51366689Y134027000D01*
X-50369605Y134027000D01*
X-50239566Y134052868D01*
X-50176313Y134065449D01*
X-49994234Y134140868D01*
X-49830366Y134250361D01*
X-49691009Y134389718D01*
X-49581516Y134553586D01*
X-49506097Y134735665D01*
X-49488541Y134823924D01*
X-49467648Y134928957D01*
X-49467648Y135126044D01*
X-49506096Y135319330D01*
X-49506097Y135319331D01*
X-49506097Y135319335D01*
X-49507071Y135321686D01*
X-49581513Y135501408D01*
X-49581520Y135501421D01*
X-49691009Y135665282D01*
X-49691012Y135665286D01*
X-49830363Y135804637D01*
X-49830367Y135804640D01*
X-49994228Y135914129D01*
X-49994241Y135914136D01*
X-50176309Y135989550D01*
X-50176319Y135989553D01*
X-50369605Y136028000D01*
X-50369607Y136028000D01*
X-51366689Y136028000D01*
X-51366691Y136028000D01*
X-51559978Y135989553D01*
X-51559988Y135989550D01*
X-51742056Y135914136D01*
X-51742069Y135914129D01*
X-51905930Y135804640D01*
X-51905934Y135804637D01*
X-52045285Y135665286D01*
X-52045288Y135665282D01*
X-52154777Y135501421D01*
X-52154784Y135501408D01*
X-52230198Y135319340D01*
X-52230201Y135319330D01*
X-52268648Y135126044D01*
X-52268648Y135126041D01*
X-52268648Y134928959D01*
X-52268648Y134928957D01*
X-52268649Y134928957D01*
X-53517648Y134928957D01*
X-53517648Y135126044D01*
X-53556096Y135319330D01*
X-53556097Y135319331D01*
X-53556097Y135319335D01*
X-53557071Y135321686D01*
X-53631513Y135501408D01*
X-53631520Y135501421D01*
X-53741009Y135665282D01*
X-53741012Y135665286D01*
X-53880363Y135804637D01*
X-53880367Y135804640D01*
X-54044232Y135914131D01*
X-54049504Y135916949D01*
X-54099350Y135965910D01*
X-54114812Y136034047D01*
X-54090983Y136099728D01*
X-54089422Y136101806D01*
X-54087641Y136104128D01*
X-54087633Y136104135D01*
X-54011867Y136235365D01*
X-53972648Y136381734D01*
X-53972648Y136533266D01*
X-54011867Y136679635D01*
X-54015107Y136685246D01*
X-54031707Y136713999D01*
X-54087633Y136810865D01*
X-54194783Y136918015D01*
X-54295565Y136976202D01*
X-54326012Y136993781D01*
X-54447534Y137026342D01*
X-54472382Y137033000D01*
X-54623914Y137033000D01*
X-54623916Y137033000D01*
X-54728692Y137004926D01*
X-54798542Y137006589D01*
X-54856404Y137045752D01*
X-54882401Y137100510D01*
X-54887207Y137124670D01*
X-54898411Y137180997D01*
X-54933110Y137264769D01*
X-54958751Y137326673D01*
X-54958758Y137326686D01*
X-55046359Y137457789D01*
X-55046362Y137457793D01*
X-55157856Y137569287D01*
X-55157860Y137569290D01*
X-55288963Y137656891D01*
X-55288976Y137656898D01*
X-55434647Y137717236D01*
X-55434659Y137717239D01*
X-55589303Y137748000D01*
X-55589306Y137748000D01*
X-55746990Y137748000D01*
X-55746993Y137748000D01*
X-55901638Y137717239D01*
X-55901650Y137717236D01*
X-56047321Y137656898D01*
X-56047334Y137656891D01*
X-56178437Y137569290D01*
X-56178441Y137569287D01*
X-56289935Y137457793D01*
X-56289938Y137457789D01*
X-56377539Y137326686D01*
X-56377546Y137326673D01*
X-56437884Y137181002D01*
X-56437887Y137180990D01*
X-56468648Y137026347D01*
X-56468648Y136868654D01*
X-56437887Y136714011D01*
X-56437884Y136713999D01*
X-56377546Y136568328D01*
X-56377539Y136568315D01*
X-56289938Y136437212D01*
X-56289935Y136437208D01*
X-56178441Y136325714D01*
X-56178437Y136325711D01*
X-56047334Y136238110D01*
X-56047321Y136238103D01*
X-55955198Y136199945D01*
X-55900794Y136156105D01*
X-55878729Y136089811D01*
X-55896008Y136022111D01*
X-55947145Y135974500D01*
X-55955198Y135970823D01*
X-56092056Y135914136D01*
X-56092069Y135914129D01*
X-56255930Y135804640D01*
X-56255934Y135804637D01*
X-56395285Y135665286D01*
X-56395288Y135665282D01*
X-56504777Y135501421D01*
X-56504784Y135501408D01*
X-56580198Y135319340D01*
X-56580201Y135319330D01*
X-56618648Y135126044D01*
X-56618648Y135126041D01*
X-56618648Y134928959D01*
X-56618648Y134928957D01*
X-56618649Y134928957D01*
X-65362648Y134928957D01*
X-65362648Y135021342D01*
X-65362648Y135021345D01*
X-65362649Y135021347D01*
X-65379873Y135107942D01*
X-65393410Y135175992D01*
X-65393411Y135175993D01*
X-65393411Y135175997D01*
X-65400725Y135193654D01*
X-65453751Y135321673D01*
X-65453758Y135321686D01*
X-65541359Y135452789D01*
X-65541362Y135452793D01*
X-65652856Y135564287D01*
X-65652860Y135564290D01*
X-65783963Y135651891D01*
X-65783976Y135651898D01*
X-65929647Y135712236D01*
X-65929659Y135712239D01*
X-66084303Y135743000D01*
X-66084306Y135743000D01*
X-66241990Y135743000D01*
X-66241993Y135743000D01*
X-66396638Y135712239D01*
X-66396650Y135712236D01*
X-66542321Y135651898D01*
X-66542334Y135651891D01*
X-66673437Y135564290D01*
X-66673441Y135564287D01*
X-66784935Y135452793D01*
X-66784938Y135452789D01*
X-66872539Y135321686D01*
X-66872544Y135321677D01*
X-66900787Y135253490D01*
X-66944628Y135199087D01*
X-66991156Y135179326D01*
X-67093391Y135158990D01*
X-67093401Y135158987D01*
X-67239072Y135098649D01*
X-67239085Y135098642D01*
X-67370188Y135011041D01*
X-67370192Y135011038D01*
X-67481686Y134899544D01*
X-67481689Y134899540D01*
X-67569290Y134768437D01*
X-67569297Y134768424D01*
X-67629635Y134622753D01*
X-67629638Y134622741D01*
X-67660399Y134468098D01*
X-72036866Y134468098D01*
X-72043410Y134500992D01*
X-72043411Y134500993D01*
X-72043411Y134500997D01*
X-72092005Y134618315D01*
X-72103751Y134646673D01*
X-72103755Y134646680D01*
X-72103760Y134646688D01*
X-72150125Y134716078D01*
X-72171002Y134782752D01*
X-72152518Y134850133D01*
X-72150165Y134853796D01*
X-72123754Y134893321D01*
X-72063411Y135039003D01*
X-72032648Y135193658D01*
X-72032648Y135351342D01*
X-72032648Y135351345D01*
X-72032649Y135351351D01*
X-72053204Y135454681D01*
X-72063411Y135505997D01*
X-72087556Y135564289D01*
X-72123751Y135651673D01*
X-72123758Y135651686D01*
X-72211359Y135782789D01*
X-72211362Y135782793D01*
X-72322856Y135894287D01*
X-72322860Y135894290D01*
X-72453963Y135981891D01*
X-72453976Y135981898D01*
X-72599647Y136042236D01*
X-72599659Y136042239D01*
X-72754303Y136073000D01*
X-72754306Y136073000D01*
X-72911990Y136073000D01*
X-72911993Y136073000D01*
X-73066638Y136042239D01*
X-73066650Y136042236D01*
X-73212321Y135981898D01*
X-73212334Y135981891D01*
X-73343437Y135894290D01*
X-73343441Y135894287D01*
X-73454935Y135782793D01*
X-73454938Y135782789D01*
X-73542539Y135651686D01*
X-73542546Y135651673D01*
X-73602884Y135506002D01*
X-73602887Y135505990D01*
X-73633647Y135351351D01*
X-73633648Y135351345D01*
X-76228260Y135351345D01*
X-76238751Y135376673D01*
X-76238758Y135376686D01*
X-76326359Y135507789D01*
X-76326362Y135507793D01*
X-76437856Y135619287D01*
X-76437860Y135619290D01*
X-76568963Y135706891D01*
X-76568976Y135706898D01*
X-76714647Y135767236D01*
X-76714659Y135767239D01*
X-76869303Y135798000D01*
X-76869306Y135798000D01*
X-77026990Y135798000D01*
X-77026993Y135798000D01*
X-77181638Y135767239D01*
X-77181650Y135767236D01*
X-77327321Y135706898D01*
X-77327334Y135706891D01*
X-77458437Y135619290D01*
X-77458441Y135619287D01*
X-77569935Y135507793D01*
X-77569938Y135507789D01*
X-77657539Y135376686D01*
X-77657546Y135376673D01*
X-77717885Y135231000D01*
X-77717886Y135230996D01*
X-77719566Y135222548D01*
X-77751953Y135160638D01*
X-77812670Y135126066D01*
X-77816989Y135125126D01*
X-77856643Y135117238D01*
X-77856650Y135117236D01*
X-78002321Y135056898D01*
X-78002334Y135056891D01*
X-78133437Y134969290D01*
X-78133441Y134969287D01*
X-78244935Y134857793D01*
X-78244938Y134857789D01*
X-78332539Y134726686D01*
X-78332546Y134726673D01*
X-78392884Y134581002D01*
X-78392887Y134580990D01*
X-78423648Y134426347D01*
X-78423648Y134268654D01*
X-78392887Y134114011D01*
X-78392884Y134113999D01*
X-78332546Y133968328D01*
X-78332536Y133968310D01*
X-78303846Y133925372D01*
X-78282968Y133858695D01*
X-78301453Y133791315D01*
X-78353432Y133744625D01*
X-78382756Y133734865D01*
X-78521640Y133707239D01*
X-78521650Y133707236D01*
X-78667321Y133646898D01*
X-78667334Y133646891D01*
X-78798437Y133559290D01*
X-78798441Y133559287D01*
X-78909935Y133447793D01*
X-78909938Y133447789D01*
X-78997539Y133316686D01*
X-78997546Y133316673D01*
X-79057884Y133171002D01*
X-79057887Y133170990D01*
X-79088648Y133016347D01*
X-79088648Y132968359D01*
X-79108333Y132901320D01*
X-79161137Y132855565D01*
X-79165195Y132853798D01*
X-79302571Y132796896D01*
X-79302580Y132796891D01*
X-79433683Y132709290D01*
X-79433687Y132709287D01*
X-79545181Y132597793D01*
X-79545184Y132597789D01*
X-79632785Y132466686D01*
X-79632792Y132466673D01*
X-79693130Y132321002D01*
X-79693133Y132320990D01*
X-79723894Y132166347D01*
X-85343651Y132166347D01*
X-85338409Y132179003D01*
X-85307646Y132333658D01*
X-85307646Y132491342D01*
X-85307646Y132491345D01*
X-85307647Y132491347D01*
X-85320969Y132558321D01*
X-85338409Y132645997D01*
X-85346838Y132666347D01*
X-85398749Y132791673D01*
X-85398756Y132791686D01*
X-85486357Y132922789D01*
X-85486360Y132922793D01*
X-85597854Y133034287D01*
X-85597858Y133034290D01*
X-85728961Y133121891D01*
X-85728974Y133121898D01*
X-85874645Y133182236D01*
X-85874657Y133182239D01*
X-86029301Y133213000D01*
X-86029304Y133213000D01*
X-86186988Y133213000D01*
X-86186991Y133213000D01*
X-86341636Y133182239D01*
X-86341648Y133182236D01*
X-86487319Y133121898D01*
X-86487332Y133121891D01*
X-86618435Y133034290D01*
X-86618439Y133034287D01*
X-86729933Y132922793D01*
X-86729936Y132922789D01*
X-86817537Y132791686D01*
X-86817544Y132791673D01*
X-86877882Y132646002D01*
X-86877885Y132645990D01*
X-86908646Y132491347D01*
X-87612648Y132491347D01*
X-87612648Y139276347D01*
X-84646148Y139276347D01*
X-84646148Y139118654D01*
X-84615387Y138964011D01*
X-84615384Y138963999D01*
X-84555046Y138818328D01*
X-84555039Y138818315D01*
X-84467438Y138687212D01*
X-84467435Y138687208D01*
X-84355941Y138575714D01*
X-84355933Y138575708D01*
X-84309455Y138544652D01*
X-84264649Y138491040D01*
X-84255942Y138421715D01*
X-84286096Y138358688D01*
X-84309453Y138338448D01*
X-84355941Y138307386D01*
X-84467435Y138195892D01*
X-84467438Y138195888D01*
X-84555039Y138064785D01*
X-84555046Y138064772D01*
X-84615384Y137919101D01*
X-84615387Y137919089D01*
X-84646148Y137764446D01*
X-84646148Y137606753D01*
X-84615387Y137452110D01*
X-84615384Y137452098D01*
X-84555046Y137306427D01*
X-84555039Y137306414D01*
X-84467438Y137175311D01*
X-84467435Y137175307D01*
X-84355941Y137063813D01*
X-84355937Y137063810D01*
X-84224834Y136976209D01*
X-84224821Y136976202D01*
X-84084343Y136918015D01*
X-84079145Y136915862D01*
X-83936274Y136887443D01*
X-83924495Y136885100D01*
X-83924492Y136885099D01*
X-83924490Y136885099D01*
X-83766804Y136885099D01*
X-83766803Y136885100D01*
X-83612151Y136915862D01*
X-83466469Y136976205D01*
X-83335359Y137063810D01*
X-83223859Y137175310D01*
X-83136254Y137306420D01*
X-83127862Y137326679D01*
X-83089447Y137419424D01*
X-83075911Y137452102D01*
X-83045148Y137606757D01*
X-83045148Y137764441D01*
X-83045148Y137764444D01*
X-83045149Y137764446D01*
X-83069374Y137886231D01*
X-83075911Y137919096D01*
X-83091056Y137955659D01*
X-83136251Y138064772D01*
X-83136258Y138064785D01*
X-83223859Y138195888D01*
X-83223862Y138195892D01*
X-83335356Y138307386D01*
X-83335360Y138307389D01*
X-83381843Y138338448D01*
X-83426648Y138392060D01*
X-83435355Y138461385D01*
X-83405201Y138524413D01*
X-83381841Y138544653D01*
X-83335359Y138575711D01*
X-83223859Y138687211D01*
X-83136254Y138818321D01*
X-83075911Y138964003D01*
X-83045148Y139118658D01*
X-83045148Y139261347D01*
X-82068245Y139261347D01*
X-82068245Y139103654D01*
X-82037484Y138949011D01*
X-82037481Y138948999D01*
X-81977143Y138803328D01*
X-81977136Y138803315D01*
X-81889535Y138672212D01*
X-81889532Y138672208D01*
X-81778038Y138560714D01*
X-81778034Y138560711D01*
X-81646931Y138473110D01*
X-81646918Y138473103D01*
X-81501247Y138412765D01*
X-81501242Y138412763D01*
X-81346592Y138382001D01*
X-81346589Y138382000D01*
X-81346587Y138382000D01*
X-81188901Y138382000D01*
X-81188900Y138382001D01*
X-81034248Y138412763D01*
X-80888566Y138473106D01*
X-80757456Y138560711D01*
X-80645956Y138672211D01*
X-80558351Y138803321D01*
X-80498008Y138949003D01*
X-80467245Y139103658D01*
X-80467245Y139261342D01*
X-80467245Y139261345D01*
X-80467246Y139261347D01*
X-80470230Y139276347D01*
X-80498008Y139415997D01*
X-80537699Y139511820D01*
X-80558348Y139561673D01*
X-80558355Y139561686D01*
X-80645956Y139692789D01*
X-80645959Y139692793D01*
X-80757453Y139804287D01*
X-80757457Y139804290D01*
X-80888560Y139891891D01*
X-80888573Y139891898D01*
X-81034244Y139952236D01*
X-81034256Y139952239D01*
X-81188900Y139983000D01*
X-81188903Y139983000D01*
X-81346587Y139983000D01*
X-81346590Y139983000D01*
X-81501235Y139952239D01*
X-81501247Y139952236D01*
X-81646918Y139891898D01*
X-81646931Y139891891D01*
X-81778034Y139804290D01*
X-81778038Y139804287D01*
X-81889532Y139692793D01*
X-81889535Y139692789D01*
X-81977136Y139561686D01*
X-81977143Y139561673D01*
X-82037481Y139416002D01*
X-82037484Y139415990D01*
X-82068245Y139261347D01*
X-83045148Y139261347D01*
X-83045148Y139276342D01*
X-83045148Y139276345D01*
X-83045149Y139276347D01*
X-83052384Y139312718D01*
X-83075911Y139430997D01*
X-83075913Y139431002D01*
X-83136251Y139576673D01*
X-83136258Y139576686D01*
X-83223859Y139707789D01*
X-83223862Y139707793D01*
X-83335356Y139819287D01*
X-83335360Y139819290D01*
X-83466463Y139906891D01*
X-83466476Y139906898D01*
X-83612147Y139967236D01*
X-83612159Y139967239D01*
X-83766803Y139998000D01*
X-83766806Y139998000D01*
X-83924490Y139998000D01*
X-83924493Y139998000D01*
X-84079138Y139967239D01*
X-84079150Y139967236D01*
X-84224821Y139906898D01*
X-84224834Y139906891D01*
X-84355937Y139819290D01*
X-84355941Y139819287D01*
X-84467435Y139707793D01*
X-84467438Y139707789D01*
X-84555039Y139576686D01*
X-84555046Y139576673D01*
X-84615384Y139431002D01*
X-84615387Y139430990D01*
X-84646148Y139276347D01*
X-87612648Y139276347D01*
X-87612648Y141166347D01*
X-71488648Y141166347D01*
X-71488648Y141008654D01*
X-71457887Y140854011D01*
X-71457884Y140853999D01*
X-71397546Y140708328D01*
X-71397540Y140708317D01*
X-71309938Y140577212D01*
X-71309935Y140577208D01*
X-71198441Y140465714D01*
X-71198437Y140465711D01*
X-71067334Y140378110D01*
X-71067321Y140378103D01*
X-70921650Y140317765D01*
X-70921645Y140317763D01*
X-70774787Y140288551D01*
X-70766995Y140287001D01*
X-70766992Y140287000D01*
X-70766990Y140287000D01*
X-70609304Y140287000D01*
X-70609303Y140287001D01*
X-70454651Y140317763D01*
X-70308969Y140378106D01*
X-70177859Y140465711D01*
X-70066359Y140577211D01*
X-70063855Y140580960D01*
X-70010245Y140625767D01*
X-69940920Y140634478D01*
X-69936575Y140633695D01*
X-69896722Y140625767D01*
X-69841992Y140614880D01*
X-69841990Y140614880D01*
X-69684304Y140614880D01*
X-69684303Y140614881D01*
X-69529651Y140645643D01*
X-69383969Y140705986D01*
X-69351516Y140727671D01*
X-69284841Y140748549D01*
X-69217461Y140730066D01*
X-69170769Y140678088D01*
X-69168065Y140672025D01*
X-69162837Y140659403D01*
X-69162832Y140659394D01*
X-69075231Y140528291D01*
X-69075228Y140528287D01*
X-68963734Y140416793D01*
X-68963730Y140416790D01*
X-68832627Y140329189D01*
X-68832623Y140329187D01*
X-68832620Y140329185D01*
X-68734514Y140288549D01*
X-68680114Y140244710D01*
X-68658048Y140178416D01*
X-68675327Y140110717D01*
X-68694288Y140086308D01*
X-70111080Y138669516D01*
X-70172403Y138636031D01*
X-70174569Y138635580D01*
X-70241640Y138622239D01*
X-70241650Y138622236D01*
X-70387321Y138561898D01*
X-70387334Y138561891D01*
X-70518437Y138474290D01*
X-70518441Y138474287D01*
X-70629935Y138362793D01*
X-70629938Y138362789D01*
X-70717539Y138231686D01*
X-70717546Y138231673D01*
X-70777884Y138086002D01*
X-70777887Y138085990D01*
X-70808648Y137931347D01*
X-70808648Y137773654D01*
X-70777887Y137619011D01*
X-70777884Y137618999D01*
X-70717546Y137473328D01*
X-70717539Y137473315D01*
X-70629938Y137342212D01*
X-70629935Y137342208D01*
X-70518441Y137230714D01*
X-70518437Y137230711D01*
X-70387334Y137143110D01*
X-70387321Y137143103D01*
X-70258374Y137089692D01*
X-70232832Y137069110D01*
X-70206553Y137049434D01*
X-70205753Y137047288D01*
X-70203970Y137045851D01*
X-70193609Y137014721D01*
X-70182141Y136983967D01*
X-70182629Y136981730D01*
X-70181905Y136979557D01*
X-70190022Y136947758D01*
X-70196999Y136915695D01*
X-70198829Y136913252D01*
X-70199184Y136911858D01*
X-70218152Y136887443D01*
X-70224457Y136881139D01*
X-70285783Y136847659D01*
X-70287939Y136847210D01*
X-70355010Y136833869D01*
X-70355020Y136833866D01*
X-70500691Y136773528D01*
X-70500704Y136773521D01*
X-70631807Y136685920D01*
X-70631811Y136685917D01*
X-70743305Y136574423D01*
X-70743308Y136574419D01*
X-70830909Y136443316D01*
X-70830916Y136443303D01*
X-70891254Y136297632D01*
X-70891257Y136297620D01*
X-70922018Y136142977D01*
X-70922018Y135985284D01*
X-70891257Y135830641D01*
X-70891254Y135830629D01*
X-70830916Y135684958D01*
X-70830909Y135684945D01*
X-70743308Y135553842D01*
X-70743305Y135553838D01*
X-70631811Y135442344D01*
X-70631807Y135442341D01*
X-70500704Y135354740D01*
X-70500691Y135354733D01*
X-70355020Y135294395D01*
X-70355015Y135294393D01*
X-70200365Y135263631D01*
X-70200362Y135263630D01*
X-70200360Y135263630D01*
X-70042674Y135263630D01*
X-70042673Y135263631D01*
X-69888021Y135294393D01*
X-69750533Y135351342D01*
X-69742346Y135354733D01*
X-69742346Y135354734D01*
X-69742339Y135354736D01*
X-69611229Y135442341D01*
X-69499729Y135553841D01*
X-69412124Y135684951D01*
X-69351781Y135830633D01*
X-69338439Y135897714D01*
X-69306055Y135959621D01*
X-69304560Y135961144D01*
X-68000934Y137264769D01*
X-65899907Y137264769D01*
X-65899907Y137107076D01*
X-65869146Y136952433D01*
X-65869143Y136952421D01*
X-65808805Y136806750D01*
X-65808798Y136806737D01*
X-65721197Y136675634D01*
X-65721194Y136675630D01*
X-65609700Y136564136D01*
X-65609696Y136564133D01*
X-65478593Y136476532D01*
X-65478580Y136476525D01*
X-65332909Y136416187D01*
X-65332904Y136416185D01*
X-65178254Y136385423D01*
X-65178251Y136385422D01*
X-65178249Y136385422D01*
X-65020563Y136385422D01*
X-65020562Y136385423D01*
X-64865910Y136416185D01*
X-64735278Y136470295D01*
X-64665810Y136477763D01*
X-64640379Y136470296D01*
X-64532959Y136425801D01*
X-64378309Y136395039D01*
X-64378306Y136395038D01*
X-64378304Y136395038D01*
X-64220618Y136395038D01*
X-64220617Y136395039D01*
X-64065965Y136425801D01*
X-63920283Y136486144D01*
X-63789173Y136573749D01*
X-63781195Y136581727D01*
X-62183268Y136581727D01*
X-62183268Y136424034D01*
X-62152507Y136269391D01*
X-62152504Y136269379D01*
X-62092166Y136123708D01*
X-62092159Y136123695D01*
X-62004558Y135992592D01*
X-62004555Y135992588D01*
X-61893061Y135881094D01*
X-61893057Y135881091D01*
X-61761954Y135793490D01*
X-61761941Y135793483D01*
X-61640062Y135743000D01*
X-61616265Y135733143D01*
X-61484323Y135706898D01*
X-61461615Y135702381D01*
X-61461612Y135702380D01*
X-61461610Y135702380D01*
X-61303924Y135702380D01*
X-61303923Y135702381D01*
X-61149271Y135733143D01*
X-61003589Y135793486D01*
X-60872479Y135881091D01*
X-60760979Y135992591D01*
X-60673374Y136123701D01*
X-60613031Y136269383D01*
X-60582268Y136424038D01*
X-60582268Y136581722D01*
X-60582268Y136581725D01*
X-60582269Y136581727D01*
X-60600948Y136675633D01*
X-60613031Y136736377D01*
X-60628416Y136773521D01*
X-60673371Y136882053D01*
X-60673378Y136882066D01*
X-60760979Y137013169D01*
X-60760982Y137013173D01*
X-60872476Y137124667D01*
X-60872480Y137124670D01*
X-61003583Y137212271D01*
X-61003596Y137212278D01*
X-61149267Y137272616D01*
X-61149279Y137272619D01*
X-61303923Y137303380D01*
X-61303926Y137303380D01*
X-61461610Y137303380D01*
X-61461613Y137303380D01*
X-61616258Y137272619D01*
X-61616270Y137272616D01*
X-61761941Y137212278D01*
X-61761954Y137212271D01*
X-61893057Y137124670D01*
X-61893061Y137124667D01*
X-62004555Y137013173D01*
X-62004558Y137013169D01*
X-62092159Y136882066D01*
X-62092166Y136882053D01*
X-62152504Y136736382D01*
X-62152507Y136736370D01*
X-62183268Y136581727D01*
X-63781195Y136581727D01*
X-63687426Y136675495D01*
X-63677676Y136685246D01*
X-63677673Y136685249D01*
X-63590068Y136816359D01*
X-63529725Y136962041D01*
X-63498962Y137116696D01*
X-63498962Y137274380D01*
X-63498962Y137274384D01*
X-63527811Y137419412D01*
X-63529725Y137429035D01*
X-63539278Y137452098D01*
X-63590065Y137574711D01*
X-63590072Y137574724D01*
X-63677673Y137705827D01*
X-63677676Y137705831D01*
X-63789170Y137817325D01*
X-63789174Y137817328D01*
X-63920277Y137904929D01*
X-63920290Y137904936D01*
X-64065961Y137965274D01*
X-64065973Y137965277D01*
X-64220617Y137996038D01*
X-64220620Y137996038D01*
X-64378304Y137996038D01*
X-64378307Y137996038D01*
X-64532952Y137965277D01*
X-64532964Y137965274D01*
X-64663591Y137911167D01*
X-64733061Y137903698D01*
X-64758495Y137911167D01*
X-64865906Y137955658D01*
X-64865918Y137955661D01*
X-65020562Y137986422D01*
X-65020565Y137986422D01*
X-65178249Y137986422D01*
X-65178252Y137986422D01*
X-65332897Y137955661D01*
X-65332909Y137955658D01*
X-65478580Y137895320D01*
X-65478593Y137895313D01*
X-65609696Y137807712D01*
X-65609700Y137807709D01*
X-65721194Y137696215D01*
X-65721197Y137696211D01*
X-65808798Y137565108D01*
X-65808805Y137565095D01*
X-65869143Y137419424D01*
X-65869146Y137419412D01*
X-65899907Y137264769D01*
X-68000934Y137264769D01*
X-66805021Y138460681D01*
X-66743698Y138494166D01*
X-66717340Y138497000D01*
X-62644731Y138497000D01*
X-62560187Y138513818D01*
X-62519058Y138521999D01*
X-62467003Y138543562D01*
X-62419550Y138553000D01*
X-62049423Y138553000D01*
X-61964879Y138569818D01*
X-61923750Y138577999D01*
X-61805367Y138627035D01*
X-61796693Y138632831D01*
X-61777343Y138645761D01*
X-61710664Y138666634D01*
X-61708458Y138666654D01*
X-60772707Y138666654D01*
X-60705668Y138646969D01*
X-60669607Y138611546D01*
X-60647190Y138577998D01*
X-60619936Y138537209D01*
X-60508441Y138425714D01*
X-60508437Y138425711D01*
X-60377334Y138338110D01*
X-60377321Y138338103D01*
X-60231650Y138277765D01*
X-60231645Y138277763D01*
X-60076995Y138247001D01*
X-60076992Y138247000D01*
X-60076990Y138247000D01*
X-59919304Y138247000D01*
X-59919303Y138247001D01*
X-59764651Y138277763D01*
X-59618969Y138338106D01*
X-59591632Y138356373D01*
X-59524959Y138377251D01*
X-59457578Y138358768D01*
X-59419639Y138322161D01*
X-59399579Y138292138D01*
X-59288084Y138180643D01*
X-59288080Y138180640D01*
X-59156977Y138093039D01*
X-59156964Y138093032D01*
X-59088737Y138064772D01*
X-59011288Y138032692D01*
X-58856638Y138001930D01*
X-58856635Y138001929D01*
X-58856633Y138001929D01*
X-58698947Y138001929D01*
X-58698946Y138001930D01*
X-58544294Y138032692D01*
X-58398612Y138093035D01*
X-58267502Y138180640D01*
X-58156002Y138292140D01*
X-58068397Y138423250D01*
X-58008054Y138568932D01*
X-57977291Y138723587D01*
X-57977291Y138881271D01*
X-57977291Y138881274D01*
X-57977292Y138881276D01*
X-57990764Y138949003D01*
X-58008054Y139035926D01*
X-58008056Y139035931D01*
X-58068394Y139181602D01*
X-58068401Y139181615D01*
X-58156002Y139312718D01*
X-58156005Y139312722D01*
X-58267499Y139424216D01*
X-58267503Y139424219D01*
X-58398606Y139511820D01*
X-58398610Y139511822D01*
X-58398612Y139511823D01*
X-58448582Y139532521D01*
X-58502983Y139576360D01*
X-58525048Y139642654D01*
X-58507769Y139710353D01*
X-58488810Y139734761D01*
X-58476359Y139747211D01*
X-58388754Y139878321D01*
X-58328411Y140024003D01*
X-58297648Y140178658D01*
X-58297648Y140331439D01*
X-58277963Y140398478D01*
X-58225159Y140444233D01*
X-58156001Y140454177D01*
X-58149452Y140453055D01*
X-58138862Y140450948D01*
X-58138859Y140450948D01*
X-57981173Y140450948D01*
X-57981172Y140450949D01*
X-57826520Y140481711D01*
X-57680838Y140542054D01*
X-57549728Y140629659D01*
X-57438228Y140741159D01*
X-57350623Y140872269D01*
X-57290280Y141017951D01*
X-57259517Y141172606D01*
X-57259517Y141330290D01*
X-57259517Y141330293D01*
X-57259518Y141330295D01*
X-57286442Y141465648D01*
X-57290280Y141484945D01*
X-57296635Y141500288D01*
X-57350620Y141630621D01*
X-57350627Y141630634D01*
X-57438228Y141761737D01*
X-57438231Y141761741D01*
X-57549725Y141873235D01*
X-57549729Y141873238D01*
X-57680832Y141960839D01*
X-57680845Y141960846D01*
X-57826516Y142021184D01*
X-57826528Y142021187D01*
X-57981172Y142051948D01*
X-57981175Y142051948D01*
X-58138859Y142051948D01*
X-58138862Y142051948D01*
X-58293507Y142021187D01*
X-58293519Y142021184D01*
X-58439190Y141960846D01*
X-58439203Y141960839D01*
X-58570306Y141873238D01*
X-58570310Y141873235D01*
X-58681804Y141761741D01*
X-58681807Y141761737D01*
X-58769408Y141630634D01*
X-58769415Y141630621D01*
X-58829753Y141484950D01*
X-58829756Y141484938D01*
X-58860517Y141330295D01*
X-58860517Y141177510D01*
X-58880202Y141110471D01*
X-58933006Y141064716D01*
X-58989284Y141053602D01*
X-58999094Y141053980D01*
X-59019306Y141058000D01*
X-59103590Y141058000D01*
X-59105981Y141058092D01*
X-59136934Y141068489D01*
X-59168253Y141077685D01*
X-59169871Y141079552D01*
X-59172215Y141080339D01*
X-59192642Y141105832D01*
X-59214008Y141130489D01*
X-59215094Y141133851D01*
X-59215905Y141134863D01*
X-59216138Y141137083D01*
X-59222831Y141157809D01*
X-59226750Y141177510D01*
X-59233411Y141210997D01*
X-59233413Y141211002D01*
X-59293751Y141356673D01*
X-59293758Y141356686D01*
X-59381359Y141487789D01*
X-59381362Y141487793D01*
X-59492856Y141599287D01*
X-59492860Y141599290D01*
X-59623963Y141686891D01*
X-59623976Y141686898D01*
X-59769647Y141747236D01*
X-59769659Y141747239D01*
X-59924303Y141778000D01*
X-59924306Y141778000D01*
X-60081990Y141778000D01*
X-60081993Y141778000D01*
X-60236638Y141747239D01*
X-60236650Y141747236D01*
X-60382321Y141686898D01*
X-60382334Y141686891D01*
X-60513437Y141599290D01*
X-60593623Y141519104D01*
X-60654947Y141485620D01*
X-60705493Y141485168D01*
X-60719732Y141488000D01*
X-60719733Y141488000D01*
X-61088700Y141488000D01*
X-61155739Y141507685D01*
X-61201494Y141560489D01*
X-61210317Y141587808D01*
X-61236810Y141720992D01*
X-61236811Y141720993D01*
X-61236811Y141720997D01*
X-61253686Y141761737D01*
X-61297151Y141866673D01*
X-61297158Y141866686D01*
X-61384759Y141997789D01*
X-61384762Y141997793D01*
X-61496256Y142109287D01*
X-61496260Y142109290D01*
X-61627363Y142196891D01*
X-61627376Y142196898D01*
X-61773047Y142257236D01*
X-61773059Y142257239D01*
X-61927703Y142288000D01*
X-61927706Y142288000D01*
X-62085390Y142288000D01*
X-62085392Y142288000D01*
X-62240043Y142257238D01*
X-62245877Y142255468D01*
X-62246231Y142256633D01*
X-62309323Y142249858D01*
X-62356180Y142268782D01*
X-62419204Y142310893D01*
X-62419205Y142310894D01*
X-62419207Y142310895D01*
X-62419210Y142310897D01*
X-62419215Y142310899D01*
X-62564885Y142371237D01*
X-62564897Y142371240D01*
X-62719541Y142402001D01*
X-62719544Y142402001D01*
X-62792206Y142402001D01*
X-62859245Y142421686D01*
X-62905000Y142474490D01*
X-62914944Y142543648D01*
X-62885919Y142607204D01*
X-62879887Y142613682D01*
X-62811362Y142682208D01*
X-62811359Y142682211D01*
X-62723754Y142813321D01*
X-62663411Y142959003D01*
X-62632648Y143113658D01*
X-62632648Y143271342D01*
X-62632648Y143271345D01*
X-62632649Y143271347D01*
X-62640955Y143313103D01*
X-62663411Y143425997D01*
X-62699120Y143512208D01*
X-62704977Y143526347D01*
X-59408648Y143526347D01*
X-59408648Y143368654D01*
X-59377887Y143214011D01*
X-59377884Y143213999D01*
X-59317546Y143068328D01*
X-59317539Y143068315D01*
X-59229938Y142937212D01*
X-59229935Y142937208D01*
X-59118441Y142825714D01*
X-59118437Y142825711D01*
X-58987334Y142738110D01*
X-58987321Y142738103D01*
X-58847862Y142680338D01*
X-58841645Y142677763D01*
X-58744140Y142658368D01*
X-58686995Y142647001D01*
X-58686992Y142647000D01*
X-58686990Y142647000D01*
X-58529304Y142647000D01*
X-58529303Y142647001D01*
X-58374651Y142677763D01*
X-58261982Y142724433D01*
X-58228976Y142738103D01*
X-58228976Y142738104D01*
X-58228969Y142738106D01*
X-58097859Y142825711D01*
X-57986359Y142937211D01*
X-57898754Y143068321D01*
X-57838411Y143214003D01*
X-57807648Y143368658D01*
X-57807648Y143526342D01*
X-57807648Y143526345D01*
X-57807649Y143526347D01*
X-57816125Y143568957D01*
X-56618649Y143568957D01*
X-56580201Y143375671D01*
X-56580198Y143375661D01*
X-56504784Y143193593D01*
X-56504777Y143193580D01*
X-56395288Y143029719D01*
X-56395285Y143029715D01*
X-56255934Y142890364D01*
X-56255930Y142890361D01*
X-56092069Y142780872D01*
X-56092065Y142780870D01*
X-56092062Y142780868D01*
X-55955197Y142724178D01*
X-55900794Y142680338D01*
X-55878729Y142614044D01*
X-55896008Y142546344D01*
X-55947144Y142498734D01*
X-55955197Y142495056D01*
X-56047324Y142456896D01*
X-56047334Y142456891D01*
X-56178437Y142369290D01*
X-56178441Y142369287D01*
X-56289935Y142257793D01*
X-56289938Y142257789D01*
X-56377539Y142126686D01*
X-56377546Y142126673D01*
X-56437884Y141981002D01*
X-56437887Y141980990D01*
X-56468648Y141826347D01*
X-56468648Y141668654D01*
X-56437887Y141514011D01*
X-56437884Y141513999D01*
X-56377546Y141368328D01*
X-56377539Y141368315D01*
X-56289938Y141237212D01*
X-56289935Y141237208D01*
X-56178441Y141125714D01*
X-56178437Y141125711D01*
X-56047334Y141038110D01*
X-56047321Y141038103D01*
X-55957706Y141000984D01*
X-55901645Y140977763D01*
X-55746995Y140947001D01*
X-55746992Y140947000D01*
X-55746990Y140947000D01*
X-55589304Y140947000D01*
X-55589303Y140947001D01*
X-55434651Y140977763D01*
X-55288969Y141038106D01*
X-55157859Y141125711D01*
X-55046359Y141237211D01*
X-54958754Y141368321D01*
X-54898411Y141514003D01*
X-54882401Y141594493D01*
X-54850017Y141656402D01*
X-54789301Y141690976D01*
X-54728693Y141690076D01*
X-54623914Y141662000D01*
X-54623912Y141662000D01*
X-54472384Y141662000D01*
X-54472382Y141662000D01*
X-54326013Y141701219D01*
X-54194783Y141776985D01*
X-54087633Y141884135D01*
X-54011867Y142015365D01*
X-53972648Y142161734D01*
X-53972648Y142313266D01*
X-54011867Y142459635D01*
X-54020444Y142474490D01*
X-54087632Y142590863D01*
X-54087633Y142590865D01*
X-54087636Y142590868D01*
X-54089426Y142593200D01*
X-54090327Y142595530D01*
X-54091697Y142597903D01*
X-54091327Y142598117D01*
X-54114623Y142658368D01*
X-54100589Y142726814D01*
X-54051777Y142776806D01*
X-54049500Y142778054D01*
X-54044239Y142780866D01*
X-54044234Y142780868D01*
X-53880366Y142890361D01*
X-53741009Y143029718D01*
X-53631516Y143193586D01*
X-53556097Y143375665D01*
X-53534352Y143484982D01*
X-53517648Y143568957D01*
X-52268649Y143568957D01*
X-52230201Y143375671D01*
X-52230198Y143375661D01*
X-52154784Y143193593D01*
X-52154777Y143193580D01*
X-52045288Y143029719D01*
X-52045285Y143029715D01*
X-51905934Y142890364D01*
X-51905930Y142890361D01*
X-51742069Y142780872D01*
X-51742056Y142780865D01*
X-51570845Y142709948D01*
X-51559983Y142705449D01*
X-51559979Y142705449D01*
X-51559978Y142705448D01*
X-51366692Y142667000D01*
X-51366689Y142667000D01*
X-50369605Y142667000D01*
X-50213686Y142698015D01*
X-50176313Y142705449D01*
X-50035493Y142763779D01*
X-49994241Y142780865D01*
X-49994241Y142780866D01*
X-49994234Y142780868D01*
X-49830366Y142890361D01*
X-49691009Y143029718D01*
X-49581516Y143193586D01*
X-49506097Y143375665D01*
X-49484352Y143484982D01*
X-49467648Y143568957D01*
X-49467648Y143766044D01*
X-49506096Y143959330D01*
X-49506097Y143959331D01*
X-49506097Y143959335D01*
X-49557421Y144083243D01*
X-49581513Y144141408D01*
X-49581520Y144141421D01*
X-49691009Y144305282D01*
X-49691012Y144305286D01*
X-49830363Y144444637D01*
X-49830367Y144444640D01*
X-49994228Y144554129D01*
X-49994241Y144554136D01*
X-50176309Y144629550D01*
X-50176319Y144629553D01*
X-50369605Y144668000D01*
X-50369607Y144668000D01*
X-51366689Y144668000D01*
X-51366691Y144668000D01*
X-51559978Y144629553D01*
X-51559988Y144629550D01*
X-51742056Y144554136D01*
X-51742069Y144554129D01*
X-51905930Y144444640D01*
X-51905934Y144444637D01*
X-52045285Y144305286D01*
X-52045288Y144305282D01*
X-52154777Y144141421D01*
X-52154784Y144141408D01*
X-52230198Y143959340D01*
X-52230201Y143959330D01*
X-52268648Y143766044D01*
X-52268648Y143766041D01*
X-52268648Y143568959D01*
X-52268648Y143568957D01*
X-52268649Y143568957D01*
X-53517648Y143568957D01*
X-53517648Y143766044D01*
X-53556096Y143959330D01*
X-53556097Y143959331D01*
X-53556097Y143959335D01*
X-53607421Y144083243D01*
X-53631513Y144141408D01*
X-53631520Y144141421D01*
X-53741009Y144305282D01*
X-53741012Y144305286D01*
X-53880363Y144444637D01*
X-53880367Y144444640D01*
X-54044228Y144554129D01*
X-54044241Y144554136D01*
X-54226309Y144629550D01*
X-54226319Y144629553D01*
X-54419605Y144668000D01*
X-54419607Y144668000D01*
X-55716689Y144668000D01*
X-55716691Y144668000D01*
X-55909978Y144629553D01*
X-55909988Y144629550D01*
X-56092056Y144554136D01*
X-56092069Y144554129D01*
X-56255930Y144444640D01*
X-56255934Y144444637D01*
X-56395285Y144305286D01*
X-56395288Y144305282D01*
X-56504777Y144141421D01*
X-56504784Y144141408D01*
X-56580198Y143959340D01*
X-56580201Y143959330D01*
X-56618648Y143766044D01*
X-56618648Y143766041D01*
X-56618648Y143568959D01*
X-56618648Y143568957D01*
X-56618649Y143568957D01*
X-57816125Y143568957D01*
X-57838410Y143680990D01*
X-57838411Y143680997D01*
X-57874848Y143768965D01*
X-57898751Y143826673D01*
X-57898758Y143826686D01*
X-57986359Y143957789D01*
X-57986362Y143957793D01*
X-58097856Y144069287D01*
X-58097860Y144069290D01*
X-58228963Y144156891D01*
X-58228976Y144156898D01*
X-58374647Y144217236D01*
X-58374659Y144217239D01*
X-58529303Y144248000D01*
X-58529306Y144248000D01*
X-58686990Y144248000D01*
X-58686993Y144248000D01*
X-58841638Y144217239D01*
X-58841650Y144217236D01*
X-58987321Y144156898D01*
X-58987334Y144156891D01*
X-59118437Y144069290D01*
X-59118441Y144069287D01*
X-59229935Y143957793D01*
X-59229938Y143957789D01*
X-59317539Y143826686D01*
X-59317546Y143826673D01*
X-59377884Y143681002D01*
X-59377887Y143680990D01*
X-59408648Y143526347D01*
X-62704977Y143526347D01*
X-62723751Y143571673D01*
X-62723758Y143571686D01*
X-62811359Y143702789D01*
X-62811362Y143702793D01*
X-62922856Y143814287D01*
X-62922860Y143814290D01*
X-63053963Y143901891D01*
X-63053976Y143901898D01*
X-63199647Y143962236D01*
X-63199659Y143962239D01*
X-63354303Y143993000D01*
X-63354306Y143993000D01*
X-63511990Y143993000D01*
X-63511993Y143993000D01*
X-63666638Y143962239D01*
X-63666650Y143962236D01*
X-63812321Y143901898D01*
X-63812328Y143901894D01*
X-63841220Y143882589D01*
X-63869193Y143863898D01*
X-63935869Y143843020D01*
X-63938083Y143843000D01*
X-66677219Y143843000D01*
X-66802887Y143818003D01*
X-66802893Y143818001D01*
X-66921278Y143768965D01*
X-67027817Y143697778D01*
X-67027824Y143697772D01*
X-68897760Y141827836D01*
X-68959083Y141794351D01*
X-69028775Y141799335D01*
X-69084708Y141841207D01*
X-69088543Y141846626D01*
X-69141359Y141925669D01*
X-69141362Y141925673D01*
X-69252856Y142037167D01*
X-69252860Y142037170D01*
X-69383963Y142124771D01*
X-69383976Y142124778D01*
X-69529647Y142185116D01*
X-69529659Y142185119D01*
X-69684303Y142215880D01*
X-69684306Y142215880D01*
X-69841990Y142215880D01*
X-69841993Y142215880D01*
X-69996638Y142185119D01*
X-69996650Y142185116D01*
X-70142321Y142124778D01*
X-70142334Y142124771D01*
X-70273436Y142037171D01*
X-70384940Y141925666D01*
X-70384944Y141925662D01*
X-70387447Y141921914D01*
X-70441060Y141877110D01*
X-70510385Y141868404D01*
X-70514738Y141869190D01*
X-70609302Y141888000D01*
X-70609306Y141888000D01*
X-70766990Y141888000D01*
X-70766993Y141888000D01*
X-70921638Y141857239D01*
X-70921650Y141857236D01*
X-71067321Y141796898D01*
X-71067334Y141796891D01*
X-71198437Y141709290D01*
X-71198441Y141709287D01*
X-71309935Y141597793D01*
X-71309938Y141597789D01*
X-71397539Y141466686D01*
X-71397546Y141466673D01*
X-71457884Y141321002D01*
X-71457887Y141320990D01*
X-71488648Y141166347D01*
X-87612648Y141166347D01*
X-87612648Y143996347D01*
X-82553648Y143996347D01*
X-82553648Y143838654D01*
X-82522887Y143684011D01*
X-82522884Y143683999D01*
X-82462546Y143538328D01*
X-82462539Y143538315D01*
X-82374938Y143407212D01*
X-82374935Y143407208D01*
X-82263441Y143295714D01*
X-82263437Y143295711D01*
X-82132334Y143208110D01*
X-82132321Y143208103D01*
X-81986650Y143147765D01*
X-81986645Y143147763D01*
X-81831995Y143117001D01*
X-81831992Y143117000D01*
X-81831990Y143117000D01*
X-81674304Y143117000D01*
X-81674303Y143117001D01*
X-81519651Y143147763D01*
X-81373969Y143208106D01*
X-81242859Y143295711D01*
X-81131359Y143407211D01*
X-81043754Y143538321D01*
X-80983411Y143684003D01*
X-80952648Y143838658D01*
X-80952648Y143996342D01*
X-80952648Y143996345D01*
X-80952649Y143996347D01*
X-80969933Y144083243D01*
X-80973534Y144101347D01*
X-76023648Y144101347D01*
X-76023648Y143943654D01*
X-75992887Y143789011D01*
X-75992884Y143788999D01*
X-75932546Y143643328D01*
X-75932539Y143643315D01*
X-75844938Y143512212D01*
X-75844935Y143512208D01*
X-75733441Y143400714D01*
X-75733437Y143400711D01*
X-75602334Y143313110D01*
X-75602321Y143313103D01*
X-75456650Y143252765D01*
X-75456645Y143252763D01*
X-75301995Y143222001D01*
X-75301992Y143222000D01*
X-75301990Y143222000D01*
X-75144304Y143222000D01*
X-75144303Y143222001D01*
X-74989651Y143252763D01*
X-74843969Y143313106D01*
X-74712859Y143400711D01*
X-74601359Y143512211D01*
X-74513754Y143643321D01*
X-74453411Y143789003D01*
X-74422648Y143943658D01*
X-74422648Y144101342D01*
X-74422648Y144101345D01*
X-74422649Y144101347D01*
X-74432526Y144151002D01*
X-74453411Y144255997D01*
X-74473827Y144305286D01*
X-74513751Y144401673D01*
X-74513755Y144401680D01*
X-74513759Y144401686D01*
X-74551141Y144457632D01*
X-74572018Y144524308D01*
X-74553534Y144591688D01*
X-74501555Y144638379D01*
X-74432586Y144649555D01*
X-74379948Y144626932D01*
X-74378502Y144629095D01*
X-74242334Y144538110D01*
X-74242321Y144538103D01*
X-74096650Y144477765D01*
X-74096645Y144477763D01*
X-73995430Y144457630D01*
X-73941995Y144447001D01*
X-73941992Y144447000D01*
X-73941990Y144447000D01*
X-73784304Y144447000D01*
X-73784303Y144447001D01*
X-73629651Y144477763D01*
X-73483969Y144538106D01*
X-73352859Y144625711D01*
X-73241359Y144737211D01*
X-73153754Y144868321D01*
X-73093411Y145014003D01*
X-73062648Y145168658D01*
X-73062648Y145326342D01*
X-73062648Y145326345D01*
X-73062649Y145326347D01*
X-73093411Y145480997D01*
X-73093413Y145481002D01*
X-73153751Y145626673D01*
X-73153758Y145626686D01*
X-73241359Y145757789D01*
X-73241362Y145757793D01*
X-73352856Y145869287D01*
X-73352860Y145869290D01*
X-73483963Y145956891D01*
X-73483976Y145956898D01*
X-73629647Y146017236D01*
X-73629659Y146017239D01*
X-73784303Y146048000D01*
X-73784306Y146048000D01*
X-73941990Y146048000D01*
X-73941993Y146048000D01*
X-74096638Y146017239D01*
X-74096650Y146017236D01*
X-74242321Y145956898D01*
X-74242334Y145956891D01*
X-74373437Y145869290D01*
X-74373441Y145869287D01*
X-74484935Y145757793D01*
X-74484938Y145757789D01*
X-74572539Y145626686D01*
X-74572546Y145626673D01*
X-74632884Y145481002D01*
X-74632887Y145480990D01*
X-74663648Y145326347D01*
X-74663648Y145168654D01*
X-74632887Y145014011D01*
X-74632884Y145013999D01*
X-74572546Y144868328D01*
X-74572539Y144868315D01*
X-74535157Y144812370D01*
X-74514279Y144745693D01*
X-74532763Y144678313D01*
X-74584742Y144631622D01*
X-74653712Y144620446D01*
X-74706351Y144643065D01*
X-74707794Y144640905D01*
X-74843963Y144731891D01*
X-74843976Y144731898D01*
X-74989647Y144792236D01*
X-74989659Y144792239D01*
X-75144303Y144823000D01*
X-75144306Y144823000D01*
X-75301990Y144823000D01*
X-75301993Y144823000D01*
X-75456638Y144792239D01*
X-75456650Y144792236D01*
X-75602321Y144731898D01*
X-75602334Y144731891D01*
X-75733437Y144644290D01*
X-75733441Y144644287D01*
X-75844935Y144532793D01*
X-75844938Y144532789D01*
X-75932539Y144401686D01*
X-75932546Y144401673D01*
X-75992884Y144256002D01*
X-75992887Y144255990D01*
X-76023648Y144101347D01*
X-80973534Y144101347D01*
X-80983410Y144150992D01*
X-80983411Y144150993D01*
X-80983411Y144150997D01*
X-81010849Y144217239D01*
X-81043751Y144296673D01*
X-81043758Y144296686D01*
X-81131359Y144427789D01*
X-81131362Y144427793D01*
X-81242856Y144539287D01*
X-81242860Y144539290D01*
X-81373963Y144626891D01*
X-81373976Y144626898D01*
X-81519647Y144687236D01*
X-81519659Y144687239D01*
X-81674303Y144718000D01*
X-81674306Y144718000D01*
X-81831990Y144718000D01*
X-81831993Y144718000D01*
X-81986638Y144687239D01*
X-81986650Y144687236D01*
X-82132321Y144626898D01*
X-82132334Y144626891D01*
X-82263437Y144539290D01*
X-82263441Y144539287D01*
X-82374935Y144427793D01*
X-82374938Y144427789D01*
X-82462539Y144296686D01*
X-82462546Y144296673D01*
X-82522884Y144151002D01*
X-82522887Y144150990D01*
X-82553648Y143996347D01*
X-87612648Y143996347D01*
X-87612648Y148614629D01*
X-87612516Y148620355D01*
X-87609602Y148683392D01*
X-87606284Y148755168D01*
X-85463648Y148755168D01*
X-85463648Y148479833D01*
X-85463647Y148479816D01*
X-85427710Y148206845D01*
X-85427709Y148206840D01*
X-85427708Y148206834D01*
X-85427707Y148206832D01*
X-85356444Y147940870D01*
X-85251073Y147686483D01*
X-85251068Y147686472D01*
X-85193448Y147586673D01*
X-85113397Y147448021D01*
X-85113395Y147448018D01*
X-85113394Y147448017D01*
X-84945778Y147229574D01*
X-84945772Y147229567D01*
X-84751082Y147034877D01*
X-84751076Y147034872D01*
X-84532627Y146867251D01*
X-84435471Y146811158D01*
X-84294177Y146729581D01*
X-84294172Y146729579D01*
X-84294169Y146729577D01*
X-84039780Y146624205D01*
X-83773814Y146552940D01*
X-83500822Y146517000D01*
X-83500815Y146517000D01*
X-83225481Y146517000D01*
X-83225474Y146517000D01*
X-82952482Y146552940D01*
X-82686516Y146624205D01*
X-82432127Y146729577D01*
X-82193669Y146867251D01*
X-82061266Y146968847D01*
X-73711148Y146968847D01*
X-73711148Y146811154D01*
X-73680387Y146656511D01*
X-73680384Y146656499D01*
X-73620046Y146510828D01*
X-73620039Y146510815D01*
X-73532438Y146379712D01*
X-73532435Y146379708D01*
X-73420941Y146268214D01*
X-73420937Y146268211D01*
X-73289834Y146180610D01*
X-73289821Y146180603D01*
X-73144150Y146120265D01*
X-73144145Y146120263D01*
X-72989495Y146089501D01*
X-72989492Y146089500D01*
X-72989490Y146089500D01*
X-72831804Y146089500D01*
X-72831803Y146089501D01*
X-72677151Y146120263D01*
X-72531469Y146180606D01*
X-72515413Y146191335D01*
X-72448738Y146212214D01*
X-72381357Y146193732D01*
X-72334665Y146141754D01*
X-72322520Y146088234D01*
X-72322520Y146071154D01*
X-72291759Y145916511D01*
X-72291756Y145916499D01*
X-72231418Y145770828D01*
X-72231411Y145770815D01*
X-72143810Y145639712D01*
X-72143807Y145639708D01*
X-72032313Y145528214D01*
X-72032309Y145528211D01*
X-71901206Y145440610D01*
X-71901193Y145440603D01*
X-71755522Y145380265D01*
X-71755517Y145380263D01*
X-71600867Y145349501D01*
X-71600864Y145349500D01*
X-71600862Y145349500D01*
X-71443176Y145349500D01*
X-71443175Y145349501D01*
X-71288523Y145380263D01*
X-71142841Y145440606D01*
X-71011731Y145528211D01*
X-70900231Y145639711D01*
X-70812626Y145770821D01*
X-70752283Y145916503D01*
X-70721520Y146071158D01*
X-70721520Y146228842D01*
X-70721520Y146228845D01*
X-70721521Y146228847D01*
X-70744071Y146342212D01*
X-70752283Y146383497D01*
X-70762018Y146407000D01*
X-70812623Y146529173D01*
X-70812630Y146529186D01*
X-70900231Y146660289D01*
X-70900234Y146660293D01*
X-71011728Y146771787D01*
X-71011732Y146771790D01*
X-71142835Y146859391D01*
X-71142848Y146859398D01*
X-71288519Y146919736D01*
X-71288531Y146919739D01*
X-71443175Y146950500D01*
X-71443178Y146950500D01*
X-71600862Y146950500D01*
X-71600865Y146950500D01*
X-71755510Y146919739D01*
X-71755522Y146919736D01*
X-71901193Y146859398D01*
X-71901206Y146859391D01*
X-71917257Y146848665D01*
X-71983934Y146827787D01*
X-72051315Y146846271D01*
X-72098005Y146898250D01*
X-72110148Y146951767D01*
X-72110148Y146968845D01*
X-72110149Y146968847D01*
X-72128801Y147062615D01*
X-72140911Y147123497D01*
X-72184849Y147229574D01*
X-72191212Y147244936D01*
X-72191219Y147244951D01*
X-72201254Y147269179D01*
X-72201256Y147269182D01*
X-72201258Y147269186D01*
X-72212725Y147286347D01*
X-66768648Y147286347D01*
X-66768648Y147128654D01*
X-66737887Y146974011D01*
X-66737884Y146973999D01*
X-66677546Y146828328D01*
X-66677539Y146828315D01*
X-66589938Y146697212D01*
X-66589935Y146697208D01*
X-66478441Y146585714D01*
X-66478437Y146585711D01*
X-66347334Y146498110D01*
X-66347321Y146498103D01*
X-66201650Y146437765D01*
X-66201645Y146437763D01*
X-66046995Y146407001D01*
X-66046992Y146407000D01*
X-66046990Y146407000D01*
X-65889304Y146407000D01*
X-65889303Y146407001D01*
X-65734651Y146437763D01*
X-65588969Y146498106D01*
X-65457859Y146585711D01*
X-65346359Y146697211D01*
X-65258754Y146828321D01*
X-65216080Y146931347D01*
X-59088648Y146931347D01*
X-59088648Y146773654D01*
X-59057887Y146619011D01*
X-59057884Y146618999D01*
X-58997546Y146473328D01*
X-58997539Y146473315D01*
X-58909938Y146342212D01*
X-58909935Y146342208D01*
X-58798441Y146230714D01*
X-58798437Y146230711D01*
X-58667334Y146143110D01*
X-58667321Y146143103D01*
X-58521650Y146082765D01*
X-58521645Y146082763D01*
X-58366995Y146052001D01*
X-58366992Y146052000D01*
X-58366990Y146052000D01*
X-58209304Y146052000D01*
X-58209303Y146052001D01*
X-58054651Y146082763D01*
X-57908969Y146143106D01*
X-57777859Y146230711D01*
X-57666359Y146342211D01*
X-57578754Y146473321D01*
X-57518411Y146619003D01*
X-57487648Y146773658D01*
X-57487648Y146931342D01*
X-57487648Y146931345D01*
X-57487649Y146931347D01*
X-57496134Y146974005D01*
X-57518411Y147085997D01*
X-57536081Y147128656D01*
X-57578751Y147231673D01*
X-57578758Y147231686D01*
X-57666359Y147362789D01*
X-57666362Y147362793D01*
X-57777856Y147474287D01*
X-57777860Y147474290D01*
X-57908963Y147561891D01*
X-57908976Y147561898D01*
X-58054647Y147622236D01*
X-58054659Y147622239D01*
X-58209303Y147653000D01*
X-58209306Y147653000D01*
X-58366990Y147653000D01*
X-58366993Y147653000D01*
X-58521638Y147622239D01*
X-58521650Y147622236D01*
X-58667321Y147561898D01*
X-58667334Y147561891D01*
X-58798437Y147474290D01*
X-58798441Y147474287D01*
X-58909935Y147362793D01*
X-58909938Y147362789D01*
X-58997539Y147231686D01*
X-58997546Y147231673D01*
X-59057884Y147086002D01*
X-59057887Y147085990D01*
X-59088648Y146931347D01*
X-65216080Y146931347D01*
X-65198411Y146974003D01*
X-65167648Y147128658D01*
X-65167648Y147286342D01*
X-65167648Y147286345D01*
X-65167649Y147286347D01*
X-65198411Y147440997D01*
X-65227733Y147511787D01*
X-65258751Y147586673D01*
X-65258758Y147586686D01*
X-65346359Y147717789D01*
X-65346362Y147717793D01*
X-65457856Y147829287D01*
X-65457860Y147829290D01*
X-65588963Y147916891D01*
X-65588976Y147916898D01*
X-65734647Y147977236D01*
X-65734659Y147977239D01*
X-65889303Y148008000D01*
X-65889306Y148008000D01*
X-66046990Y148008000D01*
X-66046993Y148008000D01*
X-66201638Y147977239D01*
X-66201650Y147977236D01*
X-66347321Y147916898D01*
X-66347334Y147916891D01*
X-66478437Y147829290D01*
X-66478441Y147829287D01*
X-66589935Y147717793D01*
X-66589938Y147717789D01*
X-66677539Y147586686D01*
X-66677546Y147586673D01*
X-66737884Y147441002D01*
X-66737887Y147440990D01*
X-66768648Y147286347D01*
X-72212725Y147286347D01*
X-72288859Y147400289D01*
X-72288862Y147400293D01*
X-72400356Y147511787D01*
X-72400360Y147511790D01*
X-72531463Y147599391D01*
X-72531476Y147599398D01*
X-72677147Y147659736D01*
X-72677159Y147659739D01*
X-72831803Y147690500D01*
X-72831806Y147690500D01*
X-72989490Y147690500D01*
X-72989493Y147690500D01*
X-73144138Y147659739D01*
X-73144150Y147659736D01*
X-73289821Y147599398D01*
X-73289834Y147599391D01*
X-73420937Y147511790D01*
X-73420941Y147511787D01*
X-73532435Y147400293D01*
X-73532438Y147400289D01*
X-73620039Y147269186D01*
X-73620046Y147269173D01*
X-73680384Y147123502D01*
X-73680387Y147123490D01*
X-73711148Y146968847D01*
X-82061266Y146968847D01*
X-81975220Y147034872D01*
X-81975215Y147034877D01*
X-81947476Y147062615D01*
X-81780525Y147229567D01*
X-81780520Y147229572D01*
X-81612899Y147448021D01*
X-81475225Y147686479D01*
X-81369853Y147940868D01*
X-81298588Y148206834D01*
X-81262648Y148479826D01*
X-81262648Y148536347D01*
X-71278648Y148536347D01*
X-71278648Y148378654D01*
X-71247887Y148224011D01*
X-71247884Y148223999D01*
X-71187546Y148078328D01*
X-71187539Y148078315D01*
X-71099938Y147947212D01*
X-71099935Y147947208D01*
X-70988441Y147835714D01*
X-70988437Y147835711D01*
X-70857334Y147748110D01*
X-70857321Y147748103D01*
X-70784135Y147717789D01*
X-70711645Y147687763D01*
X-70570760Y147659739D01*
X-70556995Y147657001D01*
X-70556992Y147657000D01*
X-70556990Y147657000D01*
X-70399304Y147657000D01*
X-70399303Y147657001D01*
X-70244651Y147687763D01*
X-70098969Y147748106D01*
X-69967859Y147835711D01*
X-69856359Y147947211D01*
X-69768754Y148078321D01*
X-69708411Y148224003D01*
X-69677648Y148378658D01*
X-69677648Y148536342D01*
X-69677648Y148536345D01*
X-69677649Y148536347D01*
X-68328648Y148536347D01*
X-68328648Y148378654D01*
X-68297887Y148224011D01*
X-68297884Y148223999D01*
X-68237546Y148078328D01*
X-68237539Y148078315D01*
X-68149938Y147947212D01*
X-68149935Y147947208D01*
X-68038441Y147835714D01*
X-68038437Y147835711D01*
X-67907334Y147748110D01*
X-67907321Y147748103D01*
X-67834135Y147717789D01*
X-67761645Y147687763D01*
X-67620760Y147659739D01*
X-67606995Y147657001D01*
X-67606992Y147657000D01*
X-67606990Y147657000D01*
X-67449304Y147657000D01*
X-67449303Y147657001D01*
X-67294651Y147687763D01*
X-67148969Y147748106D01*
X-67017859Y147835711D01*
X-66906359Y147947211D01*
X-66818754Y148078321D01*
X-66758411Y148224003D01*
X-66727648Y148378658D01*
X-66727648Y148536342D01*
X-66727648Y148536345D01*
X-66727649Y148536347D01*
X-66758411Y148690997D01*
X-66784991Y148755168D01*
X-54963648Y148755168D01*
X-54963648Y148479833D01*
X-54963647Y148479816D01*
X-54927710Y148206845D01*
X-54927709Y148206840D01*
X-54927708Y148206834D01*
X-54927707Y148206832D01*
X-54856444Y147940870D01*
X-54751073Y147686483D01*
X-54751068Y147686472D01*
X-54693448Y147586673D01*
X-54613397Y147448021D01*
X-54613395Y147448018D01*
X-54613394Y147448017D01*
X-54445778Y147229574D01*
X-54445772Y147229567D01*
X-54251082Y147034877D01*
X-54251076Y147034872D01*
X-54032627Y146867251D01*
X-53935471Y146811158D01*
X-53794177Y146729581D01*
X-53794172Y146729579D01*
X-53794169Y146729577D01*
X-53539780Y146624205D01*
X-53273814Y146552940D01*
X-53000822Y146517000D01*
X-53000815Y146517000D01*
X-52725481Y146517000D01*
X-52725474Y146517000D01*
X-52452482Y146552940D01*
X-52186516Y146624205D01*
X-51932127Y146729577D01*
X-51693669Y146867251D01*
X-51475220Y147034872D01*
X-51280520Y147229572D01*
X-51112899Y147448021D01*
X-50975225Y147686479D01*
X-50869853Y147940868D01*
X-50798588Y148206834D01*
X-50762648Y148479826D01*
X-50762648Y148755174D01*
X-50798588Y149028166D01*
X-50869853Y149294132D01*
X-50975225Y149548521D01*
X-50975227Y149548524D01*
X-50975229Y149548529D01*
X-51038495Y149658107D01*
X-51112899Y149786979D01*
X-51230605Y149940377D01*
X-51280523Y150005432D01*
X-51475215Y150200124D01*
X-51475222Y150200130D01*
X-51693665Y150367746D01*
X-51693666Y150367747D01*
X-51693669Y150367749D01*
X-51788741Y150422639D01*
X-51932120Y150505420D01*
X-51932131Y150505425D01*
X-52186518Y150610796D01*
X-52319499Y150646428D01*
X-52452482Y150682060D01*
X-52452488Y150682061D01*
X-52452493Y150682062D01*
X-52725464Y150717999D01*
X-52725469Y150718000D01*
X-52725474Y150718000D01*
X-53000822Y150718000D01*
X-53000828Y150718000D01*
X-53000833Y150717999D01*
X-53273804Y150682062D01*
X-53273811Y150682061D01*
X-53273814Y150682060D01*
X-53330023Y150667000D01*
X-53539779Y150610796D01*
X-53794166Y150505425D01*
X-53794177Y150505420D01*
X-54032632Y150367746D01*
X-54251075Y150200130D01*
X-54251082Y150200124D01*
X-54445772Y150005434D01*
X-54445773Y150005432D01*
X-54613394Y149786984D01*
X-54751068Y149548529D01*
X-54751073Y149548518D01*
X-54856444Y149294131D01*
X-54927707Y149028169D01*
X-54927710Y149028156D01*
X-54963647Y148755185D01*
X-54963648Y148755168D01*
X-66784991Y148755168D01*
X-66795627Y148780845D01*
X-66818751Y148836673D01*
X-66818758Y148836686D01*
X-66906359Y148967789D01*
X-66906362Y148967793D01*
X-67017856Y149079287D01*
X-67017860Y149079290D01*
X-67148963Y149166891D01*
X-67148976Y149166898D01*
X-67294647Y149227236D01*
X-67294659Y149227239D01*
X-67449303Y149258000D01*
X-67449306Y149258000D01*
X-67606990Y149258000D01*
X-67606993Y149258000D01*
X-67761638Y149227239D01*
X-67761650Y149227236D01*
X-67907321Y149166898D01*
X-67907334Y149166891D01*
X-68038437Y149079290D01*
X-68038441Y149079287D01*
X-68149935Y148967793D01*
X-68149938Y148967789D01*
X-68237539Y148836686D01*
X-68237546Y148836673D01*
X-68297884Y148691002D01*
X-68297887Y148690990D01*
X-68328648Y148536347D01*
X-69677649Y148536347D01*
X-69708411Y148690997D01*
X-69739047Y148764960D01*
X-69768751Y148836673D01*
X-69768758Y148836686D01*
X-69856359Y148967789D01*
X-69856362Y148967793D01*
X-69967856Y149079287D01*
X-69967860Y149079290D01*
X-70098963Y149166891D01*
X-70098976Y149166898D01*
X-70244647Y149227236D01*
X-70244659Y149227239D01*
X-70399303Y149258000D01*
X-70399306Y149258000D01*
X-70556990Y149258000D01*
X-70556993Y149258000D01*
X-70711638Y149227239D01*
X-70711650Y149227236D01*
X-70857321Y149166898D01*
X-70857334Y149166891D01*
X-70988437Y149079290D01*
X-70988441Y149079287D01*
X-71099935Y148967793D01*
X-71099938Y148967789D01*
X-71187539Y148836686D01*
X-71187546Y148836673D01*
X-71247884Y148691002D01*
X-71247887Y148690990D01*
X-71278648Y148536347D01*
X-81262648Y148536347D01*
X-81262648Y148755174D01*
X-81298588Y149028166D01*
X-81369853Y149294132D01*
X-81475225Y149548521D01*
X-81475227Y149548524D01*
X-81475229Y149548529D01*
X-81538495Y149658107D01*
X-81612899Y149786979D01*
X-81730605Y149940377D01*
X-81780523Y150005432D01*
X-81975215Y150200124D01*
X-81975222Y150200130D01*
X-82175826Y150354058D01*
X-82193665Y150367746D01*
X-82193666Y150367747D01*
X-82193669Y150367749D01*
X-82288741Y150422639D01*
X-82329804Y150446347D01*
X-74913648Y150446347D01*
X-74913648Y150288654D01*
X-74882887Y150134011D01*
X-74882884Y150133999D01*
X-74822546Y149988328D01*
X-74822539Y149988315D01*
X-74734938Y149857212D01*
X-74734935Y149857208D01*
X-74623441Y149745714D01*
X-74623437Y149745711D01*
X-74492334Y149658110D01*
X-74492321Y149658103D01*
X-74358721Y149602765D01*
X-74346645Y149597763D01*
X-74197022Y149568001D01*
X-74191995Y149567001D01*
X-74191992Y149567000D01*
X-74191990Y149567000D01*
X-74034304Y149567000D01*
X-74034303Y149567001D01*
X-73879651Y149597763D01*
X-73733969Y149658106D01*
X-73681290Y149693306D01*
X-73614615Y149714184D01*
X-73547235Y149695700D01*
X-73543533Y149693321D01*
X-73492327Y149659106D01*
X-73492325Y149659105D01*
X-73492323Y149659104D01*
X-73489906Y149658103D01*
X-73346645Y149598763D01*
X-73212104Y149572001D01*
X-73191995Y149568001D01*
X-73191992Y149568000D01*
X-73191990Y149568000D01*
X-73034304Y149568000D01*
X-73034303Y149568001D01*
X-72879651Y149598763D01*
X-72736381Y149658107D01*
X-72733976Y149659103D01*
X-72733976Y149659104D01*
X-72733969Y149659106D01*
X-72682787Y149693306D01*
X-72616111Y149714183D01*
X-72548731Y149695699D01*
X-72545023Y149693317D01*
X-72492327Y149658106D01*
X-72492325Y149658105D01*
X-72492321Y149658103D01*
X-72358721Y149602765D01*
X-72346645Y149597763D01*
X-72197022Y149568001D01*
X-72191995Y149567001D01*
X-72191992Y149567000D01*
X-72191990Y149567000D01*
X-72034304Y149567000D01*
X-72034303Y149567001D01*
X-71879651Y149597763D01*
X-71733969Y149658106D01*
X-71602859Y149745711D01*
X-71491359Y149857211D01*
X-71403754Y149988321D01*
X-71343411Y150134003D01*
X-71312648Y150288658D01*
X-71312648Y150446342D01*
X-71312648Y150446345D01*
X-71312649Y150446347D01*
X-71313644Y150451347D01*
X-71343411Y150600997D01*
X-71347470Y150610796D01*
X-71403751Y150746673D01*
X-71403758Y150746686D01*
X-71435067Y150793543D01*
X-71477032Y150856347D01*
X-70913648Y150856347D01*
X-70913648Y150698654D01*
X-70882887Y150544011D01*
X-70882884Y150543999D01*
X-70822546Y150398328D01*
X-70822539Y150398315D01*
X-70734938Y150267212D01*
X-70734935Y150267208D01*
X-70623441Y150155714D01*
X-70623437Y150155711D01*
X-70492334Y150068110D01*
X-70492321Y150068103D01*
X-70346650Y150007765D01*
X-70346645Y150007763D01*
X-70191995Y149977001D01*
X-70191992Y149977000D01*
X-70191990Y149977000D01*
X-70034304Y149977000D01*
X-70034303Y149977001D01*
X-69879651Y150007763D01*
X-69733969Y150068106D01*
X-69602859Y150155711D01*
X-69491359Y150267211D01*
X-69403754Y150398321D01*
X-69343411Y150544003D01*
X-69312648Y150698658D01*
X-69312648Y150856342D01*
X-69312648Y150856345D01*
X-69312649Y150856347D01*
X-66918648Y150856347D01*
X-66918648Y150698654D01*
X-66887887Y150544011D01*
X-66887884Y150543999D01*
X-66827546Y150398328D01*
X-66827539Y150398315D01*
X-66739938Y150267212D01*
X-66739935Y150267208D01*
X-66628441Y150155714D01*
X-66628437Y150155711D01*
X-66497334Y150068110D01*
X-66497321Y150068103D01*
X-66351650Y150007765D01*
X-66351645Y150007763D01*
X-66196995Y149977001D01*
X-66196992Y149977000D01*
X-66196990Y149977000D01*
X-66039304Y149977000D01*
X-66039303Y149977001D01*
X-65884651Y150007763D01*
X-65738969Y150068106D01*
X-65607859Y150155711D01*
X-65496359Y150267211D01*
X-65408754Y150398321D01*
X-65386790Y150451347D01*
X-64928648Y150451347D01*
X-64928648Y150293654D01*
X-64897887Y150139011D01*
X-64897884Y150138999D01*
X-64837546Y149993328D01*
X-64837539Y149993315D01*
X-64749938Y149862212D01*
X-64749935Y149862208D01*
X-64638441Y149750714D01*
X-64638437Y149750711D01*
X-64507334Y149663110D01*
X-64507321Y149663103D01*
X-64361650Y149602765D01*
X-64361645Y149602763D01*
X-64206995Y149572001D01*
X-64206992Y149572000D01*
X-64206990Y149572000D01*
X-64049304Y149572000D01*
X-64049303Y149572001D01*
X-63894651Y149602763D01*
X-63761038Y149658107D01*
X-63748976Y149663103D01*
X-63748976Y149663104D01*
X-63748969Y149663106D01*
X-63617859Y149750711D01*
X-63506359Y149862211D01*
X-63418754Y149993321D01*
X-63358411Y150139003D01*
X-63327648Y150293658D01*
X-63327648Y150451342D01*
X-63327648Y150451345D01*
X-63327649Y150451347D01*
X-63338405Y150505420D01*
X-63358411Y150605997D01*
X-63360399Y150610796D01*
X-63418751Y150751673D01*
X-63418758Y150751686D01*
X-63506359Y150882789D01*
X-63506362Y150882793D01*
X-63617856Y150994287D01*
X-63617860Y150994290D01*
X-63748963Y151081891D01*
X-63748976Y151081898D01*
X-63894647Y151142236D01*
X-63894659Y151142239D01*
X-64049303Y151173000D01*
X-64049306Y151173000D01*
X-64206990Y151173000D01*
X-64206993Y151173000D01*
X-64361638Y151142239D01*
X-64361650Y151142236D01*
X-64507321Y151081898D01*
X-64507334Y151081891D01*
X-64638437Y150994290D01*
X-64638441Y150994287D01*
X-64749935Y150882793D01*
X-64749938Y150882789D01*
X-64837539Y150751686D01*
X-64837546Y150751673D01*
X-64897884Y150606002D01*
X-64897887Y150605990D01*
X-64928648Y150451347D01*
X-65386790Y150451347D01*
X-65363974Y150506429D01*
X-65359728Y150516681D01*
X-65348411Y150544003D01*
X-65317648Y150698658D01*
X-65317648Y150856342D01*
X-65317648Y150856345D01*
X-65317649Y150856347D01*
X-65322909Y150882789D01*
X-65348411Y151010997D01*
X-65360550Y151040303D01*
X-65408751Y151156673D01*
X-65408758Y151156686D01*
X-65496359Y151287789D01*
X-65496362Y151287793D01*
X-65607856Y151399287D01*
X-65607860Y151399290D01*
X-65738963Y151486891D01*
X-65738976Y151486898D01*
X-65884647Y151547236D01*
X-65884659Y151547239D01*
X-66039303Y151578000D01*
X-66039306Y151578000D01*
X-66196990Y151578000D01*
X-66196993Y151578000D01*
X-66351638Y151547239D01*
X-66351650Y151547236D01*
X-66497321Y151486898D01*
X-66497334Y151486891D01*
X-66628437Y151399290D01*
X-66628441Y151399287D01*
X-66739935Y151287793D01*
X-66739938Y151287789D01*
X-66827539Y151156686D01*
X-66827546Y151156673D01*
X-66887884Y151011002D01*
X-66887887Y151010990D01*
X-66918648Y150856347D01*
X-69312649Y150856347D01*
X-69317909Y150882789D01*
X-69343411Y151010997D01*
X-69355550Y151040303D01*
X-69403751Y151156673D01*
X-69403758Y151156686D01*
X-69491359Y151287789D01*
X-69491362Y151287793D01*
X-69602856Y151399287D01*
X-69602860Y151399290D01*
X-69733963Y151486891D01*
X-69733976Y151486898D01*
X-69879647Y151547236D01*
X-69879659Y151547239D01*
X-70034303Y151578000D01*
X-70034306Y151578000D01*
X-70191990Y151578000D01*
X-70191993Y151578000D01*
X-70346638Y151547239D01*
X-70346650Y151547236D01*
X-70492321Y151486898D01*
X-70492334Y151486891D01*
X-70623437Y151399290D01*
X-70623441Y151399287D01*
X-70734935Y151287793D01*
X-70734938Y151287789D01*
X-70822539Y151156686D01*
X-70822546Y151156673D01*
X-70882884Y151011002D01*
X-70882887Y151010990D01*
X-70913648Y150856347D01*
X-71477032Y150856347D01*
X-71491359Y150877789D01*
X-71491362Y150877793D01*
X-71602856Y150989287D01*
X-71602860Y150989290D01*
X-71733963Y151076891D01*
X-71733976Y151076898D01*
X-71879647Y151137236D01*
X-71879659Y151137239D01*
X-72034303Y151168000D01*
X-72034306Y151168000D01*
X-72191990Y151168000D01*
X-72191993Y151168000D01*
X-72346638Y151137239D01*
X-72346650Y151137236D01*
X-72492324Y151076896D01*
X-72543510Y151042695D01*
X-72610188Y151021818D01*
X-72677568Y151040303D01*
X-72681291Y151042696D01*
X-72733963Y151077891D01*
X-72733976Y151077898D01*
X-72879647Y151138236D01*
X-72879659Y151138239D01*
X-73034303Y151169000D01*
X-73034306Y151169000D01*
X-73191990Y151169000D01*
X-73191993Y151169000D01*
X-73346638Y151138239D01*
X-73346650Y151138236D01*
X-73492320Y151077898D01*
X-73492331Y151077892D01*
X-73545007Y151042695D01*
X-73611685Y151021818D01*
X-73679065Y151040303D01*
X-73682787Y151042695D01*
X-73733969Y151076894D01*
X-73733976Y151076898D01*
X-73879647Y151137236D01*
X-73879659Y151137239D01*
X-74034303Y151168000D01*
X-74034306Y151168000D01*
X-74191990Y151168000D01*
X-74191993Y151168000D01*
X-74346638Y151137239D01*
X-74346650Y151137236D01*
X-74492321Y151076898D01*
X-74492334Y151076891D01*
X-74623437Y150989290D01*
X-74623441Y150989287D01*
X-74734935Y150877793D01*
X-74734938Y150877789D01*
X-74822539Y150746686D01*
X-74822546Y150746673D01*
X-74882884Y150601002D01*
X-74882887Y150600990D01*
X-74913648Y150446347D01*
X-82329804Y150446347D01*
X-82432120Y150505420D01*
X-82432131Y150505425D01*
X-82686518Y150610796D01*
X-82819499Y150646428D01*
X-82952482Y150682060D01*
X-82952488Y150682061D01*
X-82952493Y150682062D01*
X-83225464Y150717999D01*
X-83225469Y150718000D01*
X-83225474Y150718000D01*
X-83500822Y150718000D01*
X-83500828Y150718000D01*
X-83500833Y150717999D01*
X-83773804Y150682062D01*
X-83773811Y150682061D01*
X-83773814Y150682060D01*
X-83830023Y150667000D01*
X-84039779Y150610796D01*
X-84294166Y150505425D01*
X-84294177Y150505420D01*
X-84532632Y150367746D01*
X-84751075Y150200130D01*
X-84751082Y150200124D01*
X-84945772Y150005434D01*
X-84945773Y150005432D01*
X-85113394Y149786984D01*
X-85251068Y149548529D01*
X-85251073Y149548518D01*
X-85356444Y149294131D01*
X-85427707Y149028169D01*
X-85427710Y149028156D01*
X-85463647Y148755185D01*
X-85463648Y148755168D01*
X-87606284Y148755168D01*
X-87594785Y149003880D01*
X-87593728Y149015275D01*
X-87541082Y149392680D01*
X-87538982Y149403917D01*
X-87451735Y149774867D01*
X-87448612Y149785846D01*
X-87327503Y150147187D01*
X-87323380Y150157826D01*
X-87169452Y150506440D01*
X-87164369Y150516649D01*
X-86978935Y150849567D01*
X-86972909Y150859299D01*
X-86757549Y151173685D01*
X-86750667Y151182798D01*
X-86507218Y151475972D01*
X-86499524Y151484412D01*
X-86230067Y151753870D01*
X-86221627Y151761566D01*
X-85928441Y152005023D01*
X-85919327Y152011905D01*
X-85604942Y152227264D01*
X-85595215Y152233286D01*
X-85262297Y152418720D01*
X-85252106Y152423795D01*
X-84903453Y152577739D01*
X-84892834Y152581853D01*
X-84531493Y152702963D01*
X-84520515Y152706086D01*
X-84149565Y152793333D01*
X-84138329Y152795433D01*
X-83760915Y152848080D01*
X-83749528Y152849136D01*
X-83365959Y152866869D01*
X-83360235Y152867000D01*
X-83297256Y152867000D01*
X-75953282Y152867000D01*
X-75886243Y152847315D01*
G37*
%TD.AperFunction*%
%TD*%
M02*
