%TF.GenerationSoftware,KiCad,Pcbnew,9.0.4*%
%TF.CreationDate,2026-01-28T15:28:03+01:00*%
%TF.ProjectId,ShiroFPV_Flight_Controller,53686972-6f46-4505-965f-466c69676874,2026-01-27*%
%TF.SameCoordinates,PX7bfa480PYb532b80*%
%TF.FileFunction,Copper,L1,Top*%
%TF.FilePolarity,Positive*%
%FSLAX46Y46*%
G04 Gerber Fmt 4.6, Leading zero omitted, Abs format (unit mm)*
G04 Created by KiCad (PCBNEW 9.0.4) date 2026-01-28 15:28:03*
%MOMM*%
%LPD*%
G01*
G04 APERTURE LIST*
G04 Aperture macros list*
%AMRoundRect*
0 Rectangle with rounded corners*
0 $1 Rounding radius*
0 $2 $3 $4 $5 $6 $7 $8 $9 X,Y pos of 4 corners*
0 Add a 4 corners polygon primitive as box body*
4,1,4,$2,$3,$4,$5,$6,$7,$8,$9,$2,$3,0*
0 Add four circle primitives for the rounded corners*
1,1,$1+$1,$2,$3*
1,1,$1+$1,$4,$5*
1,1,$1+$1,$6,$7*
1,1,$1+$1,$8,$9*
0 Add four rect primitives between the rounded corners*
20,1,$1+$1,$2,$3,$4,$5,0*
20,1,$1+$1,$4,$5,$6,$7,0*
20,1,$1+$1,$6,$7,$8,$9,0*
20,1,$1+$1,$8,$9,$2,$3,0*%
G04 Aperture macros list end*
%TA.AperFunction,SMDPad,CuDef*%
%ADD10RoundRect,0.200000X-0.275000X0.200000X-0.275000X-0.200000X0.275000X-0.200000X0.275000X0.200000X0*%
%TD*%
%TA.AperFunction,SMDPad,CuDef*%
%ADD11R,1.000000X1.000000*%
%TD*%
%TA.AperFunction,SMDPad,CuDef*%
%ADD12RoundRect,0.218750X-0.256250X0.218750X-0.256250X-0.218750X0.256250X-0.218750X0.256250X0.218750X0*%
%TD*%
%TA.AperFunction,SMDPad,CuDef*%
%ADD13RoundRect,0.225000X0.250000X-0.225000X0.250000X0.225000X-0.250000X0.225000X-0.250000X-0.225000X0*%
%TD*%
%TA.AperFunction,SMDPad,CuDef*%
%ADD14RoundRect,0.225000X-0.250000X0.225000X-0.250000X-0.225000X0.250000X-0.225000X0.250000X0.225000X0*%
%TD*%
%TA.AperFunction,SMDPad,CuDef*%
%ADD15R,0.355600X1.358900*%
%TD*%
%TA.AperFunction,SMDPad,CuDef*%
%ADD16RoundRect,0.200000X0.275000X-0.200000X0.275000X0.200000X-0.275000X0.200000X-0.275000X-0.200000X0*%
%TD*%
%TA.AperFunction,SMDPad,CuDef*%
%ADD17RoundRect,0.225000X0.225000X0.250000X-0.225000X0.250000X-0.225000X-0.250000X0.225000X-0.250000X0*%
%TD*%
%TA.AperFunction,SMDPad,CuDef*%
%ADD18RoundRect,0.200000X-0.200000X-0.275000X0.200000X-0.275000X0.200000X0.275000X-0.200000X0.275000X0*%
%TD*%
%TA.AperFunction,SMDPad,CuDef*%
%ADD19R,0.500000X0.350000*%
%TD*%
%TA.AperFunction,SMDPad,CuDef*%
%ADD20R,1.240000X0.600000*%
%TD*%
%TA.AperFunction,SMDPad,CuDef*%
%ADD21R,1.240000X0.300000*%
%TD*%
%TA.AperFunction,HeatsinkPad*%
%ADD22O,2.100000X1.000000*%
%TD*%
%TA.AperFunction,HeatsinkPad*%
%ADD23O,1.800000X1.000000*%
%TD*%
%TA.AperFunction,SMDPad,CuDef*%
%ADD24RoundRect,0.200000X0.200000X0.275000X-0.200000X0.275000X-0.200000X-0.275000X0.200000X-0.275000X0*%
%TD*%
%TA.AperFunction,SMDPad,CuDef*%
%ADD25RoundRect,0.250000X0.350000X-0.450000X0.350000X0.450000X-0.350000X0.450000X-0.350000X-0.450000X0*%
%TD*%
%TA.AperFunction,SMDPad,CuDef*%
%ADD26RoundRect,0.162500X0.162500X-0.650000X0.162500X0.650000X-0.162500X0.650000X-0.162500X-0.650000X0*%
%TD*%
%TA.AperFunction,SMDPad,CuDef*%
%ADD27RoundRect,0.087500X0.087500X-0.187500X0.087500X0.187500X-0.087500X0.187500X-0.087500X-0.187500X0*%
%TD*%
%TA.AperFunction,SMDPad,CuDef*%
%ADD28RoundRect,0.087500X0.187500X-0.087500X0.187500X0.087500X-0.187500X0.087500X-0.187500X-0.087500X0*%
%TD*%
%TA.AperFunction,SMDPad,CuDef*%
%ADD29RoundRect,0.225000X-0.225000X-0.250000X0.225000X-0.250000X0.225000X0.250000X-0.225000X0.250000X0*%
%TD*%
%TA.AperFunction,SMDPad,CuDef*%
%ADD30RoundRect,0.075000X0.075000X-0.700000X0.075000X0.700000X-0.075000X0.700000X-0.075000X-0.700000X0*%
%TD*%
%TA.AperFunction,SMDPad,CuDef*%
%ADD31RoundRect,0.075000X0.700000X-0.075000X0.700000X0.075000X-0.700000X0.075000X-0.700000X-0.075000X0*%
%TD*%
%TA.AperFunction,SMDPad,CuDef*%
%ADD32R,0.406400X2.108200*%
%TD*%
%TA.AperFunction,ViaPad*%
%ADD33C,0.600000*%
%TD*%
%TA.AperFunction,Conductor*%
%ADD34C,0.200000*%
%TD*%
%TA.AperFunction,Conductor*%
%ADD35C,0.300000*%
%TD*%
%TA.AperFunction,Conductor*%
%ADD36C,0.400000*%
%TD*%
%TA.AperFunction,Conductor*%
%ADD37C,0.500000*%
%TD*%
%TA.AperFunction,Conductor*%
%ADD38C,0.600000*%
%TD*%
%TA.AperFunction,Conductor*%
%ADD39C,0.900000*%
%TD*%
%TA.AperFunction,Conductor*%
%ADD40C,0.800000*%
%TD*%
%TA.AperFunction,Conductor*%
%ADD41C,1.200000*%
%TD*%
%TA.AperFunction,Conductor*%
%ADD42C,0.700000*%
%TD*%
%TA.AperFunction,Conductor*%
%ADD43C,1.000000*%
%TD*%
G04 APERTURE END LIST*
D10*
%TO.P,R17,1*%
%TO.N,+3.3V*%
X-81463148Y132567500D03*
%TO.P,R17,2*%
%TO.N,I2C_SCL*%
X-81463148Y130917500D03*
%TD*%
D11*
%TO.P,J46,1,Pin_1*%
%TO.N,GND*%
X-59118148Y152367500D03*
%TD*%
D12*
%TO.P,D2,1,K*%
%TO.N,Net-(D2-K)*%
X-75068148Y140111250D03*
%TO.P,D2,2,A*%
%TO.N,LEDSTATUS0*%
X-75068148Y138536250D03*
%TD*%
D13*
%TO.P,C3,1*%
%TO.N,+3.3V*%
X-67775648Y142415000D03*
%TO.P,C3,2*%
%TO.N,GND*%
X-67775648Y143965000D03*
%TD*%
D11*
%TO.P,J19,1,Pin_1*%
%TO.N,UART4TX*%
X-77118148Y114367500D03*
%TD*%
%TO.P,J17,1,Pin_1*%
%TO.N,+5V*%
X-61118148Y114367500D03*
%TD*%
D14*
%TO.P,C1,1*%
%TO.N,GND*%
X-67775648Y146930000D03*
%TO.P,C1,2*%
%TO.N,Net-(U3-REGOUT)*%
X-67775648Y145380000D03*
%TD*%
D13*
%TO.P,C8,1*%
%TO.N,Net-(U10-VOUT)*%
X-86248148Y142392500D03*
%TO.P,C8,2*%
%TO.N,Net-(C8-Pad2)*%
X-86248148Y143942500D03*
%TD*%
D15*
%TO.P,U10,1,NC*%
%TO.N,unconnected-(U10-NC-Pad1)*%
X-87123148Y134840150D03*
%TO.P,U10,2,NC*%
%TO.N,unconnected-(U10-NC-Pad2)*%
X-86473147Y134840150D03*
%TO.P,U10,3,DVDD*%
%TO.N,+5V*%
X-85823148Y134840150D03*
%TO.P,U10,4,DGND*%
%TO.N,GND*%
X-85173147Y134840150D03*
%TO.P,U10,5,CLKIN*%
%TO.N,Net-(U10-CLKIN)*%
X-84523149Y134840150D03*
%TO.P,U10,6,XFB*%
%TO.N,Net-(U10-XFB)*%
X-83873147Y134840150D03*
%TO.P,U10,7,CLKOUT*%
%TO.N,unconnected-(U10-CLKOUT-Pad7)*%
X-83223149Y134840150D03*
%TO.P,U10,8,\u002ACS*%
%TO.N,OSD_CS*%
X-82573150Y134840150D03*
%TO.P,U10,9,SDIN*%
%TO.N,OSD_MOSI*%
X-81923149Y134840150D03*
%TO.P,U10,10,SCLK*%
%TO.N,OSD_SCK*%
X-81273150Y134840150D03*
%TO.P,U10,11,SDOUT*%
%TO.N,OSD_MISO*%
X-80623149Y134840150D03*
%TO.P,U10,12,LOS*%
%TO.N,unconnected-(U10-LOS-Pad12)*%
X-79973150Y134840150D03*
%TO.P,U10,13,NC*%
%TO.N,unconnected-(U10-NC-Pad13)*%
X-79323149Y134840150D03*
%TO.P,U10,14,NC*%
%TO.N,unconnected-(U10-NC-Pad14)*%
X-78673150Y134840150D03*
%TO.P,U10,15,NC*%
%TO.N,unconnected-(U10-NC-Pad15)*%
X-78673148Y140694850D03*
%TO.P,U10,16,NC*%
%TO.N,unconnected-(U10-NC-Pad16)*%
X-79323149Y140694850D03*
%TO.P,U10,17,\u002AVSYNC*%
%TO.N,unconnected-(U10-\u002AVSYNC-Pad17)*%
X-79973148Y140694850D03*
%TO.P,U10,18,\u002AHSYNC*%
%TO.N,unconnected-(U10-\u002AHSYNC-Pad18)*%
X-80623149Y140694850D03*
%TO.P,U10,19,\u002ARESET*%
%TO.N,+5V*%
X-81273147Y140694850D03*
%TO.P,U10,20,AGND*%
%TO.N,GND*%
X-81923149Y140694850D03*
%TO.P,U10,21,AVDD*%
%TO.N,+5V*%
X-82573147Y140694850D03*
%TO.P,U10,22,VIN*%
%TO.N,Net-(U10-VIN)*%
X-83223149Y140694850D03*
%TO.P,U10,23,PGND*%
%TO.N,GND*%
X-83873147Y140694850D03*
%TO.P,U10,24,PVDD*%
%TO.N,+5V*%
X-84523149Y140694850D03*
%TO.P,U10,25,SAG*%
%TO.N,Net-(U10-SAG)*%
X-85173147Y140694850D03*
%TO.P,U10,26,VOUT*%
%TO.N,Net-(U10-VOUT)*%
X-85823148Y140694850D03*
%TO.P,U10,27,NC*%
%TO.N,unconnected-(U10-NC-Pad27)*%
X-86473147Y140694850D03*
%TO.P,U10,28,NC*%
%TO.N,unconnected-(U10-NC-Pad28)*%
X-87123148Y140694850D03*
%TD*%
D11*
%TO.P,J38,1,Pin_1*%
%TO.N,UART1RX*%
X-71113148Y152367500D03*
%TD*%
D13*
%TO.P,C39,1*%
%TO.N,+3.3V*%
X-70685648Y142415000D03*
%TO.P,C39,2*%
%TO.N,GND*%
X-70685648Y143965000D03*
%TD*%
D11*
%TO.P,J36,1,Pin_1*%
%TO.N,UART6TX*%
X-72113148Y150367500D03*
%TD*%
D16*
%TO.P,R16,1*%
%TO.N,Net-(D2-K)*%
X-75068148Y141463750D03*
%TO.P,R16,2*%
%TO.N,GND*%
X-75068148Y143113750D03*
%TD*%
D11*
%TO.P,J12,1,Pin_1*%
%TO.N,V_IN*%
X-77108148Y152367500D03*
%TD*%
%TO.P,J18,1,Pin_1*%
%TO.N,UART4RX*%
X-75118148Y114367500D03*
%TD*%
D17*
%TO.P,C7,1*%
%TO.N,GND*%
X-85243148Y130202500D03*
%TO.P,C7,2*%
%TO.N,+5V*%
X-86793148Y130202500D03*
%TD*%
D11*
%TO.P,J31,1,Pin_1*%
%TO.N,UART5RX*%
X-63118148Y114367500D03*
%TD*%
D18*
%TO.P,R3,1*%
%TO.N,Net-(C8-Pad2)*%
X-83403148Y143917500D03*
%TO.P,R3,2*%
%TO.N,V_OUT*%
X-81753148Y143917500D03*
%TD*%
D11*
%TO.P,J15,1,Pin_1*%
%TO.N,UART3TX*%
X-65113148Y152367500D03*
%TD*%
D19*
%TO.P,U4,1,GND*%
%TO.N,GND*%
X-81678148Y127877500D03*
%TO.P,U4,2,CSB*%
%TO.N,+3.3V*%
X-81678148Y128527500D03*
%TO.P,U4,3,SDI*%
%TO.N,I2C_SDA*%
X-81678148Y129177500D03*
%TO.P,U4,4,SCK*%
%TO.N,I2C_SCL*%
X-81678148Y129827500D03*
%TO.P,U4,5,SDO*%
%TO.N,GND*%
X-79628148Y129827500D03*
%TO.P,U4,6,VDDIO*%
%TO.N,+3.3V*%
X-79628148Y129177500D03*
%TO.P,U4,7,GND*%
%TO.N,GND*%
X-79628148Y128527500D03*
%TO.P,U4,8,VDD*%
%TO.N,+3.3V*%
X-79628148Y127877500D03*
%TD*%
D11*
%TO.P,J24,1,Pin_1*%
%TO.N,+5V*%
X-61118148Y152367500D03*
%TD*%
D10*
%TO.P,R19,1*%
%TO.N,+3.3V*%
X-55378148Y127767500D03*
%TO.P,R19,2*%
%TO.N,Net-(U8-~{WP}{slash}IO_{2})*%
X-55378148Y126117500D03*
%TD*%
D11*
%TO.P,J25,1,Pin_1*%
%TO.N,ADC_RSSI*%
X-69118148Y114367500D03*
%TD*%
%TO.P,J16,1,Pin_1*%
%TO.N,GND*%
X-62118148Y150367500D03*
%TD*%
%TO.P,J40,1,Pin_1*%
%TO.N,GND*%
X-59123148Y114367500D03*
%TD*%
D17*
%TO.P,C12,1*%
%TO.N,GND*%
X-85243348Y131665100D03*
%TO.P,C12,2*%
%TO.N,+5V*%
X-86793348Y131665100D03*
%TD*%
%TO.P,C31,1*%
%TO.N,+3.3V*%
X-76413148Y129562500D03*
%TO.P,C31,2*%
%TO.N,GND*%
X-77963148Y129562500D03*
%TD*%
D11*
%TO.P,J35,1,Pin_1*%
%TO.N,GND*%
X-67113148Y152367500D03*
%TD*%
D20*
%TO.P,P1,A1,GND*%
%TO.N,GND*%
X-55668148Y136147500D03*
%TO.P,P1,A4,VBUS*%
%TO.N,VBUS*%
X-55668148Y136947500D03*
D21*
%TO.P,P1,A5,CC*%
%TO.N,Net-(P1-CC)*%
X-55668148Y138097500D03*
%TO.P,P1,A6,D+*%
%TO.N,Net-(P1-D+)*%
X-55668148Y139097500D03*
%TO.P,P1,A7,D-*%
%TO.N,Net-(P1-D-)*%
X-55668148Y139597500D03*
%TO.P,P1,A8*%
%TO.N,N/C*%
X-55668148Y140597500D03*
D20*
%TO.P,P1,A9,VBUS*%
%TO.N,VBUS*%
X-55668148Y141747500D03*
%TO.P,P1,A12,GND*%
%TO.N,GND*%
X-55668148Y142547500D03*
%TO.P,P1,B1,GND*%
X-55668148Y142547500D03*
%TO.P,P1,B4,VBUS*%
%TO.N,VBUS*%
X-55668148Y141747500D03*
D21*
%TO.P,P1,B5,VCONN*%
%TO.N,unconnected-(P1-VCONN-PadB5)*%
X-55668148Y141097500D03*
%TO.P,P1,B6*%
%TO.N,N/C*%
X-55668148Y140097500D03*
%TO.P,P1,B7*%
X-55668148Y138597500D03*
%TO.P,P1,B8*%
X-55668148Y137597500D03*
D20*
%TO.P,P1,B9,VBUS*%
%TO.N,VBUS*%
X-55668148Y136947500D03*
%TO.P,P1,B12,GND*%
%TO.N,GND*%
X-55668148Y136147500D03*
D22*
%TO.P,P1,S1,SHIELD*%
X-55068148Y135027500D03*
D23*
X-50868148Y135027500D03*
D22*
X-55068148Y143667500D03*
D23*
X-50868148Y143667500D03*
%TD*%
D11*
%TO.P,J30,1,Pin_1*%
%TO.N,+5V*%
X-73118148Y114367500D03*
%TD*%
D10*
%TO.P,R4,1*%
%TO.N,V_IN*%
X-78920748Y143992300D03*
%TO.P,R4,2*%
%TO.N,GND*%
X-78920748Y142342300D03*
%TD*%
D11*
%TO.P,J13,1,Pin_1*%
%TO.N,+5V*%
X-64118148Y150367500D03*
%TD*%
D17*
%TO.P,C26,1*%
%TO.N,+3.3V*%
X-74363148Y127512500D03*
%TO.P,C26,2*%
%TO.N,GND*%
X-75913148Y127512500D03*
%TD*%
D11*
%TO.P,J33,1,Pin_1*%
%TO.N,UART6RX*%
X-74113148Y150367500D03*
%TD*%
%TO.P,J39,1,Pin_1*%
%TO.N,UART1TX*%
X-73113148Y152367500D03*
%TD*%
%TO.P,J34,1,Pin_1*%
%TO.N,+5V*%
X-70118148Y150367500D03*
%TD*%
D16*
%TO.P,R6,1*%
%TO.N,BOOT1*%
X-63843148Y139592500D03*
%TO.P,R6,2*%
%TO.N,GND*%
X-63843148Y141242500D03*
%TD*%
D24*
%TO.P,R12,1*%
%TO.N,Net-(P1-D+)*%
X-57448148Y138797500D03*
%TO.P,R12,2*%
%TO.N,USBD+*%
X-59098148Y138797500D03*
%TD*%
D14*
%TO.P,C6,1*%
%TO.N,GND*%
X-69230648Y143965000D03*
%TO.P,C6,2*%
%TO.N,+3.3V*%
X-69230648Y142415000D03*
%TD*%
D13*
%TO.P,C23,1*%
%TO.N,+3.3V*%
X-62383148Y138552500D03*
%TO.P,C23,2*%
%TO.N,GND*%
X-62383148Y140102500D03*
%TD*%
%TO.P,C27,1*%
%TO.N,+3.3V*%
X-73603148Y139647500D03*
%TO.P,C27,2*%
%TO.N,GND*%
X-73603148Y141197500D03*
%TD*%
D24*
%TO.P,R20,1*%
%TO.N,Net-(U8-~{HOLD}{slash}~{RESET}{slash}IO_{3})*%
X-52388148Y132247500D03*
%TO.P,R20,2*%
%TO.N,+3.3V*%
X-54038148Y132247500D03*
%TD*%
D10*
%TO.P,R29,1*%
%TO.N,+3.3V*%
X-80003148Y132567500D03*
%TO.P,R29,2*%
%TO.N,I2C_SDA*%
X-80003148Y130917500D03*
%TD*%
D17*
%TO.P,C28,1*%
%TO.N,+3.3V*%
X-74363148Y126052500D03*
%TO.P,C28,2*%
%TO.N,GND*%
X-75913148Y126052500D03*
%TD*%
D16*
%TO.P,R14,1*%
%TO.N,GND*%
X-57523148Y134682500D03*
%TO.P,R14,2*%
%TO.N,Net-(P1-CC)*%
X-57523148Y136332500D03*
%TD*%
%TO.P,R15,1*%
%TO.N,Net-(D3-K)*%
X-76523148Y141463750D03*
%TO.P,R15,2*%
%TO.N,GND*%
X-76523148Y143113750D03*
%TD*%
D12*
%TO.P,D3,1,K*%
%TO.N,Net-(D3-K)*%
X-76523148Y140111250D03*
%TO.P,D3,2,A*%
%TO.N,LEDSTATUS1*%
X-76523148Y138536250D03*
%TD*%
D14*
%TO.P,C25,1*%
%TO.N,+3.3V*%
X-60628148Y130512500D03*
%TO.P,C25,2*%
%TO.N,GND*%
X-60628148Y128962500D03*
%TD*%
D25*
%TO.P,Y2,1,1*%
%TO.N,Net-(U10-XFB)*%
X-84828148Y126272500D03*
%TO.P,Y2,2,2*%
%TO.N,Net-(U10-CLKIN)*%
X-84828148Y128472500D03*
%TO.P,Y2,3*%
%TO.N,N/C*%
X-86528148Y128472500D03*
%TO.P,Y2,4*%
X-86528148Y126272500D03*
%TD*%
D26*
%TO.P,U8,1,~{CS}*%
%TO.N,FLASH_CS*%
X-53658148Y123280000D03*
%TO.P,U8,2,DO/IO_{1}*%
%TO.N,FLASH_MISO*%
X-52388148Y123280000D03*
%TO.P,U8,3,~{WP}/IO_{2}*%
%TO.N,Net-(U8-~{WP}{slash}IO_{2})*%
X-51118148Y123280000D03*
%TO.P,U8,4,GND*%
%TO.N,GND*%
X-49848148Y123280000D03*
%TO.P,U8,5,DI/IO_{0}*%
%TO.N,FLASH_MOSI*%
X-49848148Y130455000D03*
%TO.P,U8,6,CLK*%
%TO.N,FLASH_SCK*%
X-51118148Y130455000D03*
%TO.P,U8,7,~{HOLD}/~{RESET}/IO_{3}*%
%TO.N,Net-(U8-~{HOLD}{slash}~{RESET}{slash}IO_{3})*%
X-52388148Y130455000D03*
%TO.P,U8,8,VCC*%
%TO.N,+3.3V*%
X-53658148Y130455000D03*
%TD*%
D27*
%TO.P,U3,1,VDDIO*%
%TO.N,+3.3V*%
X-66293148Y143657500D03*
%TO.P,U3,2,SCL/SPC*%
%TO.N,GYRO_SCK*%
X-65793148Y143657500D03*
%TO.P,U3,3,SDA/SDI*%
%TO.N,GYRO_SDA*%
X-65293148Y143657500D03*
%TO.P,U3,4,SAO/SD0*%
%TO.N,GYRO_SDO*%
X-64793148Y143657500D03*
%TO.P,U3,5,~{CS}*%
%TO.N,GYRO_CS*%
X-64293148Y143657500D03*
D28*
%TO.P,U3,6,INT*%
%TO.N,GYRO_INIT*%
X-64068148Y144382500D03*
%TO.P,U3,7,RESV*%
%TO.N,unconnected-(U3-RESV-Pad7)*%
X-64068148Y144882500D03*
%TO.P,U3,8,FSYNC*%
%TO.N,GND*%
X-64068148Y145382500D03*
D27*
%TO.P,U3,9,GND*%
X-64293148Y146107500D03*
%TO.P,U3,10,GND*%
X-64793148Y146107500D03*
%TO.P,U3,11,GND*%
X-65293148Y146107500D03*
%TO.P,U3,12,GND*%
X-65793148Y146107500D03*
%TO.P,U3,13,GND*%
X-66293148Y146107500D03*
D28*
%TO.P,U3,14,REGOUT*%
%TO.N,Net-(U3-REGOUT)*%
X-66518148Y145382500D03*
%TO.P,U3,15,GND*%
%TO.N,GND*%
X-66518148Y144882500D03*
%TO.P,U3,16,VDD*%
%TO.N,+3.3V*%
X-66518148Y144382500D03*
%TD*%
D11*
%TO.P,J20,1,Pin_1*%
%TO.N,GND*%
X-71118148Y114367500D03*
%TD*%
D29*
%TO.P,C13,1*%
%TO.N,+5V*%
X-86793148Y133127500D03*
%TO.P,C13,2*%
%TO.N,GND*%
X-85243148Y133127500D03*
%TD*%
D30*
%TO.P,U1,1,VBAT*%
%TO.N,+3.3V*%
X-72473148Y128012500D03*
%TO.P,U1,2,PC13*%
%TO.N,BEEPER*%
X-71973148Y128012500D03*
%TO.P,U1,3,PC14*%
%TO.N,unconnected-(U1-PC14-Pad3)*%
X-71473148Y128012500D03*
%TO.P,U1,4,PC15*%
%TO.N,unconnected-(U1-PC15-Pad4)*%
X-70973148Y128012500D03*
%TO.P,U1,5,PH0*%
%TO.N,OSC_IN*%
X-70473148Y128012500D03*
%TO.P,U1,6,PH1*%
%TO.N,OSC_OUT*%
X-69973148Y128012500D03*
%TO.P,U1,7,NRST*%
%TO.N,Net-(U1-NRST)*%
X-69473148Y128012500D03*
%TO.P,U1,8,PC0*%
%TO.N,ADC_RSSI*%
X-68973148Y128012500D03*
%TO.P,U1,9,PC1*%
%TO.N,ADC_CURRENT*%
X-68473148Y128012500D03*
%TO.P,U1,10,PC2*%
%TO.N,ADC_VBAT*%
X-67973148Y128012500D03*
%TO.P,U1,11,PC3*%
%TO.N,unconnected-(U1-PC3-Pad11)*%
X-67473148Y128012500D03*
%TO.P,U1,12,VSSA*%
%TO.N,GND*%
X-66973148Y128012500D03*
%TO.P,U1,13,VDDA*%
%TO.N,+3.3V*%
X-66473148Y128012500D03*
%TO.P,U1,14,PA0*%
%TO.N,UART4TX*%
X-65973148Y128012500D03*
%TO.P,U1,15,PA1*%
%TO.N,UART4RX*%
X-65473148Y128012500D03*
%TO.P,U1,16,PA2*%
%TO.N,unconnected-(U1-PA2-Pad16)*%
X-64973148Y128012500D03*
D31*
%TO.P,U1,17,PA3*%
%TO.N,UART2RX*%
X-63048148Y129937500D03*
%TO.P,U1,18,VSS*%
%TO.N,GND*%
X-63048148Y130437500D03*
%TO.P,U1,19,VDD*%
%TO.N,+3.3V*%
X-63048148Y130937500D03*
%TO.P,U1,20,PA4*%
%TO.N,FLASH_CS*%
X-63048148Y131437500D03*
%TO.P,U1,21,PA5*%
%TO.N,FLASH_SCK*%
X-63048148Y131937500D03*
%TO.P,U1,22,PA6*%
%TO.N,FLASH_MISO*%
X-63048148Y132437500D03*
%TO.P,U1,23,PA7*%
%TO.N,FLASH_MOSI*%
X-63048148Y132937500D03*
%TO.P,U1,24,PC4*%
%TO.N,unconnected-(U1-PC4-Pad24)*%
X-63048148Y133437500D03*
%TO.P,U1,25,PC5*%
%TO.N,unconnected-(U1-PC5-Pad25)*%
X-63048148Y133937500D03*
%TO.P,U1,26,PB0*%
%TO.N,unconnected-(U1-PB0-Pad26)*%
X-63048148Y134437500D03*
%TO.P,U1,27,PB1*%
%TO.N,unconnected-(U1-PB1-Pad27)*%
X-63048148Y134937500D03*
%TO.P,U1,28,PB2*%
%TO.N,BOOT1*%
X-63048148Y135437500D03*
%TO.P,U1,29,PB10*%
%TO.N,UART3TX*%
X-63048148Y135937500D03*
%TO.P,U1,30,PB11*%
%TO.N,UART3RX*%
X-63048148Y136437500D03*
%TO.P,U1,31,VCAP_1*%
%TO.N,unconnected-(U1-VCAP_1-Pad31)*%
X-63048148Y136937500D03*
%TO.P,U1,32,VDD*%
%TO.N,+3.3V*%
X-63048148Y137437500D03*
D30*
%TO.P,U1,33,PB12*%
%TO.N,GYRO_CS*%
X-64973148Y139362500D03*
%TO.P,U1,34,PB13*%
%TO.N,GYRO_SCK*%
X-65473148Y139362500D03*
%TO.P,U1,35,PB14*%
%TO.N,GYRO_SDO*%
X-65973148Y139362500D03*
%TO.P,U1,36,PB15*%
%TO.N,GYRO_SDA*%
X-66473148Y139362500D03*
%TO.P,U1,37,PC6*%
%TO.N,UART6TX*%
X-66973148Y139362500D03*
%TO.P,U1,38,PC7*%
%TO.N,UART6RX*%
X-67473148Y139362500D03*
%TO.P,U1,39,PC8*%
%TO.N,9V_Enable*%
X-67973148Y139362500D03*
%TO.P,U1,40,PC9*%
%TO.N,GYRO_INIT*%
X-68473148Y139362500D03*
%TO.P,U1,41,PA8*%
%TO.N,unconnected-(U1-PA8-Pad41)*%
X-68973148Y139362500D03*
%TO.P,U1,42,PA9*%
%TO.N,UART1TX*%
X-69473148Y139362500D03*
%TO.P,U1,43,PA10*%
%TO.N,UART1RX*%
X-69973148Y139362500D03*
%TO.P,U1,44,PA11*%
%TO.N,USBD-*%
X-70473148Y139362500D03*
%TO.P,U1,45,PA12*%
%TO.N,USBD+*%
X-70973148Y139362500D03*
%TO.P,U1,46,PA13*%
%TO.N,LEDSTATUS1*%
X-71473148Y139362500D03*
%TO.P,U1,47,VCAP_2*%
%TO.N,unconnected-(U1-VCAP_2-Pad47)*%
X-71973148Y139362500D03*
%TO.P,U1,48,VDD*%
%TO.N,+3.3V*%
X-72473148Y139362500D03*
D31*
%TO.P,U1,49,PA14*%
%TO.N,LEDSTATUS0*%
X-74398148Y137437500D03*
%TO.P,U1,50,PA15*%
%TO.N,OSD_CS*%
X-74398148Y136937500D03*
%TO.P,U1,51,PC10*%
%TO.N,OSD_SCK*%
X-74398148Y136437500D03*
%TO.P,U1,52,PC11*%
%TO.N,OSD_MISO*%
X-74398148Y135937500D03*
%TO.P,U1,53,PC12*%
%TO.N,UART5TX*%
X-74398148Y135437500D03*
%TO.P,U1,54,PD2*%
%TO.N,UART5RX*%
X-74398148Y134937500D03*
%TO.P,U1,55,PB3*%
%TO.N,M1*%
X-74398148Y134437500D03*
%TO.P,U1,56,PB4*%
%TO.N,M2*%
X-74398148Y133937500D03*
%TO.P,U1,57,PB5*%
%TO.N,OSD_MOSI*%
X-74398148Y133437500D03*
%TO.P,U1,58,PB6*%
%TO.N,M3*%
X-74398148Y132937500D03*
%TO.P,U1,59,PB7*%
%TO.N,M4*%
X-74398148Y132437500D03*
%TO.P,U1,60,BOOT0*%
%TO.N,BOOT0*%
X-74398148Y131937500D03*
%TO.P,U1,61,PB8*%
%TO.N,I2C_SCL*%
X-74398148Y131437500D03*
%TO.P,U1,62,PB9*%
%TO.N,I2C_SDA*%
X-74398148Y130937500D03*
%TO.P,U1,63,VSS*%
%TO.N,GND*%
X-74398148Y130437500D03*
%TO.P,U1,64,VDD*%
%TO.N,+3.3V*%
X-74398148Y129937500D03*
%TD*%
D32*
%TO.P,C32,1*%
%TO.N,OSC_OUT*%
X-70613148Y125247500D03*
%TO.P,C32,2*%
%TO.N,GND*%
X-71813148Y125247500D03*
%TO.P,C32,3*%
%TO.N,OSC_IN*%
X-73013148Y125247500D03*
%TD*%
D11*
%TO.P,J42,1,Pin_1*%
%TO.N,BEEPER_B-*%
X-66118148Y150367500D03*
%TD*%
%TO.P,J14,1,Pin_1*%
%TO.N,UART3RX*%
X-63118148Y152367500D03*
%TD*%
D24*
%TO.P,R13,1*%
%TO.N,Net-(P1-D-)*%
X-57448148Y140257500D03*
%TO.P,R13,2*%
%TO.N,USBD-*%
X-59098148Y140257500D03*
%TD*%
D11*
%TO.P,J32,1,Pin_1*%
%TO.N,UART5TX*%
X-65118148Y114367500D03*
%TD*%
%TO.P,J11,1,Pin_1*%
%TO.N,V_OUT*%
X-75108148Y152367500D03*
%TD*%
D13*
%TO.P,C11,1*%
%TO.N,Net-(U10-VIN)*%
X-80373148Y142832500D03*
%TO.P,C11,2*%
%TO.N,V_IN*%
X-80373148Y144382500D03*
%TD*%
D11*
%TO.P,J37,1,Pin_1*%
%TO.N,+10V*%
X-69113148Y152367500D03*
%TD*%
%TO.P,J29,1,Pin_1*%
%TO.N,SBUS*%
X-67118148Y114367500D03*
%TD*%
%TO.P,J26,1,Pin_1*%
%TO.N,GND*%
X-68113148Y150367500D03*
%TD*%
D13*
%TO.P,C9,1*%
%TO.N,Net-(U10-SAG)*%
X-84788148Y142392500D03*
%TO.P,C9,2*%
%TO.N,Net-(C8-Pad2)*%
X-84788148Y143942500D03*
%TD*%
D14*
%TO.P,C10,1*%
%TO.N,+3.3V*%
X-82923148Y129692500D03*
%TO.P,C10,2*%
%TO.N,GND*%
X-82923148Y128142500D03*
%TD*%
D17*
%TO.P,C29,1*%
%TO.N,+3.3V*%
X-67838148Y124407500D03*
%TO.P,C29,2*%
%TO.N,GND*%
X-69388148Y124407500D03*
%TD*%
D33*
%TO.N,BOOT0*%
X-72752148Y131567500D03*
%TO.N,BEEPER*%
X-59998148Y139047500D03*
X-61382768Y136502880D03*
X-68503149Y130521738D03*
%TO.N,+5V*%
X-72910648Y146890000D03*
X-74113146Y114362500D03*
X-62158148Y116012500D03*
X-81267745Y139182500D03*
X-86108146Y132412500D03*
X-64128148Y150372500D03*
X-61103148Y152362500D03*
X-58608148Y143447500D03*
X-58060017Y141251448D03*
X-70113148Y150777500D03*
%TO.N,GYRO_INIT*%
X-68453441Y141038579D03*
X-63433148Y143192500D03*
%TO.N,GND*%
X-75913148Y127512500D03*
X-60615648Y115397500D03*
X-63774648Y124321500D03*
X-65968148Y147207500D03*
X-67838148Y126247500D03*
X-74108148Y115857500D03*
X-63158148Y116102500D03*
X-61878148Y140027500D03*
X-73863148Y145247500D03*
X-83845648Y139197500D03*
X-83845648Y137685599D03*
X-59123148Y114367500D03*
X-61183148Y123122500D03*
X-72753148Y130087500D03*
X-67113148Y152367500D03*
X-75913148Y126052500D03*
X-62613148Y124322500D03*
X-72178148Y133277500D03*
X-74128148Y117617500D03*
X-59130648Y120967500D03*
X-58250648Y127652500D03*
X-70478148Y148457500D03*
%TO.N,+3.3V*%
X-80378150Y128532907D03*
X-55373148Y127747500D03*
X-70658148Y142407500D03*
X-74398148Y129787500D03*
X-67838148Y124407500D03*
X-60618148Y130512500D03*
X-74363148Y127512500D03*
X-62143148Y128662500D03*
X-74363148Y126052500D03*
X-62383148Y138552500D03*
X-73603148Y139422500D03*
X-82913148Y129677500D03*
X-72925648Y149187500D03*
X-70773148Y130267500D03*
X-82913148Y130862500D03*
%TO.N,GYRO_SCK*%
X-65373148Y141120735D03*
X-66525807Y142274785D03*
%TO.N,VIN*%
X-67528148Y148457500D03*
X-75223148Y144022500D03*
%TO.N,USBD-*%
X-59098148Y140257500D03*
X-70008148Y137852500D03*
%TO.N,ADC_RSSI*%
X-69901403Y125327501D03*
X-67939148Y118190870D03*
%TO.N,ADC_VBAT*%
X-67602500Y129472500D03*
%TO.N,FLASH_MISO*%
X-61188148Y132587500D03*
X-59348528Y132587880D03*
%TO.N,USBD+*%
X-58777791Y138802429D03*
X-70121518Y136064130D03*
%TO.N,V_OUT*%
X-81753148Y143917500D03*
X-75108148Y152367500D03*
%TO.N,VBUS*%
X-55668148Y136947500D03*
X-55668148Y141747500D03*
%TO.N,Net-(U6-FB)*%
X-61112148Y119176500D03*
X-57478148Y119177500D03*
%TO.N,9V_Enable*%
X-62135648Y127002500D03*
%TO.N,SBUS*%
X-67108148Y118447500D03*
%TO.N,ADC_CURRENT*%
X-77108148Y117187500D03*
%TO.N,UART2RX*%
X-77118148Y115907500D03*
X-68013148Y123172500D03*
X-63278148Y129202500D03*
%TO.N,UART3TX*%
X-62798386Y141601501D03*
X-65099407Y137185922D03*
%TO.N,UART3RX*%
X-64299462Y137195538D03*
X-62006548Y141487500D03*
%TO.N,UART6TX*%
X-72113148Y150367500D03*
X-66163148Y134942500D03*
%TO.N,UART6RX*%
X-74113148Y150367500D03*
X-66859899Y134389251D03*
%TO.N,UART1TX*%
X-73113148Y150368500D03*
X-69763148Y141415380D03*
%TO.N,UART1RX*%
X-70688148Y141087500D03*
X-71522020Y146150000D03*
%TO.N,UART5TX*%
X-72833148Y135272500D03*
X-68589148Y118840869D03*
%TO.N,UART5RX*%
X-68589148Y119640872D03*
X-72813148Y134267500D03*
%TO.N,M1*%
X-76948148Y134997500D03*
%TO.N,M2*%
X-77623148Y134347500D03*
%TO.N,M3*%
X-78288148Y132937500D03*
%TO.N,M4*%
X-78923394Y132087500D03*
%TO.N,BEEPER_B-*%
X-66118148Y150777500D03*
X-58288148Y146852500D03*
X-60003148Y140977500D03*
%TO.N,+10V*%
X-62135648Y117547500D03*
X-69113148Y152367500D03*
%TO.N,Net-(U1-NRST)*%
X-69623148Y126247500D03*
%TD*%
D34*
%TO.N,GYRO_CS*%
X-64973148Y140422500D02*
X-64973148Y139362500D01*
X-64293148Y143657500D02*
X-64293148Y142402500D01*
X-64693148Y142002500D02*
X-64693148Y140702500D01*
X-64693148Y140702500D02*
X-64973148Y140422500D01*
X-64293148Y142402500D02*
X-64693148Y142002500D01*
D35*
%TO.N,BOOT0*%
X-72752148Y131567500D02*
X-72752148Y131736500D01*
X-72953148Y131937500D02*
X-74398148Y131937500D01*
X-72752148Y131736500D02*
X-72953148Y131937500D01*
%TO.N,BEEPER*%
X-59998148Y137887500D02*
X-59998148Y139047500D01*
X-68503149Y130521738D02*
X-69562387Y129462500D01*
X-71402682Y129462500D02*
X-71973148Y128892034D01*
X-69562387Y129462500D02*
X-71402682Y129462500D01*
X-71973148Y128892034D02*
X-71973148Y128012500D01*
X-61382768Y136502880D02*
X-59998148Y137887500D01*
%TO.N,OSD_MISO*%
X-80623149Y135822499D02*
X-80623149Y134840150D01*
X-74398148Y135937500D02*
X-80508148Y135937500D01*
X-80508148Y135937500D02*
X-80623149Y135822499D01*
%TO.N,OSD_MOSI*%
X-74398148Y133437500D02*
X-76138148Y133437500D01*
X-81545948Y133697500D02*
X-81923149Y134074701D01*
X-81923149Y134074701D02*
X-81923149Y134840150D01*
X-76398148Y133697500D02*
X-81545948Y133697500D01*
X-76138148Y133437500D02*
X-76398148Y133697500D01*
D36*
%TO.N,+5V*%
X-81273147Y140694850D02*
X-81273147Y139187902D01*
D37*
X-58060017Y141251448D02*
X-58058148Y141253317D01*
D36*
X-84523149Y139817499D02*
X-84523149Y140694850D01*
D38*
X-86108146Y132412500D02*
X-86793148Y132412500D01*
X-62013148Y115265000D02*
X-62013148Y115262500D01*
D36*
X-82753148Y139182500D02*
X-83550049Y138385599D01*
X-85823148Y139277500D02*
X-85503148Y139597500D01*
D38*
X-62013148Y115262500D02*
X-61118148Y114367500D01*
X-62158148Y116012500D02*
X-62158148Y115410000D01*
D36*
X-83550049Y138385599D02*
X-85823148Y138385599D01*
X-86603148Y133127500D02*
X-86793148Y133127500D01*
D37*
X-58058148Y141253317D02*
X-58093965Y141253317D01*
D36*
X-85823148Y138385599D02*
X-85823148Y139277500D01*
D38*
X-58093965Y141253317D02*
X-58608148Y141767500D01*
D36*
X-86609680Y133127500D02*
X-86793148Y133127500D01*
X-82573147Y139362501D02*
X-82573147Y140694850D01*
D38*
X-70118148Y150367500D02*
X-70118148Y150772500D01*
D39*
X-86793148Y132412500D02*
X-86793148Y131665300D01*
D36*
X-82291669Y139182500D02*
X-81267745Y139182500D01*
X-84743148Y139597500D02*
X-84523149Y139817499D01*
X-85823148Y133914032D02*
X-86609680Y133127500D01*
D38*
X-62158148Y115410000D02*
X-62013148Y115265000D01*
X-70118148Y150772500D02*
X-70113148Y150777500D01*
D36*
X-85823148Y134840150D02*
X-85823148Y138385599D01*
D34*
X-86793148Y133127500D02*
X-86793148Y133097502D01*
D36*
X-85823148Y134840150D02*
X-85823148Y133914032D01*
D39*
X-86793348Y130202700D02*
X-86793148Y130202500D01*
X-86793148Y131665300D02*
X-86793348Y131665100D01*
X-86793148Y133127500D02*
X-86793148Y132412500D01*
D38*
X-58608148Y141767500D02*
X-58608148Y143447500D01*
X-73118148Y114362500D02*
X-74113146Y114362500D01*
D36*
X-82753148Y139182500D02*
X-82573147Y139362501D01*
X-85503148Y139597500D02*
X-84743148Y139597500D01*
D35*
X-81273147Y139187902D02*
X-81267745Y139182500D01*
D36*
X-82291669Y139182500D02*
X-82753148Y139182500D01*
D39*
X-86793348Y131665100D02*
X-86793348Y130202700D01*
D34*
%TO.N,GYRO_SDO*%
X-64793148Y143657500D02*
X-64793148Y142567500D01*
X-65973148Y141387500D02*
X-65973148Y139362500D01*
X-64793148Y142567500D02*
X-65973148Y141387500D01*
%TO.N,GYRO_INIT*%
X-63741300Y144382500D02*
X-64068148Y144382500D01*
D35*
X-68473148Y140822500D02*
X-68473148Y139362500D01*
X-68453441Y141038579D02*
X-68453441Y140842207D01*
D34*
X-63433148Y143192500D02*
X-63433148Y144074348D01*
D35*
X-68453441Y140842207D02*
X-68473148Y140822500D01*
D34*
X-63433148Y144074348D02*
X-63741300Y144382500D01*
D40*
%TO.N,GND*%
X-55413148Y134682500D02*
X-55068148Y135027500D01*
D36*
X-63438148Y146107500D02*
X-62733148Y145402500D01*
D41*
X-86528148Y128472500D02*
X-86528148Y126272500D01*
D39*
X-85243148Y130202500D02*
X-85243148Y131664900D01*
D35*
X-77513148Y130437500D02*
X-77963148Y129987500D01*
D38*
X-70023148Y148457500D02*
X-68113148Y150367500D01*
D40*
X-70785022Y143965000D02*
X-71636272Y143113750D01*
X-57523148Y134682500D02*
X-55413148Y134682500D01*
D35*
X-69958148Y123837500D02*
X-69388148Y124407500D01*
X-66293148Y146930000D02*
X-66293148Y147292500D01*
X-75303048Y123842400D02*
X-75913148Y124452500D01*
D37*
X-67838148Y126247500D02*
X-67838148Y125957500D01*
D42*
X-85173148Y133057500D02*
X-85173148Y131735300D01*
D35*
X-71813148Y124607500D02*
X-72578248Y123842400D01*
X-79628148Y129827500D02*
X-79078148Y129827500D01*
D43*
X-67113148Y151762500D02*
X-67113148Y151367500D01*
D40*
X-71636272Y143113750D02*
X-75068148Y143113750D01*
D35*
X-72553148Y130747500D02*
X-73208614Y130747500D01*
D38*
X-70478148Y148457500D02*
X-70023148Y148457500D01*
D36*
X-63459148Y142491500D02*
X-63843148Y142107500D01*
D35*
X-75913148Y124452500D02*
X-75913148Y126052500D01*
D36*
X-64793148Y146107500D02*
X-64293148Y146107500D01*
D38*
X-55668148Y135627500D02*
X-55068148Y135027500D01*
D36*
X-65293148Y146107500D02*
X-64793148Y146107500D01*
X-64068148Y146107500D02*
X-64068148Y145408500D01*
X-63843148Y142107500D02*
X-63843148Y141242500D01*
X-66293148Y148547500D02*
X-66293148Y147292500D01*
D34*
X-66191300Y144882500D02*
X-65793148Y145280652D01*
D36*
X-62732148Y142778500D02*
X-63019148Y142491500D01*
D38*
X-55668148Y142547500D02*
X-55668148Y143067500D01*
D42*
X-86528148Y128813836D02*
X-86528148Y128472500D01*
D36*
X-62732148Y143482864D02*
X-62732148Y142778500D01*
X-81675348Y141775300D02*
X-81923149Y141527499D01*
D40*
X-86528148Y128472500D02*
X-86528148Y128818126D01*
D36*
X-62733148Y145402500D02*
X-62733148Y143483864D01*
X-62733148Y143483864D02*
X-62732148Y143482864D01*
D35*
X-83845648Y139432500D02*
X-83845648Y139197500D01*
D36*
X-66013148Y147207500D02*
X-66098148Y147292500D01*
D34*
X-66858148Y144882500D02*
X-66518148Y144882500D01*
D39*
X-75913148Y127512500D02*
X-75913148Y126052500D01*
D40*
X-63738148Y141242500D02*
X-62598148Y140102500D01*
D35*
X-66973148Y126732500D02*
X-66973148Y128012500D01*
X-79027148Y128578500D02*
X-79078148Y128527500D01*
D34*
X-66518148Y144882500D02*
X-66191300Y144882500D01*
D36*
X-68113148Y150367500D02*
X-66293148Y148547500D01*
D39*
X-85243148Y131664900D02*
X-85243348Y131665100D01*
D36*
X-83845648Y137610000D02*
X-85173147Y136282501D01*
D35*
X-72753148Y130087500D02*
X-72753148Y130747500D01*
D40*
X-70685648Y143965000D02*
X-70785022Y143965000D01*
D37*
X-67838148Y125957500D02*
X-69388148Y124407500D01*
D36*
X-83873147Y140694850D02*
X-83873147Y139459999D01*
D39*
X-69230648Y143965000D02*
X-67775648Y143965000D01*
D40*
X-63843148Y141242500D02*
X-63738148Y141242500D01*
D34*
X-67775648Y143965000D02*
X-66858148Y144882500D01*
D36*
X-67775648Y146930000D02*
X-66293148Y146930000D01*
X-81923149Y141527499D02*
X-81923149Y140694850D01*
X-66098148Y147292500D02*
X-66293148Y147292500D01*
X-85173147Y133197501D02*
X-85243148Y133127500D01*
X-78920748Y142342300D02*
X-79487748Y141775300D01*
D35*
X-73208614Y130747500D02*
X-73518614Y130437500D01*
D36*
X-65793148Y146107500D02*
X-65293148Y146107500D01*
D35*
X-74398148Y130437500D02*
X-77513148Y130437500D01*
X-72578248Y123842400D02*
X-75303048Y123842400D01*
X-63048148Y130437500D02*
X-62103148Y130437500D01*
D40*
X-85243148Y130103126D02*
X-85243148Y130202500D01*
D36*
X-79487748Y141775300D02*
X-81675348Y141775300D01*
D40*
X-76523148Y143113750D02*
X-75068148Y143113750D01*
D38*
X-55668148Y143067500D02*
X-55068148Y143667500D01*
D40*
X-62598148Y140102500D02*
X-62383148Y140102500D01*
D35*
X-62103148Y130437500D02*
X-60628148Y128962500D01*
X-72178148Y133277500D02*
X-72102148Y133201500D01*
X-71758148Y124552500D02*
X-71043148Y123837500D01*
X-67838148Y126247500D02*
X-67458148Y126247500D01*
D38*
X-55668148Y136147500D02*
X-55668148Y135627500D01*
D43*
X-67113148Y151367500D02*
X-68113148Y150367500D01*
D35*
X-72102148Y133201500D02*
X-72102148Y131198500D01*
X-73518614Y130437500D02*
X-74398148Y130437500D01*
D36*
X-85173147Y134840150D02*
X-85173147Y133197501D01*
D43*
X-67113148Y152367500D02*
X-67113148Y151762500D01*
D36*
X-66293148Y146107500D02*
X-65793148Y146107500D01*
D35*
X-79027148Y129562500D02*
X-79027148Y128578500D01*
X-77963148Y129987500D02*
X-77963148Y129562500D01*
D40*
X-86528148Y128818126D02*
X-85243148Y130103126D01*
D36*
X-63019148Y142491500D02*
X-63459148Y142491500D01*
D34*
X-65793148Y145280652D02*
X-65793148Y146107500D01*
D35*
X-64293148Y146107500D02*
X-64068148Y146107500D01*
D36*
X-66293148Y147292500D02*
X-66293148Y146107500D01*
X-64293148Y146107500D02*
X-63438148Y146107500D01*
D35*
X-72102148Y131198500D02*
X-72553148Y130747500D01*
X-71043148Y123837500D02*
X-69958148Y123837500D01*
X-79027148Y129776500D02*
X-79027148Y129562500D01*
D36*
X-65968148Y147207500D02*
X-66013148Y147207500D01*
D35*
X-79078148Y129827500D02*
X-79027148Y129776500D01*
X-83873147Y139459999D02*
X-83845648Y139432500D01*
X-79078148Y128527500D02*
X-79628148Y128527500D01*
X-83845648Y137685599D02*
X-83845648Y137610000D01*
X-67458148Y126247500D02*
X-66973148Y126732500D01*
D36*
X-85173147Y136282501D02*
X-85173147Y134840150D01*
D39*
X-70685648Y143965000D02*
X-69230648Y143965000D01*
D35*
%TO.N,OSD_SCK*%
X-74398148Y136437500D02*
X-80728148Y136437500D01*
X-80728148Y136437500D02*
X-81273150Y135892498D01*
X-81273150Y135892498D02*
X-81273150Y134840150D01*
%TO.N,OSD_CS*%
X-82573150Y136167498D02*
X-81803148Y136937500D01*
X-81803148Y136937500D02*
X-74398148Y136937500D01*
X-82573150Y134840150D02*
X-82573150Y136167498D01*
%TO.N,FLASH_MOSI*%
X-49848148Y133272500D02*
X-49848148Y130455000D01*
X-62168614Y132937500D02*
X-61233614Y133872500D01*
X-50448148Y133872500D02*
X-49848148Y133272500D01*
X-63048148Y132937500D02*
X-62168614Y132937500D01*
X-61233614Y133872500D02*
X-50448148Y133872500D01*
%TO.N,FLASH_SCK*%
X-59508148Y133347500D02*
X-51623148Y133347500D01*
X-51623148Y133347500D02*
X-51118148Y132842500D01*
X-60918148Y131937500D02*
X-59508148Y133347500D01*
X-51118148Y132842500D02*
X-51118148Y130455000D01*
X-63048148Y131937500D02*
X-60918148Y131937500D01*
%TO.N,+3.3V*%
X-66518148Y143882500D02*
X-66293148Y143657500D01*
D38*
X-53658148Y130455000D02*
X-53658148Y128602500D01*
X-54493148Y127767500D02*
X-55378148Y127767500D01*
D35*
X-73028148Y139647500D02*
X-72743148Y139362500D01*
X-82913148Y129472500D02*
X-81968148Y128527500D01*
X-80377743Y128532500D02*
X-80229148Y128532500D01*
X-74398148Y129787500D02*
X-74398148Y129937500D01*
X-80378150Y128532907D02*
X-80377743Y128532500D01*
D40*
X-82383148Y132567500D02*
X-82913148Y132037500D01*
D35*
X-82913148Y129677500D02*
X-82913148Y129472500D01*
X-66978148Y124407500D02*
X-67838148Y124407500D01*
X-80229148Y128532500D02*
X-80229148Y128001500D01*
D40*
X-80003148Y132567500D02*
X-81463148Y132567500D01*
X-81463148Y132567500D02*
X-82383148Y132567500D01*
D35*
X-73493148Y127512500D02*
X-72993148Y128012500D01*
X-80178148Y129177500D02*
X-80229148Y129126500D01*
D39*
X-70685648Y142415000D02*
X-69230648Y142415000D01*
D35*
X-66473148Y124912500D02*
X-66978148Y124407500D01*
D40*
X-82913148Y132037500D02*
X-82913148Y129677500D01*
D35*
X-74363148Y127512500D02*
X-73493148Y127512500D01*
X-67775648Y142415000D02*
X-67535648Y142415000D01*
X-73603148Y139647500D02*
X-73028148Y139647500D01*
X-61053148Y130937500D02*
X-60628148Y130512500D01*
D38*
X-54038148Y132247500D02*
X-53658148Y131867500D01*
D35*
X-67838148Y124407500D02*
X-67888148Y124457500D01*
X-80229148Y128001500D02*
X-80105148Y127877500D01*
D39*
X-69230648Y142415000D02*
X-67775648Y142415000D01*
D35*
X-81968148Y128527500D02*
X-81678148Y128527500D01*
D38*
X-76413148Y129562500D02*
X-76188148Y129787500D01*
D35*
X-67535648Y142415000D02*
X-66293148Y143657500D01*
X-72743148Y139362500D02*
X-72473148Y139362500D01*
X-72993148Y128012500D02*
X-72473148Y128012500D01*
D38*
X-53658148Y131867500D02*
X-53658148Y130455000D01*
D35*
X-63048148Y137437500D02*
X-63048148Y137887500D01*
X-80229148Y129126500D02*
X-80229148Y128532500D01*
X-82923148Y129692500D02*
X-82923148Y129687500D01*
X-63048148Y137887500D02*
X-62383148Y138552500D01*
X-66518148Y144382500D02*
X-66518148Y143882500D01*
X-66473148Y128012500D02*
X-66473148Y124912500D01*
D39*
X-74363148Y126052500D02*
X-74363148Y127512500D01*
D35*
X-80105148Y127877500D02*
X-79628148Y127877500D01*
D38*
X-73603148Y139422500D02*
X-73603148Y139647500D01*
D35*
X-74363148Y127512500D02*
X-74358148Y127517500D01*
X-82923148Y129687500D02*
X-82913148Y129677500D01*
D38*
X-76188148Y129787500D02*
X-74398148Y129787500D01*
D35*
X-79628148Y129177500D02*
X-80178148Y129177500D01*
D38*
X-53658148Y128602500D02*
X-54493148Y127767500D01*
D35*
X-63048148Y130937500D02*
X-61053148Y130937500D01*
D34*
%TO.N,GYRO_SCK*%
X-65793148Y143006029D02*
X-66524392Y142274785D01*
X-65473148Y141020735D02*
X-65473148Y139362500D01*
X-65373148Y141120735D02*
X-65473148Y141020735D01*
X-65793148Y143006029D02*
X-65793148Y143657500D01*
X-66524392Y142274785D02*
X-66525807Y142274785D01*
%TO.N,GYRO_SDA*%
X-65293148Y142657500D02*
X-66468148Y141482500D01*
X-65293148Y143657500D02*
X-65293148Y142657500D01*
X-66468148Y141482500D02*
X-66468148Y139367500D01*
X-66468148Y139367500D02*
X-66473148Y139362500D01*
D38*
%TO.N,VIN*%
X-68068148Y148472500D02*
X-67543148Y148472500D01*
X-72518148Y144022500D02*
X-68068148Y148472500D01*
X-67543148Y148472500D02*
X-67528148Y148457500D01*
X-75223148Y144022500D02*
X-72518148Y144022500D01*
D35*
%TO.N,I2C_SDA*%
X-79983148Y130937500D02*
X-80003148Y130917500D01*
X-74398148Y130937500D02*
X-79983148Y130937500D01*
X-80003148Y130917500D02*
X-80003148Y130572500D01*
X-80003148Y130572500D02*
X-81398148Y129177500D01*
X-81398148Y129177500D02*
X-81678148Y129177500D01*
%TO.N,USBD-*%
X-70473148Y138317500D02*
X-70008148Y137852500D01*
X-70473148Y139362500D02*
X-70473148Y138317500D01*
%TO.N,I2C_SCL*%
X-81463148Y131432500D02*
X-81148148Y131747500D01*
X-81463148Y130917500D02*
X-81678148Y130702500D01*
X-79263148Y131437500D02*
X-74398148Y131437500D01*
X-81678148Y130702500D02*
X-81678148Y129827500D01*
X-81463148Y130917500D02*
X-81463148Y131432500D01*
X-79573148Y131747500D02*
X-79263148Y131437500D01*
X-81148148Y131747500D02*
X-79573148Y131747500D01*
%TO.N,OSC_OUT*%
X-69973148Y126917500D02*
X-69973148Y128012500D01*
X-70613148Y125247500D02*
X-70613148Y126277500D01*
X-70613148Y126277500D02*
X-69973148Y126917500D01*
%TO.N,OSC_IN*%
X-73013148Y125880146D02*
X-72006794Y126886500D01*
X-72006794Y126886500D02*
X-70719614Y126886500D01*
X-73013148Y125247500D02*
X-73013148Y125880146D01*
X-70473148Y127132966D02*
X-70473148Y128012500D01*
X-70719614Y126886500D02*
X-70473148Y127132966D01*
%TO.N,ADC_RSSI*%
X-67939148Y115541500D02*
X-69113148Y114367500D01*
X-69901403Y125327501D02*
X-69897567Y125323665D01*
X-69346983Y125323665D02*
X-68973148Y125697500D01*
X-67939148Y118134515D02*
X-67939148Y115541500D01*
X-69897567Y125323665D02*
X-69346983Y125323665D01*
X-67882793Y118190870D02*
X-67939148Y118134515D01*
X-68973148Y125697500D02*
X-68973148Y128012500D01*
X-67939148Y118190870D02*
X-67882793Y118190870D01*
%TO.N,ADC_VBAT*%
X-67973148Y129101852D02*
X-67602500Y129472500D01*
X-67973148Y128012500D02*
X-67973148Y129101852D01*
%TO.N,FLASH_CS*%
X-56718148Y130838980D02*
X-56718148Y124257500D01*
X-57316668Y131437500D02*
X-56718148Y130838980D01*
X-63048148Y131437500D02*
X-57316668Y131437500D01*
X-56718148Y124257500D02*
X-55740648Y123280000D01*
X-55740648Y123280000D02*
X-53658148Y123280000D01*
%TO.N,FLASH_MISO*%
X-52388148Y124252500D02*
X-52388148Y123280000D01*
X-61599376Y132587500D02*
X-61749376Y132437500D01*
X-59348528Y132587880D02*
X-56888528Y132587880D01*
X-61188148Y132587500D02*
X-61599376Y132587500D01*
X-56203148Y125167500D02*
X-55708148Y124672500D01*
X-56888528Y132587880D02*
X-56203148Y131902500D01*
X-55708148Y124672500D02*
X-52808148Y124672500D01*
X-61749376Y132437500D02*
X-63048148Y132437500D01*
X-52808148Y124672500D02*
X-52388148Y124252500D01*
X-56203148Y131902500D02*
X-56203148Y125167500D01*
%TO.N,USBD+*%
X-70973148Y139362500D02*
X-70973148Y136915760D01*
X-59098148Y138797500D02*
X-58782720Y138797500D01*
X-58981680Y138681032D02*
X-59098148Y138797500D01*
X-58782720Y138797500D02*
X-58777791Y138802429D01*
X-70973148Y136915760D02*
X-70121518Y136064130D01*
D42*
%TO.N,V_IN*%
X-78970548Y143942500D02*
X-78920748Y143992300D01*
X-78920748Y143992300D02*
X-78920748Y144004900D01*
D40*
X-78920748Y144004900D02*
X-78540648Y144385000D01*
X-78920748Y144004900D02*
X-77108148Y145817500D01*
X-80370648Y144385000D02*
X-80373148Y144382500D01*
X-78540648Y144385000D02*
X-80370648Y144385000D01*
X-77108148Y145817500D02*
X-77108148Y152367500D01*
D39*
%TO.N,Net-(D2-K)*%
X-75068148Y141190625D02*
X-75068148Y140374375D01*
D38*
%TO.N,Net-(U6-FB)*%
X-57479148Y119176500D02*
X-57478148Y119177500D01*
X-61112148Y119176500D02*
X-57479148Y119176500D01*
D35*
%TO.N,9V_Enable*%
X-67973148Y132842500D02*
X-62135648Y127005000D01*
X-62135648Y127005000D02*
X-62135648Y127002500D01*
X-67973148Y139362500D02*
X-67973148Y132842500D01*
D38*
%TO.N,Net-(U8-~{WP}{slash}IO_{2})*%
X-51118148Y123280000D02*
X-51118148Y125202500D01*
X-52033148Y126117500D02*
X-55378148Y126117500D01*
X-51118148Y125202500D02*
X-52033148Y126117500D01*
D39*
%TO.N,Net-(D3-K)*%
X-76523148Y141210625D02*
X-76523148Y140394375D01*
D34*
%TO.N,SBUS*%
X-67108148Y118447500D02*
X-67108148Y118277500D01*
X-67108148Y118277500D02*
X-67113148Y118272500D01*
X-67113148Y118272500D02*
X-67113148Y114367500D01*
D35*
%TO.N,ADC_CURRENT*%
X-68473148Y129632500D02*
X-68473148Y128012500D01*
X-67793148Y130947500D02*
X-67793148Y130312500D01*
X-76148148Y128637500D02*
X-73227682Y128637500D01*
X-71198148Y131252500D02*
X-68098148Y131252500D01*
X-77108148Y127677500D02*
X-76148148Y128637500D01*
X-71718148Y130147034D02*
X-71718148Y130732500D01*
X-67793148Y130312500D02*
X-68473148Y129632500D01*
X-73227682Y128637500D02*
X-71718148Y130147034D01*
X-77108148Y117187500D02*
X-77108148Y127677500D01*
X-71718148Y130732500D02*
X-71198148Y131252500D01*
X-68098148Y131252500D02*
X-67793148Y130947500D01*
%TO.N,UART4TX*%
X-73623148Y122377500D02*
X-75623148Y120377500D01*
X-75623148Y115857500D02*
X-77118148Y114362500D01*
X-65973148Y123092500D02*
X-66688148Y122377500D01*
X-66688148Y122377500D02*
X-73623148Y122377500D01*
X-75623148Y120377500D02*
X-75623148Y115857500D01*
X-65973148Y128012500D02*
X-65973148Y123092500D01*
%TO.N,UART4RX*%
X-73373148Y121837500D02*
X-66468148Y121837500D01*
X-75113148Y114647500D02*
X-75113148Y114362500D01*
X-66468148Y121837500D02*
X-65473148Y122832500D01*
X-65473148Y122832500D02*
X-65473148Y128012500D01*
X-75113148Y114362500D02*
X-75113148Y120097500D01*
X-75113148Y120097500D02*
X-73373148Y121837500D01*
%TO.N,UART2RX*%
X-77118148Y115907500D02*
X-76124148Y116901500D01*
X-63278148Y129202500D02*
X-63048148Y129432500D01*
X-63048148Y129432500D02*
X-63048148Y129937500D01*
X-73536668Y123172500D02*
X-68013148Y123172500D01*
X-76124148Y116901500D02*
X-76124148Y120585020D01*
X-76124148Y120585020D02*
X-73536668Y123172500D01*
%TO.N,BOOT1*%
X-63843148Y138642500D02*
X-64428148Y138057500D01*
X-65788148Y137697500D02*
X-65788148Y136017500D01*
X-65788148Y136017500D02*
X-65208148Y135437500D01*
X-63843148Y139592500D02*
X-63843148Y138642500D01*
X-64428148Y138057500D02*
X-65428148Y138057500D01*
X-65428148Y138057500D02*
X-65788148Y137697500D01*
X-65208148Y135437500D02*
X-63048148Y135437500D01*
%TO.N,UART3TX*%
X-65099407Y136468759D02*
X-64568148Y135937500D01*
X-62155148Y145769500D02*
X-65113148Y148727500D01*
X-62798386Y141626500D02*
X-62155148Y142269738D01*
X-65099407Y137185922D02*
X-65099407Y136468759D01*
X-62798386Y141601501D02*
X-62798386Y141626500D01*
X-62155148Y142269738D02*
X-62155148Y145769500D01*
X-64568148Y135937500D02*
X-63048148Y135937500D01*
X-65113148Y148727500D02*
X-65113148Y152367500D01*
%TO.N,UART3RX*%
X-63118148Y147522500D02*
X-63118148Y152367500D01*
X-64299462Y137195538D02*
X-64299462Y136713814D01*
X-61654148Y146058500D02*
X-63118148Y147522500D01*
X-61654148Y141839900D02*
X-61654148Y146058500D01*
X-64299462Y136713814D02*
X-64023148Y136437500D01*
X-64023148Y136437500D02*
X-63048148Y136437500D01*
X-62006548Y141487500D02*
X-61654148Y141839900D01*
%TO.N,UART6TX*%
X-66973148Y135752500D02*
X-66973148Y139362500D01*
X-66163148Y134942500D02*
X-66973148Y135752500D01*
%TO.N,UART6RX*%
X-67473148Y135002500D02*
X-67473148Y139362500D01*
X-66859899Y134389251D02*
X-67473148Y135002500D01*
%TO.N,UART1TX*%
X-69763148Y141415380D02*
X-69473148Y141125380D01*
X-69473148Y141125380D02*
X-69473148Y139362500D01*
D37*
X-73113148Y152367500D02*
X-73113148Y150368500D01*
D35*
%TO.N,UART1RX*%
X-71522020Y149256628D02*
X-71522020Y146150000D01*
X-71113148Y149665500D02*
X-71522020Y149256628D01*
X-70688148Y141087500D02*
X-69973148Y140372500D01*
X-71113148Y152367500D02*
X-71113148Y149665500D01*
X-69973148Y140372500D02*
X-69973148Y139362500D01*
D34*
%TO.N,LEDSTATUS1*%
X-76109823Y139325825D02*
X-74577824Y139325825D01*
X-71738148Y138212500D02*
X-71473148Y138477500D01*
X-76523148Y138536250D02*
X-76523148Y138912500D01*
X-71473148Y138477500D02*
X-71473148Y139362500D01*
X-73464499Y138212500D02*
X-71738148Y138212500D01*
X-74577824Y139325825D02*
X-73464499Y138212500D01*
X-76523148Y138912500D02*
X-76109823Y139325825D01*
D35*
%TO.N,LEDSTATUS0*%
X-74398148Y137866250D02*
X-74398148Y137437500D01*
X-75068148Y138536250D02*
X-74398148Y137866250D01*
%TO.N,UART5TX*%
X-66058148Y119237500D02*
X-65118148Y118297500D01*
X-74398148Y135437500D02*
X-72998148Y135437500D01*
X-67784779Y118840869D02*
X-67388148Y119237500D01*
X-65118148Y118297500D02*
X-65118148Y114367500D01*
X-72998148Y135437500D02*
X-72833148Y135272500D01*
X-67388148Y119237500D02*
X-66058148Y119237500D01*
X-68589148Y118840869D02*
X-67784779Y118840869D01*
%TO.N,UART5RX*%
X-64528148Y118417500D02*
X-64528148Y115777500D01*
X-72813148Y134267500D02*
X-73483148Y134937500D01*
X-64528148Y115777500D02*
X-63118148Y114367500D01*
X-65539628Y119427500D02*
X-65538148Y119427500D01*
X-65850627Y119738500D02*
X-65539628Y119427500D01*
X-68491520Y119738500D02*
X-65850627Y119738500D01*
X-73483148Y134937500D02*
X-74398148Y134937500D01*
X-68589148Y119640872D02*
X-68491520Y119738500D01*
X-65538148Y119427500D02*
X-64528148Y118417500D01*
%TO.N,M1*%
X-75983148Y134997500D02*
X-75423148Y134437500D01*
X-76948148Y134997500D02*
X-75983148Y134997500D01*
X-75423148Y134437500D02*
X-74398148Y134437500D01*
%TO.N,M2*%
X-77623148Y134347500D02*
X-76168148Y134347500D01*
X-76168148Y134347500D02*
X-75758148Y133937500D01*
X-75758148Y133937500D02*
X-74398148Y133937500D01*
%TO.N,M3*%
X-78288148Y132937500D02*
X-74398148Y132937500D01*
%TO.N,M4*%
X-75454241Y132437500D02*
X-74398148Y132437500D01*
X-75804241Y132087500D02*
X-75454241Y132437500D01*
X-78923394Y132087500D02*
X-75804241Y132087500D01*
%TO.N,Net-(U3-REGOUT)*%
X-67780648Y145380000D02*
X-67752148Y145408500D01*
X-67752148Y145408500D02*
X-66518148Y145408500D01*
D38*
%TO.N,Net-(U8-~{HOLD}{slash}~{RESET}{slash}IO_{3})*%
X-52388148Y132247500D02*
X-52388148Y130455000D01*
D35*
%TO.N,Net-(U10-XFB)*%
X-83873147Y134840150D02*
X-83871148Y134838151D01*
X-83871148Y127229500D02*
X-84828148Y126272500D01*
X-83871148Y134838151D02*
X-83871148Y127229500D01*
%TO.N,Net-(U10-CLKIN)*%
X-84528148Y133902500D02*
X-84372148Y133746500D01*
X-84523149Y134840150D02*
X-84528148Y134835151D01*
X-84372148Y129773500D02*
X-84828148Y129317500D01*
X-84828148Y129317500D02*
X-84828148Y128472500D01*
X-84372148Y133746500D02*
X-84372148Y129773500D01*
X-84528148Y134835151D02*
X-84528148Y133902500D01*
D36*
%TO.N,BEEPER_B-*%
X-58288148Y146852500D02*
X-58288148Y145242500D01*
D35*
X-66118148Y150367500D02*
X-66118148Y150777500D01*
D36*
X-59722388Y141258260D02*
X-60003148Y140977500D01*
X-59722388Y143808260D02*
X-59722388Y141258260D01*
X-58288148Y145242500D02*
X-59722388Y143808260D01*
D35*
%TO.N,Net-(P1-D-)*%
X-55668148Y139597500D02*
X-56443148Y139597500D01*
X-56443148Y139597500D02*
X-57103148Y140257500D01*
X-57103148Y140257500D02*
X-57448148Y140257500D01*
%TO.N,Net-(P1-CC)*%
X-55668148Y138097500D02*
X-56588148Y138097500D01*
X-57523148Y137162500D02*
X-57523148Y136332500D01*
X-56588148Y138097500D02*
X-57523148Y137162500D01*
%TO.N,Net-(P1-D+)*%
X-56813148Y138797500D02*
X-57448148Y138797500D01*
X-56513148Y139097500D02*
X-56813148Y138797500D01*
X-55668148Y139097500D02*
X-56513148Y139097500D01*
D39*
%TO.N,Net-(C8-Pad2)*%
X-85358148Y143942500D02*
X-84788148Y143942500D01*
X-84788148Y143942500D02*
X-83658148Y143942500D01*
X-86248148Y143942500D02*
X-85358148Y143942500D01*
D36*
%TO.N,Net-(U10-VIN)*%
X-83223149Y141874300D02*
X-82264949Y142832500D01*
X-82264949Y142832500D02*
X-80373148Y142832500D01*
X-83223149Y140694850D02*
X-83223149Y141874300D01*
D35*
%TO.N,Net-(U10-VOUT)*%
X-85823148Y141492500D02*
X-86248148Y141917500D01*
X-85823148Y140694850D02*
X-85823148Y141492500D01*
X-86248148Y141917500D02*
X-86248148Y142392500D01*
%TO.N,Net-(U10-SAG)*%
X-85173147Y141422501D02*
X-84788148Y141807500D01*
X-84788148Y141807500D02*
X-84788148Y142392500D01*
X-85173147Y140694850D02*
X-85173147Y141422501D01*
%TO.N,Net-(U1-NRST)*%
X-69473148Y126397500D02*
X-69473148Y128012500D01*
X-69623148Y126247500D02*
X-69473148Y126397500D01*
%TD*%
%TA.AperFunction,Conductor*%
%TO.N,GND*%
G36*
X-77770109Y129542815D02*
G01*
X-77724354Y129490011D01*
X-77713148Y129438500D01*
X-77713148Y128587501D01*
X-77689840Y128587501D01*
X-77689826Y128587502D01*
X-77590541Y128597645D01*
X-77429667Y128650953D01*
X-77429660Y128650956D01*
X-77353921Y128697673D01*
X-77286529Y128716114D01*
X-77219865Y128695192D01*
X-77175095Y128641551D01*
X-77166433Y128572220D01*
X-77196629Y128509212D01*
X-77201142Y128504454D01*
X-77613424Y128092172D01*
X-77663133Y128017777D01*
X-77663132Y128017776D01*
X-77684614Y127985626D01*
X-77733649Y127867245D01*
X-77733651Y127867239D01*
X-77758648Y127741572D01*
X-77758648Y117692436D01*
X-77778333Y117625397D01*
X-77779545Y117623546D01*
X-77817540Y117566683D01*
X-77817546Y117566672D01*
X-77877884Y117421002D01*
X-77877887Y117420990D01*
X-77908648Y117266347D01*
X-77908648Y117108654D01*
X-77877887Y116954011D01*
X-77877884Y116953999D01*
X-77817546Y116808328D01*
X-77817539Y116808315D01*
X-77729938Y116677212D01*
X-77729935Y116677208D01*
X-77692908Y116640181D01*
X-77659423Y116578858D01*
X-77664407Y116509166D01*
X-77692908Y116464819D01*
X-77739935Y116417793D01*
X-77739938Y116417789D01*
X-77827539Y116286686D01*
X-77827546Y116286673D01*
X-77887884Y116141002D01*
X-77887887Y116140990D01*
X-77918648Y115986347D01*
X-77918648Y115828654D01*
X-77887887Y115674011D01*
X-77887884Y115673999D01*
X-77827546Y115528328D01*
X-77827539Y115528315D01*
X-77805100Y115494733D01*
X-77784222Y115428055D01*
X-77802707Y115360675D01*
X-77852778Y115315700D01*
X-77852694Y115315547D01*
X-77853340Y115315195D01*
X-77854686Y115313985D01*
X-77858599Y115312323D01*
X-77860484Y115311294D01*
X-77975693Y115225048D01*
X-77975696Y115225045D01*
X-78061942Y115109836D01*
X-78061946Y115109829D01*
X-78112240Y114974983D01*
X-78118647Y114915384D01*
X-78118648Y114915373D01*
X-78118648Y114401660D01*
X-78118647Y113992000D01*
X-78138331Y113924961D01*
X-78191135Y113879206D01*
X-78242647Y113868000D01*
X-83360276Y113868000D01*
X-83366003Y113868132D01*
X-83749518Y113885863D01*
X-83760923Y113886920D01*
X-84138320Y113939565D01*
X-84149578Y113941670D01*
X-84520496Y114028908D01*
X-84531512Y114032042D01*
X-84892815Y114153139D01*
X-84903475Y114157269D01*
X-85252089Y114311196D01*
X-85262315Y114316289D01*
X-85372065Y114377420D01*
X-85595210Y114501711D01*
X-85604948Y114507740D01*
X-85919321Y114723089D01*
X-85928461Y114729992D01*
X-86221609Y114973419D01*
X-86230073Y114981135D01*
X-86499509Y115250570D01*
X-86507226Y115259034D01*
X-86550622Y115311294D01*
X-86750664Y115552197D01*
X-86757564Y115561334D01*
X-86757576Y115561351D01*
X-86903674Y115774628D01*
X-86972910Y115875700D01*
X-86978939Y115885438D01*
X-87072237Y116052940D01*
X-87164366Y116218342D01*
X-87169450Y116228551D01*
X-87323386Y116577185D01*
X-87327506Y116587821D01*
X-87448612Y116949149D01*
X-87451739Y116960139D01*
X-87538983Y117331079D01*
X-87541086Y117342330D01*
X-87541087Y117342335D01*
X-87593731Y117719732D01*
X-87594787Y117731129D01*
X-87595883Y117754827D01*
X-87612516Y118114601D01*
X-87612648Y118120328D01*
X-87612648Y118255168D01*
X-85463648Y118255168D01*
X-85463648Y117979833D01*
X-85463647Y117979816D01*
X-85427710Y117706845D01*
X-85427709Y117706840D01*
X-85427708Y117706834D01*
X-85427707Y117706832D01*
X-85356444Y117440870D01*
X-85251073Y117186483D01*
X-85251068Y117186472D01*
X-85206141Y117108658D01*
X-85113397Y116948021D01*
X-85113395Y116948018D01*
X-85113394Y116948017D01*
X-84945778Y116729574D01*
X-84945772Y116729567D01*
X-84751082Y116534877D01*
X-84751075Y116534871D01*
X-84735329Y116522789D01*
X-84532627Y116367251D01*
X-84393072Y116286679D01*
X-84294177Y116229581D01*
X-84294172Y116229579D01*
X-84294169Y116229577D01*
X-84039780Y116124205D01*
X-83773814Y116052940D01*
X-83500822Y116017000D01*
X-83500815Y116017000D01*
X-83225481Y116017000D01*
X-83225474Y116017000D01*
X-82952482Y116052940D01*
X-82686516Y116124205D01*
X-82432127Y116229577D01*
X-82193669Y116367251D01*
X-81975220Y116534872D01*
X-81780520Y116729572D01*
X-81612899Y116948021D01*
X-81475225Y117186479D01*
X-81369853Y117440868D01*
X-81298588Y117706834D01*
X-81262648Y117979826D01*
X-81262648Y118255174D01*
X-81298588Y118528166D01*
X-81369853Y118794132D01*
X-81475225Y119048521D01*
X-81475227Y119048524D01*
X-81475229Y119048529D01*
X-81558882Y119193419D01*
X-81612899Y119286979D01*
X-81707297Y119410002D01*
X-81780519Y119505427D01*
X-81780525Y119505434D01*
X-81975215Y119700124D01*
X-81975222Y119700130D01*
X-82193665Y119867746D01*
X-82193666Y119867747D01*
X-82193669Y119867749D01*
X-82288741Y119922639D01*
X-82432120Y120005420D01*
X-82432131Y120005425D01*
X-82686518Y120110796D01*
X-82837180Y120151165D01*
X-82952482Y120182060D01*
X-82952488Y120182061D01*
X-82952493Y120182062D01*
X-83225464Y120217999D01*
X-83225469Y120218000D01*
X-83225474Y120218000D01*
X-83500822Y120218000D01*
X-83500828Y120218000D01*
X-83500833Y120217999D01*
X-83773804Y120182062D01*
X-83773811Y120182061D01*
X-83773814Y120182060D01*
X-83830023Y120167000D01*
X-84039779Y120110796D01*
X-84294166Y120005425D01*
X-84294177Y120005420D01*
X-84532632Y119867746D01*
X-84751075Y119700130D01*
X-84751082Y119700124D01*
X-84945772Y119505434D01*
X-84945778Y119505427D01*
X-85113394Y119286984D01*
X-85251068Y119048529D01*
X-85251073Y119048518D01*
X-85356444Y118794131D01*
X-85387217Y118679283D01*
X-85420594Y118554714D01*
X-85427707Y118528169D01*
X-85427710Y118528156D01*
X-85463647Y118255185D01*
X-85463648Y118255168D01*
X-87612648Y118255168D01*
X-87612648Y125196270D01*
X-87592963Y125263309D01*
X-87540159Y125309064D01*
X-87471001Y125319008D01*
X-87407445Y125289983D01*
X-87400967Y125283951D01*
X-87346804Y125229788D01*
X-87197482Y125137686D01*
X-87030945Y125082501D01*
X-86928157Y125072000D01*
X-86128140Y125072001D01*
X-86128132Y125072002D01*
X-86128129Y125072002D01*
X-86071846Y125077752D01*
X-86025351Y125082501D01*
X-85858814Y125137686D01*
X-85743243Y125208971D01*
X-85675852Y125227410D01*
X-85613054Y125208971D01*
X-85497482Y125137686D01*
X-85330945Y125082501D01*
X-85228157Y125072000D01*
X-84428140Y125072001D01*
X-84428132Y125072002D01*
X-84428129Y125072002D01*
X-84371846Y125077752D01*
X-84325351Y125082501D01*
X-84158814Y125137686D01*
X-84009492Y125229788D01*
X-83885436Y125353844D01*
X-83793334Y125503166D01*
X-83738149Y125669703D01*
X-83727648Y125772491D01*
X-83727649Y126401693D01*
X-83707965Y126468731D01*
X-83691335Y126489369D01*
X-83365872Y126814830D01*
X-83307166Y126902691D01*
X-83294684Y126921371D01*
X-83293738Y126923654D01*
X-83245647Y127039756D01*
X-83241997Y127058106D01*
X-83233060Y127103039D01*
X-83200676Y127164947D01*
X-83199124Y127166527D01*
X-83173148Y127192503D01*
X-83173148Y128018500D01*
X-83153463Y128085539D01*
X-83100659Y128131294D01*
X-83049148Y128142500D01*
X-82797148Y128142500D01*
X-82730109Y128122815D01*
X-82684354Y128070011D01*
X-82673148Y128018500D01*
X-82673148Y127192501D01*
X-82624840Y127192501D01*
X-82624826Y127192502D01*
X-82525541Y127202645D01*
X-82364660Y127255955D01*
X-82327569Y127278834D01*
X-82260178Y127297276D01*
X-82193513Y127276355D01*
X-82188158Y127272563D01*
X-82170238Y127259148D01*
X-82170235Y127259146D01*
X-82035528Y127208904D01*
X-82035521Y127208902D01*
X-81975993Y127202501D01*
X-81975976Y127202500D01*
X-81853148Y127202500D01*
X-81853148Y127728001D01*
X-81850598Y127736687D01*
X-81851886Y127745648D01*
X-81840908Y127769689D01*
X-81833463Y127795040D01*
X-81826623Y127800968D01*
X-81822861Y127809204D01*
X-81800627Y127823494D01*
X-81780659Y127840795D01*
X-81770145Y127843083D01*
X-81764083Y127846978D01*
X-81729153Y127852001D01*
X-81627147Y127852001D01*
X-81560109Y127832316D01*
X-81514354Y127779512D01*
X-81503148Y127728001D01*
X-81503148Y127202500D01*
X-81380320Y127202500D01*
X-81380304Y127202501D01*
X-81320776Y127208902D01*
X-81320769Y127208904D01*
X-81186062Y127259146D01*
X-81186055Y127259150D01*
X-81070961Y127345310D01*
X-81070958Y127345313D01*
X-80984798Y127460407D01*
X-80984793Y127460416D01*
X-80949459Y127555152D01*
X-80907589Y127611086D01*
X-80842125Y127635504D01*
X-80773851Y127620653D01*
X-80737422Y127590482D01*
X-80734426Y127586831D01*
X-80519821Y127372226D01*
X-80519818Y127372224D01*
X-80413476Y127301169D01*
X-80413423Y127301134D01*
X-80413424Y127301134D01*
X-80413353Y127301087D01*
X-80413275Y127301035D01*
X-80294892Y127251999D01*
X-80294888Y127251999D01*
X-80294887Y127251998D01*
X-80169220Y127227000D01*
X-80169217Y127227000D01*
X-80057848Y127227000D01*
X-80014516Y127219183D01*
X-79985631Y127208409D01*
X-79926021Y127202000D01*
X-79330276Y127202001D01*
X-79270665Y127208409D01*
X-79135817Y127258704D01*
X-79020602Y127344954D01*
X-78934352Y127460169D01*
X-78884057Y127595017D01*
X-78877648Y127654627D01*
X-78877649Y128100372D01*
X-78884057Y128159983D01*
X-78884057Y128159984D01*
X-78885841Y128167534D01*
X-78884589Y128167831D01*
X-78889003Y128229576D01*
X-78885016Y128243154D01*
X-78884550Y128245125D01*
X-78878149Y128304656D01*
X-78878148Y128304673D01*
X-78878148Y128352500D01*
X-78915454Y128352500D01*
X-78982493Y128372185D01*
X-78999657Y128385473D01*
X-79007949Y128393143D01*
X-79020602Y128410046D01*
X-79050064Y128432102D01*
X-79054790Y128436473D01*
X-79069541Y128461152D01*
X-79086769Y128484166D01*
X-79087242Y128490767D01*
X-79090636Y128496447D01*
X-79089703Y128525183D01*
X-79091753Y128553858D01*
X-79088582Y128559666D01*
X-79088367Y128566280D01*
X-79072045Y128589951D01*
X-79058268Y128615181D01*
X-79049273Y128622976D01*
X-79048704Y128623800D01*
X-79047965Y128624110D01*
X-79044897Y128626767D01*
X-79025148Y128641551D01*
X-79020602Y128644954D01*
X-79014720Y128652813D01*
X-78958787Y128694682D01*
X-78915454Y128702500D01*
X-78878148Y128702500D01*
X-78867894Y128712755D01*
X-78858463Y128744872D01*
X-78805659Y128790627D01*
X-78736501Y128800571D01*
X-78672945Y128771546D01*
X-78666467Y128765514D01*
X-78640881Y128739928D01*
X-78640877Y128739925D01*
X-78496641Y128650958D01*
X-78496630Y128650953D01*
X-78335755Y128597645D01*
X-78236465Y128587501D01*
X-78213148Y128587502D01*
X-78213148Y129438500D01*
X-78193463Y129505539D01*
X-78140659Y129551294D01*
X-78089148Y129562500D01*
X-77837148Y129562500D01*
X-77770109Y129542815D01*
G37*
%TD.AperFunction*%
%TA.AperFunction,Conductor*%
G36*
X-52929035Y152866999D02*
G01*
X-52866012Y152867000D01*
X-52860288Y152866868D01*
X-52832544Y152865586D01*
X-52476762Y152849141D01*
X-52465374Y152848085D01*
X-52087979Y152795444D01*
X-52076719Y152793340D01*
X-51705770Y152706098D01*
X-51694766Y152702966D01*
X-51512188Y152641774D01*
X-51333474Y152581876D01*
X-51322794Y152577739D01*
X-50974210Y152423827D01*
X-50963957Y152418722D01*
X-50881538Y152372816D01*
X-50631041Y152233292D01*
X-50621329Y152227278D01*
X-50309678Y152013795D01*
X-50306955Y152011930D01*
X-50297815Y152005028D01*
X-50004663Y151761601D01*
X-49996198Y151753885D01*
X-49769957Y151527646D01*
X-49726744Y151484434D01*
X-49719028Y151475969D01*
X-49518226Y151234154D01*
X-49475597Y151182819D01*
X-49468707Y151173696D01*
X-49253344Y150859307D01*
X-49247323Y150849582D01*
X-49061897Y150516681D01*
X-49056794Y150506433D01*
X-48902877Y150157847D01*
X-48898743Y150147176D01*
X-48777645Y149785871D01*
X-48774511Y149774855D01*
X-48687271Y149403935D01*
X-48685166Y149392676D01*
X-48632521Y149015276D01*
X-48631464Y149003872D01*
X-48613780Y148621395D01*
X-48613648Y148615668D01*
X-48613648Y118120372D01*
X-48613780Y118114645D01*
X-48631512Y117731132D01*
X-48632569Y117719728D01*
X-48685213Y117342335D01*
X-48687318Y117331076D01*
X-48774557Y116960159D01*
X-48777691Y116949143D01*
X-48898788Y116587842D01*
X-48902926Y116577161D01*
X-49056835Y116228593D01*
X-49061940Y116218341D01*
X-49247364Y115885445D01*
X-49253393Y115875707D01*
X-49468733Y115561351D01*
X-49475634Y115552213D01*
X-49604347Y115397211D01*
X-49719064Y115259064D01*
X-49726780Y115250600D01*
X-49996226Y114981157D01*
X-50004690Y114973441D01*
X-50297849Y114730007D01*
X-50306989Y114723105D01*
X-50395469Y114662496D01*
X-50621348Y114507767D01*
X-50631079Y114501741D01*
X-50963978Y114316322D01*
X-50974231Y114311217D01*
X-51322811Y114157307D01*
X-51333491Y114153170D01*
X-51694773Y114032083D01*
X-51705789Y114028948D01*
X-52076727Y113941708D01*
X-52087986Y113939604D01*
X-52465369Y113886965D01*
X-52476773Y113885908D01*
X-52861316Y113868133D01*
X-52867040Y113868001D01*
X-52898887Y113868001D01*
X-52929035Y113868001D01*
X-52929039Y113868001D01*
X-52936643Y113868000D01*
X-52936644Y113868001D01*
X-52936645Y113868000D01*
X-57999148Y113868000D01*
X-58066187Y113887685D01*
X-58111942Y113940489D01*
X-58123148Y113992000D01*
X-58123148Y114117500D01*
X-58999148Y114117500D01*
X-59066187Y114137185D01*
X-59111942Y114189989D01*
X-59123148Y114241500D01*
X-59123148Y114367500D01*
X-59249148Y114367500D01*
X-59316187Y114387185D01*
X-59361942Y114439989D01*
X-59373148Y114491500D01*
X-59373148Y114617500D01*
X-58873148Y114617500D01*
X-58123148Y114617500D01*
X-58123148Y114915328D01*
X-58123149Y114915345D01*
X-58129550Y114974873D01*
X-58129552Y114974880D01*
X-58179794Y115109587D01*
X-58179798Y115109594D01*
X-58265958Y115224688D01*
X-58265961Y115224691D01*
X-58381055Y115310851D01*
X-58381062Y115310855D01*
X-58515769Y115361097D01*
X-58515776Y115361099D01*
X-58575304Y115367500D01*
X-58873148Y115367500D01*
X-58873148Y114617500D01*
X-59373148Y114617500D01*
X-59373148Y115367500D01*
X-59670993Y115367500D01*
X-59730521Y115361099D01*
X-59730528Y115361097D01*
X-59865235Y115310855D01*
X-59865242Y115310851D01*
X-59980336Y115224691D01*
X-60021070Y115170277D01*
X-60077004Y115128407D01*
X-60146696Y115123423D01*
X-60208018Y115156909D01*
X-60219602Y115170278D01*
X-60260601Y115225045D01*
X-60260604Y115225048D01*
X-60375813Y115311294D01*
X-60375820Y115311298D01*
X-60510666Y115361592D01*
X-60510665Y115361592D01*
X-60570265Y115367999D01*
X-60570267Y115368000D01*
X-60570275Y115368000D01*
X-60570283Y115368000D01*
X-60935208Y115368000D01*
X-61002247Y115387685D01*
X-61022889Y115404319D01*
X-61321329Y115702759D01*
X-61354814Y115764082D01*
X-61357648Y115790440D01*
X-61357648Y116091345D01*
X-61357649Y116091347D01*
X-61367526Y116141002D01*
X-61388411Y116245997D01*
X-61405265Y116286686D01*
X-61448751Y116391673D01*
X-61448758Y116391686D01*
X-61536359Y116522789D01*
X-61536362Y116522793D01*
X-61647857Y116634288D01*
X-61670458Y116649390D01*
X-61700378Y116669382D01*
X-61745183Y116722992D01*
X-61753890Y116792317D01*
X-61723736Y116855345D01*
X-61700377Y116875585D01*
X-61655123Y116905824D01*
X-61625359Y116925711D01*
X-61513859Y117037211D01*
X-61426254Y117168321D01*
X-61365911Y117314003D01*
X-61335148Y117468658D01*
X-61335148Y117626342D01*
X-61335148Y117626345D01*
X-61335149Y117626347D01*
X-61355992Y117731132D01*
X-61365911Y117780997D01*
X-61398970Y117860810D01*
X-61426251Y117926673D01*
X-61426258Y117926686D01*
X-61513859Y118057789D01*
X-61513862Y118057793D01*
X-61625356Y118169287D01*
X-61625360Y118169290D01*
X-61753884Y118255168D01*
X-54963648Y118255168D01*
X-54963648Y117979833D01*
X-54963647Y117979816D01*
X-54927710Y117706845D01*
X-54927709Y117706840D01*
X-54927708Y117706834D01*
X-54927707Y117706832D01*
X-54856444Y117440870D01*
X-54751073Y117186483D01*
X-54751068Y117186472D01*
X-54706141Y117108658D01*
X-54613397Y116948021D01*
X-54613395Y116948018D01*
X-54613394Y116948017D01*
X-54445778Y116729574D01*
X-54445772Y116729567D01*
X-54251082Y116534877D01*
X-54251075Y116534871D01*
X-54235329Y116522789D01*
X-54032627Y116367251D01*
X-53893072Y116286679D01*
X-53794177Y116229581D01*
X-53794172Y116229579D01*
X-53794169Y116229577D01*
X-53539780Y116124205D01*
X-53273814Y116052940D01*
X-53000822Y116017000D01*
X-53000815Y116017000D01*
X-52725481Y116017000D01*
X-52725474Y116017000D01*
X-52452482Y116052940D01*
X-52186516Y116124205D01*
X-51932127Y116229577D01*
X-51693669Y116367251D01*
X-51475220Y116534872D01*
X-51280520Y116729572D01*
X-51112899Y116948021D01*
X-50975225Y117186479D01*
X-50869853Y117440868D01*
X-50798588Y117706834D01*
X-50762648Y117979826D01*
X-50762648Y118255174D01*
X-50798588Y118528166D01*
X-50869853Y118794132D01*
X-50975225Y119048521D01*
X-50975227Y119048524D01*
X-50975229Y119048529D01*
X-51058882Y119193419D01*
X-51112899Y119286979D01*
X-51207297Y119410002D01*
X-51280519Y119505427D01*
X-51280525Y119505434D01*
X-51475215Y119700124D01*
X-51475222Y119700130D01*
X-51693665Y119867746D01*
X-51693666Y119867747D01*
X-51693669Y119867749D01*
X-51788741Y119922639D01*
X-51932120Y120005420D01*
X-51932131Y120005425D01*
X-52186518Y120110796D01*
X-52337180Y120151165D01*
X-52452482Y120182060D01*
X-52452488Y120182061D01*
X-52452493Y120182062D01*
X-52725464Y120217999D01*
X-52725469Y120218000D01*
X-52725474Y120218000D01*
X-53000822Y120218000D01*
X-53000828Y120218000D01*
X-53000833Y120217999D01*
X-53273804Y120182062D01*
X-53273811Y120182061D01*
X-53273814Y120182060D01*
X-53330023Y120167000D01*
X-53539779Y120110796D01*
X-53794166Y120005425D01*
X-53794177Y120005420D01*
X-54032632Y119867746D01*
X-54251075Y119700130D01*
X-54251082Y119700124D01*
X-54445772Y119505434D01*
X-54445778Y119505427D01*
X-54613394Y119286984D01*
X-54751068Y119048529D01*
X-54751073Y119048518D01*
X-54856444Y118794131D01*
X-54887217Y118679283D01*
X-54920594Y118554714D01*
X-54927707Y118528169D01*
X-54927710Y118528156D01*
X-54963647Y118255185D01*
X-54963648Y118255168D01*
X-61753884Y118255168D01*
X-61756463Y118256891D01*
X-61756476Y118256898D01*
X-61902147Y118317236D01*
X-61902159Y118317239D01*
X-62056803Y118348000D01*
X-62056806Y118348000D01*
X-62214490Y118348000D01*
X-62214493Y118348000D01*
X-62369138Y118317239D01*
X-62369150Y118317236D01*
X-62514821Y118256898D01*
X-62514834Y118256891D01*
X-62645937Y118169290D01*
X-62645941Y118169287D01*
X-62757435Y118057793D01*
X-62757438Y118057789D01*
X-62845039Y117926686D01*
X-62845046Y117926673D01*
X-62905384Y117781002D01*
X-62905387Y117780990D01*
X-62936148Y117626347D01*
X-62936148Y117468654D01*
X-62905387Y117314011D01*
X-62905384Y117313999D01*
X-62845046Y117168328D01*
X-62845039Y117168315D01*
X-62757438Y117037212D01*
X-62757435Y117037208D01*
X-62645940Y116925713D01*
X-62645937Y116925711D01*
X-62593419Y116890620D01*
X-62548615Y116837009D01*
X-62539907Y116767684D01*
X-62570061Y116704656D01*
X-62593418Y116684417D01*
X-62668435Y116634292D01*
X-62668441Y116634287D01*
X-62779935Y116522793D01*
X-62779938Y116522789D01*
X-62867539Y116391686D01*
X-62867546Y116391673D01*
X-62927884Y116246002D01*
X-62927887Y116245990D01*
X-62958648Y116091347D01*
X-62958648Y115492000D01*
X-62961199Y115483315D01*
X-62959910Y115474353D01*
X-62970889Y115450313D01*
X-62978333Y115424961D01*
X-62985174Y115419034D01*
X-62988935Y115410797D01*
X-63011170Y115396508D01*
X-63031137Y115379206D01*
X-63041652Y115376919D01*
X-63047713Y115373023D01*
X-63082648Y115368000D01*
X-63147341Y115368000D01*
X-63214380Y115387685D01*
X-63235022Y115404319D01*
X-63841329Y116010627D01*
X-63874814Y116071950D01*
X-63877648Y116098308D01*
X-63877648Y118481572D01*
X-63902646Y118607239D01*
X-63902647Y118607240D01*
X-63902647Y118607244D01*
X-63951683Y118725627D01*
X-63971728Y118755627D01*
X-63976002Y118762023D01*
X-64022873Y118832172D01*
X-64446048Y119255347D01*
X-61912648Y119255347D01*
X-61912648Y119097654D01*
X-61881887Y118943011D01*
X-61881884Y118942999D01*
X-61821546Y118797328D01*
X-61821539Y118797315D01*
X-61733938Y118666212D01*
X-61733935Y118666208D01*
X-61622441Y118554714D01*
X-61622437Y118554711D01*
X-61491334Y118467110D01*
X-61491321Y118467103D01*
X-61345650Y118406765D01*
X-61345645Y118406763D01*
X-61215372Y118380850D01*
X-61190995Y118376001D01*
X-61190992Y118376000D01*
X-61190990Y118376000D01*
X-57400304Y118376000D01*
X-57400303Y118376001D01*
X-57393390Y118377376D01*
X-57375926Y118380849D01*
X-57375921Y118380850D01*
X-57281442Y118399644D01*
X-57245651Y118406763D01*
X-57113044Y118461690D01*
X-57099976Y118467103D01*
X-57099976Y118467104D01*
X-57099969Y118467106D01*
X-56968859Y118554711D01*
X-56856359Y118667211D01*
X-56848292Y118679284D01*
X-56769422Y118797321D01*
X-56768758Y118798315D01*
X-56768758Y118798316D01*
X-56768754Y118798321D01*
X-56708411Y118944003D01*
X-56694215Y119015371D01*
X-56682479Y119074371D01*
X-56677648Y119098655D01*
X-56677648Y119256345D01*
X-56677649Y119256347D01*
X-56683743Y119286984D01*
X-56708411Y119410997D01*
X-56733679Y119471999D01*
X-56747526Y119505428D01*
X-56748208Y119507075D01*
X-56768754Y119556679D01*
X-56768756Y119556681D01*
X-56768756Y119556683D01*
X-56856359Y119687789D01*
X-56856362Y119687793D01*
X-56967856Y119799287D01*
X-56967860Y119799290D01*
X-57098963Y119886891D01*
X-57098976Y119886898D01*
X-57244647Y119947236D01*
X-57244659Y119947239D01*
X-57399303Y119978000D01*
X-57399306Y119978000D01*
X-57556991Y119978000D01*
X-57556995Y119978000D01*
X-57561088Y119977597D01*
X-57573239Y119977000D01*
X-61190993Y119977000D01*
X-61345638Y119946239D01*
X-61345650Y119946236D01*
X-61491321Y119885898D01*
X-61491334Y119885891D01*
X-61622437Y119798290D01*
X-61622441Y119798287D01*
X-61733935Y119686793D01*
X-61733938Y119686789D01*
X-61821539Y119555686D01*
X-61821546Y119555673D01*
X-61881884Y119410002D01*
X-61881887Y119409990D01*
X-61912648Y119255347D01*
X-64446048Y119255347D01*
X-65123478Y119932777D01*
X-65127038Y119935699D01*
X-65136039Y119943857D01*
X-65435957Y120243776D01*
X-65435958Y120243777D01*
X-65435959Y120243778D01*
X-65542493Y120314962D01*
X-65542502Y120314967D01*
X-65660884Y120364002D01*
X-65660889Y120364004D01*
X-65685880Y120368974D01*
X-65685881Y120368974D01*
X-65786556Y120389000D01*
X-65786558Y120389000D01*
X-68278817Y120389000D01*
X-68326269Y120398439D01*
X-68355647Y120410608D01*
X-68355659Y120410611D01*
X-68510303Y120441372D01*
X-68510306Y120441372D01*
X-68667990Y120441372D01*
X-68667993Y120441372D01*
X-68822638Y120410611D01*
X-68822650Y120410608D01*
X-68968321Y120350270D01*
X-68968334Y120350263D01*
X-69099437Y120262662D01*
X-69099441Y120262659D01*
X-69210935Y120151165D01*
X-69210938Y120151161D01*
X-69298539Y120020058D01*
X-69298546Y120020045D01*
X-69358884Y119874374D01*
X-69358887Y119874362D01*
X-69389648Y119719719D01*
X-69389648Y119562026D01*
X-69358887Y119407383D01*
X-69358884Y119407371D01*
X-69309573Y119288323D01*
X-69302104Y119218854D01*
X-69309573Y119193419D01*
X-69358884Y119074371D01*
X-69358887Y119074359D01*
X-69389648Y118919716D01*
X-69389648Y118762023D01*
X-69358887Y118607380D01*
X-69358884Y118607368D01*
X-69298546Y118461697D01*
X-69298539Y118461684D01*
X-69210938Y118330581D01*
X-69210935Y118330577D01*
X-69099441Y118219083D01*
X-69099437Y118219080D01*
X-68968334Y118131479D01*
X-68968321Y118131472D01*
X-68859066Y118086218D01*
X-68822645Y118071132D01*
X-68809022Y118068423D01*
X-68747112Y118036038D01*
X-68712537Y117975323D01*
X-68711596Y117971000D01*
X-68708886Y117957375D01*
X-68708884Y117957369D01*
X-68648546Y117811698D01*
X-68648542Y117811691D01*
X-68610546Y117754826D01*
X-68589668Y117688149D01*
X-68589648Y117685935D01*
X-68589648Y115862309D01*
X-68609333Y115795270D01*
X-68625967Y115774628D01*
X-68996276Y115404319D01*
X-69057599Y115370834D01*
X-69083957Y115368000D01*
X-69666019Y115368000D01*
X-69666025Y115367999D01*
X-69725632Y115361592D01*
X-69860477Y115311298D01*
X-69860484Y115311294D01*
X-69975693Y115225048D01*
X-69975695Y115225046D01*
X-70019196Y115166937D01*
X-70075130Y115125067D01*
X-70144822Y115120084D01*
X-70206144Y115153571D01*
X-70217728Y115166939D01*
X-70260962Y115224691D01*
X-70376055Y115310851D01*
X-70376062Y115310855D01*
X-70510769Y115361097D01*
X-70510776Y115361099D01*
X-70570304Y115367500D01*
X-70868148Y115367500D01*
X-70868148Y114491500D01*
X-70887833Y114424461D01*
X-70940637Y114378706D01*
X-70992148Y114367500D01*
X-71244148Y114367500D01*
X-71311187Y114387185D01*
X-71356942Y114439989D01*
X-71368148Y114491500D01*
X-71368148Y115367500D01*
X-71665993Y115367500D01*
X-71725521Y115361099D01*
X-71725528Y115361097D01*
X-71860235Y115310855D01*
X-71860242Y115310851D01*
X-71975336Y115224691D01*
X-72018570Y115166938D01*
X-72074504Y115125068D01*
X-72144196Y115120084D01*
X-72205519Y115153570D01*
X-72217102Y115166938D01*
X-72260334Y115224688D01*
X-72260602Y115225046D01*
X-72260604Y115225047D01*
X-72260604Y115225048D01*
X-72375813Y115311294D01*
X-72375820Y115311298D01*
X-72510666Y115361592D01*
X-72510665Y115361592D01*
X-72570265Y115367999D01*
X-72570267Y115368000D01*
X-72570275Y115368000D01*
X-72570284Y115368000D01*
X-73666019Y115368000D01*
X-73666025Y115367999D01*
X-73725632Y115361592D01*
X-73860477Y115311298D01*
X-73860484Y115311294D01*
X-73975691Y115225049D01*
X-73975697Y115225043D01*
X-73984943Y115212691D01*
X-73988600Y115209954D01*
X-73990498Y115205797D01*
X-74016316Y115189206D01*
X-74040876Y115170819D01*
X-74046506Y115169804D01*
X-74049276Y115168023D01*
X-74084211Y115163000D01*
X-74152085Y115163000D01*
X-74219124Y115182685D01*
X-74251351Y115212688D01*
X-74260334Y115224688D01*
X-74260602Y115225046D01*
X-74260604Y115225047D01*
X-74260604Y115225048D01*
X-74375813Y115311294D01*
X-74375819Y115311297D01*
X-74381985Y115313597D01*
X-74437917Y115355470D01*
X-74462332Y115420936D01*
X-74462648Y115429778D01*
X-74462648Y119776692D01*
X-74442963Y119843731D01*
X-74426329Y119864373D01*
X-73140021Y121150681D01*
X-73078698Y121184166D01*
X-73052340Y121187000D01*
X-66404077Y121187000D01*
X-66319533Y121203818D01*
X-66278404Y121211999D01*
X-66160021Y121261035D01*
X-66053479Y121332223D01*
X-64967872Y122417830D01*
X-64906545Y122509613D01*
X-64896684Y122524371D01*
X-64875129Y122576410D01*
X-64847647Y122642756D01*
X-64840670Y122677831D01*
X-64822648Y122768431D01*
X-64822648Y126638003D01*
X-64802963Y126705042D01*
X-64750159Y126750797D01*
X-64746121Y126752555D01*
X-64607920Y126809800D01*
X-64607919Y126809800D01*
X-64607919Y126809801D01*
X-64607915Y126809802D01*
X-64487697Y126902049D01*
X-64395450Y127022267D01*
X-64337461Y127162264D01*
X-64322648Y127274780D01*
X-64322648Y127972692D01*
X-64302963Y128039731D01*
X-64250159Y128085486D01*
X-64181001Y128095430D01*
X-64117445Y128066405D01*
X-64110967Y128060373D01*
X-62953285Y126902691D01*
X-62919800Y126841368D01*
X-62919349Y126839202D01*
X-62905387Y126769009D01*
X-62905384Y126768999D01*
X-62845046Y126623328D01*
X-62845039Y126623315D01*
X-62757438Y126492212D01*
X-62757435Y126492208D01*
X-62645941Y126380714D01*
X-62645937Y126380711D01*
X-62514834Y126293110D01*
X-62514821Y126293103D01*
X-62376960Y126236000D01*
X-62369145Y126232763D01*
X-62214495Y126202001D01*
X-62214492Y126202000D01*
X-62214490Y126202000D01*
X-62056804Y126202000D01*
X-62056803Y126202001D01*
X-61902151Y126232763D01*
X-61756469Y126293106D01*
X-61625359Y126380711D01*
X-61513859Y126492211D01*
X-61426254Y126623321D01*
X-61365911Y126769003D01*
X-61335148Y126923658D01*
X-61335148Y127081342D01*
X-61335148Y127081345D01*
X-61335149Y127081347D01*
X-61347952Y127145713D01*
X-61365911Y127235997D01*
X-61372539Y127251999D01*
X-61426251Y127381673D01*
X-61426258Y127381686D01*
X-61513859Y127512789D01*
X-61513862Y127512793D01*
X-61625356Y127624287D01*
X-61625360Y127624290D01*
X-61756463Y127711891D01*
X-61756475Y127711897D01*
X-61774815Y127719494D01*
X-61829217Y127763336D01*
X-61851281Y127829630D01*
X-61834001Y127897329D01*
X-61782863Y127944939D01*
X-61774813Y127948615D01*
X-61763969Y127953106D01*
X-61632859Y128040711D01*
X-61521359Y128152211D01*
X-61521356Y128152217D01*
X-61517499Y128156915D01*
X-61515586Y128155345D01*
X-61470315Y128193187D01*
X-61400991Y128201903D01*
X-61337960Y128171755D01*
X-61333131Y128167178D01*
X-61330881Y128164928D01*
X-61330877Y128164925D01*
X-61186641Y128075958D01*
X-61186630Y128075953D01*
X-61025755Y128022645D01*
X-60926465Y128012501D01*
X-60378148Y128012501D01*
X-60329840Y128012501D01*
X-60329826Y128012502D01*
X-60230541Y128022645D01*
X-60069667Y128075953D01*
X-60069656Y128075958D01*
X-59925420Y128164925D01*
X-59925416Y128164928D01*
X-59805576Y128284768D01*
X-59805573Y128284772D01*
X-59716606Y128429008D01*
X-59716601Y128429019D01*
X-59663293Y128589894D01*
X-59653149Y128689178D01*
X-59653148Y128689191D01*
X-59653148Y128712500D01*
X-60378148Y128712500D01*
X-60378148Y128012501D01*
X-60926465Y128012501D01*
X-60878149Y128012502D01*
X-60878148Y128012502D01*
X-60878148Y128838500D01*
X-60858463Y128905539D01*
X-60805659Y128951294D01*
X-60754148Y128962500D01*
X-60628148Y128962500D01*
X-60628148Y129088500D01*
X-60608463Y129155539D01*
X-60555659Y129201294D01*
X-60504148Y129212500D01*
X-59653149Y129212500D01*
X-59653149Y129235808D01*
X-59653150Y129235823D01*
X-59663293Y129335108D01*
X-59716601Y129495982D01*
X-59716606Y129495993D01*
X-59805573Y129640229D01*
X-59805576Y129640233D01*
X-59814809Y129649466D01*
X-59848294Y129710789D01*
X-59843310Y129780481D01*
X-59814805Y129824832D01*
X-59805180Y129834456D01*
X-59716145Y129978803D01*
X-59662799Y130139792D01*
X-59652648Y130239155D01*
X-59652649Y130663001D01*
X-59632965Y130730039D01*
X-59580161Y130775794D01*
X-59528649Y130787000D01*
X-57637476Y130787000D01*
X-57608036Y130778356D01*
X-57578049Y130771832D01*
X-57573034Y130768078D01*
X-57570437Y130767315D01*
X-57549795Y130750681D01*
X-57404967Y130605853D01*
X-57371482Y130544530D01*
X-57368648Y130518172D01*
X-57368648Y124193431D01*
X-57368648Y124193429D01*
X-57368649Y124193429D01*
X-57343651Y124067762D01*
X-57343649Y124067756D01*
X-57319640Y124009792D01*
X-57294613Y123949373D01*
X-57251383Y123884674D01*
X-57223422Y123842827D01*
X-56155322Y122774727D01*
X-56155319Y122774725D01*
X-56155317Y122774723D01*
X-56048775Y122703535D01*
X-55930392Y122654499D01*
X-55930388Y122654499D01*
X-55930387Y122654498D01*
X-55804720Y122629500D01*
X-55804717Y122629500D01*
X-54601715Y122629500D01*
X-54534676Y122609815D01*
X-54488921Y122557011D01*
X-54478223Y122516716D01*
X-54477578Y122509610D01*
X-54477577Y122509607D01*
X-54429681Y122355902D01*
X-54346382Y122218109D01*
X-54232540Y122104267D01*
X-54232538Y122104266D01*
X-54232536Y122104264D01*
X-54094750Y122020969D01*
X-53941035Y121973070D01*
X-53874239Y121967000D01*
X-53442058Y121967001D01*
X-53442050Y121967001D01*
X-53375266Y121973069D01*
X-53375263Y121973070D01*
X-53375261Y121973070D01*
X-53221546Y122020969D01*
X-53087296Y122102127D01*
X-53019744Y122119962D01*
X-52959001Y122102127D01*
X-52824750Y122020969D01*
X-52671035Y121973070D01*
X-52604239Y121967000D01*
X-52172058Y121967001D01*
X-52172050Y121967001D01*
X-52105266Y121973069D01*
X-52105263Y121973070D01*
X-52105261Y121973070D01*
X-51951546Y122020969D01*
X-51817296Y122102127D01*
X-51749744Y122119962D01*
X-51689001Y122102127D01*
X-51554750Y122020969D01*
X-51401035Y121973070D01*
X-51334239Y121967000D01*
X-50902058Y121967001D01*
X-50902050Y121967001D01*
X-50835266Y121973069D01*
X-50835263Y121973070D01*
X-50835261Y121973070D01*
X-50681546Y122020969D01*
X-50546812Y122102420D01*
X-50479261Y122120255D01*
X-50418514Y122102418D01*
X-50284544Y122021429D01*
X-50284542Y122021428D01*
X-50130951Y121973568D01*
X-50130941Y121973565D01*
X-50098149Y121970586D01*
X-50098148Y121970586D01*
X-49598148Y121970586D01*
X-49565356Y121973565D01*
X-49565346Y121973568D01*
X-49411756Y122021428D01*
X-49274068Y122104664D01*
X-49160312Y122218420D01*
X-49077078Y122356104D01*
X-49029214Y122509708D01*
X-49023148Y122576457D01*
X-49023148Y123030000D01*
X-49598148Y123030000D01*
X-49598148Y121970586D01*
X-50098148Y121970586D01*
X-50098148Y123530000D01*
X-49598148Y123530000D01*
X-49023148Y123530000D01*
X-49023148Y123983544D01*
X-49029214Y124050293D01*
X-49077078Y124203897D01*
X-49160312Y124341581D01*
X-49274068Y124455337D01*
X-49411752Y124538571D01*
X-49565354Y124586434D01*
X-49598148Y124589415D01*
X-49598148Y123530000D01*
X-50098148Y123530000D01*
X-50098148Y124546338D01*
X-50222584Y124576199D01*
X-50224460Y124577276D01*
X-50226620Y124577240D01*
X-50254608Y124594583D01*
X-50283179Y124610984D01*
X-50284175Y124612904D01*
X-50286012Y124614042D01*
X-50300184Y124643768D01*
X-50315349Y124673007D01*
X-50315149Y124675160D01*
X-50316079Y124677111D01*
X-50317648Y124696776D01*
X-50317648Y125281343D01*
X-50317937Y125282799D01*
X-50317937Y125282800D01*
X-50348410Y125435993D01*
X-50348411Y125435994D01*
X-50348411Y125435998D01*
X-50376233Y125503166D01*
X-50378134Y125507756D01*
X-50408751Y125581673D01*
X-50408758Y125581686D01*
X-50496358Y125712788D01*
X-50537726Y125754156D01*
X-50607859Y125824289D01*
X-51019570Y126236000D01*
X-51522856Y126739287D01*
X-51522860Y126739290D01*
X-51653963Y126826891D01*
X-51653976Y126826898D01*
X-51799647Y126887236D01*
X-51799659Y126887239D01*
X-51954303Y126918000D01*
X-51954306Y126918000D01*
X-53914879Y126918000D01*
X-53981918Y126937685D01*
X-54027673Y126990489D01*
X-54037617Y127059647D01*
X-54008592Y127123203D01*
X-53987522Y127141793D01*
X-53987567Y127141847D01*
X-53986029Y127143110D01*
X-53983769Y127145103D01*
X-53982859Y127145711D01*
X-53147862Y127980710D01*
X-53147859Y127980711D01*
X-53036359Y128092211D01*
X-52948754Y128223321D01*
X-52888411Y128369003D01*
X-52867773Y128472756D01*
X-52857648Y128523657D01*
X-52857648Y128681342D01*
X-52857648Y129037701D01*
X-52837963Y129104740D01*
X-52785159Y129150495D01*
X-52716001Y129160439D01*
X-52696769Y129156089D01*
X-52671035Y129148070D01*
X-52604239Y129142000D01*
X-52172058Y129142001D01*
X-52172050Y129142001D01*
X-52105266Y129148069D01*
X-52105263Y129148070D01*
X-52105261Y129148070D01*
X-51951546Y129195969D01*
X-51817296Y129277127D01*
X-51749744Y129294962D01*
X-51689001Y129277127D01*
X-51554750Y129195969D01*
X-51401035Y129148070D01*
X-51334239Y129142000D01*
X-50902058Y129142001D01*
X-50902050Y129142001D01*
X-50835266Y129148069D01*
X-50835263Y129148070D01*
X-50835261Y129148070D01*
X-50681546Y129195969D01*
X-50547296Y129277127D01*
X-50479744Y129294962D01*
X-50419001Y129277127D01*
X-50284750Y129195969D01*
X-50131035Y129148070D01*
X-50064239Y129142000D01*
X-49632058Y129142001D01*
X-49632050Y129142001D01*
X-49565266Y129148069D01*
X-49565263Y129148070D01*
X-49565261Y129148070D01*
X-49411546Y129195969D01*
X-49273760Y129279264D01*
X-49159912Y129393112D01*
X-49076617Y129530898D01*
X-49028718Y129684613D01*
X-49022648Y129751409D01*
X-49022649Y131158590D01*
X-49022649Y131158591D01*
X-49022649Y131158599D01*
X-49028717Y131225383D01*
X-49028720Y131225394D01*
X-49076616Y131379099D01*
X-49076617Y131379100D01*
X-49076617Y131379102D01*
X-49159912Y131516888D01*
X-49159914Y131516890D01*
X-49159915Y131516892D01*
X-49161329Y131518306D01*
X-49162034Y131519597D01*
X-49164541Y131522797D01*
X-49164009Y131523214D01*
X-49194814Y131579629D01*
X-49197648Y131605987D01*
X-49197648Y133336572D01*
X-49222646Y133462239D01*
X-49222647Y133462240D01*
X-49222647Y133462244D01*
X-49271683Y133580627D01*
X-49271684Y133580628D01*
X-49271687Y133580634D01*
X-49342871Y133687168D01*
X-49367967Y133712264D01*
X-49433479Y133777776D01*
X-49544031Y133888328D01*
X-49780887Y134125185D01*
X-49814372Y134186508D01*
X-49809388Y134256200D01*
X-49780887Y134300548D01*
X-49691396Y134390039D01*
X-49581963Y134553816D01*
X-49581956Y134553829D01*
X-49506579Y134735808D01*
X-49506579Y134735810D01*
X-49498286Y134777500D01*
X-50301160Y134777500D01*
X-50283943Y134787440D01*
X-50228088Y134843295D01*
X-50188592Y134911704D01*
X-50168148Y134988004D01*
X-50168148Y135066996D01*
X-50188592Y135143296D01*
X-50228088Y135211705D01*
X-50283943Y135267560D01*
X-50301160Y135277500D01*
X-49498286Y135277500D01*
X-49506579Y135319191D01*
X-49506579Y135319193D01*
X-49581956Y135501172D01*
X-49581963Y135501185D01*
X-49691397Y135664963D01*
X-49691400Y135664967D01*
X-49830682Y135804249D01*
X-49830686Y135804252D01*
X-49994464Y135913686D01*
X-49994477Y135913693D01*
X-50176455Y135989070D01*
X-50176467Y135989073D01*
X-50369653Y136027500D01*
X-50618148Y136027500D01*
X-50618148Y135327500D01*
X-51118148Y135327500D01*
X-51118148Y136027500D01*
X-51366644Y136027500D01*
X-51559830Y135989073D01*
X-51559842Y135989070D01*
X-51741820Y135913693D01*
X-51741833Y135913686D01*
X-51905611Y135804252D01*
X-51905615Y135804249D01*
X-52044897Y135664967D01*
X-52044900Y135664963D01*
X-52154334Y135501185D01*
X-52154341Y135501172D01*
X-52229718Y135319193D01*
X-52229718Y135319191D01*
X-52238010Y135277500D01*
X-51435136Y135277500D01*
X-51452353Y135267560D01*
X-51508208Y135211705D01*
X-51547704Y135143296D01*
X-51568148Y135066996D01*
X-51568148Y134988004D01*
X-51547704Y134911704D01*
X-51508208Y134843295D01*
X-51452353Y134787440D01*
X-51435136Y134777500D01*
X-52238010Y134777500D01*
X-52229719Y134735811D01*
X-52212587Y134694451D01*
X-52205119Y134624982D01*
X-52236395Y134562503D01*
X-52296484Y134526851D01*
X-52327149Y134523000D01*
X-53459147Y134523000D01*
X-53526186Y134542685D01*
X-53571941Y134595489D01*
X-53581885Y134664647D01*
X-53573709Y134694451D01*
X-53556578Y134735811D01*
X-53548286Y134777500D01*
X-54351160Y134777500D01*
X-54333943Y134787440D01*
X-54278088Y134843295D01*
X-54238592Y134911704D01*
X-54218148Y134988004D01*
X-54218148Y135066996D01*
X-54238592Y135143296D01*
X-54278088Y135211705D01*
X-54333943Y135267560D01*
X-54351160Y135277500D01*
X-53548286Y135277500D01*
X-53556579Y135319191D01*
X-53556579Y135319193D01*
X-53631956Y135501172D01*
X-53631963Y135501185D01*
X-53741397Y135664963D01*
X-53741400Y135664967D01*
X-53880682Y135804249D01*
X-53880686Y135804252D01*
X-54044468Y135913688D01*
X-54049813Y135916545D01*
X-54099659Y135965506D01*
X-54115121Y136033643D01*
X-54091292Y136099323D01*
X-54089736Y136101395D01*
X-54087642Y136104127D01*
X-54087633Y136104135D01*
X-54011867Y136235365D01*
X-53972648Y136381734D01*
X-53972648Y136533266D01*
X-54011867Y136679635D01*
X-54087633Y136810865D01*
X-54194783Y136918015D01*
X-54326013Y136993781D01*
X-54413389Y137017193D01*
X-54455743Y137028542D01*
X-54478271Y137042274D01*
X-54502527Y137052639D01*
X-54507633Y137060171D01*
X-54515403Y137064907D01*
X-54526930Y137088637D01*
X-54541733Y137110473D01*
X-54543725Y137123210D01*
X-54545932Y137127755D01*
X-54547612Y137145274D01*
X-54547649Y137146782D01*
X-54547649Y137295372D01*
X-54552377Y137339347D01*
X-54552502Y137344460D01*
X-54551828Y137346983D01*
X-54551828Y137360753D01*
X-54547648Y137399627D01*
X-54547649Y137795372D01*
X-54547650Y137795389D01*
X-54551828Y137834247D01*
X-54551828Y137860753D01*
X-54547648Y137899627D01*
X-54547649Y138295372D01*
X-54547650Y138295389D01*
X-54551828Y138334247D01*
X-54551828Y138360753D01*
X-54547648Y138399627D01*
X-54547649Y138795372D01*
X-54547650Y138795389D01*
X-54551828Y138834247D01*
X-54551828Y138860753D01*
X-54547648Y138899627D01*
X-54547649Y139295372D01*
X-54547650Y139295389D01*
X-54551828Y139334247D01*
X-54551828Y139360753D01*
X-54547648Y139399627D01*
X-54547649Y139795372D01*
X-54547650Y139795389D01*
X-54551828Y139834247D01*
X-54551828Y139860753D01*
X-54547648Y139899627D01*
X-54547649Y140295372D01*
X-54547650Y140295389D01*
X-54551828Y140334247D01*
X-54551828Y140360753D01*
X-54547648Y140399627D01*
X-54547649Y140795372D01*
X-54547650Y140795389D01*
X-54551828Y140834247D01*
X-54551828Y140860753D01*
X-54547648Y140899627D01*
X-54547649Y141295372D01*
X-54547649Y141295373D01*
X-54547650Y141295389D01*
X-54551828Y141334247D01*
X-54552502Y141350547D01*
X-54552377Y141355650D01*
X-54547648Y141399627D01*
X-54547648Y141548223D01*
X-54547611Y141549729D01*
X-54537391Y141581620D01*
X-54527963Y141613724D01*
X-54526769Y141614759D01*
X-54526286Y141616265D01*
X-54500441Y141637573D01*
X-54475159Y141659479D01*
X-54472870Y141660302D01*
X-54472375Y141660710D01*
X-54471419Y141660824D01*
X-54455754Y141666456D01*
X-54326013Y141701219D01*
X-54194783Y141776985D01*
X-54087633Y141884135D01*
X-54011867Y142015365D01*
X-53972648Y142161734D01*
X-53972648Y142313266D01*
X-54011867Y142459635D01*
X-54011958Y142459792D01*
X-54044737Y142516567D01*
X-54087633Y142590865D01*
X-54087635Y142590867D01*
X-54089736Y142593605D01*
X-54090792Y142596335D01*
X-54091697Y142597903D01*
X-54091453Y142598045D01*
X-54114934Y142658773D01*
X-54100899Y142727218D01*
X-54052087Y142777210D01*
X-54049802Y142778463D01*
X-54044458Y142781319D01*
X-53880686Y142890749D01*
X-53880682Y142890752D01*
X-53741400Y143030034D01*
X-53741397Y143030038D01*
X-53631963Y143193816D01*
X-53631956Y143193829D01*
X-53556579Y143375808D01*
X-53556579Y143375810D01*
X-53548286Y143417500D01*
X-54351160Y143417500D01*
X-54333943Y143427440D01*
X-54278088Y143483295D01*
X-54238592Y143551704D01*
X-54218148Y143628004D01*
X-54218148Y143706996D01*
X-54238592Y143783296D01*
X-54278088Y143851705D01*
X-54333943Y143907560D01*
X-54351160Y143917500D01*
X-53548286Y143917500D01*
X-52238010Y143917500D01*
X-51435136Y143917500D01*
X-51452353Y143907560D01*
X-51508208Y143851705D01*
X-51547704Y143783296D01*
X-51568148Y143706996D01*
X-51568148Y143628004D01*
X-51547704Y143551704D01*
X-51508208Y143483295D01*
X-51452353Y143427440D01*
X-51435136Y143417500D01*
X-52238010Y143417500D01*
X-52229718Y143375810D01*
X-52229718Y143375808D01*
X-52154341Y143193829D01*
X-52154334Y143193816D01*
X-52044900Y143030038D01*
X-52044897Y143030034D01*
X-51905615Y142890752D01*
X-51905611Y142890749D01*
X-51741833Y142781315D01*
X-51741820Y142781308D01*
X-51559842Y142705931D01*
X-51559830Y142705928D01*
X-51366644Y142667501D01*
X-51366640Y142667500D01*
X-51118148Y142667500D01*
X-51118148Y143367500D01*
X-50618148Y143367500D01*
X-50618148Y142667500D01*
X-50369656Y142667500D01*
X-50369653Y142667501D01*
X-50176467Y142705928D01*
X-50176455Y142705931D01*
X-49994477Y142781308D01*
X-49994464Y142781315D01*
X-49830686Y142890749D01*
X-49830682Y142890752D01*
X-49691400Y143030034D01*
X-49691397Y143030038D01*
X-49581963Y143193816D01*
X-49581956Y143193829D01*
X-49506579Y143375808D01*
X-49506579Y143375810D01*
X-49498286Y143417500D01*
X-50301160Y143417500D01*
X-50283943Y143427440D01*
X-50228088Y143483295D01*
X-50188592Y143551704D01*
X-50168148Y143628004D01*
X-50168148Y143706996D01*
X-50188592Y143783296D01*
X-50228088Y143851705D01*
X-50283943Y143907560D01*
X-50301160Y143917500D01*
X-49498286Y143917500D01*
X-49506579Y143959191D01*
X-49506579Y143959193D01*
X-49581956Y144141172D01*
X-49581963Y144141185D01*
X-49691397Y144304963D01*
X-49691400Y144304967D01*
X-49830682Y144444249D01*
X-49830686Y144444252D01*
X-49994464Y144553686D01*
X-49994477Y144553693D01*
X-50176455Y144629070D01*
X-50176467Y144629073D01*
X-50369653Y144667500D01*
X-50618148Y144667500D01*
X-50618148Y143967500D01*
X-51118148Y143967500D01*
X-51118148Y144667500D01*
X-51366644Y144667500D01*
X-51559830Y144629073D01*
X-51559842Y144629070D01*
X-51741820Y144553693D01*
X-51741833Y144553686D01*
X-51905611Y144444252D01*
X-51905615Y144444249D01*
X-52044897Y144304967D01*
X-52044900Y144304963D01*
X-52154334Y144141185D01*
X-52154341Y144141172D01*
X-52229718Y143959193D01*
X-52229718Y143959191D01*
X-52238010Y143917500D01*
X-53548286Y143917500D01*
X-53556579Y143959191D01*
X-53556579Y143959193D01*
X-53631956Y144141172D01*
X-53631963Y144141185D01*
X-53741397Y144304963D01*
X-53741400Y144304967D01*
X-53880682Y144444249D01*
X-53880686Y144444252D01*
X-54044464Y144553686D01*
X-54044477Y144553693D01*
X-54226455Y144629070D01*
X-54226467Y144629073D01*
X-54419653Y144667500D01*
X-54818148Y144667500D01*
X-54818148Y143967500D01*
X-55318148Y143967500D01*
X-55318148Y144667500D01*
X-55716644Y144667500D01*
X-55909830Y144629073D01*
X-55909842Y144629070D01*
X-56091820Y144553693D01*
X-56091833Y144553686D01*
X-56255611Y144444252D01*
X-56255615Y144444249D01*
X-56394897Y144304967D01*
X-56394900Y144304963D01*
X-56504334Y144141185D01*
X-56504341Y144141172D01*
X-56579718Y143959193D01*
X-56579718Y143959191D01*
X-56588010Y143917500D01*
X-55785136Y143917500D01*
X-55802353Y143907560D01*
X-55858208Y143851705D01*
X-55897704Y143783296D01*
X-55918148Y143706996D01*
X-55918148Y143628004D01*
X-55897704Y143551704D01*
X-55858208Y143483295D01*
X-55802353Y143427440D01*
X-55785136Y143417500D01*
X-56588010Y143417500D01*
X-56579718Y143375810D01*
X-56579718Y143375808D01*
X-56578007Y143371678D01*
X-56570540Y143302208D01*
X-56601816Y143239730D01*
X-56618257Y143224962D01*
X-56645334Y143204693D01*
X-56645340Y143204686D01*
X-56731499Y143089594D01*
X-56731503Y143089587D01*
X-56781745Y142954880D01*
X-56781747Y142954873D01*
X-56788148Y142895345D01*
X-56788148Y142797500D01*
X-55792148Y142797500D01*
X-55783463Y142794950D01*
X-55774501Y142796238D01*
X-55750461Y142785260D01*
X-55725109Y142777815D01*
X-55719182Y142770975D01*
X-55710945Y142767213D01*
X-55696656Y142744979D01*
X-55679354Y142725011D01*
X-55677067Y142714497D01*
X-55673171Y142708435D01*
X-55668148Y142673500D01*
X-55668148Y142672000D01*
X-55687833Y142604961D01*
X-55740637Y142559206D01*
X-55792148Y142548000D01*
X-56336019Y142548000D01*
X-56336025Y142547999D01*
X-56395632Y142541592D01*
X-56530477Y142491298D01*
X-56530484Y142491294D01*
X-56645692Y142405048D01*
X-56645693Y142405047D01*
X-56645694Y142405046D01*
X-56689007Y142347188D01*
X-56744939Y142305318D01*
X-56788121Y142297528D01*
X-56788148Y142297500D01*
X-56788148Y142199668D01*
X-56784217Y142163101D01*
X-56784217Y142136595D01*
X-56788648Y142095378D01*
X-56788648Y141399631D01*
X-56788647Y141399622D01*
X-56784469Y141360755D01*
X-56784226Y141336756D01*
X-56784340Y141335447D01*
X-56788648Y141295373D01*
X-56788648Y141285925D01*
X-56789115Y141280556D01*
X-56799947Y141252825D01*
X-56808333Y141224264D01*
X-56812519Y141220638D01*
X-56814535Y141215475D01*
X-56838644Y141198000D01*
X-56861137Y141178509D01*
X-56866621Y141177721D01*
X-56871106Y141174469D01*
X-56900830Y141172802D01*
X-56930295Y141168565D01*
X-56937750Y141170731D01*
X-56940866Y141170556D01*
X-56944786Y141172776D01*
X-56951111Y141174613D01*
X-56951381Y141173746D01*
X-56958540Y141175977D01*
X-56958542Y141175978D01*
X-57120952Y141226586D01*
X-57148750Y141229113D01*
X-57213732Y141254783D01*
X-57254520Y141311512D01*
X-57259143Y141328412D01*
X-57286213Y141464500D01*
X-57290280Y141484945D01*
X-57292289Y141489796D01*
X-57350620Y141630621D01*
X-57350627Y141630634D01*
X-57438228Y141761737D01*
X-57438231Y141761741D01*
X-57549728Y141873238D01*
X-57636251Y141931050D01*
X-57655041Y141946471D01*
X-57771329Y142062759D01*
X-57804814Y142124082D01*
X-57807648Y142150440D01*
X-57807648Y143526345D01*
X-57807649Y143526347D01*
X-57812693Y143551704D01*
X-57838411Y143680997D01*
X-57898754Y143826679D01*
X-57898755Y143826681D01*
X-57898756Y143826683D01*
X-57986359Y143957789D01*
X-57986362Y143957793D01*
X-58097856Y144069287D01*
X-58097860Y144069290D01*
X-58195733Y144134687D01*
X-58240538Y144188299D01*
X-58249245Y144257624D01*
X-58219090Y144320652D01*
X-58214564Y144325429D01*
X-57744034Y144795957D01*
X-57667373Y144910689D01*
X-57665587Y144914999D01*
X-57627359Y145007292D01*
X-57614568Y145038172D01*
X-57594014Y145141501D01*
X-57587648Y145173504D01*
X-57587648Y146427184D01*
X-57578209Y146474636D01*
X-57518413Y146618999D01*
X-57518411Y146619003D01*
X-57487648Y146773658D01*
X-57487648Y146931342D01*
X-57487648Y146931345D01*
X-57487649Y146931347D01*
X-57495108Y146968847D01*
X-57518411Y147085997D01*
X-57567002Y147203308D01*
X-57578751Y147231673D01*
X-57578758Y147231686D01*
X-57666359Y147362789D01*
X-57666362Y147362793D01*
X-57777856Y147474287D01*
X-57777860Y147474290D01*
X-57908963Y147561891D01*
X-57908976Y147561898D01*
X-58054647Y147622236D01*
X-58054659Y147622239D01*
X-58209303Y147653000D01*
X-58209306Y147653000D01*
X-58366990Y147653000D01*
X-58366993Y147653000D01*
X-58521638Y147622239D01*
X-58521650Y147622236D01*
X-58667321Y147561898D01*
X-58667334Y147561891D01*
X-58798437Y147474290D01*
X-58798441Y147474287D01*
X-58909935Y147362793D01*
X-58909938Y147362789D01*
X-58997539Y147231686D01*
X-58997546Y147231673D01*
X-59057884Y147086002D01*
X-59057887Y147085990D01*
X-59088648Y146931347D01*
X-59088648Y146773654D01*
X-59057887Y146619011D01*
X-59057884Y146618999D01*
X-58998087Y146474636D01*
X-58988648Y146427184D01*
X-58988648Y145584020D01*
X-59008333Y145516981D01*
X-59024967Y145496339D01*
X-60266500Y144254807D01*
X-60266501Y144254806D01*
X-60343166Y144140068D01*
X-60395967Y144012593D01*
X-60395970Y144012581D01*
X-60421636Y143883548D01*
X-60421637Y143883541D01*
X-60422887Y143877259D01*
X-60422888Y143877249D01*
X-60422888Y141726072D01*
X-60442573Y141659033D01*
X-60477997Y141622970D01*
X-60513437Y141599290D01*
X-60513441Y141599287D01*
X-60624935Y141487793D01*
X-60624938Y141487789D01*
X-60712539Y141356686D01*
X-60712546Y141356673D01*
X-60772884Y141211002D01*
X-60772887Y141210990D01*
X-60803648Y141056347D01*
X-60803648Y140898654D01*
X-60772887Y140744011D01*
X-60772884Y140743999D01*
X-60712546Y140598328D01*
X-60712539Y140598315D01*
X-60624938Y140467212D01*
X-60624935Y140467208D01*
X-60513441Y140355714D01*
X-60513437Y140355711D01*
X-60382334Y140268110D01*
X-60382321Y140268103D01*
X-60236650Y140207765D01*
X-60236645Y140207763D01*
X-60176690Y140195838D01*
X-60098457Y140180275D01*
X-60070334Y140165565D01*
X-60041445Y140152371D01*
X-60039588Y140149482D01*
X-60036546Y140147890D01*
X-60020842Y140120312D01*
X-60003671Y140093593D01*
X-60003011Y140088998D01*
X-60001972Y140087174D01*
X-59998648Y140058658D01*
X-59998648Y139965348D01*
X-60018333Y139898309D01*
X-60071137Y139852554D01*
X-60098456Y139843731D01*
X-60231640Y139817239D01*
X-60231650Y139817236D01*
X-60377321Y139756898D01*
X-60377334Y139756891D01*
X-60508437Y139669290D01*
X-60508441Y139669287D01*
X-60619935Y139557793D01*
X-60619938Y139557789D01*
X-60707539Y139426686D01*
X-60707546Y139426673D01*
X-60767884Y139281002D01*
X-60767887Y139280990D01*
X-60798648Y139126347D01*
X-60798648Y138968654D01*
X-60767887Y138814011D01*
X-60767884Y138813999D01*
X-60707546Y138668328D01*
X-60707542Y138668321D01*
X-60669546Y138611456D01*
X-60648668Y138544779D01*
X-60648648Y138542565D01*
X-60648648Y138208309D01*
X-60668333Y138141270D01*
X-60684967Y138120628D01*
X-61485700Y137319896D01*
X-61502141Y137310919D01*
X-61515582Y137297872D01*
X-61545370Y137287314D01*
X-61547023Y137286411D01*
X-61548830Y137286032D01*
X-61549167Y137285964D01*
X-61616265Y137272617D01*
X-61617236Y137272215D01*
X-61624097Y137270829D01*
X-61653269Y137273353D01*
X-61682545Y137273097D01*
X-61687670Y137276328D01*
X-61693707Y137276850D01*
X-61716885Y137294746D01*
X-61741650Y137310358D01*
X-61744215Y137315847D01*
X-61749011Y137319550D01*
X-61758835Y137347138D01*
X-61771227Y137373659D01*
X-61772026Y137384180D01*
X-61772450Y137385371D01*
X-61772199Y137386451D01*
X-61772648Y137392374D01*
X-61772648Y137550214D01*
X-61772649Y137550228D01*
X-61780098Y137606808D01*
X-61769333Y137675844D01*
X-61722953Y137728100D01*
X-61722421Y137728431D01*
X-61680104Y137754532D01*
X-61560180Y137874456D01*
X-61471145Y138018803D01*
X-61417799Y138179792D01*
X-61407648Y138279155D01*
X-61407649Y138825844D01*
X-61417799Y138925208D01*
X-61471145Y139086197D01*
X-61471149Y139086203D01*
X-61471150Y139086206D01*
X-61560178Y139230541D01*
X-61560181Y139230545D01*
X-61569809Y139240173D01*
X-61603294Y139301496D01*
X-61598310Y139371188D01*
X-61569803Y139415541D01*
X-61560575Y139424769D01*
X-61471606Y139569008D01*
X-61471601Y139569019D01*
X-61418293Y139729894D01*
X-61408149Y139829178D01*
X-61408148Y139829191D01*
X-61408148Y139852500D01*
X-62259148Y139852500D01*
X-62326187Y139872185D01*
X-62371942Y139924989D01*
X-62383148Y139976500D01*
X-62383148Y140228500D01*
X-62363463Y140295539D01*
X-62310659Y140341294D01*
X-62259148Y140352500D01*
X-61408149Y140352500D01*
X-61408149Y140375808D01*
X-61408150Y140375823D01*
X-61418293Y140475108D01*
X-61471601Y140635982D01*
X-61471606Y140635993D01*
X-61517176Y140709873D01*
X-61535617Y140777265D01*
X-61514695Y140843929D01*
X-61499319Y140862652D01*
X-61496263Y140865709D01*
X-61496259Y140865711D01*
X-61384759Y140977211D01*
X-61297154Y141108321D01*
X-61236811Y141254003D01*
X-61223469Y141321082D01*
X-61191085Y141382990D01*
X-61189532Y141384571D01*
X-61148871Y141425231D01*
X-61077683Y141531773D01*
X-61028647Y141650156D01*
X-61023848Y141674284D01*
X-61003648Y141775831D01*
X-61003648Y146122569D01*
X-61003648Y146122572D01*
X-61028646Y146248240D01*
X-61028648Y146248246D01*
X-61048959Y146297279D01*
X-61048961Y146297284D01*
X-61077680Y146366622D01*
X-61077686Y146366632D01*
X-61148870Y146473168D01*
X-61148876Y146473175D01*
X-62431329Y147755628D01*
X-62464814Y147816951D01*
X-62467648Y147843309D01*
X-62467648Y148755168D01*
X-54963648Y148755168D01*
X-54963648Y148479833D01*
X-54963647Y148479816D01*
X-54927710Y148206845D01*
X-54927709Y148206840D01*
X-54927708Y148206834D01*
X-54927707Y148206832D01*
X-54856444Y147940870D01*
X-54751073Y147686483D01*
X-54751068Y147686472D01*
X-54700791Y147599391D01*
X-54613397Y147448021D01*
X-54613395Y147448018D01*
X-54613394Y147448017D01*
X-54445778Y147229574D01*
X-54445772Y147229567D01*
X-54251082Y147034877D01*
X-54251075Y147034871D01*
X-54220871Y147011695D01*
X-54032627Y146867251D01*
X-53879370Y146778768D01*
X-53794177Y146729581D01*
X-53794172Y146729579D01*
X-53794169Y146729577D01*
X-53539780Y146624205D01*
X-53273814Y146552940D01*
X-53000822Y146517000D01*
X-53000815Y146517000D01*
X-52725481Y146517000D01*
X-52725474Y146517000D01*
X-52452482Y146552940D01*
X-52186516Y146624205D01*
X-51932127Y146729577D01*
X-51693669Y146867251D01*
X-51475220Y147034872D01*
X-51280520Y147229572D01*
X-51112899Y147448021D01*
X-50975225Y147686479D01*
X-50869853Y147940868D01*
X-50798588Y148206834D01*
X-50762648Y148479826D01*
X-50762648Y148755174D01*
X-50798588Y149028166D01*
X-50869853Y149294132D01*
X-50975225Y149548521D01*
X-50975227Y149548524D01*
X-50975229Y149548529D01*
X-51060321Y149695911D01*
X-51112899Y149786979D01*
X-51280520Y150005428D01*
X-51280525Y150005434D01*
X-51475215Y150200124D01*
X-51475222Y150200130D01*
X-51693665Y150367746D01*
X-51693666Y150367747D01*
X-51693669Y150367749D01*
X-51818792Y150439989D01*
X-51932120Y150505420D01*
X-51932131Y150505425D01*
X-52186518Y150610796D01*
X-52319499Y150646428D01*
X-52452482Y150682060D01*
X-52452488Y150682061D01*
X-52452493Y150682062D01*
X-52725464Y150717999D01*
X-52725469Y150718000D01*
X-52725474Y150718000D01*
X-53000822Y150718000D01*
X-53000828Y150718000D01*
X-53000833Y150717999D01*
X-53273804Y150682062D01*
X-53273811Y150682061D01*
X-53273814Y150682060D01*
X-53330023Y150667000D01*
X-53539779Y150610796D01*
X-53794166Y150505425D01*
X-53794177Y150505420D01*
X-54032632Y150367746D01*
X-54251075Y150200130D01*
X-54251082Y150200124D01*
X-54445772Y150005434D01*
X-54445778Y150005427D01*
X-54613394Y149786984D01*
X-54751068Y149548529D01*
X-54751073Y149548518D01*
X-54856444Y149294131D01*
X-54927707Y149028169D01*
X-54927710Y149028156D01*
X-54963647Y148755185D01*
X-54963648Y148755168D01*
X-62467648Y148755168D01*
X-62467648Y149243500D01*
X-62447963Y149310539D01*
X-62395159Y149356294D01*
X-62374960Y149360689D01*
X-62368148Y149367500D01*
X-61868148Y149367500D01*
X-61570320Y149367500D01*
X-61570304Y149367501D01*
X-61510776Y149373902D01*
X-61510769Y149373904D01*
X-61376062Y149424146D01*
X-61376055Y149424150D01*
X-61260961Y149510310D01*
X-61260958Y149510313D01*
X-61174798Y149625407D01*
X-61174794Y149625414D01*
X-61124552Y149760121D01*
X-61124550Y149760128D01*
X-61118149Y149819656D01*
X-61118148Y149819673D01*
X-61118148Y150117500D01*
X-61868148Y150117500D01*
X-61868148Y149367500D01*
X-62368148Y149367500D01*
X-62368148Y151367376D01*
X-62348463Y151434415D01*
X-62331815Y151455072D01*
X-62325555Y151461331D01*
X-62260602Y151509954D01*
X-62212092Y151574756D01*
X-62205815Y151581030D01*
X-62182627Y151593687D01*
X-62161481Y151609516D01*
X-62152442Y151610163D01*
X-62144486Y151614505D01*
X-62118135Y151612616D01*
X-62091789Y151614500D01*
X-62083836Y151610158D01*
X-62074795Y151609509D01*
X-62053652Y151593676D01*
X-62030466Y151581015D01*
X-62018885Y151567650D01*
X-61975694Y151509954D01*
X-61917836Y151466642D01*
X-61875966Y151410709D01*
X-61868148Y151367376D01*
X-61868148Y150617500D01*
X-61118148Y150617500D01*
X-61118148Y150915328D01*
X-61118149Y150915345D01*
X-61124550Y150974873D01*
X-61124552Y150974880D01*
X-61174794Y151109587D01*
X-61174796Y151109589D01*
X-61219038Y151168690D01*
X-61243455Y151234154D01*
X-61228604Y151302427D01*
X-61179198Y151351833D01*
X-61119773Y151367001D01*
X-60570276Y151367001D01*
X-60510665Y151373409D01*
X-60375817Y151423704D01*
X-60260602Y151509954D01*
X-60217102Y151568064D01*
X-60161169Y151609933D01*
X-60091477Y151614917D01*
X-60030154Y151581432D01*
X-60018570Y151568062D01*
X-59975339Y151510313D01*
X-59975336Y151510310D01*
X-59860242Y151424150D01*
X-59860235Y151424146D01*
X-59725528Y151373904D01*
X-59725521Y151373902D01*
X-59665993Y151367501D01*
X-59665976Y151367500D01*
X-59368148Y151367500D01*
X-58868148Y151367500D01*
X-58570320Y151367500D01*
X-58570304Y151367501D01*
X-58510776Y151373902D01*
X-58510769Y151373904D01*
X-58376062Y151424146D01*
X-58376055Y151424150D01*
X-58260961Y151510310D01*
X-58260958Y151510313D01*
X-58174798Y151625407D01*
X-58174794Y151625414D01*
X-58124552Y151760121D01*
X-58124550Y151760128D01*
X-58118149Y151819656D01*
X-58118148Y151819673D01*
X-58118148Y152117500D01*
X-58868148Y152117500D01*
X-58868148Y151367500D01*
X-59368148Y151367500D01*
X-59368148Y152243500D01*
X-59348463Y152310539D01*
X-59295659Y152356294D01*
X-59244148Y152367500D01*
X-59118148Y152367500D01*
X-59118148Y152493500D01*
X-59098463Y152560539D01*
X-59045659Y152606294D01*
X-58994148Y152617500D01*
X-58118148Y152617500D01*
X-58118148Y152743000D01*
X-58098463Y152810039D01*
X-58045659Y152855794D01*
X-57994148Y152867000D01*
X-52929039Y152867000D01*
X-52929035Y152866999D01*
G37*
%TD.AperFunction*%
%TA.AperFunction,Conductor*%
G36*
X-75720109Y127492815D02*
G01*
X-75674354Y127440011D01*
X-75663148Y127388500D01*
X-75663148Y125077501D01*
X-75639840Y125077501D01*
X-75639826Y125077502D01*
X-75540541Y125087645D01*
X-75379667Y125140953D01*
X-75379656Y125140958D01*
X-75235417Y125229927D01*
X-75226189Y125239155D01*
X-75164869Y125272644D01*
X-75095177Y125267665D01*
X-75050821Y125239161D01*
X-75041193Y125229533D01*
X-75041189Y125229530D01*
X-74896854Y125140502D01*
X-74896851Y125140501D01*
X-74896845Y125140497D01*
X-74735856Y125087151D01*
X-74636493Y125077000D01*
X-74089804Y125077001D01*
X-74089796Y125077002D01*
X-74089793Y125077002D01*
X-74035388Y125082560D01*
X-73990440Y125087151D01*
X-73879849Y125123798D01*
X-73810025Y125126199D01*
X-73749982Y125090468D01*
X-73718789Y125027948D01*
X-73716848Y125006091D01*
X-73716848Y124145530D01*
X-73716847Y124145524D01*
X-73710439Y124085916D01*
X-73661375Y123954365D01*
X-73656391Y123884674D01*
X-73689877Y123823351D01*
X-73730104Y123796472D01*
X-73844797Y123748965D01*
X-73951337Y123677778D01*
X-73951344Y123677772D01*
X-76245967Y121383148D01*
X-76307290Y121349663D01*
X-76376982Y121354647D01*
X-76432915Y121396519D01*
X-76457332Y121461983D01*
X-76457648Y121470829D01*
X-76457648Y124972884D01*
X-76437963Y125039923D01*
X-76385159Y125085678D01*
X-76316001Y125095622D01*
X-76294641Y125090589D01*
X-76285755Y125087644D01*
X-76186465Y125077501D01*
X-76163148Y125077502D01*
X-76163148Y127388500D01*
X-76143463Y127455539D01*
X-76090659Y127501294D01*
X-76039148Y127512500D01*
X-75787148Y127512500D01*
X-75720109Y127492815D01*
G37*
%TD.AperFunction*%
%TA.AperFunction,Conductor*%
G36*
X-67698385Y126751814D02*
G01*
X-67698384Y126751813D01*
X-67585868Y126737000D01*
X-67585861Y126737000D01*
X-67360435Y126737000D01*
X-67360428Y126737000D01*
X-67263834Y126749717D01*
X-67194798Y126738952D01*
X-67142542Y126692572D01*
X-67123648Y126626778D01*
X-67123648Y125429835D01*
X-67143333Y125362796D01*
X-67196137Y125317041D01*
X-67265295Y125307097D01*
X-67300042Y125317448D01*
X-67304445Y125319501D01*
X-67465439Y125372849D01*
X-67564802Y125383000D01*
X-68111486Y125383000D01*
X-68111504Y125382999D01*
X-68210915Y125372843D01*
X-68279608Y125385613D01*
X-68330492Y125433494D01*
X-68347412Y125501284D01*
X-68345133Y125520393D01*
X-68322648Y125633429D01*
X-68322648Y126626778D01*
X-68302963Y126693817D01*
X-68250159Y126739572D01*
X-68182463Y126749717D01*
X-68123649Y126741974D01*
X-68085884Y126737002D01*
X-68085868Y126737000D01*
X-68085861Y126737000D01*
X-67860435Y126737000D01*
X-67860428Y126737000D01*
X-67747912Y126751813D01*
X-67747912Y126751814D01*
X-67739853Y126752874D01*
X-67739450Y126749811D01*
X-67706846Y126749811D01*
X-67706443Y126752874D01*
X-67698385Y126751814D01*
G37*
%TD.AperFunction*%
%TA.AperFunction,Conductor*%
G36*
X-61567445Y130012216D02*
G01*
X-61543110Y129983600D01*
X-61454954Y129840677D01*
X-61451116Y129834456D01*
X-61439393Y129822733D01*
X-61437414Y129820556D01*
X-61423387Y129791679D01*
X-61408003Y129763505D01*
X-61408222Y129760457D01*
X-61406886Y129757708D01*
X-61410697Y129725836D01*
X-61412987Y129693813D01*
X-61414878Y129690872D01*
X-61415181Y129688333D01*
X-61421171Y129681079D01*
X-61441485Y129649469D01*
X-61450720Y129640235D01*
X-61450724Y129640229D01*
X-61539691Y129495993D01*
X-61539697Y129495979D01*
X-61562802Y129426255D01*
X-61573270Y129411138D01*
X-61579214Y129393737D01*
X-61592745Y129383009D01*
X-61602575Y129368811D01*
X-61619556Y129361752D01*
X-61633963Y129350328D01*
X-61651146Y129348619D01*
X-61667091Y129341989D01*
X-61685190Y129345231D01*
X-61703489Y129343409D01*
X-61725718Y129352488D01*
X-61735867Y129354305D01*
X-61736888Y129354820D01*
X-61743364Y129358126D01*
X-61763969Y129371894D01*
X-61797710Y129385870D01*
X-61802098Y129388110D01*
X-61824046Y129408871D01*
X-61847574Y129427832D01*
X-61849175Y129432642D01*
X-61852856Y129436124D01*
X-61860096Y129465454D01*
X-61869638Y129494126D01*
X-61868385Y129499038D01*
X-61869599Y129503958D01*
X-61859831Y129532552D01*
X-61852358Y129561825D01*
X-61847251Y129569371D01*
X-61847010Y129570075D01*
X-61846500Y129570480D01*
X-61846380Y129570658D01*
X-61845453Y129572264D01*
X-61845450Y129572267D01*
X-61787461Y129712264D01*
X-61772648Y129824780D01*
X-61772648Y129918503D01*
X-61752963Y129985542D01*
X-61700159Y130031297D01*
X-61631001Y130041241D01*
X-61567445Y130012216D01*
G37*
%TD.AperFunction*%
%TA.AperFunction,Conductor*%
G36*
X-72990599Y130798749D02*
G01*
X-72985648Y130797765D01*
X-72985645Y130797763D01*
X-72911831Y130783081D01*
X-72830993Y130767000D01*
X-72830990Y130767000D01*
X-72673304Y130767000D01*
X-72516840Y130798123D01*
X-72495856Y130796246D01*
X-72475001Y130799244D01*
X-72461754Y130793194D01*
X-72447248Y130791896D01*
X-72430611Y130778972D01*
X-72411445Y130770219D01*
X-72403571Y130757967D01*
X-72392071Y130749033D01*
X-72385063Y130729167D01*
X-72373671Y130711441D01*
X-72370137Y130686858D01*
X-72368826Y130683143D01*
X-72368648Y130676506D01*
X-72368648Y130467843D01*
X-72388333Y130400804D01*
X-72404967Y130380162D01*
X-72910967Y129874162D01*
X-72972290Y129840677D01*
X-73041982Y129845661D01*
X-73097915Y129887533D01*
X-73122332Y129952997D01*
X-73122648Y129961843D01*
X-73122648Y130050214D01*
X-73122648Y130050220D01*
X-73137461Y130162736D01*
X-73137462Y130162737D01*
X-73138522Y130170795D01*
X-73136742Y130171030D01*
X-73138952Y130204771D01*
X-73128060Y130287500D01*
X-73128543Y130288051D01*
X-73129983Y130287719D01*
X-73159534Y130298342D01*
X-73189650Y130307185D01*
X-73193189Y130310440D01*
X-73195734Y130311355D01*
X-73220986Y130336012D01*
X-73240937Y130362012D01*
X-73266132Y130427181D01*
X-73252094Y130495626D01*
X-73240937Y130512988D01*
X-73220986Y130538988D01*
X-73164558Y130580190D01*
X-73129043Y130586380D01*
X-73128060Y130587500D01*
X-73137730Y130660946D01*
X-73126965Y130729981D01*
X-73080585Y130782237D01*
X-73013317Y130801123D01*
X-72990599Y130798749D01*
G37*
%TD.AperFunction*%
%TA.AperFunction,Conductor*%
G36*
X-85066574Y133530508D02*
G01*
X-85046336Y133507154D01*
X-85043550Y133502985D01*
X-85022668Y133436309D01*
X-85022648Y133434088D01*
X-85022648Y130326500D01*
X-85042333Y130259461D01*
X-85095137Y130213706D01*
X-85146648Y130202500D01*
X-85369148Y130202500D01*
X-85436187Y130222185D01*
X-85481942Y130274989D01*
X-85493148Y130326500D01*
X-85493148Y130609802D01*
X-85493348Y130611662D01*
X-85493348Y131854133D01*
X-85473663Y131921172D01*
X-85472450Y131923024D01*
X-85398756Y132033315D01*
X-85398756Y132033316D01*
X-85398752Y132033321D01*
X-85338409Y132179003D01*
X-85307646Y132333658D01*
X-85307646Y132491342D01*
X-85307646Y132491345D01*
X-85307647Y132491347D01*
X-85312146Y132513966D01*
X-85338409Y132645997D01*
X-85359535Y132697000D01*
X-85398749Y132791673D01*
X-85398756Y132791686D01*
X-85472250Y132901677D01*
X-85477901Y132919724D01*
X-85488125Y132935633D01*
X-85492577Y132966593D01*
X-85493128Y132968354D01*
X-85493148Y132970568D01*
X-85493148Y133202014D01*
X-85473463Y133269053D01*
X-85456836Y133289689D01*
X-85279034Y133467489D01*
X-85252536Y133507148D01*
X-85198927Y133551952D01*
X-85129602Y133560661D01*
X-85066574Y133530508D01*
G37*
%TD.AperFunction*%
%TA.AperFunction,Conductor*%
G36*
X-68694798Y138088952D02*
G01*
X-68642542Y138042572D01*
X-68623648Y137976778D01*
X-68623648Y132778431D01*
X-68623648Y132778429D01*
X-68623649Y132778429D01*
X-68601682Y132668003D01*
X-68598651Y132652762D01*
X-68598648Y132652753D01*
X-68549616Y132534377D01*
X-68478422Y132427827D01*
X-68478421Y132427826D01*
X-68165275Y132114681D01*
X-68131790Y132053358D01*
X-68136774Y131983667D01*
X-68178645Y131927733D01*
X-68244110Y131903316D01*
X-68252956Y131903000D01*
X-71262219Y131903000D01*
X-71385449Y131878488D01*
X-71385454Y131878486D01*
X-71386654Y131878248D01*
X-71387893Y131878001D01*
X-71506274Y131828966D01*
X-71612817Y131757777D01*
X-71749881Y131620713D01*
X-71811204Y131587229D01*
X-71880896Y131592213D01*
X-71936829Y131634085D01*
X-71959179Y131684204D01*
X-71982410Y131800990D01*
X-71982411Y131800997D01*
X-71992262Y131824780D01*
X-72042751Y131946673D01*
X-72042758Y131946686D01*
X-72130359Y132077789D01*
X-72130362Y132077793D01*
X-72241859Y132189290D01*
X-72361692Y132269359D01*
X-72380478Y132284776D01*
X-72538479Y132442777D01*
X-72645021Y132513965D01*
X-72763404Y132563001D01*
X-72763410Y132563003D01*
X-72889077Y132588000D01*
X-72889079Y132588000D01*
X-73012426Y132588000D01*
X-73079465Y132607685D01*
X-73125220Y132660489D01*
X-73135365Y132728186D01*
X-73122649Y132824773D01*
X-73122648Y132824780D01*
X-73122648Y133050220D01*
X-73137461Y133162736D01*
X-73137462Y133162737D01*
X-73138522Y133170795D01*
X-73136766Y133171027D01*
X-73139132Y133199590D01*
X-73138024Y133210907D01*
X-73137461Y133212264D01*
X-73122648Y133324780D01*
X-73122648Y133367845D01*
X-73122057Y133373877D01*
X-73111167Y133400888D01*
X-73102963Y133428826D01*
X-73098259Y133432903D01*
X-73095930Y133438678D01*
X-73072164Y133455514D01*
X-73050159Y133474581D01*
X-73043997Y133475468D01*
X-73038916Y133479066D01*
X-73009829Y133480380D01*
X-72981001Y133484525D01*
X-72974476Y133483408D01*
X-72913029Y133471185D01*
X-72891991Y133467000D01*
X-72891990Y133467000D01*
X-72734304Y133467000D01*
X-72734303Y133467001D01*
X-72579651Y133497763D01*
X-72433969Y133558106D01*
X-72302859Y133645711D01*
X-72191359Y133757211D01*
X-72103754Y133888321D01*
X-72043411Y134034003D01*
X-72012648Y134188658D01*
X-72012648Y134346342D01*
X-72012648Y134346345D01*
X-72012649Y134346347D01*
X-72027533Y134421171D01*
X-72043411Y134500997D01*
X-72054120Y134526851D01*
X-72103751Y134646673D01*
X-72103755Y134646680D01*
X-72150125Y134716078D01*
X-72171002Y134782752D01*
X-72152518Y134850133D01*
X-72150165Y134853796D01*
X-72123754Y134893321D01*
X-72063411Y135039003D01*
X-72032648Y135193658D01*
X-72032648Y135351342D01*
X-72032648Y135351345D01*
X-72032649Y135351351D01*
X-72055020Y135463812D01*
X-72063411Y135505997D01*
X-72081726Y135550214D01*
X-72123751Y135651673D01*
X-72123758Y135651686D01*
X-72211359Y135782789D01*
X-72211362Y135782793D01*
X-72322856Y135894287D01*
X-72322860Y135894290D01*
X-72453963Y135981891D01*
X-72453976Y135981898D01*
X-72599647Y136042236D01*
X-72599659Y136042239D01*
X-72754303Y136073000D01*
X-72754306Y136073000D01*
X-72846458Y136073000D01*
X-72857619Y136073503D01*
X-72864182Y136074097D01*
X-72934079Y136088000D01*
X-73018022Y136088000D01*
X-73023587Y136088503D01*
X-73051100Y136099356D01*
X-73079465Y136107685D01*
X-73083231Y136112031D01*
X-73088583Y136114142D01*
X-73105863Y136138149D01*
X-73125220Y136160489D01*
X-73126083Y136166242D01*
X-73129399Y136170850D01*
X-73130825Y136197885D01*
X-73135365Y136228186D01*
X-73122649Y136324773D01*
X-73122648Y136324780D01*
X-73122648Y136550220D01*
X-73137461Y136662736D01*
X-73137462Y136662737D01*
X-73138522Y136670795D01*
X-73135459Y136671199D01*
X-73135459Y136703802D01*
X-73138522Y136704205D01*
X-73132779Y136747831D01*
X-73122648Y136824780D01*
X-73122648Y137050220D01*
X-73137461Y137162736D01*
X-73137462Y137162737D01*
X-73138522Y137170795D01*
X-73135459Y137171199D01*
X-73135459Y137203802D01*
X-73138522Y137204205D01*
X-73135577Y137226572D01*
X-73122648Y137324780D01*
X-73122648Y137488000D01*
X-73102963Y137555039D01*
X-73050159Y137600794D01*
X-72998648Y137612000D01*
X-71824815Y137612000D01*
X-71817209Y137612000D01*
X-71817205Y137611999D01*
X-71747646Y137611999D01*
X-71680607Y137592314D01*
X-71634853Y137539509D01*
X-71634852Y137539499D01*
X-71623648Y137487999D01*
X-71623648Y136851689D01*
X-71602989Y136747834D01*
X-71602989Y136747833D01*
X-71598651Y136726023D01*
X-71598648Y136726013D01*
X-71549616Y136607637D01*
X-71478422Y136501087D01*
X-71478421Y136501086D01*
X-70938534Y135961200D01*
X-70905049Y135899877D01*
X-70904598Y135897710D01*
X-70891257Y135830641D01*
X-70891254Y135830629D01*
X-70830916Y135684958D01*
X-70830909Y135684945D01*
X-70743308Y135553842D01*
X-70743305Y135553838D01*
X-70631811Y135442344D01*
X-70631807Y135442341D01*
X-70500704Y135354740D01*
X-70500691Y135354733D01*
X-70355020Y135294395D01*
X-70355015Y135294393D01*
X-70220117Y135267560D01*
X-70200365Y135263631D01*
X-70200362Y135263630D01*
X-70200360Y135263630D01*
X-70042674Y135263630D01*
X-70042673Y135263631D01*
X-69888021Y135294393D01*
X-69750533Y135351342D01*
X-69742346Y135354733D01*
X-69742346Y135354734D01*
X-69742339Y135354736D01*
X-69611229Y135442341D01*
X-69499729Y135553841D01*
X-69412124Y135684951D01*
X-69351781Y135830633D01*
X-69321018Y135985288D01*
X-69321018Y136142972D01*
X-69321018Y136142975D01*
X-69321019Y136142977D01*
X-69331941Y136197885D01*
X-69351781Y136297627D01*
X-69376474Y136357242D01*
X-69412121Y136443303D01*
X-69412128Y136443316D01*
X-69499729Y136574419D01*
X-69499732Y136574423D01*
X-69611226Y136685917D01*
X-69611230Y136685920D01*
X-69742333Y136773521D01*
X-69742346Y136773528D01*
X-69879529Y136830350D01*
X-69933933Y136874191D01*
X-69955998Y136940485D01*
X-69938719Y137008184D01*
X-69887582Y137055795D01*
X-69856268Y137066528D01*
X-69831368Y137071482D01*
X-69774651Y137082763D01*
X-69628969Y137143106D01*
X-69497859Y137230711D01*
X-69386359Y137342211D01*
X-69298754Y137473321D01*
X-69238411Y137619003D01*
X-69207648Y137773658D01*
X-69207648Y137931342D01*
X-69209133Y137938807D01*
X-69202907Y138008397D01*
X-69160046Y138063575D01*
X-69094157Y138086822D01*
X-69087516Y138087000D01*
X-68860435Y138087000D01*
X-68860428Y138087000D01*
X-68763834Y138099717D01*
X-68694798Y138088952D01*
G37*
%TD.AperFunction*%
%TA.AperFunction,Conductor*%
G36*
X-58229817Y138097663D02*
G01*
X-58185468Y138069162D01*
X-58083337Y137967031D01*
X-58083335Y137967030D01*
X-58083333Y137967028D01*
X-57941586Y137881338D01*
X-57894398Y137829811D01*
X-57882560Y137760951D01*
X-57909829Y137696623D01*
X-57918054Y137687542D01*
X-58028422Y137577173D01*
X-58028426Y137577169D01*
X-58077513Y137503703D01*
X-58099613Y137470628D01*
X-58148649Y137352245D01*
X-58148651Y137352239D01*
X-58173648Y137226572D01*
X-58173648Y137193990D01*
X-58193333Y137126951D01*
X-58227954Y137093266D01*
X-58227430Y137092597D01*
X-58233337Y137087970D01*
X-58353618Y136967689D01*
X-58441626Y136822107D01*
X-58492235Y136659693D01*
X-58496965Y136607637D01*
X-58498648Y136589116D01*
X-58498648Y136075884D01*
X-58498386Y136073000D01*
X-58492235Y136005308D01*
X-58492235Y136005306D01*
X-58492234Y136005304D01*
X-58441626Y135842894D01*
X-58356683Y135702381D01*
X-58353618Y135697312D01*
X-58251133Y135594827D01*
X-58217648Y135533504D01*
X-58222632Y135463812D01*
X-58251133Y135419465D01*
X-58353220Y135317379D01*
X-58353221Y135317378D01*
X-58441168Y135171896D01*
X-58491739Y135009607D01*
X-58498148Y134939073D01*
X-58498148Y134932500D01*
X-57647148Y134932500D01*
X-57638463Y134929950D01*
X-57629501Y134931238D01*
X-57605461Y134920260D01*
X-57580109Y134912815D01*
X-57574182Y134905975D01*
X-57565945Y134902213D01*
X-57551656Y134879979D01*
X-57534354Y134860011D01*
X-57532067Y134849497D01*
X-57528171Y134843435D01*
X-57523148Y134808500D01*
X-57523148Y134647000D01*
X-57542833Y134579961D01*
X-57595637Y134534206D01*
X-57647148Y134523000D01*
X-61297685Y134523000D01*
X-61423353Y134498003D01*
X-61423359Y134498001D01*
X-61490138Y134470341D01*
X-61490150Y134470336D01*
X-61495562Y134468093D01*
X-61541741Y134448965D01*
X-61585002Y134420060D01*
X-61590578Y134417104D01*
X-61618876Y134411316D01*
X-61646436Y134402686D01*
X-61652683Y134404400D01*
X-61659030Y134403101D01*
X-61685965Y134413531D01*
X-61713816Y134421171D01*
X-61718146Y134425992D01*
X-61724186Y134428330D01*
X-61741205Y134451663D01*
X-61760505Y134473150D01*
X-61762144Y134480371D01*
X-61765359Y134484779D01*
X-61766139Y134497977D01*
X-61772648Y134526666D01*
X-61772648Y134550214D01*
X-61772648Y134550220D01*
X-61787461Y134662736D01*
X-61787462Y134662737D01*
X-61788522Y134670795D01*
X-61785459Y134671199D01*
X-61785459Y134703802D01*
X-61788522Y134704205D01*
X-61785455Y134727500D01*
X-61772648Y134824780D01*
X-61772648Y135050220D01*
X-61787461Y135162736D01*
X-61787462Y135162737D01*
X-61788522Y135170795D01*
X-61785459Y135171199D01*
X-61785459Y135203802D01*
X-61788522Y135204205D01*
X-61786372Y135220539D01*
X-61772648Y135324780D01*
X-61772648Y135550220D01*
X-61779135Y135599493D01*
X-61768370Y135668526D01*
X-61721990Y135720782D01*
X-61654721Y135739668D01*
X-61620192Y135734335D01*
X-61616272Y135733146D01*
X-61616265Y135733143D01*
X-61616259Y135733142D01*
X-61616256Y135733141D01*
X-61461615Y135702381D01*
X-61461612Y135702380D01*
X-61461610Y135702380D01*
X-61303924Y135702380D01*
X-61303923Y135702381D01*
X-61149271Y135733143D01*
X-61003589Y135793486D01*
X-60872479Y135881091D01*
X-60760979Y135992591D01*
X-60673374Y136123701D01*
X-60613031Y136269383D01*
X-60599689Y136336464D01*
X-60567305Y136398371D01*
X-60565810Y136399894D01*
X-59492872Y137472830D01*
X-59432621Y137563003D01*
X-59421684Y137579371D01*
X-59410319Y137606808D01*
X-59372647Y137697756D01*
X-59368772Y137717237D01*
X-59367785Y137722201D01*
X-59335395Y137784109D01*
X-59274676Y137818679D01*
X-59246169Y137822000D01*
X-58841535Y137822000D01*
X-58841532Y137822000D01*
X-58770952Y137828414D01*
X-58608542Y137879022D01*
X-58462963Y137967028D01*
X-58360829Y138069163D01*
X-58299508Y138102647D01*
X-58229817Y138097663D01*
G37*
%TD.AperFunction*%
%TA.AperFunction,Conductor*%
G36*
X-56400769Y136153963D02*
G01*
X-56398485Y136154083D01*
X-56395640Y136153411D01*
X-56395635Y136153411D01*
X-56395631Y136153409D01*
X-56336021Y136147000D01*
X-55746993Y136147001D01*
X-55746990Y136147000D01*
X-55589306Y136147000D01*
X-55589304Y136147001D01*
X-55542148Y136147001D01*
X-55475109Y136127316D01*
X-55429354Y136074512D01*
X-55418148Y136023001D01*
X-55418148Y135341500D01*
X-55422259Y135327500D01*
X-55657644Y135327500D01*
X-55733944Y135307056D01*
X-55802353Y135267560D01*
X-55839188Y135230726D01*
X-55861187Y135237185D01*
X-55906942Y135289989D01*
X-55918148Y135341500D01*
X-55918148Y135897500D01*
X-56428080Y135897500D01*
X-56495119Y135917185D01*
X-56540874Y135969989D01*
X-56551571Y136032721D01*
X-56550489Y136044632D01*
X-56524818Y136109611D01*
X-56468090Y136150400D01*
X-56403389Y136153824D01*
X-56403344Y136154239D01*
X-56400769Y136153963D01*
G37*
%TD.AperFunction*%
%TA.AperFunction,Conductor*%
G36*
X-76070523Y151582695D02*
G01*
X-76066001Y151583345D01*
X-76038087Y151570598D01*
X-76009337Y151559874D01*
X-76004908Y151555445D01*
X-76002445Y151554320D01*
X-75984383Y151534919D01*
X-75965695Y151509955D01*
X-75965694Y151509954D01*
X-75965693Y151509953D01*
X-75850484Y151423707D01*
X-75850477Y151423703D01*
X-75715631Y151373409D01*
X-75715632Y151373409D01*
X-75708704Y151372665D01*
X-75656021Y151367000D01*
X-75112149Y151367001D01*
X-75045111Y151347317D01*
X-74999356Y151294513D01*
X-74989412Y151225354D01*
X-75012883Y151168691D01*
X-75056942Y151109836D01*
X-75056946Y151109829D01*
X-75107240Y150974983D01*
X-75113647Y150915384D01*
X-75113648Y150915365D01*
X-75113648Y149819630D01*
X-75113647Y149819624D01*
X-75107240Y149760017D01*
X-75056946Y149625172D01*
X-75056942Y149625165D01*
X-74970696Y149509956D01*
X-74970693Y149509953D01*
X-74855484Y149423707D01*
X-74855477Y149423703D01*
X-74720631Y149373409D01*
X-74720632Y149373409D01*
X-74713704Y149372665D01*
X-74661021Y149367000D01*
X-73850148Y149367001D01*
X-73783109Y149347317D01*
X-73737354Y149294513D01*
X-73726148Y149243001D01*
X-73726148Y149108654D01*
X-73695387Y148954011D01*
X-73695384Y148953999D01*
X-73635046Y148808328D01*
X-73635039Y148808315D01*
X-73547438Y148677212D01*
X-73547435Y148677208D01*
X-73435941Y148565714D01*
X-73435937Y148565711D01*
X-73304834Y148478110D01*
X-73304821Y148478103D01*
X-73163037Y148419375D01*
X-73159145Y148417763D01*
X-73004495Y148387001D01*
X-73004492Y148387000D01*
X-73004490Y148387000D01*
X-72846804Y148387000D01*
X-72846803Y148387001D01*
X-72692151Y148417763D01*
X-72546469Y148478106D01*
X-72415359Y148565711D01*
X-72415356Y148565714D01*
X-72384201Y148596868D01*
X-72322878Y148630353D01*
X-72253186Y148625369D01*
X-72197253Y148583497D01*
X-72172836Y148518033D01*
X-72172520Y148509187D01*
X-72172520Y147583313D01*
X-72192205Y147516274D01*
X-72245009Y147470519D01*
X-72314167Y147460575D01*
X-72377723Y147489600D01*
X-72384201Y147495632D01*
X-72400356Y147511787D01*
X-72400360Y147511790D01*
X-72531463Y147599391D01*
X-72531476Y147599398D01*
X-72677147Y147659736D01*
X-72677159Y147659739D01*
X-72831803Y147690500D01*
X-72831806Y147690500D01*
X-72989490Y147690500D01*
X-72989493Y147690500D01*
X-73144138Y147659739D01*
X-73144150Y147659736D01*
X-73289821Y147599398D01*
X-73289834Y147599391D01*
X-73420937Y147511790D01*
X-73420941Y147511787D01*
X-73532435Y147400293D01*
X-73532438Y147400289D01*
X-73620039Y147269186D01*
X-73620046Y147269173D01*
X-73680384Y147123502D01*
X-73680387Y147123490D01*
X-73711148Y146968847D01*
X-73711148Y146811154D01*
X-73680387Y146656511D01*
X-73680384Y146656499D01*
X-73620046Y146510828D01*
X-73620039Y146510815D01*
X-73532438Y146379712D01*
X-73532435Y146379708D01*
X-73420941Y146268214D01*
X-73420937Y146268211D01*
X-73289834Y146180610D01*
X-73289821Y146180603D01*
X-73149712Y146122569D01*
X-73144145Y146120263D01*
X-73000801Y146091750D01*
X-72989495Y146089501D01*
X-72989492Y146089500D01*
X-72989490Y146089500D01*
X-72831804Y146089500D01*
X-72831803Y146089501D01*
X-72677151Y146120263D01*
X-72564482Y146166933D01*
X-72531476Y146180603D01*
X-72531476Y146180604D01*
X-72531469Y146180606D01*
X-72515413Y146191335D01*
X-72448738Y146212214D01*
X-72381357Y146193732D01*
X-72334665Y146141754D01*
X-72322520Y146088234D01*
X-72322520Y146071154D01*
X-72291759Y145916511D01*
X-72291756Y145916499D01*
X-72231418Y145770828D01*
X-72231411Y145770815D01*
X-72155969Y145657909D01*
X-72135091Y145591231D01*
X-72153575Y145523851D01*
X-72171390Y145501337D01*
X-72813407Y144859319D01*
X-72874730Y144825834D01*
X-72901088Y144823000D01*
X-75301993Y144823000D01*
X-75456638Y144792239D01*
X-75456650Y144792236D01*
X-75602321Y144731898D01*
X-75602334Y144731891D01*
X-75733437Y144644290D01*
X-75733441Y144644287D01*
X-75844935Y144532793D01*
X-75844938Y144532789D01*
X-75932539Y144401686D01*
X-75932546Y144401673D01*
X-75992884Y144256002D01*
X-75992887Y144255992D01*
X-76021985Y144109710D01*
X-76054370Y144047799D01*
X-76115086Y144013225D01*
X-76154821Y144010411D01*
X-76191573Y144013750D01*
X-76273148Y144013750D01*
X-76273148Y143363750D01*
X-75715736Y143363750D01*
X-75648697Y143344065D01*
X-75646893Y143342884D01*
X-75602327Y143313106D01*
X-75602325Y143313105D01*
X-75602321Y143313103D01*
X-75484875Y143264456D01*
X-75456645Y143252763D01*
X-75316881Y143224962D01*
X-75301995Y143222001D01*
X-75301992Y143222000D01*
X-75301990Y143222000D01*
X-72439304Y143222000D01*
X-72439303Y143222001D01*
X-72284651Y143252763D01*
X-72138969Y143313106D01*
X-72007859Y143400711D01*
X-71833889Y143574682D01*
X-71772570Y143608164D01*
X-71702878Y143603180D01*
X-71646944Y143561309D01*
X-71628505Y143526003D01*
X-71597195Y143431517D01*
X-71597191Y143431508D01*
X-71508224Y143287272D01*
X-71508221Y143287268D01*
X-71498988Y143278035D01*
X-71465503Y143216712D01*
X-71470487Y143147020D01*
X-71498985Y143102676D01*
X-71508615Y143093047D01*
X-71508619Y143093041D01*
X-71597647Y142948706D01*
X-71597652Y142948695D01*
X-71650997Y142787710D01*
X-71661148Y142688353D01*
X-71661148Y142141663D01*
X-71661147Y142141645D01*
X-71650998Y142042293D01*
X-71650997Y142042290D01*
X-71597652Y141881306D01*
X-71597647Y141881295D01*
X-71508619Y141736960D01*
X-71508616Y141736956D01*
X-71405733Y141634073D01*
X-71372248Y141572750D01*
X-71377232Y141503058D01*
X-71390309Y141477506D01*
X-71397536Y141466690D01*
X-71397546Y141466672D01*
X-71457884Y141321002D01*
X-71457887Y141320990D01*
X-71488648Y141166347D01*
X-71488648Y141008654D01*
X-71457887Y140854011D01*
X-71457884Y140853999D01*
X-71439432Y140809452D01*
X-71436566Y140782795D01*
X-71430103Y140756768D01*
X-71432888Y140748581D01*
X-71431963Y140739983D01*
X-71443966Y140716007D01*
X-71452599Y140690619D01*
X-71459369Y140685237D01*
X-71463239Y140677504D01*
X-71486297Y140663824D01*
X-71507286Y140647133D01*
X-71517938Y140645051D01*
X-71523328Y140641852D01*
X-71541540Y140638627D01*
X-71547752Y140638000D01*
X-71585868Y140638000D01*
X-71698384Y140623187D01*
X-71699634Y140622670D01*
X-71710695Y140621553D01*
X-71729654Y140625101D01*
X-71739464Y140625101D01*
X-71739856Y140622126D01*
X-71747911Y140623187D01*
X-71747912Y140623187D01*
X-71776877Y140627001D01*
X-71860421Y140638000D01*
X-71860428Y140638000D01*
X-72085868Y140638000D01*
X-72085876Y140638000D01*
X-72172755Y140626562D01*
X-72198384Y140623187D01*
X-72198386Y140623187D01*
X-72206440Y140622126D01*
X-72206832Y140625101D01*
X-72239464Y140625101D01*
X-72239856Y140622126D01*
X-72247911Y140623187D01*
X-72247912Y140623187D01*
X-72276877Y140627001D01*
X-72360421Y140638000D01*
X-72360428Y140638000D01*
X-72528502Y140638000D01*
X-72595541Y140657685D01*
X-72641296Y140710489D01*
X-72651240Y140779647D01*
X-72646208Y140801004D01*
X-72638293Y140824893D01*
X-72628149Y140924178D01*
X-72628148Y140924191D01*
X-72628148Y140947500D01*
X-73479148Y140947500D01*
X-73546187Y140967185D01*
X-73591942Y141019989D01*
X-73603148Y141071500D01*
X-73603148Y141197500D01*
X-73729148Y141197500D01*
X-73796187Y141217185D01*
X-73841942Y141269989D01*
X-73853148Y141321500D01*
X-73853148Y141447500D01*
X-73353148Y141447500D01*
X-72628149Y141447500D01*
X-72628149Y141470808D01*
X-72628150Y141470823D01*
X-72638293Y141570108D01*
X-72691601Y141730982D01*
X-72691606Y141730993D01*
X-72780573Y141875229D01*
X-72780576Y141875233D01*
X-72900416Y141995073D01*
X-72900420Y141995076D01*
X-73044656Y142084043D01*
X-73044667Y142084048D01*
X-73205542Y142137356D01*
X-73304826Y142147500D01*
X-73353148Y142147500D01*
X-73353148Y141447500D01*
X-73853148Y141447500D01*
X-73853148Y142147500D01*
X-73853149Y142147501D01*
X-73901455Y142147500D01*
X-73901473Y142147499D01*
X-74000758Y142137356D01*
X-74134966Y142092885D01*
X-74150531Y142092350D01*
X-74165123Y142086907D01*
X-74184737Y142091174D01*
X-74204795Y142090484D01*
X-74219119Y142098654D01*
X-74233396Y142101759D01*
X-74261650Y142122910D01*
X-74340164Y142201424D01*
X-74373649Y142262747D01*
X-74368665Y142332439D01*
X-74340163Y142376787D01*
X-74238077Y142478872D01*
X-74238076Y142478873D01*
X-74150129Y142624355D01*
X-74099558Y142786644D01*
X-74093148Y142857178D01*
X-74093148Y142863750D01*
X-77498147Y142863750D01*
X-77498147Y142857168D01*
X-77491740Y142786648D01*
X-77491739Y142786643D01*
X-77441167Y142624354D01*
X-77353221Y142478873D01*
X-77251133Y142376785D01*
X-77217648Y142315462D01*
X-77222632Y142245770D01*
X-77251133Y142201423D01*
X-77353617Y142098940D01*
X-77353618Y142098939D01*
X-77441626Y141953357D01*
X-77492235Y141790943D01*
X-77495613Y141753765D01*
X-77498648Y141720366D01*
X-77498648Y141207134D01*
X-77492234Y141136554D01*
X-77479263Y141094927D01*
X-77473648Y141058039D01*
X-77473648Y140541519D01*
X-77479942Y140502518D01*
X-77488584Y140476435D01*
X-77488585Y140476432D01*
X-77488585Y140476429D01*
X-77498648Y140377932D01*
X-77498648Y139844569D01*
X-77488585Y139746067D01*
X-77435698Y139586466D01*
X-77435693Y139586455D01*
X-77347432Y139443363D01*
X-77347429Y139443359D01*
X-77315501Y139411431D01*
X-77282016Y139350108D01*
X-77287000Y139280416D01*
X-77315501Y139236069D01*
X-77347429Y139204142D01*
X-77347432Y139204138D01*
X-77435693Y139061046D01*
X-77435697Y139061037D01*
X-77488584Y138901435D01*
X-77488584Y138901434D01*
X-77488585Y138901434D01*
X-77498648Y138802932D01*
X-77498648Y138269569D01*
X-77488585Y138171067D01*
X-77435698Y138011466D01*
X-77435693Y138011455D01*
X-77347432Y137868363D01*
X-77347429Y137868359D01*
X-77278751Y137799681D01*
X-77245266Y137738358D01*
X-77250250Y137668666D01*
X-77292122Y137612733D01*
X-77357586Y137588316D01*
X-77366432Y137588000D01*
X-81867219Y137588000D01*
X-81992887Y137563003D01*
X-81992893Y137563001D01*
X-82111278Y137513965D01*
X-82217817Y137442778D01*
X-82217824Y137442772D01*
X-83078424Y136582172D01*
X-83147494Y136478799D01*
X-83147498Y136478794D01*
X-83149613Y136475631D01*
X-83149614Y136475628D01*
X-83198651Y136357243D01*
X-83198653Y136357237D01*
X-83223650Y136231570D01*
X-83223650Y136144100D01*
X-83225067Y136139278D01*
X-83224033Y136134356D01*
X-83234814Y136106082D01*
X-83243335Y136077061D01*
X-83247134Y136073770D01*
X-83248925Y136069071D01*
X-83273280Y136051114D01*
X-83296139Y136031306D01*
X-83302217Y136029779D01*
X-83305161Y136027607D01*
X-83324319Y136024223D01*
X-83339702Y136020355D01*
X-83343681Y136020100D01*
X-83448821Y136020099D01*
X-83508432Y136013691D01*
X-83521947Y136008651D01*
X-83540200Y136007478D01*
X-83557175Y136011300D01*
X-83574528Y136010062D01*
X-83582878Y136012514D01*
X-83587856Y136013690D01*
X-83587864Y136013691D01*
X-83647474Y136020100D01*
X-83647484Y136020100D01*
X-84098818Y136020100D01*
X-84098824Y136020099D01*
X-84158427Y136013692D01*
X-84165973Y136011908D01*
X-84166514Y136014197D01*
X-84224542Y136010064D01*
X-84232891Y136012516D01*
X-84237867Y136013692D01*
X-84297467Y136020099D01*
X-84297476Y136020100D01*
X-84297486Y136020100D01*
X-84748820Y136020100D01*
X-84748826Y136020099D01*
X-84808429Y136013692D01*
X-84815975Y136011908D01*
X-84816303Y136013292D01*
X-84859292Y136007395D01*
X-85009078Y136020039D01*
X-85036984Y136030857D01*
X-85065687Y136039285D01*
X-85069209Y136043349D01*
X-85074224Y136045293D01*
X-85091853Y136069482D01*
X-85111442Y136092089D01*
X-85112767Y136098179D01*
X-85115376Y136101759D01*
X-85116052Y136113279D01*
X-85122648Y136143600D01*
X-85122648Y137561099D01*
X-85102963Y137628138D01*
X-85050159Y137673893D01*
X-84998648Y137685099D01*
X-83481053Y137685099D01*
X-83390009Y137703210D01*
X-83345721Y137712019D01*
X-83227588Y137760951D01*
X-83218242Y137764822D01*
X-83218241Y137764823D01*
X-83218238Y137764824D01*
X-83103506Y137841485D01*
X-82499310Y138445681D01*
X-82437987Y138479166D01*
X-82411629Y138482000D01*
X-82360662Y138482000D01*
X-81693061Y138482000D01*
X-81645609Y138472561D01*
X-81602227Y138454592D01*
X-81501242Y138412763D01*
X-81346592Y138382001D01*
X-81346589Y138382000D01*
X-81346587Y138382000D01*
X-81188901Y138382000D01*
X-81188900Y138382001D01*
X-81034248Y138412763D01*
X-80888566Y138473106D01*
X-80757456Y138560711D01*
X-80645956Y138672211D01*
X-80558351Y138803321D01*
X-80498008Y138949003D01*
X-80467245Y139103658D01*
X-80467245Y139261342D01*
X-80467245Y139261345D01*
X-80484972Y139350461D01*
X-80488712Y139369263D01*
X-80487642Y139381223D01*
X-80491093Y139392726D01*
X-80484586Y139415381D01*
X-80482485Y139438852D01*
X-80475119Y139448336D01*
X-80471802Y139459880D01*
X-80454081Y139475419D01*
X-80439623Y139494030D01*
X-80426984Y139499177D01*
X-80419267Y139505943D01*
X-80391333Y139513695D01*
X-80385462Y139516085D01*
X-80382918Y139516467D01*
X-80337866Y139521309D01*
X-80329335Y139524492D01*
X-80316516Y139526411D01*
X-80294248Y139523343D01*
X-80271827Y139524953D01*
X-80263467Y139522499D01*
X-80258437Y139521311D01*
X-80258431Y139521309D01*
X-80198821Y139514900D01*
X-79747476Y139514901D01*
X-79687865Y139521309D01*
X-79680320Y139523092D01*
X-79679777Y139520793D01*
X-79621820Y139524952D01*
X-79613456Y139522497D01*
X-79608438Y139521312D01*
X-79608432Y139521309D01*
X-79548822Y139514900D01*
X-79097477Y139514901D01*
X-79037866Y139521309D01*
X-79030315Y139523093D01*
X-79029772Y139520792D01*
X-78971827Y139524953D01*
X-78963467Y139522499D01*
X-78958437Y139521311D01*
X-78958431Y139521309D01*
X-78898821Y139514900D01*
X-78447476Y139514901D01*
X-78387865Y139521309D01*
X-78253017Y139571604D01*
X-78137802Y139657854D01*
X-78051552Y139773069D01*
X-78001257Y139907917D01*
X-77994848Y139967527D01*
X-77994849Y141422172D01*
X-78001257Y141481783D01*
X-78002434Y141484938D01*
X-78051551Y141616629D01*
X-78051556Y141616638D01*
X-78053467Y141619191D01*
X-78054581Y141622178D01*
X-78055802Y141624414D01*
X-78055481Y141624590D01*
X-78077881Y141684656D01*
X-78063027Y141752929D01*
X-78060314Y141757647D01*
X-78002729Y141852905D01*
X-77952158Y142015194D01*
X-77945748Y142085728D01*
X-77945748Y142092300D01*
X-78796748Y142092300D01*
X-78863787Y142111985D01*
X-78909542Y142164789D01*
X-78920748Y142216300D01*
X-78920748Y142468300D01*
X-78901063Y142535339D01*
X-78848259Y142581094D01*
X-78796748Y142592300D01*
X-77945749Y142592300D01*
X-77945749Y142598883D01*
X-77952157Y142669403D01*
X-77952158Y142669408D01*
X-78002730Y142831697D01*
X-78090676Y142977178D01*
X-78192764Y143079266D01*
X-78226249Y143140589D01*
X-78221265Y143210281D01*
X-78192765Y143254627D01*
X-78090276Y143357115D01*
X-78082291Y143370323D01*
X-77498148Y143370323D01*
X-77498148Y143363750D01*
X-76773148Y143363750D01*
X-76773148Y144013750D01*
X-76773149Y144013751D01*
X-76854731Y144013750D01*
X-76925251Y144007342D01*
X-76925256Y144007341D01*
X-77087545Y143956769D01*
X-77233026Y143868823D01*
X-77353221Y143748628D01*
X-77441168Y143603146D01*
X-77491739Y143440857D01*
X-77498148Y143370323D01*
X-78082291Y143370323D01*
X-78002270Y143502694D01*
X-77951662Y143665104D01*
X-77951662Y143665110D01*
X-77950382Y143671539D01*
X-77947569Y143670980D01*
X-77926552Y143724252D01*
X-77916386Y143735764D01*
X-76408684Y145243465D01*
X-76363228Y145311494D01*
X-76310135Y145390953D01*
X-76272408Y145482034D01*
X-76242253Y145554834D01*
X-76207648Y145728809D01*
X-76207648Y145906192D01*
X-76207648Y151460607D01*
X-76199004Y151490048D01*
X-76192480Y151520034D01*
X-76189250Y151523265D01*
X-76187963Y151527646D01*
X-76164779Y151547736D01*
X-76143075Y151569439D01*
X-76138611Y151570411D01*
X-76135159Y151573401D01*
X-76104788Y151577769D01*
X-76074802Y151584291D01*
X-76070523Y151582695D01*
G37*
%TD.AperFunction*%
%TA.AperFunction,Conductor*%
G36*
X-83726265Y139540852D02*
G01*
X-83701811Y139521864D01*
X-83689145Y139509198D01*
X-83643229Y139495715D01*
X-83597474Y139442911D01*
X-83587530Y139373753D01*
X-83616555Y139310197D01*
X-83622587Y139303719D01*
X-83803887Y139122418D01*
X-83830815Y139107715D01*
X-83856633Y139091122D01*
X-83862834Y139090231D01*
X-83865210Y139088933D01*
X-83891568Y139086099D01*
X-83964529Y139086099D01*
X-84031568Y139105784D01*
X-84077323Y139158588D01*
X-84087267Y139227746D01*
X-84058242Y139291302D01*
X-84052210Y139297780D01*
X-83979038Y139370953D01*
X-83979037Y139370954D01*
X-83979035Y139370956D01*
X-83902374Y139485688D01*
X-83902373Y139485692D01*
X-83902371Y139485694D01*
X-83899501Y139491062D01*
X-83897365Y139489920D01*
X-83860256Y139536008D01*
X-83793972Y139558102D01*
X-83726265Y139540852D01*
G37*
%TD.AperFunction*%
%TA.AperFunction,Conductor*%
G36*
X-81157983Y142112315D02*
G01*
X-81137341Y142095681D01*
X-81128141Y142086481D01*
X-81094656Y142025158D01*
X-81099640Y141955466D01*
X-81141512Y141899533D01*
X-81206976Y141875116D01*
X-81215822Y141874800D01*
X-81498817Y141874800D01*
X-81498824Y141874799D01*
X-81558432Y141868391D01*
X-81565976Y141866608D01*
X-81566469Y141868691D01*
X-81625224Y141864490D01*
X-81632123Y141866516D01*
X-81637977Y141867899D01*
X-81697505Y141874300D01*
X-81745349Y141874300D01*
X-81745349Y141841186D01*
X-81765034Y141774147D01*
X-81780248Y141754948D01*
X-81787128Y141747841D01*
X-81808493Y141731846D01*
X-81828586Y141705006D01*
X-81834046Y141699364D01*
X-81857880Y141685840D01*
X-81879815Y141669420D01*
X-81887827Y141668848D01*
X-81894814Y141664882D01*
X-81922177Y141666391D01*
X-81949506Y141664436D01*
X-81956557Y141668286D01*
X-81964578Y141668728D01*
X-81986783Y141684791D01*
X-82010829Y141697922D01*
X-82020735Y141709353D01*
X-82021188Y141709681D01*
X-82021328Y141710038D01*
X-82022413Y141711290D01*
X-82029206Y141720364D01*
X-82037801Y141731846D01*
X-82037804Y141731848D01*
X-82037806Y141731851D01*
X-82051262Y141741924D01*
X-82093132Y141797858D01*
X-82100949Y141841189D01*
X-82100949Y141892514D01*
X-82112526Y141913715D01*
X-82107542Y141983407D01*
X-82079045Y142027749D01*
X-82011110Y142095685D01*
X-81949787Y142129167D01*
X-81923431Y142132000D01*
X-81225022Y142132000D01*
X-81157983Y142112315D01*
G37*
%TD.AperFunction*%
%TA.AperFunction,Conductor*%
G36*
X-68779188Y146526870D02*
G01*
X-68723255Y146484998D01*
X-68704816Y146449693D01*
X-68687195Y146396517D01*
X-68687191Y146396508D01*
X-68598224Y146252272D01*
X-68598221Y146252268D01*
X-68588988Y146243035D01*
X-68555503Y146181712D01*
X-68560487Y146112020D01*
X-68588985Y146067676D01*
X-68598615Y146058047D01*
X-68598619Y146058041D01*
X-68687647Y145913706D01*
X-68687652Y145913695D01*
X-68740997Y145752710D01*
X-68751148Y145653353D01*
X-68751148Y145106663D01*
X-68751147Y145106645D01*
X-68744921Y145045703D01*
X-68757691Y144977010D01*
X-68805572Y144926126D01*
X-68873362Y144909206D01*
X-68880881Y144909744D01*
X-68932324Y144915000D01*
X-68980648Y144915000D01*
X-68980648Y144215000D01*
X-67899648Y144215000D01*
X-67832609Y144195315D01*
X-67786854Y144142511D01*
X-67775648Y144091000D01*
X-67775648Y143839000D01*
X-67795333Y143771961D01*
X-67848137Y143726206D01*
X-67899648Y143715000D01*
X-70561648Y143715000D01*
X-70628687Y143734685D01*
X-70674442Y143787489D01*
X-70685648Y143839000D01*
X-70685648Y144091000D01*
X-70665963Y144158039D01*
X-70613159Y144203794D01*
X-70561648Y144215000D01*
X-69480648Y144215000D01*
X-69480648Y144915000D01*
X-69480649Y144915001D01*
X-69528955Y144915000D01*
X-69528973Y144914999D01*
X-69628256Y144904856D01*
X-69789130Y144851548D01*
X-69789141Y144851543D01*
X-69893051Y144787449D01*
X-69960443Y144769008D01*
X-70023245Y144787449D01*
X-70127156Y144851543D01*
X-70127167Y144851548D01*
X-70259207Y144895301D01*
X-70316652Y144935073D01*
X-70343475Y144999589D01*
X-70331160Y145068365D01*
X-70307890Y145100681D01*
X-68910199Y146498372D01*
X-68848880Y146531854D01*
X-68779188Y146526870D01*
G37*
%TD.AperFunction*%
%TA.AperFunction,Conductor*%
G36*
X-67098634Y149610933D02*
G01*
X-67089604Y149611578D01*
X-67066412Y149598915D01*
X-67041652Y149589680D01*
X-67032214Y149580242D01*
X-67028280Y149578094D01*
X-67016695Y149564724D01*
X-67004571Y149548529D01*
X-66975961Y149510310D01*
X-66975693Y149509953D01*
X-66860484Y149423707D01*
X-66860477Y149423703D01*
X-66725631Y149373409D01*
X-66725632Y149373409D01*
X-66718704Y149372665D01*
X-66666021Y149367000D01*
X-65887648Y149367001D01*
X-65820609Y149347317D01*
X-65774854Y149294513D01*
X-65763648Y149243001D01*
X-65763648Y148663431D01*
X-65763648Y148663429D01*
X-65763649Y148663429D01*
X-65744210Y148565711D01*
X-65744210Y148565710D01*
X-65738652Y148537763D01*
X-65738650Y148537758D01*
X-65714547Y148479570D01*
X-65689613Y148419373D01*
X-65662407Y148378656D01*
X-65618422Y148312827D01*
X-65618421Y148312826D01*
X-64392775Y147087181D01*
X-64385971Y147074720D01*
X-64375349Y147065292D01*
X-64369558Y147044662D01*
X-64359290Y147025858D01*
X-64360303Y147011695D01*
X-64356465Y146998023D01*
X-64362746Y146977540D01*
X-64364274Y146956166D01*
X-64372786Y146944797D01*
X-64376947Y146931223D01*
X-64393305Y146917387D01*
X-64406146Y146900233D01*
X-64420490Y146894392D01*
X-64430292Y146886100D01*
X-64464272Y146876561D01*
X-64526966Y146868308D01*
X-64559336Y146868308D01*
X-64618148Y146876052D01*
X-64618148Y146282500D01*
X-64112148Y146282500D01*
X-64045109Y146262815D01*
X-64024467Y146246181D01*
X-63929467Y146151181D01*
X-63918855Y146131745D01*
X-63904354Y146115011D01*
X-63900803Y146098687D01*
X-63895982Y146089858D01*
X-63896700Y146079826D01*
X-63893148Y146063500D01*
X-63893148Y145682000D01*
X-63912833Y145614961D01*
X-63965637Y145569206D01*
X-64017148Y145558000D01*
X-64119148Y145558000D01*
X-64186187Y145577685D01*
X-64231942Y145630489D01*
X-64243148Y145682000D01*
X-64243148Y145932500D01*
X-65118148Y145932500D01*
X-65118148Y145338952D01*
X-65059329Y145346694D01*
X-65026962Y145346693D01*
X-64946325Y145336077D01*
X-64882428Y145307811D01*
X-64843957Y145249486D01*
X-64839571Y145229321D01*
X-64829208Y145150595D01*
X-64829208Y145118227D01*
X-64843647Y145008551D01*
X-64843648Y145008534D01*
X-64843648Y144756453D01*
X-64829459Y144648686D01*
X-64829459Y144616314D01*
X-64840017Y144536122D01*
X-64868284Y144472226D01*
X-64926609Y144433755D01*
X-64946770Y144429369D01*
X-65026962Y144418811D01*
X-65059334Y144418811D01*
X-65167101Y144433000D01*
X-65167108Y144433000D01*
X-65419188Y144433000D01*
X-65419196Y144433000D01*
X-65526962Y144418811D01*
X-65559334Y144418811D01*
X-65639527Y144429369D01*
X-65703423Y144457636D01*
X-65741894Y144515960D01*
X-65746279Y144536117D01*
X-65757089Y144618228D01*
X-65757089Y144650597D01*
X-65749597Y144707501D01*
X-65762861Y144722625D01*
X-65778393Y144727185D01*
X-65782457Y144730960D01*
X-65785438Y144732064D01*
X-65793970Y144741655D01*
X-65810451Y144756963D01*
X-65816270Y144764699D01*
X-65817031Y144766537D01*
X-65848460Y144807496D01*
X-65848811Y144807963D01*
X-65860885Y144840109D01*
X-65873284Y144872182D01*
X-65873160Y144872790D01*
X-65873378Y144873372D01*
X-65866152Y144906961D01*
X-65859246Y144940627D01*
X-65858737Y144941420D01*
X-65858681Y144941678D01*
X-65858370Y144941991D01*
X-65848095Y144957981D01*
X-65817031Y144998463D01*
X-65817031Y144998465D01*
X-65812083Y145004912D01*
X-65810304Y145003547D01*
X-65768168Y145043719D01*
X-65759933Y145045717D01*
X-65749599Y145057501D01*
X-65757089Y145114404D01*
X-65757089Y145146773D01*
X-65752653Y145180468D01*
X-65746212Y145229392D01*
X-65717945Y145293288D01*
X-65659621Y145331759D01*
X-65639457Y145336145D01*
X-65559333Y145346693D01*
X-65526965Y145346693D01*
X-65468149Y145338951D01*
X-65468148Y145338951D01*
X-65468148Y145932500D01*
X-65925401Y145932500D01*
X-65980233Y145945282D01*
X-65991195Y145950687D01*
X-66034111Y145983617D01*
X-66177149Y146042865D01*
X-66178533Y146043048D01*
X-66187122Y146047282D01*
X-66209977Y146068303D01*
X-66234146Y146087780D01*
X-66235468Y146091750D01*
X-66238547Y146094582D01*
X-66241936Y146107531D01*
X-66242148Y146107500D01*
X-66344148Y146107500D01*
X-66411187Y146127185D01*
X-66456942Y146179989D01*
X-66468148Y146231500D01*
X-66468148Y146282500D01*
X-66118148Y146282500D01*
X-65968148Y146282500D01*
X-65618148Y146282500D01*
X-65468148Y146282500D01*
X-65118148Y146282500D01*
X-64968148Y146282500D01*
X-64968148Y146876050D01*
X-64968150Y146876051D01*
X-65026967Y146868308D01*
X-65059336Y146868308D01*
X-65118148Y146876052D01*
X-65118148Y146282500D01*
X-65468148Y146282500D01*
X-65468148Y146876051D01*
X-65468149Y146876051D01*
X-65526967Y146868308D01*
X-65559336Y146868308D01*
X-65618148Y146876052D01*
X-65618148Y146282500D01*
X-65968148Y146282500D01*
X-65968148Y146876051D01*
X-65968149Y146876051D01*
X-66026967Y146868308D01*
X-66059336Y146868308D01*
X-66118148Y146876052D01*
X-66118148Y146282500D01*
X-66468148Y146282500D01*
X-66468148Y146876050D01*
X-66468150Y146876051D01*
X-66534013Y146867381D01*
X-66534019Y146867379D01*
X-66670648Y146810786D01*
X-66670648Y146804000D01*
X-66690333Y146736961D01*
X-66743137Y146691206D01*
X-66794648Y146680000D01*
X-67651648Y146680000D01*
X-67718687Y146699685D01*
X-67764442Y146752489D01*
X-67775648Y146804000D01*
X-67775648Y147056000D01*
X-67755963Y147123039D01*
X-67703159Y147168794D01*
X-67651648Y147180000D01*
X-66800649Y147180000D01*
X-66800649Y147203308D01*
X-66800650Y147203323D01*
X-66810793Y147302608D01*
X-66864101Y147463482D01*
X-66864106Y147463493D01*
X-66953073Y147607729D01*
X-66953076Y147607733D01*
X-67011775Y147666432D01*
X-67045260Y147727755D01*
X-67040276Y147797447D01*
X-67011775Y147841794D01*
X-66906362Y147947208D01*
X-66906359Y147947211D01*
X-66818754Y148078321D01*
X-66758411Y148224003D01*
X-66727648Y148378658D01*
X-66727648Y148536342D01*
X-66727648Y148536347D01*
X-66730306Y148549702D01*
X-66730685Y148551608D01*
X-66758411Y148690997D01*
X-66764624Y148705997D01*
X-66807005Y148808315D01*
X-66818751Y148836673D01*
X-66818758Y148836686D01*
X-66906358Y148967788D01*
X-66962071Y149023501D01*
X-67017859Y149079289D01*
X-67032859Y149094289D01*
X-67032860Y149094290D01*
X-67032861Y149094291D01*
X-67163963Y149181891D01*
X-67163976Y149181898D01*
X-67304445Y149240081D01*
X-67358849Y149283922D01*
X-67380914Y149350216D01*
X-67363635Y149417915D01*
X-67331304Y149453909D01*
X-67255961Y149510311D01*
X-67215229Y149564722D01*
X-67194072Y149580561D01*
X-67175389Y149599243D01*
X-67166545Y149601168D01*
X-67159295Y149606594D01*
X-67132934Y149608480D01*
X-67107116Y149614096D01*
X-67098634Y149610933D01*
G37*
%TD.AperFunction*%
%TA.AperFunction,Conductor*%
G36*
X-63184199Y145860056D02*
G01*
X-63135677Y145830083D01*
X-62841967Y145536373D01*
X-62808482Y145475050D01*
X-62805648Y145448692D01*
X-62805648Y144595446D01*
X-62825333Y144528407D01*
X-62878137Y144482652D01*
X-62947295Y144472708D01*
X-63010851Y144501733D01*
X-63017329Y144507765D01*
X-63256329Y144746765D01*
X-63289814Y144808088D01*
X-63292648Y144834446D01*
X-63292648Y145008534D01*
X-63292649Y145008548D01*
X-63296549Y145038168D01*
X-63307783Y145123499D01*
X-63367031Y145266537D01*
X-63422596Y145338951D01*
X-63437223Y145358014D01*
X-63462417Y145423183D01*
X-63448378Y145491628D01*
X-63399564Y145541618D01*
X-63338847Y145557500D01*
X-63299599Y145557500D01*
X-63299598Y145557502D01*
X-63308267Y145623360D01*
X-63308270Y145623369D01*
X-63337919Y145694949D01*
X-63345388Y145764419D01*
X-63314113Y145826898D01*
X-63254024Y145862550D01*
X-63184199Y145860056D01*
G37*
%TD.AperFunction*%
%TA.AperFunction,Conductor*%
G36*
X-69027654Y149584772D02*
G01*
X-69016069Y149571402D01*
X-68970335Y149510310D01*
X-68855242Y149424150D01*
X-68855235Y149424146D01*
X-68720528Y149373904D01*
X-68720521Y149373902D01*
X-68660993Y149367501D01*
X-68660976Y149367500D01*
X-68578322Y149367500D01*
X-68547090Y149358330D01*
X-68515517Y149350418D01*
X-68513754Y149348541D01*
X-68511283Y149347815D01*
X-68489971Y149323220D01*
X-68467683Y149299490D01*
X-68467215Y149296958D01*
X-68465528Y149295011D01*
X-68460895Y149262786D01*
X-68454976Y149230786D01*
X-68455951Y149228404D01*
X-68455584Y149225853D01*
X-68469109Y149196239D01*
X-68481430Y149166118D01*
X-68483901Y149163850D01*
X-68484609Y149162297D01*
X-68507156Y149141955D01*
X-68508305Y149141150D01*
X-68578437Y149094289D01*
X-68578438Y149094288D01*
X-68586089Y149086638D01*
X-68586092Y149086635D01*
X-70659839Y147012887D01*
X-70721162Y146979402D01*
X-70790854Y146984386D01*
X-70846787Y147026258D01*
X-70871204Y147091722D01*
X-70871520Y147100568D01*
X-70871520Y148935820D01*
X-70851835Y149002859D01*
X-70835201Y149023501D01*
X-70607874Y149250828D01*
X-70607872Y149250830D01*
X-70572858Y149303234D01*
X-70567072Y149311892D01*
X-70513460Y149356697D01*
X-70463970Y149367001D01*
X-69570277Y149367001D01*
X-69570276Y149367001D01*
X-69510665Y149373409D01*
X-69375817Y149423704D01*
X-69260602Y149509954D01*
X-69214601Y149571404D01*
X-69158669Y149613273D01*
X-69088977Y149618257D01*
X-69027654Y149584772D01*
G37*
%TD.AperFunction*%
%TA.AperFunction,Conductor*%
G36*
X-68106773Y151613466D02*
G01*
X-68086477Y151614917D01*
X-68073054Y151607587D01*
X-68057985Y151604960D01*
X-68028875Y151585001D01*
X-67903187Y151469354D01*
X-67867182Y151409476D01*
X-67863148Y151378104D01*
X-67863148Y150491500D01*
X-67882833Y150424461D01*
X-67935637Y150378706D01*
X-67987148Y150367500D01*
X-68239148Y150367500D01*
X-68306187Y150387185D01*
X-68351942Y150439989D01*
X-68363148Y150491500D01*
X-68363148Y151367376D01*
X-68343463Y151434415D01*
X-68313462Y151466641D01*
X-68255602Y151509954D01*
X-68212102Y151568064D01*
X-68199858Y151577229D01*
X-68191209Y151589843D01*
X-68172459Y151597740D01*
X-68156169Y151609933D01*
X-68140912Y151611025D01*
X-68126816Y151616960D01*
X-68106773Y151613466D01*
G37*
%TD.AperFunction*%
%TD*%
M02*
