M48
; DRILL file {KiCad 9.0.4} date 2026-01-28T15:28:06+0100
; FORMAT={-:-/ absolute / metric / decimal}
; #@! TF.CreationDate,2026-01-28T15:28:06+01:00
; #@! TF.GenerationSoftware,Kicad,Pcbnew,9.0.4
; #@! TF.FileFunction,Plated,1,4,PTH
FMAT,2
METRIC
; #@! TA.AperFunction,Plated,PTH,ViaDrill
T1C0.300
; #@! TA.AperFunction,Plated,PTH,ComponentDrill
T2C0.600
%
G90
G05
T1
X-86.108Y132.412
X-83.846Y139.197
X-83.846Y137.686
X-82.913Y130.862
X-82.913Y129.677
X-81.753Y143.917
X-81.268Y139.183
X-80.378Y128.533
X-78.923Y132.088
X-78.288Y132.938
X-77.623Y134.347
X-77.118Y115.907
X-77.108Y117.188
X-76.948Y134.998
X-75.913Y127.512
X-75.913Y126.052
X-75.223Y144.022
X-75.108Y152.368
X-74.398Y129.787
X-74.363Y127.512
X-74.363Y126.052
X-74.128Y117.617
X-74.113Y150.368
X-74.113Y114.362
X-74.108Y115.858
X-73.863Y145.248
X-73.603Y139.422
X-73.113Y150.368
X-72.926Y149.188
X-72.911Y146.89
X-72.833Y135.273
X-72.813Y134.267
X-72.753Y130.088
X-72.752Y131.567
X-72.178Y133.278
X-72.113Y150.368
X-71.522Y146.15
X-70.773Y130.267
X-70.688Y141.088
X-70.658Y142.407
X-70.478Y148.457
X-70.122Y136.064
X-70.113Y150.778
X-70.008Y137.852
X-69.901Y125.328
X-69.763Y141.415
X-69.623Y126.247
X-69.113Y152.368
X-68.589Y119.641
X-68.589Y118.841
X-68.503Y130.522
X-68.453Y141.039
X-68.013Y123.172
X-67.939Y118.191
X-67.838Y126.247
X-67.838Y124.407
X-67.602Y129.472
X-67.528Y148.457
X-67.113Y152.368
X-67.108Y118.447
X-66.86Y134.389
X-66.526Y142.275
X-66.163Y134.942
X-66.118Y150.778
X-65.968Y147.207
X-65.373Y141.121
X-65.099Y137.186
X-64.299Y137.196
X-64.128Y150.373
X-63.775Y124.322
X-63.433Y143.192
X-63.278Y129.202
X-63.158Y116.102
X-62.798Y141.602
X-62.613Y124.322
X-62.383Y138.552
X-62.158Y116.012
X-62.143Y128.662
X-62.136Y127.002
X-62.136Y117.547
X-62.007Y141.487
X-61.878Y140.028
X-61.383Y136.503
X-61.188Y132.588
X-61.183Y123.122
X-61.112Y119.176
X-61.103Y152.362
X-60.618Y130.512
X-60.616Y115.397
X-60.003Y140.977
X-59.998Y139.047
X-59.349Y132.588
X-59.131Y120.968
X-59.123Y114.367
X-59.098Y140.257
X-58.778Y138.802
X-58.608Y143.447
X-58.288Y146.852
X-58.251Y127.652
X-58.06Y141.251
X-57.478Y119.177
X-55.668Y141.748
X-55.668Y136.947
X-55.373Y127.747
T2
G00X-55.618Y143.667
M15
G01X-54.518Y143.667
M16
G05
G00X-55.618Y135.028
M15
G01X-54.518Y135.028
M16
G05
G00X-51.268Y143.667
M15
G01X-50.468Y143.667
M16
G05
G00X-51.268Y135.028
M15
G01X-50.468Y135.028
M16
G05
M30
