%TF.GenerationSoftware,KiCad,Pcbnew,9.0.4*%
%TF.CreationDate,2026-01-28T15:28:04+01:00*%
%TF.ProjectId,ShiroFPV_Flight_Controller,53686972-6f46-4505-965f-466c69676874,2026-01-27*%
%TF.SameCoordinates,PX7bfa480PYb532b80*%
%TF.FileFunction,Copper,L4,Bot*%
%TF.FilePolarity,Positive*%
%FSLAX46Y46*%
G04 Gerber Fmt 4.6, Leading zero omitted, Abs format (unit mm)*
G04 Created by KiCad (PCBNEW 9.0.4) date 2026-01-28 15:28:04*
%MOMM*%
%LPD*%
G01*
G04 APERTURE LIST*
G04 Aperture macros list*
%AMRoundRect*
0 Rectangle with rounded corners*
0 $1 Rounding radius*
0 $2 $3 $4 $5 $6 $7 $8 $9 X,Y pos of 4 corners*
0 Add a 4 corners polygon primitive as box body*
4,1,4,$2,$3,$4,$5,$6,$7,$8,$9,$2,$3,0*
0 Add four circle primitives for the rounded corners*
1,1,$1+$1,$2,$3*
1,1,$1+$1,$4,$5*
1,1,$1+$1,$6,$7*
1,1,$1+$1,$8,$9*
0 Add four rect primitives between the rounded corners*
20,1,$1+$1,$2,$3,$4,$5,0*
20,1,$1+$1,$4,$5,$6,$7,0*
20,1,$1+$1,$6,$7,$8,$9,0*
20,1,$1+$1,$8,$9,$2,$3,0*%
G04 Aperture macros list end*
%TA.AperFunction,HeatsinkPad*%
%ADD10O,2.100000X1.000000*%
%TD*%
%TA.AperFunction,HeatsinkPad*%
%ADD11O,1.800000X1.000000*%
%TD*%
%TA.AperFunction,SMDPad,CuDef*%
%ADD12RoundRect,0.225000X-0.225000X-0.250000X0.225000X-0.250000X0.225000X0.250000X-0.225000X0.250000X0*%
%TD*%
%TA.AperFunction,SMDPad,CuDef*%
%ADD13RoundRect,0.225000X0.250000X-0.225000X0.250000X0.225000X-0.250000X0.225000X-0.250000X-0.225000X0*%
%TD*%
%TA.AperFunction,SMDPad,CuDef*%
%ADD14RoundRect,0.200000X0.275000X-0.200000X0.275000X0.200000X-0.275000X0.200000X-0.275000X-0.200000X0*%
%TD*%
%TA.AperFunction,SMDPad,CuDef*%
%ADD15RoundRect,0.250000X-0.375000X-0.625000X0.375000X-0.625000X0.375000X0.625000X-0.375000X0.625000X0*%
%TD*%
%TA.AperFunction,SMDPad,CuDef*%
%ADD16RoundRect,0.200000X-0.275000X0.200000X-0.275000X-0.200000X0.275000X-0.200000X0.275000X0.200000X0*%
%TD*%
%TA.AperFunction,SMDPad,CuDef*%
%ADD17R,1.000000X1.000000*%
%TD*%
%TA.AperFunction,SMDPad,CuDef*%
%ADD18RoundRect,0.225000X0.225000X0.250000X-0.225000X0.250000X-0.225000X-0.250000X0.225000X-0.250000X0*%
%TD*%
%TA.AperFunction,SMDPad,CuDef*%
%ADD19RoundRect,0.150000X0.587500X0.150000X-0.587500X0.150000X-0.587500X-0.150000X0.587500X-0.150000X0*%
%TD*%
%TA.AperFunction,SMDPad,CuDef*%
%ADD20RoundRect,0.225000X-0.250000X0.225000X-0.250000X-0.225000X0.250000X-0.225000X0.250000X0.225000X0*%
%TD*%
%TA.AperFunction,SMDPad,CuDef*%
%ADD21RoundRect,0.250000X0.650000X-0.325000X0.650000X0.325000X-0.650000X0.325000X-0.650000X-0.325000X0*%
%TD*%
%TA.AperFunction,SMDPad,CuDef*%
%ADD22RoundRect,0.200000X0.200000X0.275000X-0.200000X0.275000X-0.200000X-0.275000X0.200000X-0.275000X0*%
%TD*%
%TA.AperFunction,SMDPad,CuDef*%
%ADD23RoundRect,0.250000X0.250000X0.250000X-0.250000X0.250000X-0.250000X-0.250000X0.250000X-0.250000X0*%
%TD*%
%TA.AperFunction,SMDPad,CuDef*%
%ADD24RoundRect,0.150000X0.150000X-0.512500X0.150000X0.512500X-0.150000X0.512500X-0.150000X-0.512500X0*%
%TD*%
%TA.AperFunction,SMDPad,CuDef*%
%ADD25RoundRect,0.112500X-0.112500X-0.237500X0.112500X-0.237500X0.112500X0.237500X-0.112500X0.237500X0*%
%TD*%
%TA.AperFunction,SMDPad,CuDef*%
%ADD26RoundRect,0.250000X-0.650000X0.325000X-0.650000X-0.325000X0.650000X-0.325000X0.650000X0.325000X0*%
%TD*%
%TA.AperFunction,SMDPad,CuDef*%
%ADD27R,1.500000X1.000000*%
%TD*%
%TA.AperFunction,SMDPad,CuDef*%
%ADD28RoundRect,0.250001X-0.999999X0.499999X-0.999999X-0.499999X0.999999X-0.499999X0.999999X0.499999X0*%
%TD*%
%TA.AperFunction,SMDPad,CuDef*%
%ADD29RoundRect,0.150000X0.512500X0.150000X-0.512500X0.150000X-0.512500X-0.150000X0.512500X-0.150000X0*%
%TD*%
%TA.AperFunction,SMDPad,CuDef*%
%ADD30RoundRect,0.250000X0.325000X0.650000X-0.325000X0.650000X-0.325000X-0.650000X0.325000X-0.650000X0*%
%TD*%
%TA.AperFunction,SMDPad,CuDef*%
%ADD31RoundRect,0.150000X-0.150000X0.587500X-0.150000X-0.587500X0.150000X-0.587500X0.150000X0.587500X0*%
%TD*%
%TA.AperFunction,SMDPad,CuDef*%
%ADD32RoundRect,0.250001X-0.499999X-0.999999X0.499999X-0.999999X0.499999X0.999999X-0.499999X0.999999X0*%
%TD*%
%TA.AperFunction,SMDPad,CuDef*%
%ADD33RoundRect,0.200000X-0.200000X-0.275000X0.200000X-0.275000X0.200000X0.275000X-0.200000X0.275000X0*%
%TD*%
%TA.AperFunction,SMDPad,CuDef*%
%ADD34RoundRect,0.150000X-0.587500X-0.150000X0.587500X-0.150000X0.587500X0.150000X-0.587500X0.150000X0*%
%TD*%
%TA.AperFunction,ViaPad*%
%ADD35C,0.600000*%
%TD*%
%TA.AperFunction,Conductor*%
%ADD36C,0.800000*%
%TD*%
%TA.AperFunction,Conductor*%
%ADD37C,0.300000*%
%TD*%
%TA.AperFunction,Conductor*%
%ADD38C,0.600000*%
%TD*%
%TA.AperFunction,Conductor*%
%ADD39C,0.500000*%
%TD*%
%TA.AperFunction,Conductor*%
%ADD40C,0.200000*%
%TD*%
%TA.AperFunction,Conductor*%
%ADD41C,0.400000*%
%TD*%
%TA.AperFunction,Conductor*%
%ADD42C,1.000000*%
%TD*%
%TA.AperFunction,Conductor*%
%ADD43C,0.900000*%
%TD*%
%TA.AperFunction,Conductor*%
%ADD44C,1.100000*%
%TD*%
%TA.AperFunction,Conductor*%
%ADD45C,1.200000*%
%TD*%
G04 APERTURE END LIST*
D10*
%TO.P,P1,S1,SHIELD*%
%TO.N,GND*%
X-55068148Y135027500D03*
D11*
X-50868148Y135027500D03*
D10*
X-55068148Y143667500D03*
D11*
X-50868148Y143667500D03*
%TD*%
D12*
%TO.P,C5,1*%
%TO.N,+5V*%
X-75413148Y145247500D03*
%TO.P,C5,2*%
%TO.N,GND*%
X-73863148Y145247500D03*
%TD*%
D13*
%TO.P,C17,1*%
%TO.N,+5V_BEC*%
X-61593148Y147207500D03*
%TO.P,C17,2*%
%TO.N,Net-(U5-FB)*%
X-61593148Y148757500D03*
%TD*%
D14*
%TO.P,R21,1*%
%TO.N,ADC_VBAT*%
X-58250648Y126002500D03*
%TO.P,R21,2*%
%TO.N,GND*%
X-58250648Y127652500D03*
%TD*%
D15*
%TO.P,F1,1*%
%TO.N,VBAT*%
X-85225648Y138242500D03*
%TO.P,F1,2*%
%TO.N,Net-(Q1-D)*%
X-82425648Y138242500D03*
%TD*%
D16*
%TO.P,R22,1*%
%TO.N,SBUS*%
X-71415648Y138277500D03*
%TO.P,R22,2*%
%TO.N,Net-(Q3-B)*%
X-71415648Y136627500D03*
%TD*%
D17*
%TO.P,J4,1,Pin_1*%
%TO.N,VBAT*%
X-65118148Y114367500D03*
%TD*%
D18*
%TO.P,C2,1*%
%TO.N,Net-(U5-SW)*%
X-67408148Y146582500D03*
%TO.P,C2,2*%
%TO.N,Net-(U5-BOOT)*%
X-68958148Y146582500D03*
%TD*%
D19*
%TO.P,Q2,1,D*%
%TO.N,BEEPER_B-*%
X-60003148Y140977500D03*
%TO.P,Q2,2,G*%
%TO.N,BEEPER*%
X-60003148Y139077500D03*
%TO.P,Q2,3,S*%
%TO.N,GND*%
X-61878148Y140027500D03*
%TD*%
D20*
%TO.P,C15,1*%
%TO.N,VIN*%
X-65968148Y148757500D03*
%TO.P,C15,2*%
%TO.N,GND*%
X-65968148Y147207500D03*
%TD*%
D17*
%TO.P,J6,1,Pin_1*%
%TO.N,M2*%
X-69118148Y114367500D03*
%TD*%
D14*
%TO.P,R2,1*%
%TO.N,GND*%
X-64508148Y147157500D03*
%TO.P,R2,2*%
%TO.N,Net-(U5-FB)*%
X-64508148Y148807500D03*
%TD*%
D18*
%TO.P,C20,1*%
%TO.N,VIN*%
X-57530648Y121017500D03*
%TO.P,C20,2*%
%TO.N,GND*%
X-59080648Y121017500D03*
%TD*%
D21*
%TO.P,C14,1*%
%TO.N,VIN*%
X-64985648Y122582500D03*
%TO.P,C14,2*%
%TO.N,GND*%
X-64985648Y125532500D03*
%TD*%
D22*
%TO.P,R11,1*%
%TO.N,Net-(D1-A)*%
X-82193148Y140282500D03*
%TO.P,R11,2*%
%TO.N,GND*%
X-83843148Y140282500D03*
%TD*%
D23*
%TO.P,D1,1,K*%
%TO.N,VIN*%
X-77263148Y141982500D03*
%TO.P,D1,2,A*%
%TO.N,Net-(D1-A)*%
X-79763148Y141982500D03*
%TD*%
D17*
%TO.P,J8,1,Pin_1*%
%TO.N,M4*%
X-73118148Y114367500D03*
%TD*%
D16*
%TO.P,R5,1*%
%TO.N,BOOT0*%
X-72753148Y131737500D03*
%TO.P,R5,2*%
%TO.N,GND*%
X-72753148Y130087500D03*
%TD*%
D17*
%TO.P,J5,1,Pin_1*%
%TO.N,M1*%
X-67118148Y114367500D03*
%TD*%
D14*
%TO.P,R1,1*%
%TO.N,+5V_BEC*%
X-63048148Y147157500D03*
%TO.P,R1,2*%
%TO.N,Net-(U5-FB)*%
X-63048148Y148807500D03*
%TD*%
D24*
%TO.P,U6,1,GND*%
%TO.N,GND*%
X-61185648Y123160000D03*
%TO.P,U6,2,SW*%
%TO.N,Net-(U6-SW)*%
X-62135648Y123160000D03*
%TO.P,U6,3,VIN*%
%TO.N,VIN*%
X-63085648Y123160000D03*
%TO.P,U6,4,FB*%
%TO.N,Net-(U6-FB)*%
X-63085648Y125435000D03*
%TO.P,U6,5,EN*%
%TO.N,9V_Enable*%
X-62135648Y125435000D03*
%TO.P,U6,6,BOOT*%
%TO.N,Net-(U6-BOOT)*%
X-61185648Y125435000D03*
%TD*%
D17*
%TO.P,J2,1,Pin_1*%
%TO.N,GND*%
X-61118148Y114367500D03*
%TD*%
%TO.P,J7,1,Pin_1*%
%TO.N,M3*%
X-71118148Y114367500D03*
%TD*%
D18*
%TO.P,C4,1*%
%TO.N,GND*%
X-67838148Y126247500D03*
%TO.P,C4,2*%
%TO.N,Net-(U1-NRST)*%
X-69388148Y126247500D03*
%TD*%
D16*
%TO.P,R10,1*%
%TO.N,+5V*%
X-72880648Y138287500D03*
%TO.P,R10,2*%
%TO.N,UART5TX*%
X-72880648Y136637500D03*
%TD*%
D17*
%TO.P,J3,1,Pin_1*%
%TO.N,VBAT*%
X-63118148Y114367500D03*
%TD*%
D13*
%TO.P,C16,1*%
%TO.N,Net-(U6-SW)*%
X-59705648Y123097500D03*
%TO.P,C16,2*%
%TO.N,Net-(U6-BOOT)*%
X-59705648Y124647500D03*
%TD*%
D17*
%TO.P,J9,1,Pin_1*%
%TO.N,ADC_CURRENT*%
X-75118148Y114367500D03*
%TD*%
D25*
%TO.P,Q3,1,C*%
%TO.N,UART5TX*%
X-72833148Y135272500D03*
%TO.P,Q3,2,B*%
%TO.N,Net-(Q3-B)*%
X-71533148Y135272500D03*
%TO.P,Q3,3,E*%
%TO.N,GND*%
X-72183148Y133272500D03*
%TD*%
D22*
%TO.P,R8,1*%
%TO.N,Net-(U6-FB)*%
X-57480648Y119562500D03*
%TO.P,R8,2*%
%TO.N,GND*%
X-59130648Y119562500D03*
%TD*%
D26*
%TO.P,C19,1*%
%TO.N,+10V*%
X-66158148Y120272500D03*
%TO.P,C19,2*%
%TO.N,GND*%
X-66158148Y117322500D03*
%TD*%
D17*
%TO.P,J1,1,Pin_1*%
%TO.N,GND*%
X-59123148Y114367500D03*
%TD*%
D27*
%TO.P,JP1,1,A*%
%TO.N,+3.3V*%
X-70773148Y130267500D03*
%TO.P,JP1,2,B*%
%TO.N,BOOT0*%
X-70773148Y131567500D03*
%TD*%
D17*
%TO.P,J10,1,Pin_1*%
%TO.N,UART2RX*%
X-77118148Y114367500D03*
%TD*%
D28*
%TO.P,L2,1,1*%
%TO.N,Net-(U6-SW)*%
X-62135648Y121247500D03*
%TO.P,L2,2,2*%
%TO.N,+10V*%
X-62135648Y117547500D03*
%TD*%
D29*
%TO.P,U5,1,GND*%
%TO.N,GND*%
X-66615648Y145102500D03*
%TO.P,U5,2,SW*%
%TO.N,Net-(U5-SW)*%
X-66615648Y144152500D03*
%TO.P,U5,3,VIN*%
%TO.N,VIN*%
X-66615648Y143202500D03*
%TO.P,U5,4,FB*%
%TO.N,Net-(U5-FB)*%
X-68890648Y143202500D03*
%TO.P,U5,5,EN*%
%TO.N,unconnected-(U5-EN-Pad5)*%
X-68890648Y144152500D03*
%TO.P,U5,6,BOOT*%
%TO.N,Net-(U5-BOOT)*%
X-68890648Y145102500D03*
%TD*%
D21*
%TO.P,C18,1*%
%TO.N,+5V_BEC*%
X-59713148Y147332500D03*
%TO.P,C18,2*%
%TO.N,GND*%
X-59713148Y150282500D03*
%TD*%
D14*
%TO.P,R27,1*%
%TO.N,VIN*%
X-58250648Y123047500D03*
%TO.P,R27,2*%
%TO.N,ADC_VBAT*%
X-58250648Y124697500D03*
%TD*%
D30*
%TO.P,C38,1*%
%TO.N,VIN*%
X-67528148Y148457500D03*
%TO.P,C38,2*%
%TO.N,GND*%
X-70478148Y148457500D03*
%TD*%
D12*
%TO.P,C22,1*%
%TO.N,+10V*%
X-59080648Y116647500D03*
%TO.P,C22,2*%
%TO.N,Net-(U6-FB)*%
X-57530648Y116647500D03*
%TD*%
D24*
%TO.P,U7,1,VIN*%
%TO.N,+5V*%
X-72910648Y146890000D03*
%TO.P,U7,2,GND*%
%TO.N,GND*%
X-73860648Y146890000D03*
%TO.P,U7,3,ON/~{OFF}*%
%TO.N,+5V*%
X-74810648Y146890000D03*
%TO.P,U7,4,BP*%
%TO.N,unconnected-(U7-BP-Pad4)*%
X-74810648Y149165000D03*
%TO.P,U7,5,VOUT*%
%TO.N,+3.3V*%
X-72910648Y149165000D03*
%TD*%
D31*
%TO.P,D4,1*%
%TO.N,+5V_BEC*%
X-59558148Y145322500D03*
%TO.P,D4,2*%
%TO.N,VBUS*%
X-57658148Y145322500D03*
%TO.P,D4,3*%
%TO.N,+5V*%
X-58608148Y143447500D03*
%TD*%
D16*
%TO.P,R9,1*%
%TO.N,+3.3V*%
X-62135648Y128652500D03*
%TO.P,R9,2*%
%TO.N,9V_Enable*%
X-62135648Y127002500D03*
%TD*%
D32*
%TO.P,L1,1,1*%
%TO.N,Net-(U5-SW)*%
X-64703148Y144152500D03*
%TO.P,L1,2,2*%
%TO.N,+5V_BEC*%
X-61003148Y144152500D03*
%TD*%
D33*
%TO.P,R7,1*%
%TO.N,+10V*%
X-59130648Y118107500D03*
%TO.P,R7,2*%
%TO.N,Net-(U6-FB)*%
X-57480648Y118107500D03*
%TD*%
D34*
%TO.P,Q1,1,D*%
%TO.N,Net-(Q1-D)*%
X-80548148Y138382500D03*
%TO.P,Q1,2,G*%
%TO.N,Net-(D1-A)*%
X-80548148Y140282500D03*
%TO.P,Q1,3,S*%
%TO.N,VIN*%
X-78673148Y139332500D03*
%TD*%
D35*
%TO.N,BOOT0*%
X-72752148Y131567500D03*
%TO.N,BEEPER*%
X-59998148Y139047500D03*
X-61382768Y136502880D03*
X-68503149Y130521738D03*
%TO.N,+5V*%
X-72910648Y146890000D03*
X-74113146Y114362500D03*
X-62158148Y116012500D03*
X-81267745Y139182500D03*
X-86108146Y132412500D03*
X-64128148Y150372500D03*
X-61103148Y152362500D03*
X-58608148Y143447500D03*
X-58060017Y141251448D03*
X-70113148Y150777500D03*
%TO.N,GYRO_INIT*%
X-68453441Y141038579D03*
X-63433148Y143192500D03*
%TO.N,GND*%
X-75913148Y127512500D03*
X-60615648Y115397500D03*
X-63774648Y124321500D03*
X-65968148Y147207500D03*
X-67838148Y126247500D03*
X-74108148Y115857500D03*
X-63158148Y116102500D03*
X-61878148Y140027500D03*
X-73863148Y145247500D03*
X-83845648Y139197500D03*
X-83845648Y137685599D03*
X-59123148Y114367500D03*
X-61183148Y123122500D03*
X-72753148Y130087500D03*
X-67113148Y152367500D03*
X-75913148Y126052500D03*
X-62613148Y124322500D03*
X-72178148Y133277500D03*
X-74128148Y117617500D03*
X-59130648Y120967500D03*
X-58250648Y127652500D03*
X-70478148Y148457500D03*
%TO.N,+3.3V*%
X-80378150Y128532907D03*
X-55373148Y127747500D03*
X-70658148Y142407500D03*
X-74398148Y129787500D03*
X-67838148Y124407500D03*
X-60618148Y130512500D03*
X-74363148Y127512500D03*
X-62143148Y128662500D03*
X-74363148Y126052500D03*
X-62383148Y138552500D03*
X-73603148Y139422500D03*
X-82913148Y129677500D03*
X-72925648Y149187500D03*
X-70773148Y130267500D03*
X-82913148Y130862500D03*
%TO.N,GYRO_SCK*%
X-65373148Y141120735D03*
X-66525807Y142274785D03*
%TO.N,VIN*%
X-67528148Y148457500D03*
X-75223148Y144022500D03*
%TO.N,USBD-*%
X-59098148Y140257500D03*
X-70008148Y137852500D03*
%TO.N,ADC_RSSI*%
X-69901403Y125327501D03*
X-67939148Y118190870D03*
%TO.N,ADC_VBAT*%
X-67602500Y129472500D03*
%TO.N,FLASH_MISO*%
X-61188148Y132587500D03*
X-59348528Y132587880D03*
%TO.N,USBD+*%
X-58777791Y138802429D03*
X-70121518Y136064130D03*
%TO.N,V_OUT*%
X-81753148Y143917500D03*
X-75108148Y152367500D03*
%TO.N,VBUS*%
X-55668148Y136947500D03*
X-55668148Y141747500D03*
%TO.N,Net-(U6-FB)*%
X-61112148Y119176500D03*
X-57478148Y119177500D03*
%TO.N,9V_Enable*%
X-62135648Y127002500D03*
%TO.N,SBUS*%
X-67108148Y118447500D03*
%TO.N,ADC_CURRENT*%
X-77108148Y117187500D03*
%TO.N,UART2RX*%
X-77118148Y115907500D03*
X-68013148Y123172500D03*
X-63278148Y129202500D03*
%TO.N,UART3TX*%
X-62798386Y141601501D03*
X-65099407Y137185922D03*
%TO.N,UART3RX*%
X-64299462Y137195538D03*
X-62006548Y141487500D03*
%TO.N,UART6TX*%
X-72113148Y150367500D03*
X-66163148Y134942500D03*
%TO.N,UART6RX*%
X-74113148Y150367500D03*
X-66859899Y134389251D03*
%TO.N,UART1TX*%
X-73113148Y150368500D03*
X-69763148Y141415380D03*
%TO.N,UART1RX*%
X-70688148Y141087500D03*
X-71522020Y146150000D03*
%TO.N,UART5TX*%
X-72833148Y135272500D03*
X-68589148Y118840869D03*
%TO.N,UART5RX*%
X-68589148Y119640872D03*
X-72813148Y134267500D03*
%TO.N,M1*%
X-76948148Y134997500D03*
%TO.N,M2*%
X-77623148Y134347500D03*
%TO.N,M3*%
X-78288148Y132937500D03*
%TO.N,M4*%
X-78923394Y132087500D03*
%TO.N,BEEPER_B-*%
X-66118148Y150777500D03*
X-58288148Y146852500D03*
X-60003148Y140977500D03*
%TO.N,+10V*%
X-62135648Y117547500D03*
X-69113148Y152367500D03*
%TO.N,Net-(U1-NRST)*%
X-69623148Y126247500D03*
%TD*%
D36*
%TO.N,BOOT0*%
X-72752148Y131567500D02*
X-70773148Y131567500D01*
D37*
%TO.N,BEEPER*%
X-60003148Y139052500D02*
X-59998148Y139047500D01*
X-60003148Y139077500D02*
X-60003148Y139052500D01*
X-61608528Y136277120D02*
X-61382768Y136502880D01*
X-61608528Y136272102D02*
X-61608528Y136277120D01*
X-67358892Y130521738D02*
X-61608528Y136272102D01*
X-68503149Y130521738D02*
X-67358892Y130521738D01*
D38*
%TO.N,+5V*%
X-75611648Y148353500D02*
X-74810648Y147552500D01*
X-74810648Y147552500D02*
X-74810648Y146890000D01*
X-75413148Y145247500D02*
X-74810648Y145850000D01*
X-72103148Y139407500D02*
X-72880648Y138630000D01*
X-74810648Y145850000D02*
X-74810648Y146890000D01*
X-70538148Y151202500D02*
X-74410934Y151202500D01*
X-73423148Y148062500D02*
X-74300648Y148062500D01*
X-75611648Y150001786D02*
X-75611648Y148353500D01*
X-61543148Y137922500D02*
X-63123148Y136342500D01*
X-63123148Y136342500D02*
X-65583148Y136342500D01*
X-70113148Y150777500D02*
X-70538148Y151202500D01*
X-58060017Y141251448D02*
X-57679148Y140870579D01*
X-72910648Y147550000D02*
X-73423148Y148062500D01*
X-74300648Y148062500D02*
X-74810648Y147552500D01*
D39*
X-58608148Y143447500D02*
X-58603148Y143447500D01*
D38*
X-65583148Y136342500D02*
X-68648148Y139407500D01*
X-58408148Y137922500D02*
X-61543148Y137922500D01*
X-57679148Y140870579D02*
X-57679148Y138651500D01*
X-72910648Y146890000D02*
X-72910648Y147550000D01*
X-72880648Y138630000D02*
X-72880648Y138287500D01*
X-74410934Y151202500D02*
X-75611648Y150001786D01*
X-68648148Y139407500D02*
X-72103148Y139407500D01*
X-57679148Y138651500D02*
X-58408148Y137922500D01*
D40*
%TO.N,GND*%
X-73863148Y146887500D02*
X-73860648Y146890000D01*
D38*
X-83845648Y140102500D02*
X-83845648Y139197500D01*
X-59130648Y120967500D02*
X-59080648Y121017500D01*
D41*
X-83845648Y137685599D02*
X-83845648Y139197500D01*
D36*
X-65913148Y147152500D02*
X-64613148Y147152500D01*
D37*
X-72183148Y133272500D02*
X-72178148Y133277500D01*
D39*
X-64985648Y125532500D02*
X-63774648Y124321500D01*
D38*
X-64558148Y147207500D02*
X-64508148Y147157500D01*
D39*
X-61780548Y124321500D02*
X-61185648Y123726600D01*
D42*
X-61118148Y114367500D02*
X-59123148Y114367500D01*
D39*
X-63774648Y124321500D02*
X-61780548Y124321500D01*
D41*
X-66158148Y117322500D02*
X-65533148Y117322500D01*
D39*
X-61185648Y123726600D02*
X-61185648Y123160000D01*
D41*
X-65533148Y117322500D02*
X-63522148Y115311500D01*
D36*
X-59130648Y119562500D02*
X-59130648Y120967500D01*
D41*
X-62062148Y115311500D02*
X-61118148Y114367500D01*
D36*
X-65968148Y147207500D02*
X-65913148Y147152500D01*
D38*
X-65968148Y147207500D02*
X-65968148Y145750000D01*
X-65968148Y145750000D02*
X-66615648Y145102500D01*
D41*
X-63522148Y115311500D02*
X-62062148Y115311500D01*
D38*
X-73863148Y145247500D02*
X-73863148Y146887500D01*
D40*
%TO.N,GYRO_SCK*%
X-66525807Y142274785D02*
X-66525807Y142273394D01*
X-66525807Y142273394D02*
X-65373148Y141120735D01*
D38*
%TO.N,VIN*%
X-76143148Y140222500D02*
X-77263148Y141342500D01*
X-63088148Y123162500D02*
X-63085648Y123160000D01*
X-67375913Y142556051D02*
X-67375913Y140984735D01*
X-63658148Y119977500D02*
X-60833148Y119977500D01*
D36*
X-58328148Y123047500D02*
X-58328148Y122325000D01*
D38*
X-75223148Y144022500D02*
X-77263148Y141982500D01*
X-59507862Y122112500D02*
X-57645648Y122112500D01*
X-60868148Y142067500D02*
X-61202148Y142401500D01*
X-56878148Y141202365D02*
X-57743283Y142067500D01*
X-63890648Y123162500D02*
X-63088148Y123162500D01*
X-64985648Y122582500D02*
X-64470648Y122582500D01*
X-61202148Y142401500D02*
X-63091362Y142401500D01*
X-63890648Y120210000D02*
X-63890648Y123162500D01*
D43*
X-57530648Y121997500D02*
X-57530648Y123000000D01*
D38*
X-57645648Y122112500D02*
X-57530648Y121997500D01*
X-60333148Y120477500D02*
X-60333148Y121287214D01*
X-63091362Y142401500D02*
X-63101362Y142391500D01*
X-67375913Y140984735D02*
X-68138148Y140222500D01*
X-77263148Y141342500D02*
X-77263148Y140742500D01*
X-63101362Y142391500D02*
X-65511150Y142391500D01*
X-57578148Y123047500D02*
X-57483148Y123047500D01*
X-77263148Y141982500D02*
X-77263148Y141342500D01*
X-60833148Y119977500D02*
X-60333148Y120477500D01*
X-66322150Y143202500D02*
X-66615648Y143202500D01*
X-63658148Y119977500D02*
X-63890648Y120210000D01*
X-77263148Y140742500D02*
X-78673148Y139332500D01*
X-57483148Y123047500D02*
X-56878148Y123652500D01*
X-60333148Y121287214D02*
X-59507862Y122112500D01*
D43*
X-57530648Y121017500D02*
X-57530648Y121997500D01*
D38*
X-65511150Y142391500D02*
X-66322150Y143202500D01*
D36*
X-57530648Y123000000D02*
X-57578148Y123047500D01*
D38*
X-64470648Y122582500D02*
X-63890648Y123162500D01*
X-57743283Y142067500D02*
X-60868148Y142067500D01*
X-68138148Y140222500D02*
X-76143148Y140222500D01*
D36*
X-57578148Y123047500D02*
X-58250648Y123047500D01*
D43*
X-65968148Y148757500D02*
X-67228148Y148757500D01*
D38*
X-66615648Y143202500D02*
X-66729464Y143202500D01*
X-66729464Y143202500D02*
X-67375913Y142556051D01*
X-56878148Y123652500D02*
X-56878148Y141202365D01*
X-67228148Y148757500D02*
X-67528148Y148457500D01*
D37*
%TO.N,ADC_RSSI*%
X-69909947Y123159299D02*
X-69909947Y125318957D01*
X-67939148Y118190870D02*
X-67939148Y121188500D01*
X-69906109Y125327501D02*
X-69909946Y125323664D01*
X-69901403Y125327501D02*
X-69906109Y125327501D01*
X-69909947Y125318957D02*
X-69901403Y125327501D01*
X-67939148Y121188500D02*
X-69909947Y123159299D01*
%TO.N,ADC_VBAT*%
X-58250648Y126315000D02*
X-58250648Y126002500D01*
X-67602500Y129472500D02*
X-67137500Y129937500D01*
D36*
X-58250648Y124697500D02*
X-58250648Y126002500D01*
D37*
X-61873148Y129937500D02*
X-58250648Y126315000D01*
X-67137500Y129937500D02*
X-61873148Y129937500D01*
%TO.N,FLASH_MISO*%
X-60348530Y132587880D02*
X-60348910Y132587500D01*
X-59348528Y132587880D02*
X-60348530Y132587880D01*
X-60348910Y132587500D02*
X-61188148Y132587500D01*
D36*
%TO.N,V_OUT*%
X-77118148Y150357500D02*
X-77118148Y145797500D01*
X-75108148Y152367500D02*
X-77118148Y150357500D01*
X-77118148Y145797500D02*
X-78998148Y143917500D01*
X-78998148Y143917500D02*
X-81753148Y143917500D01*
D38*
%TO.N,VBUS*%
X-57658148Y145322500D02*
X-57658148Y143737500D01*
X-55668148Y141747500D02*
X-55668148Y136947500D01*
X-57658148Y143737500D02*
X-55668148Y141747500D01*
%TO.N,Net-(U6-SW)*%
X-62135648Y121247500D02*
X-62135648Y123160000D01*
X-61505648Y121247500D02*
X-62135648Y121247500D01*
X-59705648Y123097500D02*
X-59705648Y123047500D01*
X-59705648Y123047500D02*
X-61505648Y121247500D01*
%TO.N,Net-(U6-FB)*%
X-63497554Y126892500D02*
X-63085648Y126480594D01*
X-63989934Y119176500D02*
X-64691648Y119878215D01*
X-66386648Y126486500D02*
X-65980648Y126892500D01*
X-57480648Y116697500D02*
X-57530648Y116647500D01*
D36*
X-57480648Y119545000D02*
X-57480648Y116697500D01*
D38*
X-63085648Y126480594D02*
X-63085648Y125435000D01*
X-64691648Y120971000D02*
X-65227148Y121506500D01*
X-65980648Y126892500D02*
X-63497554Y126892500D01*
X-65953650Y121506500D02*
X-66386648Y121939498D01*
X-64691648Y119878215D02*
X-64691648Y120971000D01*
X-65227148Y121506500D02*
X-65953650Y121506500D01*
X-61112148Y119176500D02*
X-63989934Y119176500D01*
X-66386648Y121939498D02*
X-66386648Y126486500D01*
%TO.N,9V_Enable*%
X-62135648Y125435000D02*
X-62135648Y127002500D01*
%TO.N,Net-(U6-BOOT)*%
X-60398148Y124647500D02*
X-61185648Y125435000D01*
X-59705648Y124647500D02*
X-60398148Y124647500D01*
D40*
%TO.N,SBUS*%
X-67488148Y118827500D02*
X-67488148Y121562500D01*
X-69103148Y127472500D02*
X-69103148Y135965000D01*
X-69103148Y135965000D02*
X-71415648Y138277500D01*
X-68613148Y122687500D02*
X-68613148Y126982500D01*
X-67488148Y121562500D02*
X-68613148Y122687500D01*
X-67108148Y118447500D02*
X-67488148Y118827500D01*
X-68613148Y126982500D02*
X-69103148Y127472500D01*
D41*
%TO.N,Net-(Q3-B)*%
X-71533148Y135272500D02*
X-71533148Y136510000D01*
X-71533148Y136510000D02*
X-71415648Y136627500D01*
D37*
%TO.N,ADC_CURRENT*%
X-75113148Y115192500D02*
X-75113148Y114367500D01*
X-77108148Y117187500D02*
X-75113148Y115192500D01*
%TO.N,UART2RX*%
X-63278148Y129202500D02*
X-66243148Y129202500D01*
X-67037648Y123553000D02*
X-67418148Y123172500D01*
X-77118148Y115907500D02*
X-77118148Y114367500D01*
X-67418148Y123172500D02*
X-68013148Y123172500D01*
X-66243148Y129202500D02*
X-67037648Y128408000D01*
X-67037648Y128408000D02*
X-67037648Y123553000D01*
%TO.N,UART3TX*%
X-62798386Y141601501D02*
X-62823385Y141601501D01*
X-65099198Y137186131D02*
X-65099407Y137185922D01*
X-65099198Y139325688D02*
X-65099198Y137186131D01*
X-62823385Y141601501D02*
X-65099198Y139325688D01*
%TO.N,UART3RX*%
X-64299462Y139181186D02*
X-64299462Y137195538D01*
X-62006548Y141474100D02*
X-64299462Y139181186D01*
X-62006548Y141487500D02*
X-62006548Y141474100D01*
%TO.N,UART1RX*%
X-70688148Y141102500D02*
X-71522020Y141936372D01*
X-70688148Y141087500D02*
X-70688148Y141102500D01*
X-71522020Y141936372D02*
X-71522020Y146150000D01*
%TO.N,UART5TX*%
X-73668148Y129607500D02*
X-73668148Y134602500D01*
X-71128148Y127067500D02*
X-73668148Y129607500D01*
X-68799865Y118840869D02*
X-71128148Y121169152D01*
X-72833148Y136590000D02*
X-72880648Y136637500D01*
X-72998148Y135272500D02*
X-72833148Y135272500D01*
X-73668148Y134602500D02*
X-72998148Y135272500D01*
X-72833148Y135272500D02*
X-72833148Y136590000D01*
X-71128148Y121169152D02*
X-71128148Y127067500D01*
X-68589148Y118840869D02*
X-68799865Y118840869D01*
%TO.N,UART5RX*%
X-70617148Y128498500D02*
X-69672148Y129443500D01*
X-69672148Y129443500D02*
X-69672148Y133576500D01*
X-70618148Y121669872D02*
X-70618148Y122625880D01*
X-69672148Y133576500D02*
X-70363148Y134267500D01*
X-70617148Y122626880D02*
X-70617148Y128498500D01*
X-70618148Y122625880D02*
X-70617148Y122626880D01*
X-68589148Y119640872D02*
X-70618148Y121669872D01*
X-70363148Y134267500D02*
X-72650372Y134267500D01*
%TO.N,M1*%
X-76948148Y124207500D02*
X-67108148Y114367500D01*
X-76948148Y134997500D02*
X-76948148Y124207500D01*
%TO.N,M2*%
X-77623148Y134347500D02*
X-77623148Y124173980D01*
X-77623148Y124173980D02*
X-69108148Y115658980D01*
X-69108148Y115658980D02*
X-69108148Y114367500D01*
%TO.N,M3*%
X-78272394Y123941746D02*
X-71108148Y116777500D01*
X-78272394Y132921746D02*
X-78272394Y123941746D01*
X-78288148Y132937500D02*
X-78272394Y132921746D01*
X-71108148Y116777500D02*
X-71108148Y114367500D01*
%TO.N,M4*%
X-78923394Y132087500D02*
X-78923394Y123702746D01*
X-78923394Y123702746D02*
X-73108148Y117887500D01*
X-73108148Y117887500D02*
X-73108148Y114367500D01*
D39*
%TO.N,Net-(U5-SW)*%
X-67729148Y146261500D02*
X-67729148Y144603501D01*
X-67278147Y144152500D02*
X-66615648Y144152500D01*
X-67408148Y146582500D02*
X-67729148Y146261500D01*
D38*
X-64703148Y144152500D02*
X-66615648Y144152500D01*
D39*
X-67729148Y144603501D02*
X-67278147Y144152500D01*
D36*
%TO.N,Net-(U5-FB)*%
X-64508148Y148807500D02*
X-63048148Y148807500D01*
D38*
X-65411194Y149708500D02*
X-65429148Y149708500D01*
X-71733148Y149292500D02*
X-71733148Y147492500D01*
X-70054148Y143728690D02*
X-69527958Y143202500D01*
D36*
X-63048148Y148807500D02*
X-61643148Y148807500D01*
D38*
X-69527958Y143202500D02*
X-68890648Y143202500D01*
X-64992148Y149271500D02*
X-64992148Y149289454D01*
X-64992148Y149289454D02*
X-65411194Y149708500D01*
X-64508148Y148807500D02*
X-64528148Y148807500D01*
X-71733148Y147492500D02*
X-70054148Y145813500D01*
X-71068148Y149957500D02*
X-71733148Y149292500D01*
X-61643148Y148807500D02*
X-61593148Y148757500D01*
X-65429148Y149708500D02*
X-65678148Y149957500D01*
X-65678148Y149957500D02*
X-71068148Y149957500D01*
X-64528148Y148807500D02*
X-64992148Y149271500D01*
X-70054148Y145813500D02*
X-70054148Y143728690D01*
%TO.N,Net-(U5-BOOT)*%
X-68958148Y145170000D02*
X-68890648Y145102500D01*
X-68958148Y145297500D02*
X-68958148Y145170000D01*
D43*
X-68958148Y146582500D02*
X-68958148Y145297500D01*
D41*
%TO.N,BEEPER_B-*%
X-66118148Y150777500D02*
X-65543148Y151352500D01*
X-58788148Y148932500D02*
X-58288148Y148432500D01*
X-58288148Y148432500D02*
X-58288148Y146852500D01*
X-60368148Y148932500D02*
X-58788148Y148932500D01*
X-62788148Y151352500D02*
X-60368148Y148932500D01*
X-65543148Y151352500D02*
X-62788148Y151352500D01*
D44*
%TO.N,+10V*%
X-66158148Y120272500D02*
X-66158148Y119858376D01*
D36*
X-59130648Y118107500D02*
X-59130648Y116697500D01*
D45*
X-62135648Y117520000D02*
X-62135648Y117547500D01*
D38*
X-59080648Y118057500D02*
X-59130648Y118107500D01*
D44*
X-63847272Y117547500D02*
X-62135648Y117547500D01*
D36*
X-59130648Y116697500D02*
X-59080648Y116647500D01*
D44*
X-66158148Y119858376D02*
X-63847272Y117547500D01*
D45*
X-62135648Y117547500D02*
X-59548148Y117547500D01*
D38*
%TO.N,+5V_BEC*%
X-61643148Y147157500D02*
X-61593148Y147207500D01*
X-61468148Y147332500D02*
X-61593148Y147207500D01*
X-61003148Y144152500D02*
X-61003148Y144282500D01*
D36*
X-63048148Y147157500D02*
X-61643148Y147157500D01*
D42*
X-61593148Y147207500D02*
X-61593148Y146412500D01*
X-61003148Y145822500D02*
X-61003148Y144152500D01*
D39*
X-59558148Y147177500D02*
X-59713148Y147332500D01*
D38*
X-59558148Y145322500D02*
X-59558148Y147177500D01*
X-59713148Y147332500D02*
X-61468148Y147332500D01*
D42*
X-61593148Y146412500D02*
X-61003148Y145822500D01*
D38*
%TO.N,Net-(D1-A)*%
X-79770648Y141982500D02*
X-80548148Y141205000D01*
X-80548148Y141205000D02*
X-80548148Y140282500D01*
X-79763148Y141982500D02*
X-79770648Y141982500D01*
X-80548148Y140282500D02*
X-82193148Y140282500D01*
%TO.N,Net-(Q1-D)*%
X-80548148Y138382500D02*
X-82285648Y138382500D01*
X-82285648Y138382500D02*
X-82425648Y138242500D01*
D42*
%TO.N,VBAT*%
X-74764148Y128563500D02*
X-73827644Y128563500D01*
X-85225648Y137367500D02*
X-82661698Y134803550D01*
X-82661698Y134803550D02*
X-79032098Y134803550D01*
X-65113148Y114367500D02*
X-63118148Y114367500D01*
X-65967354Y115857500D02*
X-65113148Y115003294D01*
X-73827644Y128563500D02*
X-72048148Y126784004D01*
X-76492098Y136098500D02*
X-75847148Y135453550D01*
X-65113148Y115003294D02*
X-65113148Y114367500D01*
X-75847148Y135453550D02*
X-75847148Y129646500D01*
X-79032098Y134803550D02*
X-77737148Y136098500D01*
X-72048148Y126784004D02*
X-72048148Y120885656D01*
X-67019992Y115857500D02*
X-65967354Y115857500D01*
X-85225648Y138242500D02*
X-85225648Y137367500D01*
X-72048148Y120885656D02*
X-67019992Y115857500D01*
X-77737148Y136098500D02*
X-76492098Y136098500D01*
X-75847148Y129646500D02*
X-74764148Y128563500D01*
D41*
%TO.N,Net-(U1-NRST)*%
X-69388148Y126247500D02*
X-69623148Y126247500D01*
%TD*%
%TA.AperFunction,Conductor*%
%TO.N,GND*%
G36*
X-76114470Y152847315D02*
G01*
X-76068715Y152794511D01*
X-76058771Y152725353D01*
X-76087796Y152661797D01*
X-76093828Y152655319D01*
X-77817611Y150931538D01*
X-77817615Y150931534D01*
X-77821667Y150925468D01*
X-77821668Y150925469D01*
X-77916155Y150784058D01*
X-77916165Y150784040D01*
X-77931639Y150746680D01*
X-77931639Y150746679D01*
X-77974786Y150642513D01*
X-77984043Y150620166D01*
X-78018419Y150447342D01*
X-78018648Y150446191D01*
X-78018648Y150446188D01*
X-78018648Y146221862D01*
X-78038333Y146154823D01*
X-78054967Y146134181D01*
X-79334829Y144854319D01*
X-79396152Y144820834D01*
X-79422510Y144818000D01*
X-81841842Y144818000D01*
X-82015807Y144783397D01*
X-82015816Y144783394D01*
X-82179689Y144715517D01*
X-82179702Y144715510D01*
X-82327183Y144616965D01*
X-82327187Y144616962D01*
X-82452610Y144491539D01*
X-82452613Y144491535D01*
X-82551158Y144344054D01*
X-82551165Y144344041D01*
X-82619042Y144180168D01*
X-82619045Y144180159D01*
X-82653648Y144006196D01*
X-82653648Y143828805D01*
X-82619045Y143654842D01*
X-82619042Y143654833D01*
X-82551165Y143490960D01*
X-82551158Y143490947D01*
X-82452613Y143343466D01*
X-82452610Y143343462D01*
X-82327187Y143218039D01*
X-82327183Y143218036D01*
X-82179702Y143119491D01*
X-82179689Y143119484D01*
X-82097756Y143085547D01*
X-82015814Y143051606D01*
X-82015812Y143051606D01*
X-82015807Y143051604D01*
X-81841844Y143017001D01*
X-81841841Y143017000D01*
X-80589378Y143017000D01*
X-80522339Y142997315D01*
X-80476584Y142944511D01*
X-80466640Y142875353D01*
X-80495665Y142811797D01*
X-80501697Y142805319D01*
X-80605859Y142701158D01*
X-80697961Y142551837D01*
X-80697962Y142551834D01*
X-80753147Y142385297D01*
X-80753147Y142385296D01*
X-80753148Y142385296D01*
X-80763648Y142282517D01*
X-80763648Y142172941D01*
X-80783333Y142105902D01*
X-80799968Y142085260D01*
X-81058437Y141826789D01*
X-81090660Y141794566D01*
X-81169939Y141715288D01*
X-81257539Y141584186D01*
X-81257546Y141584173D01*
X-81317884Y141438502D01*
X-81317887Y141438490D01*
X-81348648Y141283847D01*
X-81348648Y141207000D01*
X-81351199Y141198315D01*
X-81349910Y141189353D01*
X-81360889Y141165313D01*
X-81368333Y141139961D01*
X-81375174Y141134034D01*
X-81378935Y141125797D01*
X-81401170Y141111508D01*
X-81421137Y141094206D01*
X-81431652Y141091919D01*
X-81437713Y141088023D01*
X-81472648Y141083000D01*
X-81476916Y141083000D01*
X-81543955Y141102685D01*
X-81553383Y141109385D01*
X-81557956Y141112967D01*
X-81557962Y141112971D01*
X-81557963Y141112972D01*
X-81703542Y141200978D01*
X-81865952Y141251586D01*
X-81865954Y141251587D01*
X-81865956Y141251587D01*
X-81915370Y141256077D01*
X-81936532Y141258000D01*
X-82449764Y141258000D01*
X-82469003Y141256252D01*
X-82520341Y141251587D01*
X-82682755Y141200978D01*
X-82828337Y141112970D01*
X-82828338Y141112969D01*
X-82930821Y141010485D01*
X-82992144Y140977000D01*
X-83061836Y140981984D01*
X-83106183Y141010485D01*
X-83208271Y141112573D01*
X-83353753Y141200520D01*
X-83353752Y141200520D01*
X-83516043Y141251091D01*
X-83516042Y141251091D01*
X-83586576Y141257500D01*
X-83593148Y141257500D01*
X-83593148Y139307501D01*
X-83583151Y139297504D01*
X-83550158Y139287816D01*
X-83504403Y139235012D01*
X-83494459Y139165854D01*
X-83499491Y139144499D01*
X-83533015Y139043328D01*
X-83540647Y139020297D01*
X-83540648Y139020296D01*
X-83551148Y138917517D01*
X-83551148Y137567499D01*
X-83551147Y137567482D01*
X-83540648Y137464704D01*
X-83540647Y137464700D01*
X-83523197Y137412041D01*
X-83520795Y137342212D01*
X-83556527Y137282170D01*
X-83619048Y137250978D01*
X-83688507Y137258539D01*
X-83728584Y137285356D01*
X-84063830Y137620602D01*
X-84097315Y137681925D01*
X-84100149Y137708283D01*
X-84100149Y138917502D01*
X-84100150Y138917519D01*
X-84110649Y139020297D01*
X-84115392Y139034609D01*
X-84153719Y139150271D01*
X-84156120Y139220094D01*
X-84123699Y139276946D01*
X-84093148Y139307502D01*
X-84093148Y140032500D01*
X-84743147Y140032500D01*
X-84743147Y139950918D01*
X-84736740Y139880398D01*
X-84736739Y139880390D01*
X-84705110Y139778890D01*
X-84703958Y139709030D01*
X-84740759Y139649638D01*
X-84803828Y139619570D01*
X-84823495Y139618000D01*
X-85650650Y139618000D01*
X-85650668Y139617999D01*
X-85753445Y139607500D01*
X-85753448Y139607499D01*
X-85919980Y139552315D01*
X-85919985Y139552313D01*
X-86069306Y139460211D01*
X-86193359Y139336158D01*
X-86285461Y139186837D01*
X-86285463Y139186832D01*
X-86299491Y139144497D01*
X-86340647Y139020297D01*
X-86340647Y139020296D01*
X-86340648Y139020296D01*
X-86351148Y138917517D01*
X-86351148Y137567499D01*
X-86351147Y137567482D01*
X-86340648Y137464704D01*
X-86340647Y137464701D01*
X-86285463Y137298169D01*
X-86285461Y137298164D01*
X-86277561Y137285356D01*
X-86218211Y137189133D01*
X-86202134Y137148231D01*
X-86187701Y137075672D01*
X-86187698Y137075660D01*
X-86177967Y137052168D01*
X-86112284Y136893593D01*
X-86112277Y136893580D01*
X-86002788Y136729719D01*
X-86002785Y136729715D01*
X-85859111Y136586041D01*
X-85859089Y136586021D01*
X-83441963Y134168895D01*
X-83441934Y134168864D01*
X-83299481Y134026411D01*
X-83135618Y133916922D01*
X-83135612Y133916918D01*
X-83043977Y133878962D01*
X-82953534Y133841499D01*
X-82856886Y133822275D01*
X-82779142Y133806811D01*
X-82760240Y133803050D01*
X-82760239Y133803050D01*
X-78933556Y133803050D01*
X-78864454Y133816796D01*
X-78836911Y133822275D01*
X-78836911Y133822273D01*
X-78836901Y133822277D01*
X-78833106Y133823032D01*
X-78763517Y133816796D01*
X-78708344Y133773927D01*
X-78685108Y133708034D01*
X-78701184Y133640039D01*
X-78740039Y133598311D01*
X-78798435Y133559292D01*
X-78798441Y133559287D01*
X-78909935Y133447793D01*
X-78909938Y133447789D01*
X-78997539Y133316686D01*
X-78997546Y133316673D01*
X-79057884Y133171002D01*
X-79057887Y133170990D01*
X-79088648Y133016347D01*
X-79088648Y132968359D01*
X-79108333Y132901320D01*
X-79161137Y132855565D01*
X-79165195Y132853798D01*
X-79302571Y132796896D01*
X-79302580Y132796891D01*
X-79433683Y132709290D01*
X-79433687Y132709287D01*
X-79545181Y132597793D01*
X-79545184Y132597789D01*
X-79632785Y132466686D01*
X-79632792Y132466673D01*
X-79693130Y132321002D01*
X-79693133Y132320990D01*
X-79723894Y132166347D01*
X-79723894Y132008654D01*
X-79693133Y131854011D01*
X-79693130Y131853999D01*
X-79632792Y131708328D01*
X-79632788Y131708321D01*
X-79594792Y131651456D01*
X-79573914Y131584779D01*
X-79573894Y131582565D01*
X-79573894Y129160092D01*
X-79593579Y129093053D01*
X-79646383Y129047298D01*
X-79715541Y129037354D01*
X-79779097Y129066379D01*
X-79785575Y129072411D01*
X-79867858Y129154694D01*
X-79867862Y129154697D01*
X-79998965Y129242298D01*
X-79998978Y129242305D01*
X-80144649Y129302643D01*
X-80144661Y129302646D01*
X-80299305Y129333407D01*
X-80299308Y129333407D01*
X-80456992Y129333407D01*
X-80456995Y129333407D01*
X-80611640Y129302646D01*
X-80611652Y129302643D01*
X-80757323Y129242305D01*
X-80757336Y129242298D01*
X-80888439Y129154697D01*
X-80888443Y129154694D01*
X-80999937Y129043200D01*
X-80999940Y129043196D01*
X-81087541Y128912093D01*
X-81087548Y128912080D01*
X-81147886Y128766409D01*
X-81147889Y128766397D01*
X-81178650Y128611754D01*
X-81178650Y128454061D01*
X-81147889Y128299418D01*
X-81147886Y128299406D01*
X-81087548Y128153735D01*
X-81087541Y128153722D01*
X-80999940Y128022619D01*
X-80999937Y128022615D01*
X-80888443Y127911121D01*
X-80888439Y127911118D01*
X-80757336Y127823517D01*
X-80757323Y127823510D01*
X-80611652Y127763172D01*
X-80611647Y127763170D01*
X-80497009Y127740367D01*
X-80456997Y127732408D01*
X-80456994Y127732407D01*
X-80456992Y127732407D01*
X-80299306Y127732407D01*
X-80299305Y127732408D01*
X-80144653Y127763170D01*
X-79998971Y127823513D01*
X-79867861Y127911118D01*
X-79853260Y127925719D01*
X-79785575Y127993403D01*
X-79724252Y128026888D01*
X-79654560Y128021904D01*
X-79598627Y127980032D01*
X-79574210Y127914568D01*
X-79573894Y127905722D01*
X-79573894Y123638675D01*
X-79555952Y123548479D01*
X-79555952Y123548478D01*
X-79548897Y123513010D01*
X-79548895Y123513002D01*
X-79499860Y123394621D01*
X-79428668Y123288073D01*
X-79428667Y123288072D01*
X-73794967Y117654373D01*
X-73761482Y117593050D01*
X-73758648Y117566692D01*
X-73758648Y115435372D01*
X-73778333Y115368333D01*
X-73831137Y115322578D01*
X-73839312Y115319191D01*
X-73860483Y115311295D01*
X-73975691Y115225049D01*
X-73975699Y115225042D01*
X-73984947Y115212687D01*
X-73988602Y115209952D01*
X-73990499Y115205797D01*
X-74016315Y115189207D01*
X-74040881Y115170817D01*
X-74046510Y115169802D01*
X-74049277Y115168023D01*
X-74084212Y115163000D01*
X-74152085Y115163000D01*
X-74219124Y115182685D01*
X-74251351Y115212688D01*
X-74260334Y115224688D01*
X-74260602Y115225046D01*
X-74260604Y115225047D01*
X-74260604Y115225048D01*
X-74375813Y115311294D01*
X-74375820Y115311298D01*
X-74422752Y115328802D01*
X-74478686Y115370673D01*
X-74493980Y115397532D01*
X-74498376Y115408144D01*
X-74525119Y115472710D01*
X-74536681Y115500623D01*
X-74536684Y115500628D01*
X-74537742Y115502211D01*
X-74541091Y115507224D01*
X-74541092Y115507226D01*
X-74541092Y115507225D01*
X-74607871Y115607169D01*
X-74607873Y115607171D01*
X-74607875Y115607174D01*
X-74607876Y115607175D01*
X-76291134Y117290432D01*
X-76324619Y117351755D01*
X-76325043Y117353786D01*
X-76338411Y117420997D01*
X-76362549Y117479270D01*
X-76398751Y117566673D01*
X-76398758Y117566686D01*
X-76486359Y117697789D01*
X-76486362Y117697793D01*
X-76597856Y117809287D01*
X-76597860Y117809290D01*
X-76728963Y117896891D01*
X-76728976Y117896898D01*
X-76874647Y117957236D01*
X-76874659Y117957239D01*
X-77029303Y117988000D01*
X-77029306Y117988000D01*
X-77186990Y117988000D01*
X-77186993Y117988000D01*
X-77341638Y117957239D01*
X-77341650Y117957236D01*
X-77487321Y117896898D01*
X-77487334Y117896891D01*
X-77618437Y117809290D01*
X-77618441Y117809287D01*
X-77729935Y117697793D01*
X-77729938Y117697789D01*
X-77817539Y117566686D01*
X-77817546Y117566673D01*
X-77877884Y117421002D01*
X-77877887Y117420990D01*
X-77908648Y117266347D01*
X-77908648Y117108654D01*
X-77877887Y116954011D01*
X-77877884Y116953999D01*
X-77817546Y116808328D01*
X-77817539Y116808315D01*
X-77729938Y116677212D01*
X-77729935Y116677208D01*
X-77692908Y116640181D01*
X-77659423Y116578858D01*
X-77664407Y116509166D01*
X-77692908Y116464819D01*
X-77739935Y116417793D01*
X-77739938Y116417789D01*
X-77827539Y116286686D01*
X-77827546Y116286673D01*
X-77887884Y116141002D01*
X-77887887Y116140990D01*
X-77918648Y115986347D01*
X-77918648Y115828654D01*
X-77887887Y115674011D01*
X-77887884Y115673999D01*
X-77827546Y115528328D01*
X-77827539Y115528315D01*
X-77805099Y115494732D01*
X-77784221Y115428055D01*
X-77802705Y115360675D01*
X-77852781Y115315694D01*
X-77852699Y115315544D01*
X-77853333Y115315199D01*
X-77854684Y115313984D01*
X-77858615Y115312315D01*
X-77860483Y115311295D01*
X-77975693Y115225048D01*
X-77975696Y115225045D01*
X-78061942Y115109836D01*
X-78061946Y115109829D01*
X-78112240Y114974983D01*
X-78118647Y114915384D01*
X-78118648Y114915373D01*
X-78118648Y114401660D01*
X-78118647Y113992000D01*
X-78138331Y113924961D01*
X-78191135Y113879206D01*
X-78242647Y113868000D01*
X-83360276Y113868000D01*
X-83366003Y113868132D01*
X-83749518Y113885863D01*
X-83760923Y113886920D01*
X-84138320Y113939565D01*
X-84149578Y113941670D01*
X-84520496Y114028908D01*
X-84531512Y114032042D01*
X-84892815Y114153139D01*
X-84903475Y114157269D01*
X-85252089Y114311196D01*
X-85262315Y114316289D01*
X-85389598Y114387185D01*
X-85595210Y114501711D01*
X-85604948Y114507740D01*
X-85919321Y114723089D01*
X-85928461Y114729992D01*
X-86221609Y114973419D01*
X-86230073Y114981135D01*
X-86499509Y115250570D01*
X-86507226Y115259034D01*
X-86550623Y115311295D01*
X-86750664Y115552197D01*
X-86757564Y115561334D01*
X-86757576Y115561351D01*
X-86906671Y115779003D01*
X-86972910Y115875700D01*
X-86978939Y115885438D01*
X-87072237Y116052940D01*
X-87164366Y116218342D01*
X-87169450Y116228551D01*
X-87323386Y116577185D01*
X-87327506Y116587821D01*
X-87448612Y116949149D01*
X-87451739Y116960139D01*
X-87538983Y117331079D01*
X-87541086Y117342330D01*
X-87541087Y117342335D01*
X-87593731Y117719732D01*
X-87594787Y117731129D01*
X-87595110Y117738106D01*
X-87612516Y118114601D01*
X-87612648Y118120328D01*
X-87612648Y118255168D01*
X-85463648Y118255168D01*
X-85463648Y117979833D01*
X-85463647Y117979816D01*
X-85427710Y117706845D01*
X-85427709Y117706840D01*
X-85427708Y117706834D01*
X-85397220Y117593050D01*
X-85356444Y117440870D01*
X-85251073Y117186483D01*
X-85251068Y117186472D01*
X-85206141Y117108658D01*
X-85113397Y116948021D01*
X-85113395Y116948018D01*
X-85113394Y116948017D01*
X-84945778Y116729574D01*
X-84945772Y116729567D01*
X-84751082Y116534877D01*
X-84751075Y116534871D01*
X-84683540Y116483050D01*
X-84532627Y116367251D01*
X-84393072Y116286679D01*
X-84294177Y116229581D01*
X-84294172Y116229579D01*
X-84294169Y116229577D01*
X-84039780Y116124205D01*
X-83773814Y116052940D01*
X-83500822Y116017000D01*
X-83500815Y116017000D01*
X-83225481Y116017000D01*
X-83225474Y116017000D01*
X-82952482Y116052940D01*
X-82686516Y116124205D01*
X-82432127Y116229577D01*
X-82193669Y116367251D01*
X-81975220Y116534872D01*
X-81780520Y116729572D01*
X-81612899Y116948021D01*
X-81475225Y117186479D01*
X-81369853Y117440868D01*
X-81298588Y117706834D01*
X-81262648Y117979826D01*
X-81262648Y118255174D01*
X-81298588Y118528166D01*
X-81369853Y118794132D01*
X-81475225Y119048521D01*
X-81475227Y119048524D01*
X-81475229Y119048529D01*
X-81524416Y119133722D01*
X-81612899Y119286979D01*
X-81780520Y119505428D01*
X-81780525Y119505434D01*
X-81975215Y119700124D01*
X-81975222Y119700130D01*
X-82193665Y119867746D01*
X-82193666Y119867747D01*
X-82193669Y119867749D01*
X-82294876Y119926181D01*
X-82432120Y120005420D01*
X-82432131Y120005425D01*
X-82686518Y120110796D01*
X-82819499Y120146428D01*
X-82952482Y120182060D01*
X-82952488Y120182061D01*
X-82952493Y120182062D01*
X-83225464Y120217999D01*
X-83225469Y120218000D01*
X-83225474Y120218000D01*
X-83500822Y120218000D01*
X-83500828Y120218000D01*
X-83500833Y120217999D01*
X-83773804Y120182062D01*
X-83773811Y120182061D01*
X-83773814Y120182060D01*
X-83830023Y120167000D01*
X-84039779Y120110796D01*
X-84294166Y120005425D01*
X-84294177Y120005420D01*
X-84532632Y119867746D01*
X-84751075Y119700130D01*
X-84751082Y119700124D01*
X-84945772Y119505434D01*
X-84945778Y119505427D01*
X-85113394Y119286984D01*
X-85251068Y119048529D01*
X-85251073Y119048518D01*
X-85356444Y118794131D01*
X-85427707Y118528169D01*
X-85427710Y118528156D01*
X-85463647Y118255185D01*
X-85463648Y118255168D01*
X-87612648Y118255168D01*
X-87612648Y130941347D01*
X-83713648Y130941347D01*
X-83713648Y130783654D01*
X-83682887Y130629011D01*
X-83682884Y130628999D01*
X-83622546Y130483328D01*
X-83622539Y130483315D01*
X-83534935Y130352208D01*
X-83532024Y130348660D01*
X-83504714Y130284349D01*
X-83516509Y130215482D01*
X-83532024Y130191340D01*
X-83534935Y130187793D01*
X-83622539Y130056686D01*
X-83622546Y130056673D01*
X-83682884Y129911002D01*
X-83682887Y129910990D01*
X-83713648Y129756347D01*
X-83713648Y129598654D01*
X-83682887Y129444011D01*
X-83682884Y129443999D01*
X-83622546Y129298328D01*
X-83622539Y129298315D01*
X-83534938Y129167212D01*
X-83534935Y129167208D01*
X-83423441Y129055714D01*
X-83423437Y129055711D01*
X-83292334Y128968110D01*
X-83292321Y128968103D01*
X-83157099Y128912093D01*
X-83146645Y128907763D01*
X-82991995Y128877001D01*
X-82991992Y128877000D01*
X-82991990Y128877000D01*
X-82834304Y128877000D01*
X-82834303Y128877001D01*
X-82679651Y128907763D01*
X-82533969Y128968106D01*
X-82402859Y129055711D01*
X-82291359Y129167211D01*
X-82203754Y129298321D01*
X-82201962Y129302646D01*
X-82165409Y129390895D01*
X-82143411Y129444003D01*
X-82112648Y129598658D01*
X-82112648Y129756342D01*
X-82112648Y129756345D01*
X-82112649Y129756347D01*
X-82143411Y129910997D01*
X-82143413Y129911002D01*
X-82203751Y130056673D01*
X-82203758Y130056686D01*
X-82291356Y130187785D01*
X-82294268Y130191333D01*
X-82321582Y130255643D01*
X-82309792Y130324510D01*
X-82294268Y130348667D01*
X-82291366Y130352205D01*
X-82291359Y130352211D01*
X-82203754Y130483321D01*
X-82143411Y130629003D01*
X-82112648Y130783658D01*
X-82112648Y130941342D01*
X-82112648Y130941345D01*
X-82112649Y130941347D01*
X-82143410Y131095990D01*
X-82143411Y131095997D01*
X-82174991Y131172238D01*
X-82203751Y131241673D01*
X-82203758Y131241686D01*
X-82291359Y131372789D01*
X-82291362Y131372793D01*
X-82402856Y131484287D01*
X-82402860Y131484290D01*
X-82533963Y131571891D01*
X-82533976Y131571898D01*
X-82679647Y131632236D01*
X-82679659Y131632239D01*
X-82834303Y131663000D01*
X-82834306Y131663000D01*
X-82991990Y131663000D01*
X-82991993Y131663000D01*
X-83146638Y131632239D01*
X-83146650Y131632236D01*
X-83292321Y131571898D01*
X-83292334Y131571891D01*
X-83423437Y131484290D01*
X-83423441Y131484287D01*
X-83534935Y131372793D01*
X-83534938Y131372789D01*
X-83622539Y131241686D01*
X-83622546Y131241673D01*
X-83682884Y131096002D01*
X-83682887Y131095990D01*
X-83713648Y130941347D01*
X-87612648Y130941347D01*
X-87612648Y132491347D01*
X-86908646Y132491347D01*
X-86908646Y132333654D01*
X-86877885Y132179011D01*
X-86877882Y132178999D01*
X-86817544Y132033328D01*
X-86817537Y132033315D01*
X-86729936Y131902212D01*
X-86729933Y131902208D01*
X-86618439Y131790714D01*
X-86618435Y131790711D01*
X-86487332Y131703110D01*
X-86487319Y131703103D01*
X-86341648Y131642765D01*
X-86341643Y131642763D01*
X-86228111Y131620180D01*
X-86186993Y131612001D01*
X-86186990Y131612000D01*
X-86186988Y131612000D01*
X-86029302Y131612000D01*
X-86029301Y131612001D01*
X-85874649Y131642763D01*
X-85728967Y131703106D01*
X-85597857Y131790711D01*
X-85486357Y131902211D01*
X-85398752Y132033321D01*
X-85338409Y132179003D01*
X-85307646Y132333658D01*
X-85307646Y132491342D01*
X-85307646Y132491345D01*
X-85307647Y132491347D01*
X-85311615Y132511296D01*
X-85338409Y132645997D01*
X-85346838Y132666347D01*
X-85398749Y132791673D01*
X-85398756Y132791686D01*
X-85486357Y132922789D01*
X-85486360Y132922793D01*
X-85597854Y133034287D01*
X-85597858Y133034290D01*
X-85728961Y133121891D01*
X-85728974Y133121898D01*
X-85874645Y133182236D01*
X-85874657Y133182239D01*
X-86029301Y133213000D01*
X-86029304Y133213000D01*
X-86186988Y133213000D01*
X-86186991Y133213000D01*
X-86341636Y133182239D01*
X-86341648Y133182236D01*
X-86487319Y133121898D01*
X-86487332Y133121891D01*
X-86618435Y133034290D01*
X-86618439Y133034287D01*
X-86729933Y132922793D01*
X-86729936Y132922789D01*
X-86817537Y132791686D01*
X-86817544Y132791673D01*
X-86877882Y132646002D01*
X-86877885Y132645990D01*
X-86908646Y132491347D01*
X-87612648Y132491347D01*
X-87612648Y140614073D01*
X-84743148Y140614073D01*
X-84743148Y140532500D01*
X-84093148Y140532500D01*
X-84093148Y141257500D01*
X-84093149Y141257501D01*
X-84099712Y141257500D01*
X-84099731Y141257499D01*
X-84170251Y141251092D01*
X-84170256Y141251091D01*
X-84332545Y141200519D01*
X-84478026Y141112573D01*
X-84598221Y140992378D01*
X-84686168Y140846896D01*
X-84736739Y140684607D01*
X-84743148Y140614073D01*
X-87612648Y140614073D01*
X-87612648Y148614629D01*
X-87612516Y148620355D01*
X-87611754Y148636828D01*
X-87606283Y148755168D01*
X-85463648Y148755168D01*
X-85463648Y148479833D01*
X-85463647Y148479816D01*
X-85427710Y148206845D01*
X-85427709Y148206840D01*
X-85427708Y148206834D01*
X-85427707Y148206832D01*
X-85356444Y147940870D01*
X-85251073Y147686483D01*
X-85251068Y147686472D01*
X-85176894Y147558000D01*
X-85113397Y147448021D01*
X-85113395Y147448018D01*
X-85113394Y147448017D01*
X-84945778Y147229574D01*
X-84945772Y147229567D01*
X-84751082Y147034877D01*
X-84751076Y147034872D01*
X-84532627Y146867251D01*
X-84416280Y146800078D01*
X-84294177Y146729581D01*
X-84294172Y146729579D01*
X-84294169Y146729577D01*
X-84039780Y146624205D01*
X-83773814Y146552940D01*
X-83500822Y146517000D01*
X-83500815Y146517000D01*
X-83225481Y146517000D01*
X-83225474Y146517000D01*
X-82952482Y146552940D01*
X-82686516Y146624205D01*
X-82432127Y146729577D01*
X-82193669Y146867251D01*
X-81975220Y147034872D01*
X-81780520Y147229572D01*
X-81612899Y147448021D01*
X-81475225Y147686479D01*
X-81369853Y147940868D01*
X-81298588Y148206834D01*
X-81262648Y148479826D01*
X-81262648Y148755174D01*
X-81298588Y149028166D01*
X-81369853Y149294132D01*
X-81475225Y149548521D01*
X-81475227Y149548524D01*
X-81475229Y149548529D01*
X-81560321Y149695911D01*
X-81612899Y149786979D01*
X-81780520Y150005428D01*
X-81780525Y150005434D01*
X-81975215Y150200124D01*
X-81975222Y150200130D01*
X-82193665Y150367746D01*
X-82193666Y150367747D01*
X-82193669Y150367749D01*
X-82329534Y150446191D01*
X-82432120Y150505420D01*
X-82432131Y150505425D01*
X-82686518Y150610796D01*
X-82860774Y150657487D01*
X-82952482Y150682060D01*
X-82952488Y150682061D01*
X-82952493Y150682062D01*
X-83225464Y150717999D01*
X-83225469Y150718000D01*
X-83225474Y150718000D01*
X-83500822Y150718000D01*
X-83500828Y150718000D01*
X-83500833Y150717999D01*
X-83773804Y150682062D01*
X-83773811Y150682061D01*
X-83773814Y150682060D01*
X-83830023Y150667000D01*
X-84039779Y150610796D01*
X-84294166Y150505425D01*
X-84294177Y150505420D01*
X-84532632Y150367746D01*
X-84751075Y150200130D01*
X-84751082Y150200124D01*
X-84945772Y150005434D01*
X-84945778Y150005427D01*
X-85113394Y149786984D01*
X-85251068Y149548529D01*
X-85251073Y149548518D01*
X-85356444Y149294131D01*
X-85427707Y149028169D01*
X-85427710Y149028156D01*
X-85463647Y148755185D01*
X-85463648Y148755168D01*
X-87606283Y148755168D01*
X-87594785Y149003880D01*
X-87593728Y149015275D01*
X-87541082Y149392680D01*
X-87538982Y149403917D01*
X-87451735Y149774867D01*
X-87448612Y149785846D01*
X-87327503Y150147187D01*
X-87323380Y150157826D01*
X-87169452Y150506440D01*
X-87164369Y150516649D01*
X-86978935Y150849567D01*
X-86972909Y150859299D01*
X-86757549Y151173685D01*
X-86750667Y151182798D01*
X-86507218Y151475972D01*
X-86499524Y151484412D01*
X-86230067Y151753870D01*
X-86221627Y151761566D01*
X-85928441Y152005023D01*
X-85919327Y152011905D01*
X-85604942Y152227264D01*
X-85595215Y152233286D01*
X-85262297Y152418720D01*
X-85252106Y152423795D01*
X-84903453Y152577739D01*
X-84892834Y152581853D01*
X-84531493Y152702963D01*
X-84520515Y152706086D01*
X-84149565Y152793333D01*
X-84138329Y152795433D01*
X-83760915Y152848080D01*
X-83749528Y152849136D01*
X-83365959Y152866869D01*
X-83360235Y152867000D01*
X-83297256Y152867000D01*
X-76181509Y152867000D01*
X-76114470Y152847315D01*
G37*
%TD.AperFunction*%
%TA.AperFunction,Conductor*%
G36*
X-61914738Y152857759D02*
G01*
X-61882938Y152849642D01*
X-61881374Y152847962D01*
X-61879172Y152847315D01*
X-61857699Y152822534D01*
X-61835327Y152798505D01*
X-61834920Y152796245D01*
X-61833417Y152794511D01*
X-61828750Y152762048D01*
X-61822921Y152729745D01*
X-61823679Y152726780D01*
X-61823473Y152725353D01*
X-61831650Y152695547D01*
X-61872885Y152595998D01*
X-61872887Y152595990D01*
X-61903648Y152441347D01*
X-61903648Y152283654D01*
X-61872887Y152129011D01*
X-61872884Y152128999D01*
X-61812546Y151983328D01*
X-61812539Y151983315D01*
X-61724938Y151852212D01*
X-61724935Y151852208D01*
X-61613441Y151740714D01*
X-61613437Y151740711D01*
X-61482334Y151653110D01*
X-61482321Y151653103D01*
X-61348721Y151597765D01*
X-61336645Y151592763D01*
X-61181995Y151562001D01*
X-61181992Y151562000D01*
X-61181990Y151562000D01*
X-61024304Y151562000D01*
X-61024303Y151562001D01*
X-60869651Y151592763D01*
X-60723969Y151653106D01*
X-60592859Y151740711D01*
X-60481359Y151852211D01*
X-60393754Y151983321D01*
X-60333411Y152129003D01*
X-60302648Y152283658D01*
X-60302648Y152441342D01*
X-60302648Y152441345D01*
X-60302649Y152441347D01*
X-60305602Y152456192D01*
X-60333411Y152595997D01*
X-60374647Y152695549D01*
X-60382115Y152765017D01*
X-60350840Y152827496D01*
X-60290751Y152863148D01*
X-60260085Y152867000D01*
X-52929039Y152867000D01*
X-52929035Y152866999D01*
X-52866012Y152867000D01*
X-52860288Y152866868D01*
X-52832544Y152865586D01*
X-52476762Y152849141D01*
X-52465374Y152848085D01*
X-52109924Y152798505D01*
X-52087979Y152795444D01*
X-52076719Y152793340D01*
X-51705770Y152706098D01*
X-51694766Y152702966D01*
X-51552603Y152655319D01*
X-51333474Y152581876D01*
X-51322794Y152577739D01*
X-50974210Y152423827D01*
X-50963957Y152418722D01*
X-50881538Y152372816D01*
X-50631041Y152233292D01*
X-50621329Y152227278D01*
X-50309678Y152013795D01*
X-50306955Y152011930D01*
X-50297817Y152005030D01*
X-50009324Y151765471D01*
X-50004663Y151761601D01*
X-49996198Y151753885D01*
X-49726744Y151484434D01*
X-49719028Y151475969D01*
X-49611938Y151347006D01*
X-49475597Y151182819D01*
X-49468707Y151173696D01*
X-49253344Y150859307D01*
X-49247323Y150849582D01*
X-49061897Y150516681D01*
X-49056794Y150506433D01*
X-48902877Y150157847D01*
X-48898743Y150147176D01*
X-48777645Y149785871D01*
X-48774511Y149774855D01*
X-48687271Y149403935D01*
X-48685166Y149392676D01*
X-48632521Y149015276D01*
X-48631464Y149003872D01*
X-48613780Y148621395D01*
X-48613648Y148615668D01*
X-48613648Y118120372D01*
X-48613780Y118114645D01*
X-48631512Y117731132D01*
X-48632569Y117719728D01*
X-48685213Y117342335D01*
X-48687318Y117331076D01*
X-48774557Y116960159D01*
X-48777691Y116949143D01*
X-48898788Y116587842D01*
X-48902926Y116577164D01*
X-48920495Y116537371D01*
X-49056835Y116228593D01*
X-49061940Y116218341D01*
X-49247364Y115885445D01*
X-49253393Y115875707D01*
X-49319637Y115779003D01*
X-49437343Y115607174D01*
X-49468733Y115561351D01*
X-49475634Y115552213D01*
X-49643000Y115350663D01*
X-49719064Y115259064D01*
X-49726780Y115250600D01*
X-49996226Y114981157D01*
X-50004690Y114973441D01*
X-50297849Y114730007D01*
X-50306989Y114723105D01*
X-50395469Y114662496D01*
X-50621348Y114507767D01*
X-50631079Y114501741D01*
X-50963978Y114316322D01*
X-50974231Y114311217D01*
X-51322811Y114157307D01*
X-51333491Y114153170D01*
X-51694773Y114032083D01*
X-51705789Y114028948D01*
X-52076727Y113941708D01*
X-52087986Y113939604D01*
X-52465369Y113886965D01*
X-52476773Y113885908D01*
X-52861316Y113868133D01*
X-52867040Y113868001D01*
X-52898887Y113868001D01*
X-52929035Y113868001D01*
X-52929039Y113868001D01*
X-52936643Y113868000D01*
X-52936644Y113868001D01*
X-52936645Y113868000D01*
X-57999148Y113868000D01*
X-58066187Y113887685D01*
X-58111942Y113940489D01*
X-58123148Y113992000D01*
X-58123148Y114117500D01*
X-60994148Y114117500D01*
X-61061187Y114137185D01*
X-61106942Y114189989D01*
X-61118148Y114241500D01*
X-61118148Y114367500D01*
X-61244148Y114367500D01*
X-61311187Y114387185D01*
X-61356942Y114439989D01*
X-61368148Y114491500D01*
X-61368148Y114617500D01*
X-60868148Y114617500D01*
X-59373148Y114617500D01*
X-58873148Y114617500D01*
X-58123148Y114617500D01*
X-58123148Y114915328D01*
X-58123149Y114915345D01*
X-58129550Y114974873D01*
X-58129552Y114974880D01*
X-58179794Y115109587D01*
X-58179798Y115109594D01*
X-58265958Y115224688D01*
X-58265961Y115224691D01*
X-58381055Y115310851D01*
X-58381062Y115310855D01*
X-58515769Y115361097D01*
X-58515776Y115361099D01*
X-58575304Y115367500D01*
X-58873148Y115367500D01*
X-58873148Y114617500D01*
X-59373148Y114617500D01*
X-59373148Y115367500D01*
X-59670993Y115367500D01*
X-59730521Y115361099D01*
X-59730528Y115361097D01*
X-59865235Y115310855D01*
X-59865242Y115310851D01*
X-59980336Y115224691D01*
X-59980339Y115224688D01*
X-60021382Y115169861D01*
X-60077316Y115127990D01*
X-60147007Y115123006D01*
X-60208330Y115156492D01*
X-60219914Y115169861D01*
X-60260958Y115224688D01*
X-60260961Y115224691D01*
X-60376055Y115310851D01*
X-60376062Y115310855D01*
X-60510769Y115361097D01*
X-60510776Y115361099D01*
X-60570304Y115367500D01*
X-60868148Y115367500D01*
X-60868148Y114617500D01*
X-61368148Y114617500D01*
X-61368148Y115341083D01*
X-61448358Y115379864D01*
X-61454053Y115385022D01*
X-61461421Y115387185D01*
X-61479582Y115408144D01*
X-61500144Y115426767D01*
X-61502147Y115434185D01*
X-61507176Y115439989D01*
X-61511124Y115467444D01*
X-61518352Y115494223D01*
X-61516027Y115501544D01*
X-61517120Y115509147D01*
X-61497484Y115560391D01*
X-61448758Y115633315D01*
X-61448758Y115633316D01*
X-61448754Y115633321D01*
X-61388411Y115779003D01*
X-61357648Y115933658D01*
X-61357648Y116091342D01*
X-61357648Y116091345D01*
X-61357649Y116091347D01*
X-61369078Y116148809D01*
X-61362851Y116218401D01*
X-61319987Y116273578D01*
X-61254098Y116296822D01*
X-61247461Y116297000D01*
X-61085645Y116297000D01*
X-61085640Y116297000D01*
X-60982851Y116307501D01*
X-60816314Y116362686D01*
X-60709552Y116428539D01*
X-60644455Y116447000D01*
X-60153121Y116447000D01*
X-60086082Y116427315D01*
X-60040327Y116374511D01*
X-60029763Y116335602D01*
X-60020997Y116249792D01*
X-60020997Y116249790D01*
X-59967652Y116088806D01*
X-59967647Y116088795D01*
X-59878619Y115944460D01*
X-59878616Y115944456D01*
X-59758693Y115824533D01*
X-59758689Y115824530D01*
X-59614354Y115735502D01*
X-59614351Y115735501D01*
X-59614345Y115735497D01*
X-59453356Y115682151D01*
X-59353993Y115672000D01*
X-58807304Y115672001D01*
X-58807296Y115672002D01*
X-58807293Y115672002D01*
X-58752888Y115677560D01*
X-58707940Y115682151D01*
X-58546951Y115735497D01*
X-58402604Y115824532D01*
X-58393329Y115833807D01*
X-58332006Y115867292D01*
X-58262314Y115862308D01*
X-58217967Y115833807D01*
X-58208693Y115824533D01*
X-58208689Y115824530D01*
X-58064354Y115735502D01*
X-58064351Y115735501D01*
X-58064345Y115735497D01*
X-57903356Y115682151D01*
X-57803993Y115672000D01*
X-57257304Y115672001D01*
X-57257296Y115672002D01*
X-57257293Y115672002D01*
X-57202888Y115677560D01*
X-57157940Y115682151D01*
X-56996951Y115735497D01*
X-56852604Y115824532D01*
X-56732680Y115944456D01*
X-56643645Y116088803D01*
X-56590299Y116249792D01*
X-56580148Y116349155D01*
X-56580148Y116638001D01*
X-56580148Y118255168D01*
X-54963648Y118255168D01*
X-54963648Y117979833D01*
X-54963647Y117979816D01*
X-54927710Y117706845D01*
X-54927709Y117706840D01*
X-54927708Y117706834D01*
X-54897220Y117593050D01*
X-54856444Y117440870D01*
X-54751073Y117186483D01*
X-54751068Y117186472D01*
X-54706141Y117108658D01*
X-54613397Y116948021D01*
X-54613395Y116948018D01*
X-54613394Y116948017D01*
X-54445778Y116729574D01*
X-54445772Y116729567D01*
X-54251082Y116534877D01*
X-54251075Y116534871D01*
X-54183540Y116483050D01*
X-54032627Y116367251D01*
X-53893072Y116286679D01*
X-53794177Y116229581D01*
X-53794172Y116229579D01*
X-53794169Y116229577D01*
X-53539780Y116124205D01*
X-53273814Y116052940D01*
X-53000822Y116017000D01*
X-53000815Y116017000D01*
X-52725481Y116017000D01*
X-52725474Y116017000D01*
X-52452482Y116052940D01*
X-52186516Y116124205D01*
X-51932127Y116229577D01*
X-51693669Y116367251D01*
X-51475220Y116534872D01*
X-51280520Y116729572D01*
X-51112899Y116948021D01*
X-50975225Y117186479D01*
X-50869853Y117440868D01*
X-50798588Y117706834D01*
X-50762648Y117979826D01*
X-50762648Y118255174D01*
X-50798588Y118528166D01*
X-50869853Y118794132D01*
X-50975225Y119048521D01*
X-50975227Y119048524D01*
X-50975229Y119048529D01*
X-51024416Y119133722D01*
X-51112899Y119286979D01*
X-51280520Y119505428D01*
X-51280525Y119505434D01*
X-51475215Y119700124D01*
X-51475222Y119700130D01*
X-51693665Y119867746D01*
X-51693666Y119867747D01*
X-51693669Y119867749D01*
X-51794876Y119926181D01*
X-51932120Y120005420D01*
X-51932131Y120005425D01*
X-52186518Y120110796D01*
X-52319499Y120146428D01*
X-52452482Y120182060D01*
X-52452488Y120182061D01*
X-52452493Y120182062D01*
X-52725464Y120217999D01*
X-52725469Y120218000D01*
X-52725474Y120218000D01*
X-53000822Y120218000D01*
X-53000828Y120218000D01*
X-53000833Y120217999D01*
X-53273804Y120182062D01*
X-53273811Y120182061D01*
X-53273814Y120182060D01*
X-53330023Y120167000D01*
X-53539779Y120110796D01*
X-53794166Y120005425D01*
X-53794177Y120005420D01*
X-54032632Y119867746D01*
X-54251075Y119700130D01*
X-54251082Y119700124D01*
X-54445772Y119505434D01*
X-54445778Y119505427D01*
X-54613394Y119286984D01*
X-54751068Y119048529D01*
X-54751073Y119048518D01*
X-54856444Y118794131D01*
X-54927707Y118528169D01*
X-54927710Y118528156D01*
X-54963647Y118255185D01*
X-54963648Y118255168D01*
X-56580148Y118255168D01*
X-56580148Y119633691D01*
X-56580148Y119894116D01*
X-56586562Y119964696D01*
X-56637170Y120127106D01*
X-56702472Y120235128D01*
X-56720307Y120302679D01*
X-56701894Y120364369D01*
X-56643645Y120458803D01*
X-56590299Y120619792D01*
X-56580148Y120719155D01*
X-56580148Y121014003D01*
X-56580148Y122091116D01*
X-56580148Y122767060D01*
X-56560463Y122834099D01*
X-56543829Y122854741D01*
X-56256364Y123142206D01*
X-56256359Y123142211D01*
X-56239115Y123168019D01*
X-56168754Y123273321D01*
X-56108411Y123419003D01*
X-56087629Y123523480D01*
X-56077648Y123573657D01*
X-56077648Y123731342D01*
X-56077648Y127023491D01*
X-56057963Y127090530D01*
X-56005159Y127136285D01*
X-55936001Y127146229D01*
X-55884757Y127126593D01*
X-55752334Y127038110D01*
X-55752321Y127038103D01*
X-55609571Y126978975D01*
X-55606645Y126977763D01*
X-55456283Y126947854D01*
X-55451995Y126947001D01*
X-55451992Y126947000D01*
X-55451990Y126947000D01*
X-55294304Y126947000D01*
X-55294303Y126947001D01*
X-55139651Y126977763D01*
X-54993969Y127038106D01*
X-54862859Y127125711D01*
X-54751359Y127237211D01*
X-54663754Y127368321D01*
X-54603411Y127514003D01*
X-54572648Y127668658D01*
X-54572648Y127826342D01*
X-54572648Y127826345D01*
X-54572649Y127826347D01*
X-54574791Y127837116D01*
X-54603411Y127980997D01*
X-54608550Y127993403D01*
X-54663751Y128126673D01*
X-54663758Y128126686D01*
X-54751359Y128257789D01*
X-54751362Y128257793D01*
X-54862856Y128369287D01*
X-54862860Y128369290D01*
X-54993963Y128456891D01*
X-54993976Y128456898D01*
X-55139647Y128517236D01*
X-55139659Y128517239D01*
X-55294303Y128548000D01*
X-55294306Y128548000D01*
X-55451990Y128548000D01*
X-55451993Y128548000D01*
X-55606638Y128517239D01*
X-55606650Y128517236D01*
X-55752321Y128456898D01*
X-55752334Y128456891D01*
X-55884757Y128368408D01*
X-55951435Y128347530D01*
X-56018815Y128366015D01*
X-56065505Y128417994D01*
X-56077648Y128471510D01*
X-56077648Y133949860D01*
X-56057963Y134016899D01*
X-56005159Y134062654D01*
X-55936001Y134072598D01*
X-55915855Y134067069D01*
X-55915664Y134067697D01*
X-55909830Y134065928D01*
X-55716644Y134027501D01*
X-55716640Y134027500D01*
X-55318148Y134027500D01*
X-55318148Y134727500D01*
X-54818148Y134727500D01*
X-54818148Y134027500D01*
X-54419656Y134027500D01*
X-54419653Y134027501D01*
X-54226467Y134065928D01*
X-54226455Y134065931D01*
X-54044477Y134141308D01*
X-54044464Y134141315D01*
X-53880686Y134250749D01*
X-53880682Y134250752D01*
X-53741400Y134390034D01*
X-53741397Y134390038D01*
X-53631963Y134553816D01*
X-53631956Y134553829D01*
X-53556579Y134735808D01*
X-53556579Y134735810D01*
X-53548286Y134777500D01*
X-54351160Y134777500D01*
X-54333943Y134787440D01*
X-54278088Y134843295D01*
X-54238592Y134911704D01*
X-54218148Y134988004D01*
X-54218148Y135066996D01*
X-54238592Y135143296D01*
X-54278088Y135211705D01*
X-54333943Y135267560D01*
X-54351160Y135277500D01*
X-53548286Y135277500D01*
X-52238010Y135277500D01*
X-51435136Y135277500D01*
X-51452353Y135267560D01*
X-51508208Y135211705D01*
X-51547704Y135143296D01*
X-51568148Y135066996D01*
X-51568148Y134988004D01*
X-51547704Y134911704D01*
X-51508208Y134843295D01*
X-51452353Y134787440D01*
X-51435136Y134777500D01*
X-52238010Y134777500D01*
X-52229718Y134735810D01*
X-52229718Y134735808D01*
X-52154341Y134553829D01*
X-52154334Y134553816D01*
X-52044900Y134390038D01*
X-52044897Y134390034D01*
X-51905615Y134250752D01*
X-51905611Y134250749D01*
X-51741833Y134141315D01*
X-51741820Y134141308D01*
X-51559842Y134065931D01*
X-51559830Y134065928D01*
X-51366644Y134027501D01*
X-51366640Y134027500D01*
X-51118148Y134027500D01*
X-51118148Y134727500D01*
X-50618148Y134727500D01*
X-50618148Y134027500D01*
X-50369656Y134027500D01*
X-50369653Y134027501D01*
X-50176467Y134065928D01*
X-50176455Y134065931D01*
X-49994477Y134141308D01*
X-49994464Y134141315D01*
X-49830686Y134250749D01*
X-49830682Y134250752D01*
X-49691400Y134390034D01*
X-49691397Y134390038D01*
X-49581963Y134553816D01*
X-49581956Y134553829D01*
X-49506579Y134735808D01*
X-49506579Y134735810D01*
X-49498286Y134777500D01*
X-50301160Y134777500D01*
X-50283943Y134787440D01*
X-50228088Y134843295D01*
X-50188592Y134911704D01*
X-50168148Y134988004D01*
X-50168148Y135066996D01*
X-50188592Y135143296D01*
X-50228088Y135211705D01*
X-50283943Y135267560D01*
X-50301160Y135277500D01*
X-49498286Y135277500D01*
X-49506579Y135319191D01*
X-49506579Y135319193D01*
X-49581956Y135501172D01*
X-49581963Y135501185D01*
X-49691397Y135664963D01*
X-49691400Y135664967D01*
X-49830682Y135804249D01*
X-49830686Y135804252D01*
X-49994464Y135913686D01*
X-49994477Y135913693D01*
X-50176455Y135989070D01*
X-50176467Y135989073D01*
X-50369653Y136027500D01*
X-50618148Y136027500D01*
X-50618148Y135327500D01*
X-51118148Y135327500D01*
X-51118148Y136027500D01*
X-51366644Y136027500D01*
X-51559830Y135989073D01*
X-51559842Y135989070D01*
X-51741820Y135913693D01*
X-51741833Y135913686D01*
X-51905611Y135804252D01*
X-51905615Y135804249D01*
X-52044897Y135664967D01*
X-52044900Y135664963D01*
X-52154334Y135501185D01*
X-52154341Y135501172D01*
X-52229718Y135319193D01*
X-52229718Y135319191D01*
X-52238010Y135277500D01*
X-53548286Y135277500D01*
X-53556579Y135319191D01*
X-53556579Y135319193D01*
X-53631956Y135501172D01*
X-53631963Y135501185D01*
X-53741397Y135664963D01*
X-53741400Y135664967D01*
X-53880682Y135804249D01*
X-53880686Y135804252D01*
X-54044468Y135913688D01*
X-54049813Y135916545D01*
X-54099659Y135965506D01*
X-54115121Y136033643D01*
X-54091292Y136099323D01*
X-54089736Y136101395D01*
X-54087642Y136104127D01*
X-54087633Y136104135D01*
X-54011867Y136235365D01*
X-53972648Y136381734D01*
X-53972648Y136533266D01*
X-54011867Y136679635D01*
X-54087633Y136810865D01*
X-54194783Y136918015D01*
X-54275631Y136964693D01*
X-54326012Y136993781D01*
X-54399198Y137013391D01*
X-54472382Y137033000D01*
X-54623914Y137033000D01*
X-54711555Y137009517D01*
X-54781405Y137011180D01*
X-54839267Y137050343D01*
X-54866771Y137114572D01*
X-54867648Y137129292D01*
X-54867648Y141565709D01*
X-54847963Y141632748D01*
X-54795159Y141678503D01*
X-54726001Y141688447D01*
X-54711574Y141685488D01*
X-54623914Y141662000D01*
X-54623911Y141662000D01*
X-54472384Y141662000D01*
X-54472382Y141662000D01*
X-54326013Y141701219D01*
X-54194783Y141776985D01*
X-54087633Y141884135D01*
X-54011867Y142015365D01*
X-53972648Y142161734D01*
X-53972648Y142313266D01*
X-54011867Y142459635D01*
X-54087633Y142590865D01*
X-54087635Y142590867D01*
X-54089736Y142593605D01*
X-54090792Y142596335D01*
X-54091697Y142597903D01*
X-54091453Y142598045D01*
X-54114934Y142658773D01*
X-54100899Y142727218D01*
X-54052087Y142777210D01*
X-54049802Y142778463D01*
X-54044458Y142781319D01*
X-53880686Y142890749D01*
X-53880682Y142890752D01*
X-53741400Y143030034D01*
X-53741397Y143030038D01*
X-53631963Y143193816D01*
X-53631956Y143193829D01*
X-53556579Y143375808D01*
X-53556579Y143375810D01*
X-53548286Y143417500D01*
X-54351160Y143417500D01*
X-54333943Y143427440D01*
X-54278088Y143483295D01*
X-54238592Y143551704D01*
X-54218148Y143628004D01*
X-54218148Y143706996D01*
X-54238592Y143783296D01*
X-54278088Y143851705D01*
X-54333943Y143907560D01*
X-54351160Y143917500D01*
X-53548286Y143917500D01*
X-52238010Y143917500D01*
X-51435136Y143917500D01*
X-51452353Y143907560D01*
X-51508208Y143851705D01*
X-51547704Y143783296D01*
X-51568148Y143706996D01*
X-51568148Y143628004D01*
X-51547704Y143551704D01*
X-51508208Y143483295D01*
X-51452353Y143427440D01*
X-51435136Y143417500D01*
X-52238010Y143417500D01*
X-52229718Y143375810D01*
X-52229718Y143375808D01*
X-52154341Y143193829D01*
X-52154334Y143193816D01*
X-52044900Y143030038D01*
X-52044897Y143030034D01*
X-51905615Y142890752D01*
X-51905611Y142890749D01*
X-51741833Y142781315D01*
X-51741820Y142781308D01*
X-51559842Y142705931D01*
X-51559830Y142705928D01*
X-51366644Y142667501D01*
X-51366640Y142667500D01*
X-51118148Y142667500D01*
X-51118148Y143367500D01*
X-50618148Y143367500D01*
X-50618148Y142667500D01*
X-50369656Y142667500D01*
X-50369653Y142667501D01*
X-50176467Y142705928D01*
X-50176455Y142705931D01*
X-49994477Y142781308D01*
X-49994464Y142781315D01*
X-49830686Y142890749D01*
X-49830682Y142890752D01*
X-49691400Y143030034D01*
X-49691397Y143030038D01*
X-49581963Y143193816D01*
X-49581956Y143193829D01*
X-49506579Y143375808D01*
X-49506579Y143375810D01*
X-49498286Y143417500D01*
X-50301160Y143417500D01*
X-50283943Y143427440D01*
X-50228088Y143483295D01*
X-50188592Y143551704D01*
X-50168148Y143628004D01*
X-50168148Y143706996D01*
X-50188592Y143783296D01*
X-50228088Y143851705D01*
X-50283943Y143907560D01*
X-50301160Y143917500D01*
X-49498286Y143917500D01*
X-49506579Y143959191D01*
X-49506579Y143959193D01*
X-49581956Y144141172D01*
X-49581963Y144141185D01*
X-49691397Y144304963D01*
X-49691400Y144304967D01*
X-49830682Y144444249D01*
X-49830686Y144444252D01*
X-49994464Y144553686D01*
X-49994477Y144553693D01*
X-50176455Y144629070D01*
X-50176467Y144629073D01*
X-50369653Y144667500D01*
X-50618148Y144667500D01*
X-50618148Y143967500D01*
X-51118148Y143967500D01*
X-51118148Y144667500D01*
X-51366644Y144667500D01*
X-51559830Y144629073D01*
X-51559842Y144629070D01*
X-51741820Y144553693D01*
X-51741833Y144553686D01*
X-51905611Y144444252D01*
X-51905615Y144444249D01*
X-52044897Y144304967D01*
X-52044900Y144304963D01*
X-52154334Y144141185D01*
X-52154341Y144141172D01*
X-52229718Y143959193D01*
X-52229718Y143959191D01*
X-52238010Y143917500D01*
X-53548286Y143917500D01*
X-53556579Y143959191D01*
X-53556579Y143959193D01*
X-53631956Y144141172D01*
X-53631963Y144141185D01*
X-53741397Y144304963D01*
X-53741400Y144304967D01*
X-53880682Y144444249D01*
X-53880686Y144444252D01*
X-54044464Y144553686D01*
X-54044477Y144553693D01*
X-54226455Y144629070D01*
X-54226467Y144629073D01*
X-54419653Y144667500D01*
X-54818148Y144667500D01*
X-54818148Y143967500D01*
X-55318148Y143967500D01*
X-55318148Y144667500D01*
X-55716644Y144667500D01*
X-55909830Y144629073D01*
X-55909842Y144629070D01*
X-56091820Y144553693D01*
X-56091833Y144553686D01*
X-56255611Y144444252D01*
X-56255615Y144444249D01*
X-56394897Y144304967D01*
X-56394900Y144304963D01*
X-56504334Y144141185D01*
X-56504341Y144141172D01*
X-56557919Y144011820D01*
X-56578502Y143986279D01*
X-56598170Y143960005D01*
X-56600320Y143959204D01*
X-56601760Y143957416D01*
X-56632895Y143947054D01*
X-56663634Y143935588D01*
X-56665877Y143936076D01*
X-56668054Y143935351D01*
X-56699850Y143943467D01*
X-56731907Y143950440D01*
X-56734357Y143952274D01*
X-56735753Y143952630D01*
X-56760161Y143971591D01*
X-56821329Y144032759D01*
X-56854814Y144094082D01*
X-56857648Y144120440D01*
X-56857648Y145975687D01*
X-56857649Y145975702D01*
X-56859222Y145995686D01*
X-56860550Y146012569D01*
X-56863814Y146023803D01*
X-56901879Y146154823D01*
X-56906404Y146170398D01*
X-56990067Y146311865D01*
X-56990069Y146311867D01*
X-56990072Y146311871D01*
X-57106278Y146428077D01*
X-57106286Y146428083D01*
X-57247752Y146511745D01*
X-57247755Y146511746D01*
X-57411663Y146559366D01*
X-57411072Y146561402D01*
X-57464751Y146588424D01*
X-57500267Y146648594D01*
X-57501667Y146703179D01*
X-57487648Y146773656D01*
X-57487648Y146931345D01*
X-57487649Y146931347D01*
X-57507969Y147033500D01*
X-57518411Y147085997D01*
X-57518413Y147086002D01*
X-57578209Y147230364D01*
X-57587648Y147277816D01*
X-57587648Y148501494D01*
X-57591120Y148518945D01*
X-57592126Y148524003D01*
X-57614568Y148636828D01*
X-57648306Y148718280D01*
X-57663585Y148755168D01*
X-54963648Y148755168D01*
X-54963648Y148479833D01*
X-54963647Y148479816D01*
X-54927710Y148206845D01*
X-54927709Y148206840D01*
X-54927708Y148206834D01*
X-54927707Y148206832D01*
X-54856444Y147940870D01*
X-54751073Y147686483D01*
X-54751068Y147686472D01*
X-54676894Y147558000D01*
X-54613397Y147448021D01*
X-54613395Y147448018D01*
X-54613394Y147448017D01*
X-54445778Y147229574D01*
X-54445772Y147229567D01*
X-54251082Y147034877D01*
X-54251076Y147034872D01*
X-54032627Y146867251D01*
X-53916280Y146800078D01*
X-53794177Y146729581D01*
X-53794172Y146729579D01*
X-53794169Y146729577D01*
X-53539780Y146624205D01*
X-53273814Y146552940D01*
X-53000822Y146517000D01*
X-53000815Y146517000D01*
X-52725481Y146517000D01*
X-52725474Y146517000D01*
X-52452482Y146552940D01*
X-52186516Y146624205D01*
X-51932127Y146729577D01*
X-51693669Y146867251D01*
X-51475220Y147034872D01*
X-51280520Y147229572D01*
X-51112899Y147448021D01*
X-50975225Y147686479D01*
X-50869853Y147940868D01*
X-50798588Y148206834D01*
X-50762648Y148479826D01*
X-50762648Y148755174D01*
X-50798588Y149028166D01*
X-50869853Y149294132D01*
X-50975225Y149548521D01*
X-50975227Y149548524D01*
X-50975229Y149548529D01*
X-51060321Y149695911D01*
X-51112899Y149786979D01*
X-51280520Y150005428D01*
X-51280525Y150005434D01*
X-51475215Y150200124D01*
X-51475222Y150200130D01*
X-51693665Y150367746D01*
X-51693666Y150367747D01*
X-51693669Y150367749D01*
X-51829534Y150446191D01*
X-51932120Y150505420D01*
X-51932131Y150505425D01*
X-52186518Y150610796D01*
X-52360774Y150657487D01*
X-52452482Y150682060D01*
X-52452488Y150682061D01*
X-52452493Y150682062D01*
X-52725464Y150717999D01*
X-52725469Y150718000D01*
X-52725474Y150718000D01*
X-53000822Y150718000D01*
X-53000828Y150718000D01*
X-53000833Y150717999D01*
X-53273804Y150682062D01*
X-53273811Y150682061D01*
X-53273814Y150682060D01*
X-53330023Y150667000D01*
X-53539779Y150610796D01*
X-53794166Y150505425D01*
X-53794177Y150505420D01*
X-54032632Y150367746D01*
X-54251075Y150200130D01*
X-54251082Y150200124D01*
X-54445772Y150005434D01*
X-54445778Y150005427D01*
X-54613394Y149786984D01*
X-54751068Y149548529D01*
X-54751073Y149548518D01*
X-54856444Y149294131D01*
X-54927707Y149028169D01*
X-54927710Y149028156D01*
X-54963647Y148755185D01*
X-54963648Y148755168D01*
X-57663585Y148755168D01*
X-57667371Y148764308D01*
X-57744036Y148879046D01*
X-58341600Y149476610D01*
X-58346309Y149480474D01*
X-58345047Y149482013D01*
X-58383985Y149528613D01*
X-58392687Y149597939D01*
X-58380308Y149631114D01*
X-58381844Y149631830D01*
X-58378790Y149638381D01*
X-58323643Y149804803D01*
X-58323642Y149804810D01*
X-58313149Y149907514D01*
X-58313148Y149907527D01*
X-58313148Y150032500D01*
X-59589148Y150032500D01*
X-59656187Y150052185D01*
X-59701942Y150104989D01*
X-59713148Y150156500D01*
X-59713148Y150282500D01*
X-59839148Y150282500D01*
X-59906187Y150302185D01*
X-59951942Y150354989D01*
X-59963148Y150406500D01*
X-59963148Y150532500D01*
X-59463148Y150532500D01*
X-58313149Y150532500D01*
X-58313149Y150657472D01*
X-58313150Y150657487D01*
X-58323643Y150760198D01*
X-58378790Y150926620D01*
X-58378792Y150926625D01*
X-58470833Y151075846D01*
X-58594803Y151199816D01*
X-58744024Y151291857D01*
X-58744029Y151291859D01*
X-58910451Y151347006D01*
X-58910458Y151347007D01*
X-59013162Y151357500D01*
X-59463148Y151357500D01*
X-59463148Y150532500D01*
X-59963148Y150532500D01*
X-59963148Y151357500D01*
X-60413120Y151357500D01*
X-60413136Y151357499D01*
X-60515846Y151347006D01*
X-60682268Y151291859D01*
X-60682273Y151291857D01*
X-60831494Y151199816D01*
X-60955464Y151075846D01*
X-61047505Y150926625D01*
X-61047507Y150926620D01*
X-61064939Y150874012D01*
X-61104712Y150816567D01*
X-61169228Y150789744D01*
X-61238004Y150802059D01*
X-61270326Y150825335D01*
X-62341602Y151896612D01*
X-62341603Y151896613D01*
X-62456341Y151973278D01*
X-62583816Y152026079D01*
X-62583826Y152026082D01*
X-62719152Y152053000D01*
X-62719154Y152053000D01*
X-62719155Y152053000D01*
X-65474154Y152053000D01*
X-65612142Y152053000D01*
X-65612144Y152053000D01*
X-65747471Y152026082D01*
X-65747481Y152026079D01*
X-65874956Y151973278D01*
X-65989694Y151896613D01*
X-66312736Y151573571D01*
X-66352964Y151546691D01*
X-66497325Y151486896D01*
X-66497334Y151486891D01*
X-66628437Y151399290D01*
X-66628441Y151399287D01*
X-66739935Y151287793D01*
X-66739938Y151287789D01*
X-66827539Y151156686D01*
X-66827546Y151156673D01*
X-66887884Y151011002D01*
X-66887887Y151010992D01*
X-66918357Y150857808D01*
X-66950742Y150795897D01*
X-67011458Y150761323D01*
X-67039974Y150758000D01*
X-69191322Y150758000D01*
X-69258361Y150777685D01*
X-69304116Y150830489D01*
X-69312939Y150857809D01*
X-69343409Y151010990D01*
X-69343409Y151010992D01*
X-69343410Y151010997D01*
X-69403754Y151156679D01*
X-69403756Y151156682D01*
X-69403758Y151156686D01*
X-69491359Y151287789D01*
X-69491362Y151287793D01*
X-69715178Y151511609D01*
X-69748663Y151572932D01*
X-69743679Y151642624D01*
X-69701807Y151698557D01*
X-69636343Y151722974D01*
X-69568070Y151708122D01*
X-69558606Y151702392D01*
X-69492334Y151658110D01*
X-69492321Y151658103D01*
X-69346650Y151597765D01*
X-69346645Y151597763D01*
X-69225024Y151573571D01*
X-69191995Y151567001D01*
X-69191992Y151567000D01*
X-69191990Y151567000D01*
X-69034304Y151567000D01*
X-69034303Y151567001D01*
X-68879651Y151597763D01*
X-68746040Y151653106D01*
X-68733976Y151658103D01*
X-68733976Y151658104D01*
X-68733969Y151658106D01*
X-68602859Y151745711D01*
X-68491359Y151857211D01*
X-68403754Y151988321D01*
X-68343411Y152134003D01*
X-68312648Y152288658D01*
X-68312648Y152446342D01*
X-68312648Y152446345D01*
X-68312649Y152446347D01*
X-68314608Y152456195D01*
X-68343411Y152600997D01*
X-68382576Y152695549D01*
X-68390044Y152765017D01*
X-68358769Y152827496D01*
X-68298680Y152863148D01*
X-68268014Y152867000D01*
X-61946211Y152867000D01*
X-61914738Y152857759D01*
G37*
%TD.AperFunction*%
%TA.AperFunction,Conductor*%
G36*
X-64624358Y116829906D02*
G01*
X-64592035Y116806630D01*
X-64516930Y116731525D01*
X-64516927Y116731523D01*
X-64344870Y116616559D01*
X-64153692Y116537370D01*
X-63950742Y116497001D01*
X-63950738Y116497000D01*
X-63950737Y116497000D01*
X-63743807Y116497000D01*
X-63697876Y116497000D01*
X-63630837Y116477315D01*
X-63610195Y116460681D01*
X-63604304Y116454790D01*
X-63604300Y116454787D01*
X-63454986Y116362688D01*
X-63454984Y116362687D01*
X-63454982Y116362686D01*
X-63288445Y116307501D01*
X-63185656Y116297000D01*
X-63068835Y116297000D01*
X-63001796Y116277315D01*
X-62956041Y116224511D01*
X-62946097Y116155353D01*
X-62947218Y116148809D01*
X-62958648Y116091347D01*
X-62958648Y115933654D01*
X-62927887Y115779011D01*
X-62927884Y115778999D01*
X-62867546Y115633328D01*
X-62867539Y115633315D01*
X-62819146Y115560891D01*
X-62798268Y115494214D01*
X-62816752Y115426834D01*
X-62868731Y115380143D01*
X-62922248Y115368000D01*
X-64098427Y115368000D01*
X-64165466Y115387685D01*
X-64211221Y115440489D01*
X-64212975Y115444516D01*
X-64226516Y115477208D01*
X-64226520Y115477215D01*
X-64336008Y115641075D01*
X-64377085Y115682152D01*
X-64475366Y115780433D01*
X-64475367Y115780434D01*
X-64982281Y116287347D01*
X-65015765Y116348669D01*
X-65010781Y116418360D01*
X-64982280Y116462709D01*
X-64915831Y116529158D01*
X-64823792Y116678376D01*
X-64823790Y116678381D01*
X-64797422Y116757953D01*
X-64757650Y116815398D01*
X-64693134Y116842221D01*
X-64624358Y116829906D01*
G37*
%TD.AperFunction*%
%TA.AperFunction,Conductor*%
G36*
X-58887609Y120997815D02*
G01*
X-58841854Y120945011D01*
X-58830648Y120893500D01*
X-58830648Y120013862D01*
X-58850333Y119946823D01*
X-58866967Y119926181D01*
X-58880648Y119912500D01*
X-58880648Y119686500D01*
X-58900333Y119619461D01*
X-58953137Y119573706D01*
X-59004648Y119562500D01*
X-59256648Y119562500D01*
X-59323687Y119582185D01*
X-59369442Y119634989D01*
X-59380648Y119686500D01*
X-59380648Y120566138D01*
X-59360963Y120633177D01*
X-59344329Y120653819D01*
X-59330648Y120667500D01*
X-59330648Y120893500D01*
X-59310963Y120960539D01*
X-59258159Y121006294D01*
X-59206648Y121017500D01*
X-58954648Y121017500D01*
X-58887609Y120997815D01*
G37*
%TD.AperFunction*%
%TA.AperFunction,Conductor*%
G36*
X-76092445Y128476431D02*
G01*
X-76085972Y128470403D01*
X-75541288Y127925719D01*
X-75541287Y127925718D01*
X-75469427Y127853858D01*
X-75401929Y127786360D01*
X-75238069Y127676872D01*
X-75232692Y127673998D01*
X-75233551Y127672392D01*
X-75185804Y127633928D01*
X-75163728Y127567637D01*
X-75163648Y127563191D01*
X-75163648Y127433654D01*
X-75132887Y127279011D01*
X-75132884Y127278999D01*
X-75072546Y127133328D01*
X-75072539Y127133315D01*
X-74984938Y127002212D01*
X-74984935Y127002208D01*
X-74873439Y126890712D01*
X-74865790Y126885601D01*
X-74820986Y126831987D01*
X-74812280Y126762662D01*
X-74842436Y126699635D01*
X-74865790Y126679399D01*
X-74873439Y126674289D01*
X-74984935Y126562793D01*
X-74984938Y126562789D01*
X-75072539Y126431686D01*
X-75072546Y126431673D01*
X-75132884Y126286002D01*
X-75132887Y126285990D01*
X-75163648Y126131347D01*
X-75163648Y125973654D01*
X-75132887Y125819011D01*
X-75132884Y125818999D01*
X-75072546Y125673328D01*
X-75072539Y125673315D01*
X-74984938Y125542212D01*
X-74984935Y125542208D01*
X-74873441Y125430714D01*
X-74873437Y125430711D01*
X-74742334Y125343110D01*
X-74742321Y125343103D01*
X-74596650Y125282765D01*
X-74596645Y125282763D01*
X-74441995Y125252001D01*
X-74441992Y125252000D01*
X-74441990Y125252000D01*
X-74284304Y125252000D01*
X-74284303Y125252001D01*
X-74129651Y125282763D01*
X-73983969Y125343106D01*
X-73852859Y125430711D01*
X-73741359Y125542211D01*
X-73653754Y125673321D01*
X-73593411Y125819003D01*
X-73562648Y125973658D01*
X-73562648Y126131342D01*
X-73562648Y126131345D01*
X-73562649Y126131347D01*
X-73577876Y126207898D01*
X-73593411Y126285997D01*
X-73607491Y126319989D01*
X-73653751Y126431673D01*
X-73653758Y126431686D01*
X-73741359Y126562789D01*
X-73741362Y126562793D01*
X-73852856Y126674287D01*
X-73852861Y126674291D01*
X-73860503Y126679397D01*
X-73905309Y126733009D01*
X-73914018Y126802334D01*
X-73883864Y126865361D01*
X-73875886Y126873463D01*
X-73868678Y126880142D01*
X-73852859Y126890711D01*
X-73797316Y126946255D01*
X-73795589Y126947854D01*
X-73766334Y126962409D01*
X-73737676Y126978057D01*
X-73735230Y126977883D01*
X-73733033Y126978975D01*
X-73700557Y126975403D01*
X-73667984Y126973073D01*
X-73665631Y126971561D01*
X-73663582Y126971335D01*
X-73657060Y126966052D01*
X-73623636Y126944572D01*
X-73084967Y126405903D01*
X-73051482Y126344580D01*
X-73048648Y126318222D01*
X-73048648Y121527308D01*
X-73068333Y121460269D01*
X-73121137Y121414514D01*
X-73190295Y121404570D01*
X-73253851Y121433595D01*
X-73260329Y121439627D01*
X-76261329Y124440627D01*
X-76294814Y124501950D01*
X-76297648Y124528308D01*
X-76297648Y128382718D01*
X-76277963Y128449757D01*
X-76225159Y128495512D01*
X-76156001Y128505456D01*
X-76092445Y128476431D01*
G37*
%TD.AperFunction*%
%TA.AperFunction,Conductor*%
G36*
X-64792609Y125512815D02*
G01*
X-64746854Y125460011D01*
X-64735648Y125408500D01*
X-64735648Y124457501D01*
X-64285676Y124457501D01*
X-64285662Y124457502D01*
X-64182951Y124467995D01*
X-64016529Y124523142D01*
X-64016522Y124523145D01*
X-63932579Y124574922D01*
X-63865186Y124593363D01*
X-63798523Y124572441D01*
X-63778587Y124555836D01*
X-63768278Y124545236D01*
X-63753729Y124520635D01*
X-63637513Y124404419D01*
X-63622960Y124395812D01*
X-63611425Y124383952D01*
X-63602521Y124367091D01*
X-63589512Y124353157D01*
X-63586545Y124336839D01*
X-63578797Y124322168D01*
X-63580422Y124303172D01*
X-63577011Y124284415D01*
X-63583339Y124269080D01*
X-63584752Y124252553D01*
X-63596388Y124237453D01*
X-63603660Y124219827D01*
X-63622645Y124203378D01*
X-63627398Y124197208D01*
X-63631424Y124195771D01*
X-63631570Y124195644D01*
X-63631350Y124195361D01*
X-63636556Y124191324D01*
X-63637193Y124190771D01*
X-63637508Y124190586D01*
X-63637519Y124190577D01*
X-63753725Y124074371D01*
X-63753734Y124074360D01*
X-63783586Y124023880D01*
X-63834654Y123976196D01*
X-63890318Y123963000D01*
X-63969493Y123963000D01*
X-64124138Y123932239D01*
X-64124150Y123932236D01*
X-64269821Y123871898D01*
X-64269834Y123871891D01*
X-64400934Y123784292D01*
X-64400937Y123784289D01*
X-64490910Y123694318D01*
X-64552232Y123660834D01*
X-64578589Y123658000D01*
X-65462148Y123658000D01*
X-65529187Y123677685D01*
X-65574942Y123730489D01*
X-65586148Y123782000D01*
X-65586148Y124333501D01*
X-65566463Y124400540D01*
X-65513659Y124446295D01*
X-65462148Y124457501D01*
X-65235648Y124457501D01*
X-65235648Y125408500D01*
X-65215963Y125475539D01*
X-65163159Y125521294D01*
X-65111648Y125532500D01*
X-64859648Y125532500D01*
X-64792609Y125512815D01*
G37*
%TD.AperFunction*%
%TA.AperFunction,Conductor*%
G36*
X-68297445Y129063744D02*
G01*
X-68275546Y129038922D01*
X-68224290Y128962212D01*
X-68224287Y128962208D01*
X-68112793Y128850714D01*
X-68112789Y128850711D01*
X-67981686Y128763110D01*
X-67981673Y128763103D01*
X-67836002Y128702765D01*
X-67835997Y128702763D01*
X-67800912Y128695784D01*
X-67771252Y128689884D01*
X-67709341Y128657499D01*
X-67674767Y128596784D01*
X-67673826Y128544076D01*
X-67688148Y128472074D01*
X-67688148Y126371500D01*
X-67690699Y126362815D01*
X-67689410Y126353853D01*
X-67700389Y126329813D01*
X-67707833Y126304461D01*
X-67714674Y126298534D01*
X-67718435Y126290297D01*
X-67740670Y126276008D01*
X-67760637Y126258706D01*
X-67771152Y126256419D01*
X-67777213Y126252523D01*
X-67812148Y126247500D01*
X-67888648Y126247500D01*
X-67955687Y126267185D01*
X-68001442Y126319989D01*
X-68012648Y126371500D01*
X-68012648Y126893440D01*
X-68012647Y126893453D01*
X-68012647Y127061556D01*
X-68012647Y127061557D01*
X-68053571Y127214284D01*
X-68054748Y127216322D01*
X-68132624Y127351210D01*
X-68132630Y127351218D01*
X-68466329Y127684917D01*
X-68499814Y127746240D01*
X-68502648Y127772598D01*
X-68502648Y128970031D01*
X-68482963Y129037070D01*
X-68430159Y129082825D01*
X-68361001Y129092769D01*
X-68297445Y129063744D01*
G37*
%TD.AperFunction*%
%TA.AperFunction,Conductor*%
G36*
X-57759319Y137336744D02*
G01*
X-57703384Y137294875D01*
X-57678964Y137229411D01*
X-57678648Y137220560D01*
X-57678648Y128661671D01*
X-57698333Y128594632D01*
X-57751137Y128548877D01*
X-57820295Y128538933D01*
X-57839531Y128543283D01*
X-57848544Y128546091D01*
X-57919076Y128552500D01*
X-58000648Y128552500D01*
X-58000648Y127776500D01*
X-58020333Y127709461D01*
X-58073137Y127663706D01*
X-58124648Y127652500D01*
X-58376648Y127652500D01*
X-58443687Y127672185D01*
X-58489442Y127724989D01*
X-58500648Y127776500D01*
X-58500648Y128552500D01*
X-58500649Y128552501D01*
X-58582231Y128552500D01*
X-58652751Y128546092D01*
X-58652756Y128546091D01*
X-58815045Y128495519D01*
X-58960526Y128407573D01*
X-59080720Y128287379D01*
X-59080722Y128287376D01*
X-59082620Y128284236D01*
X-59084606Y128282419D01*
X-59085345Y128281474D01*
X-59085503Y128281598D01*
X-59134151Y128237052D01*
X-59203011Y128225218D01*
X-59267338Y128252491D01*
X-59276414Y128260712D01*
X-60532406Y129516704D01*
X-60565891Y129578027D01*
X-60560907Y129647719D01*
X-60519035Y129703652D01*
X-60468921Y129726001D01*
X-60384651Y129742763D01*
X-60238969Y129803106D01*
X-60107859Y129890711D01*
X-59996359Y130002211D01*
X-59908754Y130133321D01*
X-59848411Y130279003D01*
X-59817648Y130433658D01*
X-59817648Y130591342D01*
X-59817648Y130591345D01*
X-59817649Y130591347D01*
X-59823964Y130623093D01*
X-59848411Y130745997D01*
X-59864010Y130783656D01*
X-59908751Y130891673D01*
X-59908758Y130891686D01*
X-59996359Y131022789D01*
X-59996362Y131022793D01*
X-60107856Y131134287D01*
X-60107860Y131134290D01*
X-60238963Y131221891D01*
X-60238976Y131221898D01*
X-60384647Y131282236D01*
X-60384659Y131282239D01*
X-60539303Y131313000D01*
X-60539306Y131313000D01*
X-60696990Y131313000D01*
X-60696993Y131313000D01*
X-60851638Y131282239D01*
X-60851650Y131282236D01*
X-60997321Y131221898D01*
X-60997334Y131221891D01*
X-61128437Y131134290D01*
X-61128441Y131134287D01*
X-61239935Y131022793D01*
X-61239938Y131022789D01*
X-61327539Y130891686D01*
X-61327546Y130891673D01*
X-61387884Y130746002D01*
X-61387887Y130745992D01*
X-61414534Y130612032D01*
X-61446920Y130550121D01*
X-61507636Y130515547D01*
X-61577405Y130519288D01*
X-61583603Y130521663D01*
X-61683400Y130563000D01*
X-61683410Y130563003D01*
X-61809077Y130588000D01*
X-61809079Y130588000D01*
X-66073322Y130588000D01*
X-66140361Y130607685D01*
X-66186116Y130660489D01*
X-66196060Y130729647D01*
X-66167035Y130793203D01*
X-66161003Y130799681D01*
X-65252356Y131708328D01*
X-64294337Y132666347D01*
X-61988648Y132666347D01*
X-61988648Y132508654D01*
X-61957887Y132354011D01*
X-61957884Y132353999D01*
X-61897546Y132208328D01*
X-61897539Y132208315D01*
X-61809938Y132077212D01*
X-61809935Y132077208D01*
X-61698441Y131965714D01*
X-61698437Y131965711D01*
X-61567334Y131878110D01*
X-61567321Y131878103D01*
X-61422560Y131818142D01*
X-61421645Y131817763D01*
X-61285661Y131790714D01*
X-61266995Y131787001D01*
X-61266992Y131787000D01*
X-61266990Y131787000D01*
X-61109304Y131787000D01*
X-61109303Y131787001D01*
X-60954651Y131817763D01*
X-60808969Y131878106D01*
X-60752104Y131916103D01*
X-60685427Y131936980D01*
X-60683213Y131937000D01*
X-60282620Y131937000D01*
X-60274892Y131937380D01*
X-59853463Y131937380D01*
X-59786424Y131917695D01*
X-59784619Y131916514D01*
X-59727707Y131878486D01*
X-59727705Y131878485D01*
X-59727701Y131878483D01*
X-59582030Y131818145D01*
X-59582025Y131818143D01*
X-59444131Y131790714D01*
X-59427375Y131787381D01*
X-59427372Y131787380D01*
X-59427370Y131787380D01*
X-59269684Y131787380D01*
X-59269683Y131787381D01*
X-59115031Y131818143D01*
X-59002362Y131864813D01*
X-58969356Y131878483D01*
X-58969356Y131878484D01*
X-58969349Y131878486D01*
X-58838239Y131966091D01*
X-58726739Y132077591D01*
X-58639134Y132208701D01*
X-58578791Y132354383D01*
X-58548028Y132509038D01*
X-58548028Y132666722D01*
X-58548028Y132666725D01*
X-58548029Y132666727D01*
X-58572514Y132789820D01*
X-58578791Y132821377D01*
X-58592952Y132855565D01*
X-58639131Y132967053D01*
X-58639138Y132967066D01*
X-58726739Y133098169D01*
X-58726742Y133098173D01*
X-58838236Y133209667D01*
X-58838240Y133209670D01*
X-58969343Y133297271D01*
X-58969356Y133297278D01*
X-59115027Y133357616D01*
X-59115039Y133357619D01*
X-59269683Y133388380D01*
X-59269686Y133388380D01*
X-59427370Y133388380D01*
X-59427373Y133388380D01*
X-59582018Y133357619D01*
X-59582030Y133357616D01*
X-59727701Y133297278D01*
X-59727708Y133297274D01*
X-59756600Y133277969D01*
X-59784573Y133259278D01*
X-59851249Y133238400D01*
X-59853463Y133238380D01*
X-60414820Y133238380D01*
X-60422548Y133238000D01*
X-60683213Y133238000D01*
X-60750252Y133257685D01*
X-60752058Y133258867D01*
X-60808969Y133296894D01*
X-60808976Y133296898D01*
X-60954647Y133357236D01*
X-60954659Y133357239D01*
X-61109303Y133388000D01*
X-61109306Y133388000D01*
X-61266990Y133388000D01*
X-61266993Y133388000D01*
X-61421638Y133357239D01*
X-61421650Y133357236D01*
X-61567321Y133296898D01*
X-61567334Y133296891D01*
X-61698437Y133209290D01*
X-61698441Y133209287D01*
X-61809935Y133097793D01*
X-61809938Y133097789D01*
X-61897539Y132966686D01*
X-61897546Y132966673D01*
X-61957884Y132821002D01*
X-61957887Y132820990D01*
X-61988648Y132666347D01*
X-64294337Y132666347D01*
X-61273573Y135687113D01*
X-61212252Y135720596D01*
X-61210189Y135721027D01*
X-61149271Y135733143D01*
X-61003589Y135793486D01*
X-60872479Y135881091D01*
X-60760979Y135992591D01*
X-60673374Y136123701D01*
X-60613031Y136269383D01*
X-60582268Y136424038D01*
X-60582268Y136581722D01*
X-60582268Y136581725D01*
X-60582269Y136581727D01*
X-60611706Y136729715D01*
X-60613031Y136736377D01*
X-60619042Y136750889D01*
X-60673371Y136882053D01*
X-60673378Y136882066D01*
X-60704811Y136929109D01*
X-60725689Y136995787D01*
X-60707204Y137063167D01*
X-60655225Y137109857D01*
X-60601709Y137122000D01*
X-58329304Y137122000D01*
X-58329303Y137122001D01*
X-58174651Y137152763D01*
X-58028969Y137213106D01*
X-57897859Y137300711D01*
X-57890331Y137308240D01*
X-57829011Y137341725D01*
X-57759319Y137336744D01*
G37*
%TD.AperFunction*%
%TA.AperFunction,Conductor*%
G36*
X-70616917Y133597315D02*
G01*
X-70596275Y133580681D01*
X-70358967Y133343373D01*
X-70325482Y133282050D01*
X-70322648Y133255692D01*
X-70322648Y132692000D01*
X-70342333Y132624961D01*
X-70395137Y132579206D01*
X-70446648Y132568000D01*
X-71417842Y132568000D01*
X-71484881Y132587685D01*
X-71530636Y132640489D01*
X-71540580Y132709647D01*
X-71524574Y132755122D01*
X-71504054Y132789820D01*
X-71460883Y132938416D01*
X-71460881Y132938427D01*
X-71458149Y132973141D01*
X-71458148Y132973154D01*
X-71458148Y133047500D01*
X-72059148Y133047500D01*
X-72067834Y133050051D01*
X-72076795Y133048762D01*
X-72100836Y133059741D01*
X-72126187Y133067185D01*
X-72132115Y133074026D01*
X-72140351Y133077787D01*
X-72154641Y133100022D01*
X-72171942Y133119989D01*
X-72174230Y133130504D01*
X-72178125Y133136565D01*
X-72183148Y133171500D01*
X-72183148Y133373500D01*
X-72163463Y133440539D01*
X-72110659Y133486294D01*
X-72059148Y133497500D01*
X-71458149Y133497500D01*
X-71456279Y133499371D01*
X-71438464Y133560039D01*
X-71385660Y133605794D01*
X-71334149Y133617000D01*
X-70683956Y133617000D01*
X-70616917Y133597315D01*
G37*
%TD.AperFunction*%
%TA.AperFunction,Conductor*%
G36*
X-55150507Y136273577D02*
G01*
X-55118537Y136264807D01*
X-55117095Y136263321D01*
X-55115394Y136262799D01*
X-55107343Y136253275D01*
X-55076315Y136221311D01*
X-55008663Y136104135D01*
X-54901513Y135996985D01*
X-54880148Y135984650D01*
X-54831932Y135934083D01*
X-54818148Y135877263D01*
X-54818148Y135327500D01*
X-55318148Y135327500D01*
X-55318148Y136027500D01*
X-55327299Y136036651D01*
X-55360784Y136097974D01*
X-55355800Y136167666D01*
X-55313928Y136223599D01*
X-55305379Y136229458D01*
X-55296622Y136234937D01*
X-55288969Y136238106D01*
X-55251037Y136263452D01*
X-55249463Y136264436D01*
X-55217539Y136273389D01*
X-55185917Y136283290D01*
X-55184052Y136282779D01*
X-55182188Y136283301D01*
X-55150507Y136273577D01*
G37*
%TD.AperFunction*%
%TA.AperFunction,Conductor*%
G36*
X-60909342Y140260232D02*
G01*
X-60851046Y140225756D01*
X-60833089Y140220539D01*
X-60693222Y140179903D01*
X-60693219Y140179903D01*
X-60693217Y140179902D01*
X-60656342Y140177000D01*
X-60081990Y140177000D01*
X-60000082Y140177000D01*
X-59969625Y140168057D01*
X-59938721Y140160754D01*
X-59936336Y140158282D01*
X-59933043Y140157315D01*
X-59912262Y140133332D01*
X-59890206Y140110474D01*
X-59888662Y140106097D01*
X-59887288Y140104511D01*
X-59878466Y140077195D01*
X-59869575Y140032500D01*
X-59868320Y140026190D01*
X-59874549Y139956598D01*
X-59917412Y139901422D01*
X-59983302Y139878178D01*
X-59989938Y139878000D01*
X-60656350Y139878000D01*
X-60693216Y139875099D01*
X-60693222Y139875098D01*
X-60851042Y139829246D01*
X-60851045Y139829245D01*
X-60909342Y139794768D01*
X-60972463Y139777500D01*
X-61754148Y139777500D01*
X-61821187Y139797185D01*
X-61866942Y139849989D01*
X-61878148Y139901500D01*
X-61878148Y140153500D01*
X-61858463Y140220539D01*
X-61805659Y140266294D01*
X-61754148Y140277500D01*
X-60972463Y140277500D01*
X-60909342Y140260232D01*
G37*
%TD.AperFunction*%
%TA.AperFunction,Conductor*%
G36*
X-73768109Y146870315D02*
G01*
X-73722354Y146817511D01*
X-73711148Y146766000D01*
X-73711148Y146311799D01*
X-73708247Y146274937D01*
X-73708246Y146274927D01*
X-73662394Y146117107D01*
X-73662393Y146117104D01*
X-73662392Y146117102D01*
X-73627916Y146058806D01*
X-73610648Y145995686D01*
X-73610648Y145651362D01*
X-73613148Y145642849D01*
X-73613148Y145497500D01*
X-72913149Y145497500D01*
X-72913149Y145545808D01*
X-72913150Y145545826D01*
X-72917703Y145590399D01*
X-72904933Y145659092D01*
X-72857052Y145709976D01*
X-72794345Y145727000D01*
X-72694962Y145727000D01*
X-72694954Y145727000D01*
X-72658079Y145729902D01*
X-72658077Y145729903D01*
X-72658075Y145729903D01*
X-72605375Y145745214D01*
X-72500250Y145775756D01*
X-72408950Y145829751D01*
X-72341228Y145846933D01*
X-72274966Y145824773D01*
X-72241037Y145789308D01*
X-72235344Y145780307D01*
X-72231414Y145770821D01*
X-72192543Y145712646D01*
X-72191726Y145711355D01*
X-72182530Y145679184D01*
X-72172540Y145647279D01*
X-72172520Y145645065D01*
X-72172520Y141872303D01*
X-72147993Y141749003D01*
X-72147521Y141746628D01*
X-72098485Y141628245D01*
X-72027297Y141521703D01*
X-72027294Y141521699D01*
X-72027293Y141521698D01*
X-71740275Y141234681D01*
X-71706790Y141173358D01*
X-71711774Y141103667D01*
X-71753645Y141047733D01*
X-71819110Y141023316D01*
X-71827956Y141023000D01*
X-75760208Y141023000D01*
X-75827247Y141042685D01*
X-75847889Y141059319D01*
X-76242742Y141454172D01*
X-76276227Y141515495D01*
X-76273194Y141572795D01*
X-76274566Y141573088D01*
X-76273153Y141579693D01*
X-76273149Y141579703D01*
X-76262648Y141682491D01*
X-76262649Y141799562D01*
X-76242965Y141866600D01*
X-76226335Y141887237D01*
X-74601359Y143512211D01*
X-74513754Y143643321D01*
X-74453410Y143789003D01*
X-74422648Y143943658D01*
X-74422648Y144101343D01*
X-74432893Y144152849D01*
X-74426666Y144222438D01*
X-74383804Y144277616D01*
X-74317914Y144300861D01*
X-74272271Y144294745D01*
X-74235754Y144282644D01*
X-74136465Y144272501D01*
X-73613148Y144272501D01*
X-73589840Y144272501D01*
X-73589826Y144272502D01*
X-73490541Y144282645D01*
X-73329667Y144335953D01*
X-73329656Y144335958D01*
X-73185420Y144424925D01*
X-73185416Y144424928D01*
X-73065576Y144544768D01*
X-73065573Y144544772D01*
X-72976606Y144689008D01*
X-72976601Y144689019D01*
X-72923293Y144849894D01*
X-72913149Y144949178D01*
X-72913148Y144949191D01*
X-72913148Y144997500D01*
X-73613148Y144997500D01*
X-73613148Y144272501D01*
X-74136465Y144272501D01*
X-74113148Y144272502D01*
X-74113148Y145417508D01*
X-74101388Y145464282D01*
X-74103585Y145465192D01*
X-74070186Y145545826D01*
X-74040910Y145616503D01*
X-74010148Y145771158D01*
X-74010148Y145928843D01*
X-74010148Y146766000D01*
X-74007598Y146774686D01*
X-74008886Y146783647D01*
X-73997908Y146807688D01*
X-73990463Y146833039D01*
X-73983623Y146838967D01*
X-73979861Y146847203D01*
X-73957627Y146861493D01*
X-73937659Y146878794D01*
X-73927145Y146881082D01*
X-73921083Y146884977D01*
X-73886148Y146890000D01*
X-73835148Y146890000D01*
X-73768109Y146870315D01*
G37*
%TD.AperFunction*%
%TA.AperFunction,Conductor*%
G36*
X-64897471Y147437815D02*
G01*
X-64876829Y147421181D01*
X-64863148Y147407500D01*
X-64632148Y147407500D01*
X-64565109Y147387815D01*
X-64519354Y147335011D01*
X-64508148Y147283500D01*
X-64508148Y147157500D01*
X-64382148Y147157500D01*
X-64315109Y147137815D01*
X-64269354Y147085011D01*
X-64258148Y147033500D01*
X-64258148Y146257501D01*
X-64176567Y146257501D01*
X-64106046Y146263909D01*
X-64106041Y146263910D01*
X-63943750Y146314482D01*
X-63842783Y146375519D01*
X-63775228Y146393356D01*
X-63714487Y146375522D01*
X-63612754Y146314022D01*
X-63450344Y146263414D01*
X-63379764Y146257000D01*
X-63136839Y146257000D01*
X-62684082Y146257000D01*
X-62658407Y146249461D01*
X-62631940Y146245504D01*
X-62625394Y146239767D01*
X-62617043Y146237315D01*
X-62599523Y146217096D01*
X-62579393Y146199455D01*
X-62575230Y146189060D01*
X-62571288Y146184511D01*
X-62564911Y146167268D01*
X-62563478Y146162283D01*
X-62555199Y146120664D01*
X-62545811Y146098000D01*
X-62543137Y146091545D01*
X-62543134Y146091534D01*
X-62479784Y145938593D01*
X-62479777Y145938580D01*
X-62370288Y145774719D01*
X-62370285Y145774715D01*
X-62226611Y145631041D01*
X-62226589Y145631021D01*
X-62211018Y145615450D01*
X-62177533Y145554127D01*
X-62182517Y145484435D01*
X-62186310Y145475378D01*
X-62187961Y145471838D01*
X-62205964Y145417508D01*
X-62243147Y145305297D01*
X-62243147Y145305296D01*
X-62243148Y145305296D01*
X-62253648Y145202516D01*
X-62253648Y143326000D01*
X-62256199Y143317315D01*
X-62254910Y143308353D01*
X-62265889Y143284313D01*
X-62273333Y143258961D01*
X-62280174Y143253034D01*
X-62283935Y143244797D01*
X-62306170Y143230508D01*
X-62326137Y143213206D01*
X-62336652Y143210919D01*
X-62342713Y143207023D01*
X-62377648Y143202000D01*
X-62517091Y143202000D01*
X-62584130Y143221685D01*
X-62629885Y143274489D01*
X-62638708Y143301809D01*
X-62663410Y143425990D01*
X-62663411Y143425997D01*
X-62690319Y143490960D01*
X-62723751Y143571673D01*
X-62723758Y143571686D01*
X-62811359Y143702789D01*
X-62811362Y143702793D01*
X-62922856Y143814287D01*
X-62922860Y143814290D01*
X-63053963Y143901891D01*
X-63053976Y143901898D01*
X-63199647Y143962236D01*
X-63199657Y143962239D01*
X-63352840Y143992709D01*
X-63414751Y144025094D01*
X-63449325Y144085810D01*
X-63452648Y144114326D01*
X-63452648Y145202503D01*
X-63452649Y145202516D01*
X-63463149Y145305296D01*
X-63463149Y145305297D01*
X-63518334Y145471834D01*
X-63607568Y145616503D01*
X-63610435Y145621152D01*
X-63610438Y145621156D01*
X-63734493Y145745211D01*
X-63734497Y145745214D01*
X-63883811Y145837313D01*
X-63883813Y145837314D01*
X-64010990Y145879456D01*
X-64050351Y145892499D01*
X-64050353Y145892500D01*
X-64153133Y145903000D01*
X-64153140Y145903000D01*
X-65253156Y145903000D01*
X-65253164Y145903000D01*
X-65355944Y145892500D01*
X-65355945Y145892499D01*
X-65522484Y145837314D01*
X-65601969Y145788287D01*
X-65669362Y145769847D01*
X-65730186Y145787094D01*
X-65842952Y145853783D01*
X-65842955Y145853784D01*
X-66000653Y145899600D01*
X-66000659Y145899601D01*
X-66037499Y145902500D01*
X-66389621Y145902500D01*
X-66416945Y145910524D01*
X-66444979Y145915543D01*
X-66450038Y145920241D01*
X-66456660Y145922185D01*
X-66475305Y145943702D01*
X-66496179Y145963085D01*
X-66497896Y145969774D01*
X-66502415Y145974989D01*
X-66506468Y146003174D01*
X-66513548Y146030762D01*
X-66511822Y146040406D01*
X-66512359Y146044147D01*
X-66507327Y146065503D01*
X-66469206Y146180546D01*
X-66429434Y146237992D01*
X-66364918Y146264815D01*
X-66338896Y146264901D01*
X-66266464Y146257501D01*
X-65718148Y146257501D01*
X-65669840Y146257501D01*
X-65669826Y146257502D01*
X-65570541Y146267645D01*
X-65409667Y146320953D01*
X-65409660Y146320956D01*
X-65312548Y146380856D01*
X-65245155Y146399297D01*
X-65183300Y146381435D01*
X-65072544Y146314481D01*
X-65072545Y146314481D01*
X-64910254Y146263910D01*
X-64910256Y146263910D01*
X-64839730Y146257501D01*
X-64758149Y146257502D01*
X-64758148Y146257502D01*
X-64758148Y146907500D01*
X-65511786Y146907500D01*
X-65578825Y146927185D01*
X-65599467Y146943819D01*
X-65613148Y146957500D01*
X-65718148Y146957500D01*
X-65718148Y146257501D01*
X-66266464Y146257501D01*
X-66218149Y146257502D01*
X-66218148Y146257502D01*
X-66218148Y147083500D01*
X-66198463Y147150539D01*
X-66145659Y147196294D01*
X-66094148Y147207500D01*
X-65968148Y147207500D01*
X-65968148Y147333500D01*
X-65948463Y147400539D01*
X-65895659Y147446294D01*
X-65844148Y147457500D01*
X-64964510Y147457500D01*
X-64897471Y147437815D01*
G37*
%TD.AperFunction*%
%TA.AperFunction,Conductor*%
G36*
X-68660609Y149137315D02*
G01*
X-68614854Y149084511D01*
X-68603648Y149033000D01*
X-68603648Y147760382D01*
X-68603648Y147760372D01*
X-68603647Y147757492D01*
X-68597194Y147694315D01*
X-68597168Y147694055D01*
X-68603669Y147659932D01*
X-68609993Y147625908D01*
X-68610189Y147625701D01*
X-68610242Y147625420D01*
X-68634064Y147600329D01*
X-68657874Y147575024D01*
X-68658160Y147574947D01*
X-68658348Y147574748D01*
X-68663890Y147573391D01*
X-68720581Y147558000D01*
X-69231486Y147558000D01*
X-69231504Y147557999D01*
X-69274128Y147553644D01*
X-69342821Y147566414D01*
X-69393705Y147614295D01*
X-69410625Y147682085D01*
X-69410087Y147689606D01*
X-69403149Y147757517D01*
X-69403148Y147757527D01*
X-69403148Y148207500D01*
X-70354148Y148207500D01*
X-70421187Y148227185D01*
X-70466942Y148279989D01*
X-70478148Y148331500D01*
X-70478148Y148583500D01*
X-70458463Y148650539D01*
X-70405659Y148696294D01*
X-70354148Y148707500D01*
X-69403149Y148707500D01*
X-69403149Y149033000D01*
X-69383464Y149100039D01*
X-69330660Y149145794D01*
X-69279149Y149157000D01*
X-68727648Y149157000D01*
X-68660609Y149137315D01*
G37*
%TD.AperFunction*%
%TD*%
M02*
