%TF.GenerationSoftware,KiCad,Pcbnew,9.0.4*%
%TF.CreationDate,2026-01-28T15:28:05+01:00*%
%TF.ProjectId,ShiroFPV_Flight_Controller,53686972-6f46-4505-965f-466c69676874,2026-01-27*%
%TF.SameCoordinates,PX7bfa480PYb532b80*%
%TF.FileFunction,Paste,Top*%
%TF.FilePolarity,Positive*%
%FSLAX46Y46*%
G04 Gerber Fmt 4.6, Leading zero omitted, Abs format (unit mm)*
G04 Created by KiCad (PCBNEW 9.0.4) date 2026-01-28 15:28:05*
%MOMM*%
%LPD*%
G01*
G04 APERTURE LIST*
G04 Aperture macros list*
%AMRoundRect*
0 Rectangle with rounded corners*
0 $1 Rounding radius*
0 $2 $3 $4 $5 $6 $7 $8 $9 X,Y pos of 4 corners*
0 Add a 4 corners polygon primitive as box body*
4,1,4,$2,$3,$4,$5,$6,$7,$8,$9,$2,$3,0*
0 Add four circle primitives for the rounded corners*
1,1,$1+$1,$2,$3*
1,1,$1+$1,$4,$5*
1,1,$1+$1,$6,$7*
1,1,$1+$1,$8,$9*
0 Add four rect primitives between the rounded corners*
20,1,$1+$1,$2,$3,$4,$5,0*
20,1,$1+$1,$4,$5,$6,$7,0*
20,1,$1+$1,$6,$7,$8,$9,0*
20,1,$1+$1,$8,$9,$2,$3,0*%
G04 Aperture macros list end*
%ADD10RoundRect,0.200000X-0.275000X0.200000X-0.275000X-0.200000X0.275000X-0.200000X0.275000X0.200000X0*%
%ADD11RoundRect,0.218750X-0.256250X0.218750X-0.256250X-0.218750X0.256250X-0.218750X0.256250X0.218750X0*%
%ADD12RoundRect,0.225000X0.250000X-0.225000X0.250000X0.225000X-0.250000X0.225000X-0.250000X-0.225000X0*%
%ADD13RoundRect,0.225000X-0.250000X0.225000X-0.250000X-0.225000X0.250000X-0.225000X0.250000X0.225000X0*%
%ADD14R,0.355600X1.358900*%
%ADD15RoundRect,0.200000X0.275000X-0.200000X0.275000X0.200000X-0.275000X0.200000X-0.275000X-0.200000X0*%
%ADD16RoundRect,0.225000X0.225000X0.250000X-0.225000X0.250000X-0.225000X-0.250000X0.225000X-0.250000X0*%
%ADD17RoundRect,0.200000X-0.200000X-0.275000X0.200000X-0.275000X0.200000X0.275000X-0.200000X0.275000X0*%
%ADD18R,0.500000X0.350000*%
%ADD19R,1.240000X0.600000*%
%ADD20R,1.240000X0.300000*%
%ADD21RoundRect,0.200000X0.200000X0.275000X-0.200000X0.275000X-0.200000X-0.275000X0.200000X-0.275000X0*%
%ADD22RoundRect,0.250000X0.350000X-0.450000X0.350000X0.450000X-0.350000X0.450000X-0.350000X-0.450000X0*%
%ADD23RoundRect,0.162500X0.162500X-0.650000X0.162500X0.650000X-0.162500X0.650000X-0.162500X-0.650000X0*%
%ADD24RoundRect,0.087500X0.087500X-0.187500X0.087500X0.187500X-0.087500X0.187500X-0.087500X-0.187500X0*%
%ADD25RoundRect,0.087500X0.187500X-0.087500X0.187500X0.087500X-0.187500X0.087500X-0.187500X-0.087500X0*%
%ADD26RoundRect,0.225000X-0.225000X-0.250000X0.225000X-0.250000X0.225000X0.250000X-0.225000X0.250000X0*%
%ADD27RoundRect,0.075000X0.075000X-0.700000X0.075000X0.700000X-0.075000X0.700000X-0.075000X-0.700000X0*%
%ADD28RoundRect,0.075000X0.700000X-0.075000X0.700000X0.075000X-0.700000X0.075000X-0.700000X-0.075000X0*%
%ADD29R,0.406400X2.108200*%
G04 APERTURE END LIST*
D10*
%TO.C,R17*%
X-81463148Y132567500D03*
X-81463148Y130917500D03*
%TD*%
D11*
%TO.C,D2*%
X-75068148Y140111250D03*
X-75068148Y138536250D03*
%TD*%
D12*
%TO.C,C3*%
X-67775648Y142415000D03*
X-67775648Y143965000D03*
%TD*%
D13*
%TO.C,C1*%
X-67775648Y146930000D03*
X-67775648Y145380000D03*
%TD*%
D12*
%TO.C,C8*%
X-86248148Y142392500D03*
X-86248148Y143942500D03*
%TD*%
D14*
%TO.C,U10*%
X-87123148Y134840150D03*
X-86473147Y134840150D03*
X-85823148Y134840150D03*
X-85173147Y134840150D03*
X-84523149Y134840150D03*
X-83873147Y134840150D03*
X-83223149Y134840150D03*
X-82573150Y134840150D03*
X-81923149Y134840150D03*
X-81273150Y134840150D03*
X-80623149Y134840150D03*
X-79973150Y134840150D03*
X-79323149Y134840150D03*
X-78673150Y134840150D03*
X-78673148Y140694850D03*
X-79323149Y140694850D03*
X-79973148Y140694850D03*
X-80623149Y140694850D03*
X-81273147Y140694850D03*
X-81923149Y140694850D03*
X-82573147Y140694850D03*
X-83223149Y140694850D03*
X-83873147Y140694850D03*
X-84523149Y140694850D03*
X-85173147Y140694850D03*
X-85823148Y140694850D03*
X-86473147Y140694850D03*
X-87123148Y140694850D03*
%TD*%
D12*
%TO.C,C39*%
X-70685648Y142415000D03*
X-70685648Y143965000D03*
%TD*%
D15*
%TO.C,R16*%
X-75068148Y141463750D03*
X-75068148Y143113750D03*
%TD*%
D16*
%TO.C,C7*%
X-85243148Y130202500D03*
X-86793148Y130202500D03*
%TD*%
D17*
%TO.C,R3*%
X-83403148Y143917500D03*
X-81753148Y143917500D03*
%TD*%
D18*
%TO.C,U4*%
X-81678148Y127877500D03*
X-81678148Y128527500D03*
X-81678148Y129177500D03*
X-81678148Y129827500D03*
X-79628148Y129827500D03*
X-79628148Y129177500D03*
X-79628148Y128527500D03*
X-79628148Y127877500D03*
%TD*%
D10*
%TO.C,R19*%
X-55378148Y127767500D03*
X-55378148Y126117500D03*
%TD*%
D16*
%TO.C,C12*%
X-85243348Y131665100D03*
X-86793348Y131665100D03*
%TD*%
%TO.C,C31*%
X-76413148Y129562500D03*
X-77963148Y129562500D03*
%TD*%
D19*
%TO.C,P1*%
X-55668148Y136147500D03*
X-55668148Y136947500D03*
D20*
X-55668148Y138097500D03*
X-55668148Y139097500D03*
X-55668148Y139597500D03*
X-55668148Y140597500D03*
D19*
X-55668148Y141747500D03*
X-55668148Y142547500D03*
X-55668148Y142547500D03*
X-55668148Y141747500D03*
D20*
X-55668148Y141097500D03*
X-55668148Y140097500D03*
X-55668148Y138597500D03*
X-55668148Y137597500D03*
D19*
X-55668148Y136947500D03*
X-55668148Y136147500D03*
%TD*%
D10*
%TO.C,R4*%
X-78920748Y143992300D03*
X-78920748Y142342300D03*
%TD*%
D16*
%TO.C,C26*%
X-74363148Y127512500D03*
X-75913148Y127512500D03*
%TD*%
D15*
%TO.C,R6*%
X-63843148Y139592500D03*
X-63843148Y141242500D03*
%TD*%
D21*
%TO.C,R12*%
X-57448148Y138797500D03*
X-59098148Y138797500D03*
%TD*%
D13*
%TO.C,C6*%
X-69230648Y143965000D03*
X-69230648Y142415000D03*
%TD*%
D12*
%TO.C,C23*%
X-62383148Y138552500D03*
X-62383148Y140102500D03*
%TD*%
%TO.C,C27*%
X-73603148Y139647500D03*
X-73603148Y141197500D03*
%TD*%
D21*
%TO.C,R20*%
X-52388148Y132247500D03*
X-54038148Y132247500D03*
%TD*%
D10*
%TO.C,R29*%
X-80003148Y132567500D03*
X-80003148Y130917500D03*
%TD*%
D16*
%TO.C,C28*%
X-74363148Y126052500D03*
X-75913148Y126052500D03*
%TD*%
D15*
%TO.C,R14*%
X-57523148Y134682500D03*
X-57523148Y136332500D03*
%TD*%
%TO.C,R15*%
X-76523148Y141463750D03*
X-76523148Y143113750D03*
%TD*%
D11*
%TO.C,D3*%
X-76523148Y140111250D03*
X-76523148Y138536250D03*
%TD*%
D13*
%TO.C,C25*%
X-60628148Y130512500D03*
X-60628148Y128962500D03*
%TD*%
D22*
%TO.C,Y2*%
X-84828148Y126272500D03*
X-84828148Y128472500D03*
X-86528148Y128472500D03*
X-86528148Y126272500D03*
%TD*%
D23*
%TO.C,U8*%
X-53658148Y123280000D03*
X-52388148Y123280000D03*
X-51118148Y123280000D03*
X-49848148Y123280000D03*
X-49848148Y130455000D03*
X-51118148Y130455000D03*
X-52388148Y130455000D03*
X-53658148Y130455000D03*
%TD*%
D24*
%TO.C,U3*%
X-66293148Y143657500D03*
X-65793148Y143657500D03*
X-65293148Y143657500D03*
X-64793148Y143657500D03*
X-64293148Y143657500D03*
D25*
X-64068148Y144382500D03*
X-64068148Y144882500D03*
X-64068148Y145382500D03*
D24*
X-64293148Y146107500D03*
X-64793148Y146107500D03*
X-65293148Y146107500D03*
X-65793148Y146107500D03*
X-66293148Y146107500D03*
D25*
X-66518148Y145382500D03*
X-66518148Y144882500D03*
X-66518148Y144382500D03*
%TD*%
D26*
%TO.C,C13*%
X-86793148Y133127500D03*
X-85243148Y133127500D03*
%TD*%
D27*
%TO.C,U1*%
X-72473148Y128012500D03*
X-71973148Y128012500D03*
X-71473148Y128012500D03*
X-70973148Y128012500D03*
X-70473148Y128012500D03*
X-69973148Y128012500D03*
X-69473148Y128012500D03*
X-68973148Y128012500D03*
X-68473148Y128012500D03*
X-67973148Y128012500D03*
X-67473148Y128012500D03*
X-66973148Y128012500D03*
X-66473148Y128012500D03*
X-65973148Y128012500D03*
X-65473148Y128012500D03*
X-64973148Y128012500D03*
D28*
X-63048148Y129937500D03*
X-63048148Y130437500D03*
X-63048148Y130937500D03*
X-63048148Y131437500D03*
X-63048148Y131937500D03*
X-63048148Y132437500D03*
X-63048148Y132937500D03*
X-63048148Y133437500D03*
X-63048148Y133937500D03*
X-63048148Y134437500D03*
X-63048148Y134937500D03*
X-63048148Y135437500D03*
X-63048148Y135937500D03*
X-63048148Y136437500D03*
X-63048148Y136937500D03*
X-63048148Y137437500D03*
D27*
X-64973148Y139362500D03*
X-65473148Y139362500D03*
X-65973148Y139362500D03*
X-66473148Y139362500D03*
X-66973148Y139362500D03*
X-67473148Y139362500D03*
X-67973148Y139362500D03*
X-68473148Y139362500D03*
X-68973148Y139362500D03*
X-69473148Y139362500D03*
X-69973148Y139362500D03*
X-70473148Y139362500D03*
X-70973148Y139362500D03*
X-71473148Y139362500D03*
X-71973148Y139362500D03*
X-72473148Y139362500D03*
D28*
X-74398148Y137437500D03*
X-74398148Y136937500D03*
X-74398148Y136437500D03*
X-74398148Y135937500D03*
X-74398148Y135437500D03*
X-74398148Y134937500D03*
X-74398148Y134437500D03*
X-74398148Y133937500D03*
X-74398148Y133437500D03*
X-74398148Y132937500D03*
X-74398148Y132437500D03*
X-74398148Y131937500D03*
X-74398148Y131437500D03*
X-74398148Y130937500D03*
X-74398148Y130437500D03*
X-74398148Y129937500D03*
%TD*%
D29*
%TO.C,C32*%
X-70613148Y125247500D03*
X-71813148Y125247500D03*
X-73013148Y125247500D03*
%TD*%
D21*
%TO.C,R13*%
X-57448148Y140257500D03*
X-59098148Y140257500D03*
%TD*%
D12*
%TO.C,C11*%
X-80373148Y142832500D03*
X-80373148Y144382500D03*
%TD*%
%TO.C,C9*%
X-84788148Y142392500D03*
X-84788148Y143942500D03*
%TD*%
D13*
%TO.C,C10*%
X-82923148Y129692500D03*
X-82923148Y128142500D03*
%TD*%
D16*
%TO.C,C29*%
X-67838148Y124407500D03*
X-69388148Y124407500D03*
%TD*%
M02*
